G75*
%MOIN*%
%OFA0B0*%
%FSLAX25Y25*%
%IPPOS*%
%LPD*%
%AMOC8*
5,1,8,0,0,1.08239X$1,22.5*
%
%ADD10C,0.00000*%
%ADD11C,0.00600*%
%ADD12C,0.00400*%
%ADD13C,0.00800*%
%ADD14C,0.00500*%
%ADD15R,0.01600X0.03400*%
%ADD16R,0.03740X0.01969*%
%ADD17R,0.01969X0.03740*%
%ADD18R,0.01378X0.03150*%
%ADD19C,0.00300*%
%ADD20R,0.03400X0.01600*%
D10*
X0021599Y0031300D02*
X0081300Y0031300D01*
X0081440Y0031302D01*
X0081580Y0031308D01*
X0081720Y0031318D01*
X0081860Y0031331D01*
X0081999Y0031349D01*
X0082138Y0031371D01*
X0082275Y0031396D01*
X0082413Y0031425D01*
X0082549Y0031458D01*
X0082684Y0031495D01*
X0082818Y0031536D01*
X0082951Y0031581D01*
X0083083Y0031629D01*
X0083213Y0031681D01*
X0083342Y0031736D01*
X0083469Y0031795D01*
X0083595Y0031858D01*
X0083719Y0031924D01*
X0083840Y0031993D01*
X0083960Y0032066D01*
X0084078Y0032143D01*
X0084193Y0032222D01*
X0084307Y0032305D01*
X0084417Y0032391D01*
X0084526Y0032480D01*
X0084632Y0032572D01*
X0084735Y0032667D01*
X0084836Y0032764D01*
X0084933Y0032865D01*
X0085028Y0032968D01*
X0085120Y0033074D01*
X0085209Y0033183D01*
X0085295Y0033293D01*
X0085378Y0033407D01*
X0085457Y0033522D01*
X0085534Y0033640D01*
X0085607Y0033760D01*
X0085676Y0033881D01*
X0085742Y0034005D01*
X0085805Y0034131D01*
X0085864Y0034258D01*
X0085919Y0034387D01*
X0085971Y0034517D01*
X0086019Y0034649D01*
X0086064Y0034782D01*
X0086105Y0034916D01*
X0086142Y0035051D01*
X0086175Y0035187D01*
X0086204Y0035325D01*
X0086229Y0035462D01*
X0086251Y0035601D01*
X0086269Y0035740D01*
X0086282Y0035880D01*
X0086292Y0036020D01*
X0086298Y0036160D01*
X0086300Y0036300D01*
X0086300Y0051300D01*
X0086302Y0051440D01*
X0086308Y0051580D01*
X0086318Y0051720D01*
X0086331Y0051860D01*
X0086349Y0051999D01*
X0086371Y0052138D01*
X0086396Y0052275D01*
X0086425Y0052413D01*
X0086458Y0052549D01*
X0086495Y0052684D01*
X0086536Y0052818D01*
X0086581Y0052951D01*
X0086629Y0053083D01*
X0086681Y0053213D01*
X0086736Y0053342D01*
X0086795Y0053469D01*
X0086858Y0053595D01*
X0086924Y0053719D01*
X0086993Y0053840D01*
X0087066Y0053960D01*
X0087143Y0054078D01*
X0087222Y0054193D01*
X0087305Y0054307D01*
X0087391Y0054417D01*
X0087480Y0054526D01*
X0087572Y0054632D01*
X0087667Y0054735D01*
X0087764Y0054836D01*
X0087865Y0054933D01*
X0087968Y0055028D01*
X0088074Y0055120D01*
X0088183Y0055209D01*
X0088293Y0055295D01*
X0088407Y0055378D01*
X0088522Y0055457D01*
X0088640Y0055534D01*
X0088760Y0055607D01*
X0088881Y0055676D01*
X0089005Y0055742D01*
X0089131Y0055805D01*
X0089258Y0055864D01*
X0089387Y0055919D01*
X0089517Y0055971D01*
X0089649Y0056019D01*
X0089782Y0056064D01*
X0089916Y0056105D01*
X0090051Y0056142D01*
X0090187Y0056175D01*
X0090325Y0056204D01*
X0090462Y0056229D01*
X0090601Y0056251D01*
X0090740Y0056269D01*
X0090880Y0056282D01*
X0091020Y0056292D01*
X0091160Y0056298D01*
X0091300Y0056300D01*
X0138800Y0056300D01*
X0138940Y0056284D01*
X0139080Y0056264D01*
X0139218Y0056240D01*
X0139357Y0056213D01*
X0139494Y0056181D01*
X0139630Y0056146D01*
X0139766Y0056106D01*
X0139900Y0056063D01*
X0140033Y0056017D01*
X0140165Y0055966D01*
X0140295Y0055912D01*
X0140423Y0055854D01*
X0140550Y0055793D01*
X0140675Y0055728D01*
X0140799Y0055660D01*
X0140920Y0055588D01*
X0141039Y0055513D01*
X0141156Y0055434D01*
X0141271Y0055353D01*
X0141384Y0055268D01*
X0141494Y0055180D01*
X0141601Y0055089D01*
X0141706Y0054994D01*
X0141808Y0054897D01*
X0141908Y0054798D01*
X0142005Y0054695D01*
X0142098Y0054590D01*
X0142189Y0054482D01*
X0142277Y0054372D01*
X0142361Y0054259D01*
X0142443Y0054144D01*
X0142521Y0054027D01*
X0142596Y0053907D01*
X0142667Y0053786D01*
X0142735Y0053662D01*
X0142800Y0053537D01*
X0142861Y0053410D01*
X0142918Y0053281D01*
X0142972Y0053151D01*
X0143022Y0053019D01*
X0143068Y0052886D01*
X0143111Y0052751D01*
X0143150Y0052616D01*
X0143185Y0052479D01*
X0143216Y0052342D01*
X0143243Y0052204D01*
X0143266Y0052065D01*
X0143286Y0051925D01*
X0143302Y0051785D01*
X0143313Y0051645D01*
X0143321Y0051504D01*
X0143325Y0051363D01*
X0143324Y0051222D01*
X0143320Y0051081D01*
X0143312Y0050940D01*
X0143300Y0050800D01*
X0143300Y0035800D01*
X0143302Y0035667D01*
X0143308Y0035533D01*
X0143318Y0035400D01*
X0143332Y0035268D01*
X0143349Y0035136D01*
X0143371Y0035004D01*
X0143396Y0034873D01*
X0143426Y0034743D01*
X0143459Y0034614D01*
X0143496Y0034486D01*
X0143537Y0034359D01*
X0143582Y0034233D01*
X0143630Y0034109D01*
X0143682Y0033986D01*
X0143737Y0033865D01*
X0143797Y0033745D01*
X0143859Y0033627D01*
X0143925Y0033512D01*
X0143995Y0033398D01*
X0144068Y0033286D01*
X0144144Y0033177D01*
X0144223Y0033069D01*
X0144306Y0032965D01*
X0144391Y0032862D01*
X0144480Y0032763D01*
X0144571Y0032666D01*
X0144666Y0032571D01*
X0144763Y0032480D01*
X0144862Y0032391D01*
X0144965Y0032306D01*
X0145069Y0032223D01*
X0145177Y0032144D01*
X0145286Y0032068D01*
X0145398Y0031995D01*
X0145512Y0031925D01*
X0145627Y0031859D01*
X0145745Y0031797D01*
X0145865Y0031737D01*
X0145986Y0031682D01*
X0146109Y0031630D01*
X0146233Y0031582D01*
X0146359Y0031537D01*
X0146486Y0031496D01*
X0146614Y0031459D01*
X0146743Y0031426D01*
X0146873Y0031396D01*
X0147004Y0031371D01*
X0147136Y0031349D01*
X0147268Y0031332D01*
X0147400Y0031318D01*
X0147533Y0031308D01*
X0147667Y0031302D01*
X0147800Y0031300D01*
X0218450Y0031300D01*
X0218450Y0169095D01*
X0021599Y0169095D01*
X0021599Y0031300D01*
X0028220Y0157284D02*
X0028222Y0157424D01*
X0028228Y0157564D01*
X0028238Y0157703D01*
X0028252Y0157842D01*
X0028270Y0157981D01*
X0028291Y0158119D01*
X0028317Y0158257D01*
X0028347Y0158394D01*
X0028380Y0158529D01*
X0028418Y0158664D01*
X0028459Y0158798D01*
X0028504Y0158931D01*
X0028552Y0159062D01*
X0028605Y0159191D01*
X0028661Y0159320D01*
X0028720Y0159446D01*
X0028784Y0159571D01*
X0028850Y0159694D01*
X0028921Y0159815D01*
X0028994Y0159934D01*
X0029071Y0160051D01*
X0029152Y0160165D01*
X0029235Y0160277D01*
X0029322Y0160387D01*
X0029412Y0160495D01*
X0029504Y0160599D01*
X0029600Y0160701D01*
X0029699Y0160801D01*
X0029800Y0160897D01*
X0029904Y0160991D01*
X0030011Y0161081D01*
X0030120Y0161168D01*
X0030232Y0161253D01*
X0030346Y0161334D01*
X0030462Y0161412D01*
X0030580Y0161486D01*
X0030701Y0161557D01*
X0030823Y0161625D01*
X0030948Y0161689D01*
X0031074Y0161750D01*
X0031201Y0161807D01*
X0031331Y0161860D01*
X0031462Y0161910D01*
X0031594Y0161955D01*
X0031727Y0161998D01*
X0031862Y0162036D01*
X0031997Y0162070D01*
X0032134Y0162101D01*
X0032271Y0162128D01*
X0032409Y0162150D01*
X0032548Y0162169D01*
X0032687Y0162184D01*
X0032826Y0162195D01*
X0032966Y0162202D01*
X0033106Y0162205D01*
X0033246Y0162204D01*
X0033386Y0162199D01*
X0033525Y0162190D01*
X0033665Y0162177D01*
X0033804Y0162160D01*
X0033942Y0162139D01*
X0034080Y0162115D01*
X0034217Y0162086D01*
X0034353Y0162054D01*
X0034488Y0162017D01*
X0034622Y0161977D01*
X0034755Y0161933D01*
X0034886Y0161885D01*
X0035016Y0161834D01*
X0035145Y0161779D01*
X0035272Y0161720D01*
X0035397Y0161657D01*
X0035520Y0161592D01*
X0035642Y0161522D01*
X0035761Y0161449D01*
X0035879Y0161373D01*
X0035994Y0161294D01*
X0036107Y0161211D01*
X0036217Y0161125D01*
X0036325Y0161036D01*
X0036430Y0160944D01*
X0036533Y0160849D01*
X0036633Y0160751D01*
X0036730Y0160651D01*
X0036824Y0160547D01*
X0036916Y0160441D01*
X0037004Y0160333D01*
X0037089Y0160222D01*
X0037171Y0160108D01*
X0037250Y0159992D01*
X0037325Y0159875D01*
X0037397Y0159755D01*
X0037465Y0159633D01*
X0037530Y0159509D01*
X0037592Y0159383D01*
X0037650Y0159256D01*
X0037704Y0159127D01*
X0037755Y0158996D01*
X0037801Y0158864D01*
X0037844Y0158731D01*
X0037884Y0158597D01*
X0037919Y0158462D01*
X0037951Y0158325D01*
X0037978Y0158188D01*
X0038002Y0158050D01*
X0038022Y0157912D01*
X0038038Y0157773D01*
X0038050Y0157633D01*
X0038058Y0157494D01*
X0038062Y0157354D01*
X0038062Y0157214D01*
X0038058Y0157074D01*
X0038050Y0156935D01*
X0038038Y0156795D01*
X0038022Y0156656D01*
X0038002Y0156518D01*
X0037978Y0156380D01*
X0037951Y0156243D01*
X0037919Y0156106D01*
X0037884Y0155971D01*
X0037844Y0155837D01*
X0037801Y0155704D01*
X0037755Y0155572D01*
X0037704Y0155441D01*
X0037650Y0155312D01*
X0037592Y0155185D01*
X0037530Y0155059D01*
X0037465Y0154935D01*
X0037397Y0154813D01*
X0037325Y0154693D01*
X0037250Y0154576D01*
X0037171Y0154460D01*
X0037089Y0154346D01*
X0037004Y0154235D01*
X0036916Y0154127D01*
X0036824Y0154021D01*
X0036730Y0153917D01*
X0036633Y0153817D01*
X0036533Y0153719D01*
X0036430Y0153624D01*
X0036325Y0153532D01*
X0036217Y0153443D01*
X0036107Y0153357D01*
X0035994Y0153274D01*
X0035879Y0153195D01*
X0035761Y0153119D01*
X0035642Y0153046D01*
X0035520Y0152976D01*
X0035397Y0152911D01*
X0035272Y0152848D01*
X0035145Y0152789D01*
X0035016Y0152734D01*
X0034886Y0152683D01*
X0034755Y0152635D01*
X0034622Y0152591D01*
X0034488Y0152551D01*
X0034353Y0152514D01*
X0034217Y0152482D01*
X0034080Y0152453D01*
X0033942Y0152429D01*
X0033804Y0152408D01*
X0033665Y0152391D01*
X0033525Y0152378D01*
X0033386Y0152369D01*
X0033246Y0152364D01*
X0033106Y0152363D01*
X0032966Y0152366D01*
X0032826Y0152373D01*
X0032687Y0152384D01*
X0032548Y0152399D01*
X0032409Y0152418D01*
X0032271Y0152440D01*
X0032134Y0152467D01*
X0031997Y0152498D01*
X0031862Y0152532D01*
X0031727Y0152570D01*
X0031594Y0152613D01*
X0031462Y0152658D01*
X0031331Y0152708D01*
X0031201Y0152761D01*
X0031074Y0152818D01*
X0030948Y0152879D01*
X0030823Y0152943D01*
X0030701Y0153011D01*
X0030580Y0153082D01*
X0030462Y0153156D01*
X0030346Y0153234D01*
X0030232Y0153315D01*
X0030120Y0153400D01*
X0030011Y0153487D01*
X0029904Y0153577D01*
X0029800Y0153671D01*
X0029699Y0153767D01*
X0029600Y0153867D01*
X0029504Y0153969D01*
X0029412Y0154073D01*
X0029322Y0154181D01*
X0029235Y0154291D01*
X0029152Y0154403D01*
X0029071Y0154517D01*
X0028994Y0154634D01*
X0028921Y0154753D01*
X0028850Y0154874D01*
X0028784Y0154997D01*
X0028720Y0155122D01*
X0028661Y0155248D01*
X0028605Y0155377D01*
X0028552Y0155506D01*
X0028504Y0155637D01*
X0028459Y0155770D01*
X0028418Y0155904D01*
X0028380Y0156039D01*
X0028347Y0156174D01*
X0028317Y0156311D01*
X0028291Y0156449D01*
X0028270Y0156587D01*
X0028252Y0156726D01*
X0028238Y0156865D01*
X0028228Y0157004D01*
X0028222Y0157144D01*
X0028220Y0157284D01*
X0201718Y0157284D02*
X0201720Y0157424D01*
X0201726Y0157564D01*
X0201736Y0157703D01*
X0201750Y0157842D01*
X0201768Y0157981D01*
X0201789Y0158119D01*
X0201815Y0158257D01*
X0201845Y0158394D01*
X0201878Y0158529D01*
X0201916Y0158664D01*
X0201957Y0158798D01*
X0202002Y0158931D01*
X0202050Y0159062D01*
X0202103Y0159191D01*
X0202159Y0159320D01*
X0202218Y0159446D01*
X0202282Y0159571D01*
X0202348Y0159694D01*
X0202419Y0159815D01*
X0202492Y0159934D01*
X0202569Y0160051D01*
X0202650Y0160165D01*
X0202733Y0160277D01*
X0202820Y0160387D01*
X0202910Y0160495D01*
X0203002Y0160599D01*
X0203098Y0160701D01*
X0203197Y0160801D01*
X0203298Y0160897D01*
X0203402Y0160991D01*
X0203509Y0161081D01*
X0203618Y0161168D01*
X0203730Y0161253D01*
X0203844Y0161334D01*
X0203960Y0161412D01*
X0204078Y0161486D01*
X0204199Y0161557D01*
X0204321Y0161625D01*
X0204446Y0161689D01*
X0204572Y0161750D01*
X0204699Y0161807D01*
X0204829Y0161860D01*
X0204960Y0161910D01*
X0205092Y0161955D01*
X0205225Y0161998D01*
X0205360Y0162036D01*
X0205495Y0162070D01*
X0205632Y0162101D01*
X0205769Y0162128D01*
X0205907Y0162150D01*
X0206046Y0162169D01*
X0206185Y0162184D01*
X0206324Y0162195D01*
X0206464Y0162202D01*
X0206604Y0162205D01*
X0206744Y0162204D01*
X0206884Y0162199D01*
X0207023Y0162190D01*
X0207163Y0162177D01*
X0207302Y0162160D01*
X0207440Y0162139D01*
X0207578Y0162115D01*
X0207715Y0162086D01*
X0207851Y0162054D01*
X0207986Y0162017D01*
X0208120Y0161977D01*
X0208253Y0161933D01*
X0208384Y0161885D01*
X0208514Y0161834D01*
X0208643Y0161779D01*
X0208770Y0161720D01*
X0208895Y0161657D01*
X0209018Y0161592D01*
X0209140Y0161522D01*
X0209259Y0161449D01*
X0209377Y0161373D01*
X0209492Y0161294D01*
X0209605Y0161211D01*
X0209715Y0161125D01*
X0209823Y0161036D01*
X0209928Y0160944D01*
X0210031Y0160849D01*
X0210131Y0160751D01*
X0210228Y0160651D01*
X0210322Y0160547D01*
X0210414Y0160441D01*
X0210502Y0160333D01*
X0210587Y0160222D01*
X0210669Y0160108D01*
X0210748Y0159992D01*
X0210823Y0159875D01*
X0210895Y0159755D01*
X0210963Y0159633D01*
X0211028Y0159509D01*
X0211090Y0159383D01*
X0211148Y0159256D01*
X0211202Y0159127D01*
X0211253Y0158996D01*
X0211299Y0158864D01*
X0211342Y0158731D01*
X0211382Y0158597D01*
X0211417Y0158462D01*
X0211449Y0158325D01*
X0211476Y0158188D01*
X0211500Y0158050D01*
X0211520Y0157912D01*
X0211536Y0157773D01*
X0211548Y0157633D01*
X0211556Y0157494D01*
X0211560Y0157354D01*
X0211560Y0157214D01*
X0211556Y0157074D01*
X0211548Y0156935D01*
X0211536Y0156795D01*
X0211520Y0156656D01*
X0211500Y0156518D01*
X0211476Y0156380D01*
X0211449Y0156243D01*
X0211417Y0156106D01*
X0211382Y0155971D01*
X0211342Y0155837D01*
X0211299Y0155704D01*
X0211253Y0155572D01*
X0211202Y0155441D01*
X0211148Y0155312D01*
X0211090Y0155185D01*
X0211028Y0155059D01*
X0210963Y0154935D01*
X0210895Y0154813D01*
X0210823Y0154693D01*
X0210748Y0154576D01*
X0210669Y0154460D01*
X0210587Y0154346D01*
X0210502Y0154235D01*
X0210414Y0154127D01*
X0210322Y0154021D01*
X0210228Y0153917D01*
X0210131Y0153817D01*
X0210031Y0153719D01*
X0209928Y0153624D01*
X0209823Y0153532D01*
X0209715Y0153443D01*
X0209605Y0153357D01*
X0209492Y0153274D01*
X0209377Y0153195D01*
X0209259Y0153119D01*
X0209140Y0153046D01*
X0209018Y0152976D01*
X0208895Y0152911D01*
X0208770Y0152848D01*
X0208643Y0152789D01*
X0208514Y0152734D01*
X0208384Y0152683D01*
X0208253Y0152635D01*
X0208120Y0152591D01*
X0207986Y0152551D01*
X0207851Y0152514D01*
X0207715Y0152482D01*
X0207578Y0152453D01*
X0207440Y0152429D01*
X0207302Y0152408D01*
X0207163Y0152391D01*
X0207023Y0152378D01*
X0206884Y0152369D01*
X0206744Y0152364D01*
X0206604Y0152363D01*
X0206464Y0152366D01*
X0206324Y0152373D01*
X0206185Y0152384D01*
X0206046Y0152399D01*
X0205907Y0152418D01*
X0205769Y0152440D01*
X0205632Y0152467D01*
X0205495Y0152498D01*
X0205360Y0152532D01*
X0205225Y0152570D01*
X0205092Y0152613D01*
X0204960Y0152658D01*
X0204829Y0152708D01*
X0204699Y0152761D01*
X0204572Y0152818D01*
X0204446Y0152879D01*
X0204321Y0152943D01*
X0204199Y0153011D01*
X0204078Y0153082D01*
X0203960Y0153156D01*
X0203844Y0153234D01*
X0203730Y0153315D01*
X0203618Y0153400D01*
X0203509Y0153487D01*
X0203402Y0153577D01*
X0203298Y0153671D01*
X0203197Y0153767D01*
X0203098Y0153867D01*
X0203002Y0153969D01*
X0202910Y0154073D01*
X0202820Y0154181D01*
X0202733Y0154291D01*
X0202650Y0154403D01*
X0202569Y0154517D01*
X0202492Y0154634D01*
X0202419Y0154753D01*
X0202348Y0154874D01*
X0202282Y0154997D01*
X0202218Y0155122D01*
X0202159Y0155248D01*
X0202103Y0155377D01*
X0202050Y0155506D01*
X0202002Y0155637D01*
X0201957Y0155770D01*
X0201916Y0155904D01*
X0201878Y0156039D01*
X0201845Y0156174D01*
X0201815Y0156311D01*
X0201789Y0156449D01*
X0201768Y0156587D01*
X0201750Y0156726D01*
X0201736Y0156865D01*
X0201726Y0157004D01*
X0201720Y0157144D01*
X0201718Y0157284D01*
D11*
X0129501Y0103702D02*
X0126099Y0103702D01*
X0126099Y0100898D02*
X0129501Y0100898D01*
X0129501Y0094702D02*
X0126099Y0094702D01*
X0126099Y0091898D02*
X0129501Y0091898D01*
X0116001Y0091898D02*
X0112599Y0091898D01*
X0112599Y0094702D02*
X0116001Y0094702D01*
X0116001Y0100898D02*
X0112599Y0100898D01*
X0112599Y0103702D02*
X0116001Y0103702D01*
X0102501Y0103702D02*
X0099099Y0103702D01*
X0099099Y0100898D02*
X0102501Y0100898D01*
X0102501Y0094702D02*
X0099099Y0094702D01*
X0099099Y0091898D02*
X0102501Y0091898D01*
X0073501Y0106898D02*
X0070099Y0106898D01*
X0070099Y0109702D02*
X0073501Y0109702D01*
X0042501Y0115898D02*
X0039099Y0115898D01*
X0039099Y0118702D02*
X0042501Y0118702D01*
X0049099Y0083202D02*
X0052501Y0083202D01*
X0052501Y0080398D02*
X0049099Y0080398D01*
X0063235Y0067347D02*
X0065640Y0064942D01*
X0063658Y0062960D02*
X0061253Y0065365D01*
X0075100Y0067000D02*
X0075100Y0060600D01*
X0077233Y0063444D02*
X0079367Y0067000D01*
X0079367Y0060600D01*
X0081869Y0060600D02*
X0084003Y0067000D01*
X0086136Y0060600D01*
X0085603Y0062200D02*
X0082403Y0062200D01*
X0077233Y0063444D02*
X0075100Y0067000D01*
X0088215Y0067000D02*
X0089637Y0067000D01*
X0088926Y0067000D02*
X0088926Y0060600D01*
X0088215Y0060600D02*
X0089637Y0060600D01*
X0092277Y0060600D02*
X0092277Y0067000D01*
X0095832Y0060600D01*
X0095832Y0067000D01*
X0041001Y0063702D02*
X0037599Y0063702D01*
X0037599Y0060898D02*
X0041001Y0060898D01*
X0189898Y0064599D02*
X0189898Y0068001D01*
X0192702Y0068001D02*
X0192702Y0064599D01*
X0198600Y0066500D02*
X0198600Y0060100D01*
X0198600Y0062589D02*
X0202156Y0066500D01*
X0204754Y0066500D02*
X0206532Y0066500D01*
X0206606Y0066498D01*
X0206681Y0066492D01*
X0206754Y0066482D01*
X0206828Y0066469D01*
X0206900Y0066452D01*
X0206971Y0066430D01*
X0207042Y0066406D01*
X0207110Y0066377D01*
X0207178Y0066345D01*
X0207243Y0066309D01*
X0207306Y0066271D01*
X0207368Y0066228D01*
X0207427Y0066183D01*
X0207484Y0066135D01*
X0207538Y0066084D01*
X0207589Y0066030D01*
X0207637Y0065973D01*
X0207682Y0065914D01*
X0207725Y0065852D01*
X0207763Y0065789D01*
X0207799Y0065724D01*
X0207831Y0065656D01*
X0207860Y0065588D01*
X0207884Y0065517D01*
X0207906Y0065446D01*
X0207923Y0065374D01*
X0207936Y0065300D01*
X0207946Y0065227D01*
X0207952Y0065152D01*
X0207954Y0065078D01*
X0207952Y0065004D01*
X0207946Y0064929D01*
X0207936Y0064856D01*
X0207923Y0064782D01*
X0207906Y0064710D01*
X0207884Y0064639D01*
X0207860Y0064568D01*
X0207831Y0064500D01*
X0207799Y0064432D01*
X0207763Y0064367D01*
X0207725Y0064304D01*
X0207682Y0064242D01*
X0207637Y0064183D01*
X0207589Y0064126D01*
X0207538Y0064072D01*
X0207484Y0064021D01*
X0207427Y0063973D01*
X0207368Y0063928D01*
X0207306Y0063885D01*
X0207243Y0063847D01*
X0207178Y0063811D01*
X0207110Y0063779D01*
X0207042Y0063750D01*
X0206971Y0063726D01*
X0206900Y0063704D01*
X0206828Y0063687D01*
X0206754Y0063674D01*
X0206681Y0063664D01*
X0206606Y0063658D01*
X0206532Y0063656D01*
X0204754Y0063656D01*
X0206532Y0063656D02*
X0206615Y0063654D01*
X0206698Y0063648D01*
X0206781Y0063638D01*
X0206864Y0063625D01*
X0206945Y0063607D01*
X0207026Y0063586D01*
X0207105Y0063561D01*
X0207183Y0063532D01*
X0207260Y0063500D01*
X0207335Y0063464D01*
X0207409Y0063425D01*
X0207480Y0063382D01*
X0207550Y0063336D01*
X0207617Y0063286D01*
X0207682Y0063234D01*
X0207744Y0063179D01*
X0207804Y0063120D01*
X0207861Y0063059D01*
X0207915Y0062996D01*
X0207966Y0062930D01*
X0208013Y0062861D01*
X0208058Y0062791D01*
X0208099Y0062718D01*
X0208136Y0062644D01*
X0208171Y0062568D01*
X0208201Y0062490D01*
X0208228Y0062412D01*
X0208251Y0062331D01*
X0208271Y0062250D01*
X0208286Y0062168D01*
X0208298Y0062086D01*
X0208306Y0062003D01*
X0208310Y0061920D01*
X0208310Y0061836D01*
X0208306Y0061753D01*
X0208298Y0061670D01*
X0208286Y0061588D01*
X0208271Y0061506D01*
X0208251Y0061425D01*
X0208228Y0061344D01*
X0208201Y0061266D01*
X0208171Y0061188D01*
X0208136Y0061112D01*
X0208099Y0061038D01*
X0208058Y0060965D01*
X0208013Y0060895D01*
X0207966Y0060826D01*
X0207915Y0060760D01*
X0207861Y0060697D01*
X0207804Y0060636D01*
X0207744Y0060577D01*
X0207682Y0060522D01*
X0207617Y0060470D01*
X0207550Y0060420D01*
X0207480Y0060374D01*
X0207409Y0060331D01*
X0207335Y0060292D01*
X0207260Y0060256D01*
X0207183Y0060224D01*
X0207105Y0060195D01*
X0207026Y0060170D01*
X0206945Y0060149D01*
X0206864Y0060131D01*
X0206781Y0060118D01*
X0206698Y0060108D01*
X0206615Y0060102D01*
X0206532Y0060100D01*
X0204754Y0060100D01*
X0204754Y0066500D01*
X0200022Y0064011D02*
X0202156Y0060100D01*
X0210825Y0060100D02*
X0210825Y0066500D01*
X0212603Y0066500D01*
X0212685Y0066498D01*
X0212767Y0066492D01*
X0212849Y0066483D01*
X0212930Y0066470D01*
X0213010Y0066453D01*
X0213090Y0066432D01*
X0213168Y0066408D01*
X0213245Y0066380D01*
X0213321Y0066349D01*
X0213396Y0066314D01*
X0213468Y0066275D01*
X0213539Y0066234D01*
X0213608Y0066189D01*
X0213674Y0066141D01*
X0213739Y0066090D01*
X0213801Y0066036D01*
X0213860Y0065979D01*
X0213917Y0065920D01*
X0213971Y0065858D01*
X0214022Y0065793D01*
X0214070Y0065727D01*
X0214115Y0065658D01*
X0214156Y0065587D01*
X0214195Y0065515D01*
X0214230Y0065440D01*
X0214261Y0065364D01*
X0214289Y0065287D01*
X0214313Y0065209D01*
X0214334Y0065129D01*
X0214351Y0065049D01*
X0214364Y0064968D01*
X0214373Y0064886D01*
X0214379Y0064804D01*
X0214381Y0064722D01*
X0214381Y0061878D01*
X0214379Y0061796D01*
X0214373Y0061714D01*
X0214364Y0061632D01*
X0214351Y0061551D01*
X0214334Y0061471D01*
X0214313Y0061391D01*
X0214289Y0061313D01*
X0214261Y0061236D01*
X0214230Y0061160D01*
X0214195Y0061085D01*
X0214156Y0061013D01*
X0214115Y0060942D01*
X0214070Y0060873D01*
X0214022Y0060807D01*
X0213971Y0060742D01*
X0213917Y0060680D01*
X0213860Y0060621D01*
X0213801Y0060564D01*
X0213739Y0060510D01*
X0213674Y0060459D01*
X0213608Y0060411D01*
X0213539Y0060366D01*
X0213468Y0060325D01*
X0213396Y0060286D01*
X0213321Y0060251D01*
X0213245Y0060220D01*
X0213168Y0060192D01*
X0213090Y0060168D01*
X0213010Y0060147D01*
X0212930Y0060130D01*
X0212849Y0060117D01*
X0212767Y0060108D01*
X0212685Y0060102D01*
X0212603Y0060100D01*
X0210825Y0060100D01*
D12*
X0200154Y0078922D02*
X0194446Y0078922D01*
X0194446Y0081678D02*
X0200154Y0081678D01*
X0199917Y0087639D02*
X0200683Y0089044D01*
X0202600Y0088533D02*
X0202598Y0088443D01*
X0202593Y0088354D01*
X0202583Y0088265D01*
X0202570Y0088176D01*
X0202554Y0088088D01*
X0202533Y0088000D01*
X0202509Y0087914D01*
X0202482Y0087828D01*
X0202451Y0087744D01*
X0202416Y0087661D01*
X0202378Y0087580D01*
X0202337Y0087500D01*
X0202293Y0087423D01*
X0202245Y0087347D01*
X0202194Y0087273D01*
X0202140Y0087201D01*
X0202083Y0087132D01*
X0202024Y0087064D01*
X0201961Y0087000D01*
X0200684Y0089044D02*
X0200718Y0089098D01*
X0200755Y0089149D01*
X0200795Y0089198D01*
X0200838Y0089245D01*
X0200884Y0089288D01*
X0200932Y0089329D01*
X0200983Y0089367D01*
X0201036Y0089402D01*
X0201091Y0089434D01*
X0201148Y0089462D01*
X0201206Y0089486D01*
X0201266Y0089507D01*
X0201327Y0089524D01*
X0201389Y0089538D01*
X0201452Y0089547D01*
X0201515Y0089553D01*
X0201578Y0089555D01*
X0201640Y0089553D01*
X0201701Y0089548D01*
X0201762Y0089538D01*
X0201823Y0089525D01*
X0201882Y0089509D01*
X0201940Y0089489D01*
X0201997Y0089465D01*
X0202053Y0089438D01*
X0202107Y0089408D01*
X0202159Y0089374D01*
X0202208Y0089338D01*
X0202256Y0089298D01*
X0202301Y0089256D01*
X0202343Y0089211D01*
X0202383Y0089163D01*
X0202419Y0089114D01*
X0202453Y0089062D01*
X0202483Y0089008D01*
X0202510Y0088952D01*
X0202534Y0088895D01*
X0202554Y0088837D01*
X0202570Y0088778D01*
X0202583Y0088717D01*
X0202593Y0088656D01*
X0202598Y0088595D01*
X0202600Y0088533D01*
X0198383Y0089300D02*
X0198335Y0089233D01*
X0198290Y0089165D01*
X0198248Y0089094D01*
X0198210Y0089021D01*
X0198174Y0088947D01*
X0198141Y0088872D01*
X0198112Y0088795D01*
X0198086Y0088717D01*
X0198063Y0088638D01*
X0198044Y0088558D01*
X0198028Y0088477D01*
X0198016Y0088396D01*
X0198007Y0088314D01*
X0198002Y0088232D01*
X0198000Y0088150D01*
X0198002Y0088088D01*
X0198007Y0088027D01*
X0198017Y0087966D01*
X0198030Y0087905D01*
X0198046Y0087846D01*
X0198066Y0087788D01*
X0198090Y0087731D01*
X0198117Y0087675D01*
X0198147Y0087621D01*
X0198181Y0087569D01*
X0198217Y0087520D01*
X0198257Y0087472D01*
X0198299Y0087427D01*
X0198344Y0087385D01*
X0198392Y0087345D01*
X0198441Y0087309D01*
X0198493Y0087275D01*
X0198547Y0087245D01*
X0198603Y0087218D01*
X0198660Y0087194D01*
X0198718Y0087174D01*
X0198777Y0087158D01*
X0198838Y0087145D01*
X0198899Y0087135D01*
X0198960Y0087130D01*
X0199022Y0087128D01*
X0199085Y0087130D01*
X0199148Y0087136D01*
X0199211Y0087145D01*
X0199273Y0087159D01*
X0199334Y0087176D01*
X0199394Y0087197D01*
X0199452Y0087221D01*
X0199509Y0087249D01*
X0199564Y0087281D01*
X0199617Y0087316D01*
X0199668Y0087354D01*
X0199716Y0087395D01*
X0199762Y0087438D01*
X0199805Y0087485D01*
X0199845Y0087534D01*
X0199882Y0087585D01*
X0199916Y0087639D01*
X0201322Y0091500D02*
X0198000Y0091500D01*
X0198000Y0094056D02*
X0201322Y0094056D01*
X0201392Y0094054D01*
X0201463Y0094048D01*
X0201532Y0094039D01*
X0201601Y0094025D01*
X0201670Y0094008D01*
X0201737Y0093987D01*
X0201803Y0093962D01*
X0201867Y0093934D01*
X0201930Y0093902D01*
X0201991Y0093867D01*
X0202050Y0093828D01*
X0202107Y0093787D01*
X0202161Y0093742D01*
X0202213Y0093694D01*
X0202262Y0093644D01*
X0202309Y0093590D01*
X0202352Y0093535D01*
X0202392Y0093477D01*
X0202429Y0093417D01*
X0202462Y0093355D01*
X0202492Y0093291D01*
X0202519Y0093226D01*
X0202542Y0093160D01*
X0202561Y0093092D01*
X0202576Y0093023D01*
X0202588Y0092954D01*
X0202596Y0092884D01*
X0202600Y0092813D01*
X0202600Y0092743D01*
X0202596Y0092672D01*
X0202588Y0092602D01*
X0202576Y0092533D01*
X0202561Y0092464D01*
X0202542Y0092396D01*
X0202519Y0092330D01*
X0202492Y0092265D01*
X0202462Y0092201D01*
X0202429Y0092139D01*
X0202392Y0092079D01*
X0202352Y0092021D01*
X0202309Y0091966D01*
X0202262Y0091912D01*
X0202213Y0091862D01*
X0202161Y0091814D01*
X0202107Y0091769D01*
X0202050Y0091728D01*
X0201991Y0091689D01*
X0201930Y0091654D01*
X0201867Y0091622D01*
X0201803Y0091594D01*
X0201737Y0091569D01*
X0201670Y0091548D01*
X0201601Y0091531D01*
X0201532Y0091517D01*
X0201463Y0091508D01*
X0201392Y0091502D01*
X0201322Y0091500D01*
X0200556Y0096367D02*
X0200556Y0097644D01*
X0200554Y0097714D01*
X0200548Y0097785D01*
X0200539Y0097854D01*
X0200525Y0097923D01*
X0200508Y0097992D01*
X0200487Y0098059D01*
X0200462Y0098125D01*
X0200434Y0098189D01*
X0200402Y0098252D01*
X0200367Y0098313D01*
X0200328Y0098372D01*
X0200287Y0098429D01*
X0200242Y0098483D01*
X0200194Y0098535D01*
X0200144Y0098584D01*
X0200090Y0098631D01*
X0200035Y0098674D01*
X0199977Y0098714D01*
X0199917Y0098751D01*
X0199855Y0098784D01*
X0199791Y0098814D01*
X0199726Y0098841D01*
X0199660Y0098864D01*
X0199592Y0098883D01*
X0199523Y0098898D01*
X0199454Y0098910D01*
X0199384Y0098918D01*
X0199313Y0098922D01*
X0199243Y0098922D01*
X0199172Y0098918D01*
X0199102Y0098910D01*
X0199033Y0098898D01*
X0198964Y0098883D01*
X0198896Y0098864D01*
X0198830Y0098841D01*
X0198765Y0098814D01*
X0198701Y0098784D01*
X0198639Y0098751D01*
X0198579Y0098714D01*
X0198521Y0098674D01*
X0198466Y0098631D01*
X0198412Y0098584D01*
X0198362Y0098535D01*
X0198314Y0098483D01*
X0198269Y0098429D01*
X0198228Y0098372D01*
X0198189Y0098313D01*
X0198154Y0098252D01*
X0198122Y0098189D01*
X0198094Y0098125D01*
X0198069Y0098059D01*
X0198048Y0097992D01*
X0198031Y0097923D01*
X0198017Y0097854D01*
X0198008Y0097785D01*
X0198002Y0097714D01*
X0198000Y0097644D01*
X0198000Y0096367D01*
X0202600Y0096367D01*
X0202600Y0100867D02*
X0198000Y0100867D01*
X0198000Y0102144D01*
X0198002Y0102214D01*
X0198008Y0102285D01*
X0198017Y0102354D01*
X0198031Y0102423D01*
X0198048Y0102492D01*
X0198069Y0102559D01*
X0198094Y0102625D01*
X0198122Y0102689D01*
X0198154Y0102752D01*
X0198189Y0102813D01*
X0198228Y0102872D01*
X0198269Y0102929D01*
X0198314Y0102983D01*
X0198362Y0103035D01*
X0198412Y0103084D01*
X0198466Y0103131D01*
X0198521Y0103174D01*
X0198579Y0103214D01*
X0198639Y0103251D01*
X0198701Y0103284D01*
X0198765Y0103314D01*
X0198830Y0103341D01*
X0198896Y0103364D01*
X0198964Y0103383D01*
X0199033Y0103398D01*
X0199102Y0103410D01*
X0199172Y0103418D01*
X0199243Y0103422D01*
X0199313Y0103422D01*
X0199384Y0103418D01*
X0199454Y0103410D01*
X0199523Y0103398D01*
X0199592Y0103383D01*
X0199660Y0103364D01*
X0199726Y0103341D01*
X0199791Y0103314D01*
X0199855Y0103284D01*
X0199917Y0103251D01*
X0199977Y0103214D01*
X0200035Y0103174D01*
X0200090Y0103131D01*
X0200144Y0103084D01*
X0200194Y0103035D01*
X0200242Y0102983D01*
X0200287Y0102929D01*
X0200328Y0102872D01*
X0200367Y0102813D01*
X0200402Y0102752D01*
X0200434Y0102689D01*
X0200462Y0102625D01*
X0200487Y0102559D01*
X0200508Y0102492D01*
X0200525Y0102423D01*
X0200539Y0102354D01*
X0200548Y0102285D01*
X0200554Y0102214D01*
X0200556Y0102144D01*
X0200556Y0100867D01*
X0202600Y0105309D02*
X0198000Y0105309D01*
X0198000Y0108794D02*
X0200172Y0110328D01*
X0202600Y0110328D01*
X0200172Y0110328D02*
X0198000Y0111861D01*
X0198000Y0116500D02*
X0200556Y0118033D01*
X0198000Y0119567D01*
X0202600Y0119567D01*
X0202600Y0121450D02*
X0198000Y0122983D01*
X0202600Y0124517D01*
X0201450Y0124133D02*
X0201450Y0121833D01*
X0202600Y0126072D02*
X0202600Y0127094D01*
X0202600Y0126583D02*
X0198000Y0126583D01*
X0198000Y0126072D02*
X0198000Y0127094D01*
X0198000Y0129056D02*
X0202600Y0131611D01*
X0198000Y0131611D01*
X0198000Y0129056D02*
X0202600Y0129056D01*
X0203111Y0133511D02*
X0203111Y0135556D01*
X0201322Y0137306D02*
X0199278Y0137306D01*
X0199278Y0137305D02*
X0199208Y0137307D01*
X0199137Y0137313D01*
X0199068Y0137322D01*
X0198999Y0137336D01*
X0198930Y0137353D01*
X0198863Y0137374D01*
X0198797Y0137399D01*
X0198733Y0137427D01*
X0198670Y0137459D01*
X0198609Y0137494D01*
X0198550Y0137533D01*
X0198493Y0137574D01*
X0198439Y0137619D01*
X0198387Y0137667D01*
X0198338Y0137717D01*
X0198291Y0137771D01*
X0198248Y0137826D01*
X0198208Y0137884D01*
X0198171Y0137944D01*
X0198138Y0138006D01*
X0198108Y0138070D01*
X0198081Y0138135D01*
X0198058Y0138201D01*
X0198039Y0138269D01*
X0198024Y0138338D01*
X0198012Y0138407D01*
X0198004Y0138477D01*
X0198000Y0138548D01*
X0198000Y0138618D01*
X0198004Y0138689D01*
X0198012Y0138759D01*
X0198024Y0138828D01*
X0198039Y0138897D01*
X0198058Y0138965D01*
X0198081Y0139031D01*
X0198108Y0139096D01*
X0198138Y0139160D01*
X0198171Y0139222D01*
X0198208Y0139282D01*
X0198248Y0139340D01*
X0198291Y0139395D01*
X0198338Y0139449D01*
X0198387Y0139499D01*
X0198439Y0139547D01*
X0198493Y0139592D01*
X0198550Y0139633D01*
X0198609Y0139672D01*
X0198670Y0139707D01*
X0198733Y0139739D01*
X0198797Y0139767D01*
X0198863Y0139792D01*
X0198930Y0139813D01*
X0198999Y0139830D01*
X0199068Y0139844D01*
X0199137Y0139853D01*
X0199208Y0139859D01*
X0199278Y0139861D01*
X0201322Y0139861D01*
X0201392Y0139859D01*
X0201463Y0139853D01*
X0201532Y0139844D01*
X0201601Y0139830D01*
X0201670Y0139813D01*
X0201737Y0139792D01*
X0201803Y0139767D01*
X0201867Y0139739D01*
X0201930Y0139707D01*
X0201991Y0139672D01*
X0202050Y0139633D01*
X0202107Y0139592D01*
X0202161Y0139547D01*
X0202213Y0139499D01*
X0202262Y0139449D01*
X0202309Y0139395D01*
X0202352Y0139340D01*
X0202392Y0139282D01*
X0202429Y0139222D01*
X0202462Y0139160D01*
X0202492Y0139096D01*
X0202519Y0139031D01*
X0202542Y0138965D01*
X0202561Y0138897D01*
X0202576Y0138828D01*
X0202588Y0138759D01*
X0202596Y0138689D01*
X0202600Y0138618D01*
X0202600Y0138548D01*
X0202596Y0138477D01*
X0202588Y0138407D01*
X0202576Y0138338D01*
X0202561Y0138269D01*
X0202542Y0138201D01*
X0202519Y0138135D01*
X0202492Y0138070D01*
X0202462Y0138006D01*
X0202429Y0137944D01*
X0202392Y0137884D01*
X0202352Y0137826D01*
X0202309Y0137771D01*
X0202262Y0137717D01*
X0202213Y0137667D01*
X0202161Y0137619D01*
X0202107Y0137574D01*
X0202050Y0137533D01*
X0201991Y0137494D01*
X0201930Y0137459D01*
X0201867Y0137427D01*
X0201803Y0137399D01*
X0201737Y0137374D01*
X0201670Y0137353D01*
X0201601Y0137336D01*
X0201532Y0137322D01*
X0201463Y0137313D01*
X0201392Y0137307D01*
X0201322Y0137305D01*
X0201322Y0141956D02*
X0198000Y0141956D01*
X0201322Y0141955D02*
X0201392Y0141957D01*
X0201463Y0141963D01*
X0201532Y0141972D01*
X0201601Y0141986D01*
X0201670Y0142003D01*
X0201737Y0142024D01*
X0201803Y0142049D01*
X0201867Y0142077D01*
X0201930Y0142109D01*
X0201991Y0142144D01*
X0202050Y0142183D01*
X0202107Y0142224D01*
X0202161Y0142269D01*
X0202213Y0142317D01*
X0202262Y0142367D01*
X0202309Y0142421D01*
X0202352Y0142476D01*
X0202392Y0142534D01*
X0202429Y0142594D01*
X0202462Y0142656D01*
X0202492Y0142720D01*
X0202519Y0142785D01*
X0202542Y0142851D01*
X0202561Y0142919D01*
X0202576Y0142988D01*
X0202588Y0143057D01*
X0202596Y0143127D01*
X0202600Y0143198D01*
X0202600Y0143268D01*
X0202596Y0143339D01*
X0202588Y0143409D01*
X0202576Y0143478D01*
X0202561Y0143547D01*
X0202542Y0143615D01*
X0202519Y0143681D01*
X0202492Y0143746D01*
X0202462Y0143810D01*
X0202429Y0143872D01*
X0202392Y0143932D01*
X0202352Y0143990D01*
X0202309Y0144045D01*
X0202262Y0144099D01*
X0202213Y0144149D01*
X0202161Y0144197D01*
X0202107Y0144242D01*
X0202050Y0144283D01*
X0201991Y0144322D01*
X0201930Y0144357D01*
X0201867Y0144389D01*
X0201803Y0144417D01*
X0201737Y0144442D01*
X0201670Y0144463D01*
X0201601Y0144480D01*
X0201532Y0144494D01*
X0201463Y0144503D01*
X0201392Y0144509D01*
X0201322Y0144511D01*
X0198000Y0144511D01*
X0198000Y0146306D02*
X0198000Y0148861D01*
X0198000Y0147583D02*
X0202600Y0147583D01*
X0179892Y0160222D02*
X0179837Y0160340D01*
X0179786Y0160459D01*
X0179738Y0160579D01*
X0179694Y0160701D01*
X0179653Y0160824D01*
X0179617Y0160948D01*
X0179584Y0161073D01*
X0179555Y0161200D01*
X0179529Y0161327D01*
X0179508Y0161455D01*
X0179490Y0161583D01*
X0179477Y0161712D01*
X0179467Y0161841D01*
X0179461Y0161970D01*
X0179459Y0162100D01*
X0182347Y0162100D02*
X0182345Y0162230D01*
X0182339Y0162359D01*
X0182329Y0162488D01*
X0182316Y0162617D01*
X0182298Y0162745D01*
X0182277Y0162873D01*
X0182251Y0163000D01*
X0182222Y0163127D01*
X0182189Y0163252D01*
X0182153Y0163376D01*
X0182112Y0163499D01*
X0182068Y0163621D01*
X0182020Y0163741D01*
X0181969Y0163860D01*
X0181914Y0163978D01*
X0182059Y0163544D02*
X0179747Y0160656D01*
X0180903Y0159500D02*
X0180966Y0159502D01*
X0181029Y0159507D01*
X0181091Y0159517D01*
X0181153Y0159530D01*
X0181214Y0159546D01*
X0181274Y0159566D01*
X0181333Y0159590D01*
X0181390Y0159617D01*
X0181445Y0159648D01*
X0181498Y0159681D01*
X0181550Y0159718D01*
X0181599Y0159758D01*
X0181646Y0159800D01*
X0181690Y0159845D01*
X0181731Y0159893D01*
X0181770Y0159943D01*
X0181805Y0159995D01*
X0181837Y0160049D01*
X0181866Y0160106D01*
X0181892Y0160163D01*
X0181914Y0160222D01*
X0180903Y0159500D02*
X0180840Y0159502D01*
X0180777Y0159507D01*
X0180715Y0159517D01*
X0180653Y0159530D01*
X0180592Y0159546D01*
X0180532Y0159566D01*
X0180473Y0159590D01*
X0180416Y0159617D01*
X0180361Y0159648D01*
X0180308Y0159681D01*
X0180256Y0159718D01*
X0180207Y0159758D01*
X0180160Y0159800D01*
X0180116Y0159845D01*
X0180075Y0159893D01*
X0180036Y0159943D01*
X0180001Y0159995D01*
X0179969Y0160049D01*
X0179940Y0160106D01*
X0179914Y0160163D01*
X0179892Y0160222D01*
X0177519Y0159789D02*
X0177519Y0159500D01*
X0177231Y0159500D01*
X0177231Y0159789D01*
X0177519Y0159789D01*
X0175291Y0159500D02*
X0172403Y0159500D01*
X0173847Y0159500D02*
X0173847Y0164700D01*
X0172403Y0163544D01*
X0182347Y0162100D02*
X0182345Y0161970D01*
X0182339Y0161841D01*
X0182329Y0161712D01*
X0182316Y0161583D01*
X0182298Y0161455D01*
X0182277Y0161327D01*
X0182251Y0161200D01*
X0182222Y0161073D01*
X0182189Y0160948D01*
X0182153Y0160824D01*
X0182112Y0160701D01*
X0182068Y0160579D01*
X0182020Y0160459D01*
X0181969Y0160340D01*
X0181914Y0160222D01*
X0179459Y0162100D02*
X0179461Y0162230D01*
X0179467Y0162359D01*
X0179477Y0162488D01*
X0179490Y0162617D01*
X0179508Y0162745D01*
X0179529Y0162873D01*
X0179555Y0163000D01*
X0179584Y0163127D01*
X0179617Y0163252D01*
X0179653Y0163376D01*
X0179694Y0163499D01*
X0179738Y0163621D01*
X0179786Y0163741D01*
X0179837Y0163860D01*
X0179892Y0163978D01*
X0180903Y0164700D02*
X0180966Y0164698D01*
X0181029Y0164693D01*
X0181091Y0164683D01*
X0181153Y0164670D01*
X0181214Y0164654D01*
X0181274Y0164634D01*
X0181333Y0164610D01*
X0181390Y0164583D01*
X0181445Y0164552D01*
X0181498Y0164519D01*
X0181550Y0164482D01*
X0181599Y0164442D01*
X0181646Y0164400D01*
X0181690Y0164355D01*
X0181731Y0164307D01*
X0181770Y0164257D01*
X0181805Y0164205D01*
X0181837Y0164151D01*
X0181866Y0164094D01*
X0181892Y0164037D01*
X0181914Y0163978D01*
X0180903Y0164700D02*
X0180840Y0164698D01*
X0180777Y0164693D01*
X0180715Y0164683D01*
X0180653Y0164670D01*
X0180592Y0164654D01*
X0180532Y0164634D01*
X0180473Y0164610D01*
X0180416Y0164583D01*
X0180361Y0164552D01*
X0180308Y0164519D01*
X0180256Y0164482D01*
X0180207Y0164442D01*
X0180160Y0164400D01*
X0180116Y0164355D01*
X0180075Y0164307D01*
X0180036Y0164257D01*
X0180001Y0164205D01*
X0179969Y0164151D01*
X0179940Y0164094D01*
X0179914Y0164037D01*
X0179892Y0163978D01*
X0167775Y0159789D02*
X0167775Y0159500D01*
X0167487Y0159500D01*
X0167487Y0159789D01*
X0167775Y0159789D01*
X0164607Y0159500D02*
X0163451Y0162967D01*
X0165763Y0162967D02*
X0164607Y0159500D01*
X0159332Y0162389D02*
X0159332Y0162967D01*
X0157599Y0162967D01*
X0157599Y0159500D01*
X0155347Y0159500D02*
X0153902Y0159500D01*
X0153845Y0159502D01*
X0153789Y0159507D01*
X0153733Y0159517D01*
X0153678Y0159530D01*
X0153623Y0159546D01*
X0153570Y0159566D01*
X0153519Y0159589D01*
X0153469Y0159616D01*
X0153420Y0159646D01*
X0153374Y0159679D01*
X0153330Y0159715D01*
X0153289Y0159754D01*
X0153250Y0159795D01*
X0153214Y0159839D01*
X0153181Y0159885D01*
X0153151Y0159934D01*
X0153124Y0159984D01*
X0153101Y0160035D01*
X0153081Y0160088D01*
X0153065Y0160143D01*
X0153052Y0160198D01*
X0153042Y0160254D01*
X0153037Y0160310D01*
X0153035Y0160367D01*
X0153035Y0161811D01*
X0153035Y0161233D02*
X0155347Y0161233D01*
X0155347Y0161811D01*
X0155345Y0161878D01*
X0155339Y0161945D01*
X0155329Y0162012D01*
X0155316Y0162078D01*
X0155298Y0162143D01*
X0155277Y0162206D01*
X0155252Y0162269D01*
X0155224Y0162330D01*
X0155192Y0162389D01*
X0155157Y0162446D01*
X0155118Y0162501D01*
X0155077Y0162554D01*
X0155032Y0162604D01*
X0154984Y0162652D01*
X0154934Y0162697D01*
X0154881Y0162738D01*
X0154826Y0162777D01*
X0154769Y0162812D01*
X0154710Y0162844D01*
X0154649Y0162872D01*
X0154586Y0162897D01*
X0154523Y0162918D01*
X0154458Y0162936D01*
X0154392Y0162949D01*
X0154325Y0162959D01*
X0154258Y0162965D01*
X0154191Y0162967D01*
X0154124Y0162965D01*
X0154057Y0162959D01*
X0153990Y0162949D01*
X0153924Y0162936D01*
X0153859Y0162918D01*
X0153796Y0162897D01*
X0153733Y0162872D01*
X0153672Y0162844D01*
X0153613Y0162812D01*
X0153556Y0162777D01*
X0153501Y0162738D01*
X0153448Y0162697D01*
X0153398Y0162652D01*
X0153350Y0162604D01*
X0153305Y0162554D01*
X0153264Y0162501D01*
X0153225Y0162446D01*
X0153190Y0162389D01*
X0153158Y0162330D01*
X0153130Y0162269D01*
X0153105Y0162206D01*
X0153084Y0162143D01*
X0153066Y0162078D01*
X0153053Y0162012D01*
X0153043Y0161945D01*
X0153037Y0161878D01*
X0153035Y0161811D01*
X0151286Y0159500D02*
X0151229Y0159502D01*
X0151173Y0159507D01*
X0151117Y0159517D01*
X0151062Y0159530D01*
X0151007Y0159546D01*
X0150954Y0159566D01*
X0150903Y0159589D01*
X0150853Y0159616D01*
X0150804Y0159646D01*
X0150758Y0159679D01*
X0150714Y0159715D01*
X0150673Y0159754D01*
X0150634Y0159795D01*
X0150598Y0159839D01*
X0150565Y0159885D01*
X0150535Y0159934D01*
X0150508Y0159984D01*
X0150485Y0160035D01*
X0150465Y0160088D01*
X0150449Y0160143D01*
X0150436Y0160198D01*
X0150426Y0160254D01*
X0150421Y0160310D01*
X0150419Y0160367D01*
X0150419Y0164700D01*
X0147731Y0164700D02*
X0147731Y0160367D01*
X0147733Y0160310D01*
X0147738Y0160254D01*
X0147748Y0160198D01*
X0147761Y0160143D01*
X0147777Y0160088D01*
X0147797Y0160035D01*
X0147820Y0159984D01*
X0147847Y0159934D01*
X0147877Y0159885D01*
X0147910Y0159839D01*
X0147946Y0159795D01*
X0147985Y0159754D01*
X0148026Y0159715D01*
X0148070Y0159679D01*
X0148116Y0159646D01*
X0148165Y0159616D01*
X0148215Y0159589D01*
X0148266Y0159566D01*
X0148319Y0159546D01*
X0148374Y0159530D01*
X0148429Y0159517D01*
X0148485Y0159507D01*
X0148541Y0159502D01*
X0148598Y0159500D01*
X0145603Y0160656D02*
X0145603Y0161811D01*
X0145601Y0161878D01*
X0145595Y0161945D01*
X0145585Y0162012D01*
X0145572Y0162078D01*
X0145554Y0162143D01*
X0145533Y0162206D01*
X0145508Y0162269D01*
X0145480Y0162330D01*
X0145448Y0162389D01*
X0145413Y0162446D01*
X0145374Y0162501D01*
X0145333Y0162554D01*
X0145288Y0162604D01*
X0145240Y0162652D01*
X0145190Y0162697D01*
X0145137Y0162738D01*
X0145082Y0162777D01*
X0145025Y0162812D01*
X0144966Y0162844D01*
X0144905Y0162872D01*
X0144842Y0162897D01*
X0144779Y0162918D01*
X0144714Y0162936D01*
X0144648Y0162949D01*
X0144581Y0162959D01*
X0144514Y0162965D01*
X0144447Y0162967D01*
X0144380Y0162965D01*
X0144313Y0162959D01*
X0144246Y0162949D01*
X0144180Y0162936D01*
X0144115Y0162918D01*
X0144052Y0162897D01*
X0143989Y0162872D01*
X0143928Y0162844D01*
X0143869Y0162812D01*
X0143812Y0162777D01*
X0143757Y0162738D01*
X0143704Y0162697D01*
X0143654Y0162652D01*
X0143606Y0162604D01*
X0143561Y0162554D01*
X0143520Y0162501D01*
X0143481Y0162446D01*
X0143446Y0162389D01*
X0143414Y0162330D01*
X0143386Y0162269D01*
X0143361Y0162206D01*
X0143340Y0162143D01*
X0143322Y0162078D01*
X0143309Y0162012D01*
X0143299Y0161945D01*
X0143293Y0161878D01*
X0143291Y0161811D01*
X0143291Y0160656D01*
X0143293Y0160589D01*
X0143299Y0160522D01*
X0143309Y0160455D01*
X0143322Y0160389D01*
X0143340Y0160324D01*
X0143361Y0160261D01*
X0143386Y0160198D01*
X0143414Y0160137D01*
X0143446Y0160078D01*
X0143481Y0160021D01*
X0143520Y0159966D01*
X0143561Y0159913D01*
X0143606Y0159863D01*
X0143654Y0159815D01*
X0143704Y0159770D01*
X0143757Y0159729D01*
X0143812Y0159690D01*
X0143869Y0159655D01*
X0143928Y0159623D01*
X0143989Y0159595D01*
X0144052Y0159570D01*
X0144115Y0159549D01*
X0144180Y0159531D01*
X0144246Y0159518D01*
X0144313Y0159508D01*
X0144380Y0159502D01*
X0144447Y0159500D01*
X0144514Y0159502D01*
X0144581Y0159508D01*
X0144648Y0159518D01*
X0144714Y0159531D01*
X0144779Y0159549D01*
X0144842Y0159570D01*
X0144905Y0159595D01*
X0144966Y0159623D01*
X0145025Y0159655D01*
X0145082Y0159690D01*
X0145137Y0159729D01*
X0145190Y0159770D01*
X0145240Y0159815D01*
X0145288Y0159863D01*
X0145333Y0159913D01*
X0145374Y0159966D01*
X0145413Y0160021D01*
X0145448Y0160078D01*
X0145480Y0160137D01*
X0145508Y0160198D01*
X0145533Y0160261D01*
X0145554Y0160324D01*
X0145572Y0160389D01*
X0145585Y0160455D01*
X0145595Y0160522D01*
X0145601Y0160589D01*
X0145603Y0160656D01*
X0141693Y0162389D02*
X0141693Y0162967D01*
X0139959Y0162967D01*
X0139959Y0159500D01*
X0137883Y0159500D02*
X0137594Y0159500D01*
X0137537Y0159502D01*
X0137481Y0159507D01*
X0137425Y0159517D01*
X0137370Y0159530D01*
X0137315Y0159546D01*
X0137262Y0159566D01*
X0137211Y0159589D01*
X0137161Y0159616D01*
X0137112Y0159646D01*
X0137066Y0159679D01*
X0137022Y0159715D01*
X0136981Y0159754D01*
X0136942Y0159795D01*
X0136906Y0159839D01*
X0136873Y0159885D01*
X0136843Y0159933D01*
X0136816Y0159984D01*
X0136793Y0160035D01*
X0136773Y0160088D01*
X0136757Y0160143D01*
X0136744Y0160198D01*
X0136734Y0160254D01*
X0136729Y0160310D01*
X0136727Y0160367D01*
X0136728Y0160367D02*
X0136728Y0164700D01*
X0136150Y0162967D02*
X0137883Y0162967D01*
X0134347Y0162100D02*
X0134347Y0159500D01*
X0132035Y0159500D02*
X0132035Y0162967D01*
X0133480Y0162967D01*
X0133537Y0162965D01*
X0133593Y0162960D01*
X0133649Y0162950D01*
X0133704Y0162937D01*
X0133759Y0162921D01*
X0133812Y0162901D01*
X0133863Y0162878D01*
X0133913Y0162851D01*
X0133962Y0162821D01*
X0134008Y0162788D01*
X0134052Y0162752D01*
X0134093Y0162713D01*
X0134132Y0162672D01*
X0134168Y0162628D01*
X0134201Y0162582D01*
X0134231Y0162534D01*
X0134258Y0162483D01*
X0134281Y0162432D01*
X0134301Y0162379D01*
X0134317Y0162324D01*
X0134330Y0162269D01*
X0134340Y0162213D01*
X0134345Y0162157D01*
X0134347Y0162100D01*
X0129811Y0161811D02*
X0129811Y0160656D01*
X0129809Y0160589D01*
X0129803Y0160522D01*
X0129793Y0160455D01*
X0129780Y0160389D01*
X0129762Y0160324D01*
X0129741Y0160261D01*
X0129716Y0160198D01*
X0129688Y0160137D01*
X0129656Y0160078D01*
X0129621Y0160021D01*
X0129582Y0159966D01*
X0129541Y0159913D01*
X0129496Y0159863D01*
X0129448Y0159815D01*
X0129398Y0159770D01*
X0129345Y0159729D01*
X0129290Y0159690D01*
X0129233Y0159655D01*
X0129174Y0159623D01*
X0129113Y0159595D01*
X0129050Y0159570D01*
X0128987Y0159549D01*
X0128922Y0159531D01*
X0128856Y0159518D01*
X0128789Y0159508D01*
X0128722Y0159502D01*
X0128655Y0159500D01*
X0128588Y0159502D01*
X0128521Y0159508D01*
X0128454Y0159518D01*
X0128388Y0159531D01*
X0128323Y0159549D01*
X0128260Y0159570D01*
X0128197Y0159595D01*
X0128136Y0159623D01*
X0128077Y0159655D01*
X0128020Y0159690D01*
X0127965Y0159729D01*
X0127912Y0159770D01*
X0127862Y0159815D01*
X0127814Y0159863D01*
X0127769Y0159913D01*
X0127728Y0159966D01*
X0127689Y0160021D01*
X0127654Y0160078D01*
X0127622Y0160137D01*
X0127594Y0160198D01*
X0127569Y0160261D01*
X0127548Y0160324D01*
X0127530Y0160389D01*
X0127517Y0160455D01*
X0127507Y0160522D01*
X0127501Y0160589D01*
X0127499Y0160656D01*
X0127499Y0161811D01*
X0127501Y0161878D01*
X0127507Y0161945D01*
X0127517Y0162012D01*
X0127530Y0162078D01*
X0127548Y0162143D01*
X0127569Y0162206D01*
X0127594Y0162269D01*
X0127622Y0162330D01*
X0127654Y0162389D01*
X0127689Y0162446D01*
X0127728Y0162501D01*
X0127769Y0162554D01*
X0127814Y0162604D01*
X0127862Y0162652D01*
X0127912Y0162697D01*
X0127965Y0162738D01*
X0128020Y0162777D01*
X0128077Y0162812D01*
X0128136Y0162844D01*
X0128197Y0162872D01*
X0128260Y0162897D01*
X0128323Y0162918D01*
X0128388Y0162936D01*
X0128454Y0162949D01*
X0128521Y0162959D01*
X0128588Y0162965D01*
X0128655Y0162967D01*
X0128722Y0162965D01*
X0128789Y0162959D01*
X0128856Y0162949D01*
X0128922Y0162936D01*
X0128987Y0162918D01*
X0129050Y0162897D01*
X0129113Y0162872D01*
X0129174Y0162844D01*
X0129233Y0162812D01*
X0129290Y0162777D01*
X0129345Y0162738D01*
X0129398Y0162697D01*
X0129448Y0162652D01*
X0129496Y0162604D01*
X0129541Y0162554D01*
X0129582Y0162501D01*
X0129621Y0162446D01*
X0129656Y0162389D01*
X0129688Y0162330D01*
X0129716Y0162269D01*
X0129741Y0162206D01*
X0129762Y0162143D01*
X0129780Y0162078D01*
X0129793Y0162012D01*
X0129803Y0161945D01*
X0129809Y0161878D01*
X0129811Y0161811D01*
X0125644Y0159500D02*
X0124488Y0159500D01*
X0124421Y0159502D01*
X0124354Y0159508D01*
X0124287Y0159518D01*
X0124221Y0159531D01*
X0124156Y0159549D01*
X0124093Y0159570D01*
X0124030Y0159595D01*
X0123969Y0159623D01*
X0123910Y0159655D01*
X0123853Y0159690D01*
X0123798Y0159729D01*
X0123745Y0159770D01*
X0123695Y0159815D01*
X0123647Y0159863D01*
X0123602Y0159913D01*
X0123561Y0159966D01*
X0123522Y0160021D01*
X0123487Y0160078D01*
X0123455Y0160137D01*
X0123427Y0160198D01*
X0123402Y0160261D01*
X0123381Y0160324D01*
X0123363Y0160389D01*
X0123350Y0160455D01*
X0123340Y0160522D01*
X0123334Y0160589D01*
X0123332Y0160656D01*
X0123333Y0160656D02*
X0123333Y0163544D01*
X0123332Y0163544D02*
X0123334Y0163611D01*
X0123340Y0163678D01*
X0123350Y0163745D01*
X0123363Y0163811D01*
X0123381Y0163876D01*
X0123402Y0163939D01*
X0123427Y0164002D01*
X0123455Y0164063D01*
X0123487Y0164122D01*
X0123522Y0164179D01*
X0123561Y0164234D01*
X0123602Y0164287D01*
X0123647Y0164337D01*
X0123695Y0164385D01*
X0123745Y0164430D01*
X0123798Y0164471D01*
X0123853Y0164510D01*
X0123910Y0164545D01*
X0123969Y0164577D01*
X0124030Y0164605D01*
X0124093Y0164630D01*
X0124156Y0164651D01*
X0124221Y0164669D01*
X0124287Y0164682D01*
X0124354Y0164692D01*
X0124421Y0164698D01*
X0124488Y0164700D01*
X0125644Y0164700D01*
X0118339Y0163256D02*
X0118339Y0160944D01*
X0118337Y0160868D01*
X0118331Y0160793D01*
X0118321Y0160718D01*
X0118307Y0160644D01*
X0118290Y0160570D01*
X0118268Y0160498D01*
X0118243Y0160427D01*
X0118214Y0160357D01*
X0118182Y0160288D01*
X0118146Y0160222D01*
X0118106Y0160158D01*
X0118063Y0160095D01*
X0118017Y0160035D01*
X0117968Y0159978D01*
X0117916Y0159923D01*
X0117861Y0159871D01*
X0117804Y0159822D01*
X0117744Y0159776D01*
X0117681Y0159733D01*
X0117617Y0159693D01*
X0117551Y0159657D01*
X0117482Y0159625D01*
X0117412Y0159596D01*
X0117341Y0159571D01*
X0117269Y0159549D01*
X0117195Y0159532D01*
X0117121Y0159518D01*
X0117046Y0159508D01*
X0116971Y0159502D01*
X0116895Y0159500D01*
X0115451Y0159500D01*
X0115451Y0164700D01*
X0116895Y0164700D01*
X0116971Y0164698D01*
X0117046Y0164692D01*
X0117121Y0164682D01*
X0117195Y0164668D01*
X0117269Y0164651D01*
X0117341Y0164629D01*
X0117412Y0164604D01*
X0117482Y0164575D01*
X0117551Y0164543D01*
X0117617Y0164507D01*
X0117681Y0164467D01*
X0117744Y0164424D01*
X0117804Y0164378D01*
X0117861Y0164329D01*
X0117916Y0164277D01*
X0117968Y0164222D01*
X0118017Y0164165D01*
X0118063Y0164105D01*
X0118106Y0164042D01*
X0118146Y0163978D01*
X0118182Y0163912D01*
X0118214Y0163843D01*
X0118243Y0163773D01*
X0118268Y0163702D01*
X0118290Y0163630D01*
X0118307Y0163556D01*
X0118321Y0163482D01*
X0118331Y0163407D01*
X0118337Y0163332D01*
X0118339Y0163256D01*
X0113403Y0164700D02*
X0111092Y0164700D01*
X0111092Y0159500D01*
X0113403Y0159500D01*
X0112825Y0162389D02*
X0111092Y0162389D01*
X0109035Y0159500D02*
X0106724Y0159500D01*
X0106724Y0164700D01*
X0101979Y0162967D02*
X0099668Y0161233D01*
X0100679Y0161956D02*
X0101979Y0159500D01*
X0099668Y0159500D02*
X0099668Y0164700D01*
X0096664Y0159500D02*
X0096529Y0159503D01*
X0096394Y0159511D01*
X0096259Y0159522D01*
X0096125Y0159537D01*
X0095991Y0159556D01*
X0095857Y0159578D01*
X0095725Y0159604D01*
X0095593Y0159634D01*
X0095462Y0159667D01*
X0095332Y0159704D01*
X0095203Y0159744D01*
X0095075Y0159788D01*
X0095798Y0162967D02*
X0095910Y0162963D01*
X0096021Y0162956D01*
X0096132Y0162945D01*
X0096243Y0162930D01*
X0096353Y0162911D01*
X0096463Y0162889D01*
X0096571Y0162863D01*
X0096679Y0162833D01*
X0096786Y0162800D01*
X0096891Y0162763D01*
X0096995Y0162722D01*
X0097098Y0162678D01*
X0095798Y0162967D02*
X0095744Y0162966D01*
X0095691Y0162961D01*
X0095639Y0162952D01*
X0095587Y0162940D01*
X0095536Y0162924D01*
X0095487Y0162904D01*
X0095439Y0162881D01*
X0095392Y0162855D01*
X0095348Y0162825D01*
X0095306Y0162792D01*
X0095266Y0162756D01*
X0095229Y0162718D01*
X0095195Y0162677D01*
X0095164Y0162634D01*
X0095136Y0162589D01*
X0095111Y0162541D01*
X0095090Y0162493D01*
X0095072Y0162442D01*
X0095058Y0162391D01*
X0095048Y0162339D01*
X0095041Y0162286D01*
X0095038Y0162233D01*
X0095039Y0162179D01*
X0095044Y0162126D01*
X0095052Y0162074D01*
X0095064Y0162022D01*
X0095080Y0161971D01*
X0095099Y0161921D01*
X0095122Y0161873D01*
X0095148Y0161827D01*
X0095178Y0161782D01*
X0095210Y0161740D01*
X0095246Y0161700D01*
X0095284Y0161663D01*
X0095325Y0161629D01*
X0095368Y0161597D01*
X0095413Y0161569D01*
X0095460Y0161544D01*
X0095509Y0161523D01*
X0095509Y0161522D02*
X0096953Y0160944D01*
X0097002Y0160923D01*
X0097049Y0160898D01*
X0097094Y0160870D01*
X0097137Y0160838D01*
X0097178Y0160804D01*
X0097216Y0160767D01*
X0097252Y0160727D01*
X0097284Y0160685D01*
X0097314Y0160640D01*
X0097340Y0160594D01*
X0097363Y0160546D01*
X0097382Y0160496D01*
X0097398Y0160445D01*
X0097410Y0160393D01*
X0097418Y0160341D01*
X0097423Y0160288D01*
X0097424Y0160234D01*
X0097421Y0160181D01*
X0097414Y0160128D01*
X0097404Y0160076D01*
X0097390Y0160025D01*
X0097372Y0159974D01*
X0097351Y0159926D01*
X0097326Y0159878D01*
X0097298Y0159833D01*
X0097267Y0159790D01*
X0097233Y0159749D01*
X0097196Y0159711D01*
X0097156Y0159675D01*
X0097114Y0159642D01*
X0097070Y0159612D01*
X0097023Y0159586D01*
X0096975Y0159563D01*
X0096926Y0159543D01*
X0096875Y0159527D01*
X0096823Y0159515D01*
X0096771Y0159506D01*
X0096718Y0159501D01*
X0096664Y0159500D01*
X0093019Y0159500D02*
X0091574Y0159500D01*
X0091517Y0159502D01*
X0091461Y0159507D01*
X0091405Y0159517D01*
X0091350Y0159530D01*
X0091295Y0159546D01*
X0091242Y0159566D01*
X0091191Y0159589D01*
X0091141Y0159616D01*
X0091092Y0159646D01*
X0091046Y0159679D01*
X0091002Y0159715D01*
X0090961Y0159754D01*
X0090922Y0159795D01*
X0090886Y0159839D01*
X0090853Y0159885D01*
X0090823Y0159934D01*
X0090796Y0159984D01*
X0090773Y0160035D01*
X0090753Y0160088D01*
X0090737Y0160143D01*
X0090724Y0160198D01*
X0090714Y0160254D01*
X0090709Y0160310D01*
X0090707Y0160367D01*
X0090708Y0160367D02*
X0090708Y0161811D01*
X0090708Y0161233D02*
X0093019Y0161233D01*
X0093019Y0161811D01*
X0093017Y0161878D01*
X0093011Y0161945D01*
X0093001Y0162012D01*
X0092988Y0162078D01*
X0092970Y0162143D01*
X0092949Y0162206D01*
X0092924Y0162269D01*
X0092896Y0162330D01*
X0092864Y0162389D01*
X0092829Y0162446D01*
X0092790Y0162501D01*
X0092749Y0162554D01*
X0092704Y0162604D01*
X0092656Y0162652D01*
X0092606Y0162697D01*
X0092553Y0162738D01*
X0092498Y0162777D01*
X0092441Y0162812D01*
X0092382Y0162844D01*
X0092321Y0162872D01*
X0092258Y0162897D01*
X0092195Y0162918D01*
X0092130Y0162936D01*
X0092064Y0162949D01*
X0091997Y0162959D01*
X0091930Y0162965D01*
X0091863Y0162967D01*
X0091796Y0162965D01*
X0091729Y0162959D01*
X0091662Y0162949D01*
X0091596Y0162936D01*
X0091531Y0162918D01*
X0091468Y0162897D01*
X0091405Y0162872D01*
X0091344Y0162844D01*
X0091285Y0162812D01*
X0091228Y0162777D01*
X0091173Y0162738D01*
X0091120Y0162697D01*
X0091070Y0162652D01*
X0091022Y0162604D01*
X0090977Y0162554D01*
X0090936Y0162501D01*
X0090897Y0162446D01*
X0090862Y0162389D01*
X0090830Y0162330D01*
X0090802Y0162269D01*
X0090777Y0162206D01*
X0090756Y0162143D01*
X0090738Y0162078D01*
X0090725Y0162012D01*
X0090715Y0161945D01*
X0090709Y0161878D01*
X0090707Y0161811D01*
X0088436Y0160944D02*
X0088436Y0163256D01*
X0088435Y0163256D02*
X0088433Y0163332D01*
X0088427Y0163407D01*
X0088417Y0163482D01*
X0088403Y0163556D01*
X0088386Y0163630D01*
X0088364Y0163702D01*
X0088339Y0163773D01*
X0088310Y0163843D01*
X0088278Y0163912D01*
X0088242Y0163978D01*
X0088202Y0164042D01*
X0088159Y0164105D01*
X0088113Y0164165D01*
X0088064Y0164222D01*
X0088012Y0164277D01*
X0087957Y0164329D01*
X0087900Y0164378D01*
X0087840Y0164424D01*
X0087777Y0164467D01*
X0087713Y0164507D01*
X0087647Y0164543D01*
X0087578Y0164575D01*
X0087508Y0164604D01*
X0087437Y0164629D01*
X0087365Y0164651D01*
X0087291Y0164668D01*
X0087217Y0164682D01*
X0087142Y0164692D01*
X0087067Y0164698D01*
X0086991Y0164700D01*
X0085547Y0164700D01*
X0085547Y0159500D01*
X0086991Y0159500D01*
X0087067Y0159502D01*
X0087142Y0159508D01*
X0087217Y0159518D01*
X0087291Y0159532D01*
X0087365Y0159549D01*
X0087437Y0159571D01*
X0087508Y0159596D01*
X0087578Y0159625D01*
X0087647Y0159657D01*
X0087713Y0159693D01*
X0087777Y0159733D01*
X0087840Y0159776D01*
X0087900Y0159822D01*
X0087957Y0159871D01*
X0088012Y0159923D01*
X0088064Y0159978D01*
X0088113Y0160035D01*
X0088159Y0160095D01*
X0088202Y0160158D01*
X0088242Y0160222D01*
X0088278Y0160288D01*
X0088310Y0160357D01*
X0088339Y0160427D01*
X0088364Y0160498D01*
X0088386Y0160570D01*
X0088403Y0160644D01*
X0088417Y0160718D01*
X0088427Y0160793D01*
X0088433Y0160868D01*
X0088435Y0160944D01*
X0080607Y0159500D02*
X0080607Y0162967D01*
X0080752Y0164411D02*
X0080463Y0164411D01*
X0080463Y0164700D01*
X0080752Y0164700D01*
X0080752Y0164411D01*
X0078795Y0164700D02*
X0076484Y0164700D01*
X0076484Y0159500D01*
X0074108Y0161522D02*
X0070642Y0161522D01*
X0068511Y0162967D02*
X0068511Y0159500D01*
X0065467Y0159500D02*
X0064311Y0162967D01*
X0063156Y0159500D01*
X0062000Y0164700D01*
X0066622Y0164700D02*
X0065467Y0159500D01*
X0068367Y0164411D02*
X0068656Y0164411D01*
X0068656Y0164700D01*
X0068367Y0164700D01*
X0068367Y0164411D01*
X0076484Y0162389D02*
X0078795Y0162389D01*
X0070000Y0138739D02*
X0070000Y0136183D01*
X0070000Y0137461D02*
X0074600Y0137461D01*
X0073322Y0134389D02*
X0070000Y0134389D01*
X0070000Y0131833D02*
X0073322Y0131833D01*
X0073392Y0131835D01*
X0073463Y0131841D01*
X0073532Y0131850D01*
X0073601Y0131864D01*
X0073670Y0131881D01*
X0073737Y0131902D01*
X0073803Y0131927D01*
X0073867Y0131955D01*
X0073930Y0131987D01*
X0073991Y0132022D01*
X0074050Y0132061D01*
X0074107Y0132102D01*
X0074161Y0132147D01*
X0074213Y0132195D01*
X0074262Y0132245D01*
X0074309Y0132299D01*
X0074352Y0132354D01*
X0074392Y0132412D01*
X0074429Y0132472D01*
X0074462Y0132534D01*
X0074492Y0132598D01*
X0074519Y0132663D01*
X0074542Y0132729D01*
X0074561Y0132797D01*
X0074576Y0132866D01*
X0074588Y0132935D01*
X0074596Y0133005D01*
X0074600Y0133076D01*
X0074600Y0133146D01*
X0074596Y0133217D01*
X0074588Y0133287D01*
X0074576Y0133356D01*
X0074561Y0133425D01*
X0074542Y0133493D01*
X0074519Y0133559D01*
X0074492Y0133624D01*
X0074462Y0133688D01*
X0074429Y0133750D01*
X0074392Y0133810D01*
X0074352Y0133868D01*
X0074309Y0133923D01*
X0074262Y0133977D01*
X0074213Y0134027D01*
X0074161Y0134075D01*
X0074107Y0134120D01*
X0074050Y0134161D01*
X0073991Y0134200D01*
X0073930Y0134235D01*
X0073867Y0134267D01*
X0073803Y0134295D01*
X0073737Y0134320D01*
X0073670Y0134341D01*
X0073601Y0134358D01*
X0073532Y0134372D01*
X0073463Y0134381D01*
X0073392Y0134387D01*
X0073322Y0134389D01*
X0073322Y0129739D02*
X0071278Y0129739D01*
X0071208Y0129737D01*
X0071137Y0129731D01*
X0071068Y0129722D01*
X0070999Y0129708D01*
X0070930Y0129691D01*
X0070863Y0129670D01*
X0070797Y0129645D01*
X0070733Y0129617D01*
X0070670Y0129585D01*
X0070609Y0129550D01*
X0070550Y0129511D01*
X0070493Y0129470D01*
X0070439Y0129425D01*
X0070387Y0129377D01*
X0070338Y0129327D01*
X0070291Y0129273D01*
X0070248Y0129218D01*
X0070208Y0129160D01*
X0070171Y0129100D01*
X0070138Y0129038D01*
X0070108Y0128974D01*
X0070081Y0128909D01*
X0070058Y0128843D01*
X0070039Y0128775D01*
X0070024Y0128706D01*
X0070012Y0128637D01*
X0070004Y0128567D01*
X0070000Y0128496D01*
X0070000Y0128426D01*
X0070004Y0128355D01*
X0070012Y0128285D01*
X0070024Y0128216D01*
X0070039Y0128147D01*
X0070058Y0128079D01*
X0070081Y0128013D01*
X0070108Y0127948D01*
X0070138Y0127884D01*
X0070171Y0127822D01*
X0070208Y0127762D01*
X0070248Y0127704D01*
X0070291Y0127649D01*
X0070338Y0127595D01*
X0070387Y0127545D01*
X0070439Y0127497D01*
X0070493Y0127452D01*
X0070550Y0127411D01*
X0070609Y0127372D01*
X0070670Y0127337D01*
X0070733Y0127305D01*
X0070797Y0127277D01*
X0070863Y0127252D01*
X0070930Y0127231D01*
X0070999Y0127214D01*
X0071068Y0127200D01*
X0071137Y0127191D01*
X0071208Y0127185D01*
X0071278Y0127183D01*
X0073322Y0127183D01*
X0073392Y0127185D01*
X0073463Y0127191D01*
X0073532Y0127200D01*
X0073601Y0127214D01*
X0073670Y0127231D01*
X0073737Y0127252D01*
X0073803Y0127277D01*
X0073867Y0127305D01*
X0073930Y0127337D01*
X0073991Y0127372D01*
X0074050Y0127411D01*
X0074107Y0127452D01*
X0074161Y0127497D01*
X0074213Y0127545D01*
X0074262Y0127595D01*
X0074309Y0127649D01*
X0074352Y0127704D01*
X0074392Y0127762D01*
X0074429Y0127822D01*
X0074462Y0127884D01*
X0074492Y0127948D01*
X0074519Y0128013D01*
X0074542Y0128079D01*
X0074561Y0128147D01*
X0074576Y0128216D01*
X0074588Y0128285D01*
X0074596Y0128355D01*
X0074600Y0128426D01*
X0074600Y0128496D01*
X0074596Y0128567D01*
X0074588Y0128637D01*
X0074576Y0128706D01*
X0074561Y0128775D01*
X0074542Y0128843D01*
X0074519Y0128909D01*
X0074492Y0128974D01*
X0074462Y0129038D01*
X0074429Y0129100D01*
X0074392Y0129160D01*
X0074352Y0129218D01*
X0074309Y0129273D01*
X0074262Y0129327D01*
X0074213Y0129377D01*
X0074161Y0129425D01*
X0074107Y0129470D01*
X0074050Y0129511D01*
X0073991Y0129550D01*
X0073930Y0129585D01*
X0073867Y0129617D01*
X0073803Y0129645D01*
X0073737Y0129670D01*
X0073670Y0129691D01*
X0073601Y0129708D01*
X0073532Y0129722D01*
X0073463Y0129731D01*
X0073392Y0129737D01*
X0073322Y0129739D01*
X0075111Y0125433D02*
X0075111Y0123389D01*
X0073322Y0121489D02*
X0071278Y0121489D01*
X0071209Y0121487D01*
X0071140Y0121482D01*
X0071071Y0121472D01*
X0071003Y0121459D01*
X0070936Y0121442D01*
X0070870Y0121422D01*
X0070805Y0121398D01*
X0070741Y0121371D01*
X0070679Y0121340D01*
X0070619Y0121306D01*
X0070561Y0121269D01*
X0070505Y0121228D01*
X0070451Y0121185D01*
X0070399Y0121139D01*
X0070350Y0121090D01*
X0070304Y0121038D01*
X0070261Y0120984D01*
X0070220Y0120928D01*
X0070183Y0120870D01*
X0070149Y0120810D01*
X0070118Y0120748D01*
X0070091Y0120684D01*
X0070067Y0120619D01*
X0070047Y0120553D01*
X0070030Y0120486D01*
X0070017Y0120418D01*
X0070007Y0120349D01*
X0070002Y0120280D01*
X0070000Y0120211D01*
X0070000Y0118933D01*
X0074600Y0118933D01*
X0074600Y0120211D01*
X0074598Y0120280D01*
X0074593Y0120349D01*
X0074583Y0120418D01*
X0074570Y0120486D01*
X0074553Y0120553D01*
X0074533Y0120619D01*
X0074509Y0120684D01*
X0074482Y0120748D01*
X0074451Y0120810D01*
X0074417Y0120870D01*
X0074380Y0120928D01*
X0074339Y0120984D01*
X0074296Y0121038D01*
X0074250Y0121090D01*
X0074201Y0121139D01*
X0074149Y0121185D01*
X0074095Y0121228D01*
X0074039Y0121269D01*
X0073981Y0121306D01*
X0073921Y0121340D01*
X0073859Y0121371D01*
X0073795Y0121398D01*
X0073730Y0121422D01*
X0073664Y0121442D01*
X0073597Y0121459D01*
X0073529Y0121472D01*
X0073460Y0121482D01*
X0073391Y0121487D01*
X0073322Y0121489D01*
X0074600Y0115778D02*
X0074598Y0115848D01*
X0074592Y0115919D01*
X0074583Y0115988D01*
X0074569Y0116057D01*
X0074552Y0116126D01*
X0074531Y0116193D01*
X0074506Y0116259D01*
X0074478Y0116323D01*
X0074446Y0116386D01*
X0074411Y0116447D01*
X0074372Y0116506D01*
X0074331Y0116563D01*
X0074286Y0116617D01*
X0074238Y0116669D01*
X0074188Y0116718D01*
X0074134Y0116765D01*
X0074079Y0116808D01*
X0074021Y0116848D01*
X0073961Y0116885D01*
X0073899Y0116918D01*
X0073835Y0116948D01*
X0073770Y0116975D01*
X0073704Y0116998D01*
X0073636Y0117017D01*
X0073567Y0117032D01*
X0073498Y0117044D01*
X0073428Y0117052D01*
X0073357Y0117056D01*
X0073287Y0117056D01*
X0073216Y0117052D01*
X0073146Y0117044D01*
X0073077Y0117032D01*
X0073008Y0117017D01*
X0072940Y0116998D01*
X0072874Y0116975D01*
X0072809Y0116948D01*
X0072745Y0116918D01*
X0072683Y0116885D01*
X0072623Y0116848D01*
X0072565Y0116808D01*
X0072510Y0116765D01*
X0072456Y0116718D01*
X0072406Y0116669D01*
X0072358Y0116617D01*
X0072313Y0116563D01*
X0072272Y0116506D01*
X0072233Y0116447D01*
X0072198Y0116386D01*
X0072166Y0116323D01*
X0072138Y0116259D01*
X0072113Y0116193D01*
X0072092Y0116126D01*
X0072075Y0116057D01*
X0072061Y0115988D01*
X0072052Y0115919D01*
X0072046Y0115848D01*
X0072044Y0115778D01*
X0072044Y0114500D01*
X0072044Y0115778D02*
X0072042Y0115841D01*
X0072036Y0115904D01*
X0072027Y0115966D01*
X0072013Y0116027D01*
X0071996Y0116088D01*
X0071975Y0116147D01*
X0071950Y0116205D01*
X0071922Y0116262D01*
X0071891Y0116316D01*
X0071856Y0116368D01*
X0071818Y0116419D01*
X0071777Y0116467D01*
X0071733Y0116512D01*
X0071687Y0116554D01*
X0071638Y0116594D01*
X0071587Y0116630D01*
X0071533Y0116663D01*
X0071478Y0116693D01*
X0071420Y0116719D01*
X0071362Y0116742D01*
X0071302Y0116761D01*
X0071241Y0116776D01*
X0071179Y0116788D01*
X0071116Y0116796D01*
X0071053Y0116800D01*
X0070991Y0116800D01*
X0070928Y0116796D01*
X0070865Y0116788D01*
X0070803Y0116776D01*
X0070742Y0116761D01*
X0070682Y0116742D01*
X0070624Y0116719D01*
X0070566Y0116693D01*
X0070511Y0116663D01*
X0070457Y0116630D01*
X0070406Y0116594D01*
X0070357Y0116554D01*
X0070311Y0116512D01*
X0070267Y0116467D01*
X0070226Y0116419D01*
X0070188Y0116368D01*
X0070153Y0116316D01*
X0070122Y0116262D01*
X0070094Y0116205D01*
X0070069Y0116147D01*
X0070048Y0116088D01*
X0070031Y0116027D01*
X0070017Y0115966D01*
X0070008Y0115904D01*
X0070002Y0115841D01*
X0070000Y0115778D01*
X0070000Y0114500D01*
X0074600Y0114500D01*
X0074600Y0115778D01*
X0074600Y0112556D02*
X0071789Y0111022D01*
X0072811Y0110000D02*
X0070000Y0112556D01*
X0070000Y0110000D02*
X0074600Y0110000D01*
X0079500Y0110600D02*
X0079500Y0106000D01*
X0079500Y0108044D02*
X0080778Y0108044D01*
X0081033Y0108044D02*
X0082056Y0106000D01*
X0083000Y0104600D02*
X0084278Y0104600D01*
X0084348Y0104598D01*
X0084419Y0104592D01*
X0084488Y0104583D01*
X0084557Y0104569D01*
X0084626Y0104552D01*
X0084693Y0104531D01*
X0084759Y0104506D01*
X0084823Y0104478D01*
X0084886Y0104446D01*
X0084947Y0104411D01*
X0085006Y0104372D01*
X0085063Y0104331D01*
X0085117Y0104286D01*
X0085169Y0104238D01*
X0085218Y0104188D01*
X0085265Y0104134D01*
X0085308Y0104079D01*
X0085348Y0104021D01*
X0085385Y0103961D01*
X0085418Y0103899D01*
X0085448Y0103835D01*
X0085475Y0103770D01*
X0085498Y0103704D01*
X0085517Y0103636D01*
X0085532Y0103567D01*
X0085544Y0103498D01*
X0085552Y0103428D01*
X0085556Y0103357D01*
X0085556Y0103287D01*
X0085552Y0103216D01*
X0085544Y0103146D01*
X0085532Y0103077D01*
X0085517Y0103008D01*
X0085498Y0102940D01*
X0085475Y0102874D01*
X0085448Y0102809D01*
X0085418Y0102745D01*
X0085385Y0102683D01*
X0085348Y0102623D01*
X0085308Y0102565D01*
X0085265Y0102510D01*
X0085218Y0102456D01*
X0085169Y0102406D01*
X0085117Y0102358D01*
X0085063Y0102313D01*
X0085006Y0102272D01*
X0084947Y0102233D01*
X0084886Y0102198D01*
X0084823Y0102166D01*
X0084759Y0102138D01*
X0084693Y0102113D01*
X0084626Y0102092D01*
X0084557Y0102075D01*
X0084488Y0102061D01*
X0084419Y0102052D01*
X0084348Y0102046D01*
X0084278Y0102044D01*
X0083000Y0102044D01*
X0084533Y0102044D02*
X0085556Y0100000D01*
X0087471Y0100000D02*
X0090027Y0100000D01*
X0087471Y0100000D02*
X0089643Y0102556D01*
X0088877Y0104600D02*
X0088803Y0104598D01*
X0088729Y0104593D01*
X0088655Y0104583D01*
X0088582Y0104570D01*
X0088509Y0104554D01*
X0088438Y0104533D01*
X0088368Y0104509D01*
X0088299Y0104482D01*
X0088231Y0104451D01*
X0088165Y0104417D01*
X0088101Y0104380D01*
X0088039Y0104339D01*
X0087979Y0104295D01*
X0087921Y0104249D01*
X0087865Y0104199D01*
X0087812Y0104147D01*
X0087762Y0104092D01*
X0087715Y0104035D01*
X0087671Y0103975D01*
X0087629Y0103913D01*
X0087591Y0103850D01*
X0087556Y0103784D01*
X0087525Y0103717D01*
X0087497Y0103648D01*
X0087472Y0103578D01*
X0089643Y0102556D02*
X0089690Y0102603D01*
X0089734Y0102653D01*
X0089776Y0102705D01*
X0089815Y0102759D01*
X0089850Y0102815D01*
X0089883Y0102873D01*
X0089913Y0102933D01*
X0089939Y0102994D01*
X0089962Y0103057D01*
X0089981Y0103121D01*
X0089997Y0103185D01*
X0090010Y0103251D01*
X0090019Y0103317D01*
X0090024Y0103383D01*
X0090026Y0103450D01*
X0090027Y0103450D02*
X0090025Y0103517D01*
X0090019Y0103584D01*
X0090010Y0103650D01*
X0089996Y0103715D01*
X0089979Y0103780D01*
X0089958Y0103843D01*
X0089933Y0103905D01*
X0089905Y0103966D01*
X0089873Y0104025D01*
X0089838Y0104082D01*
X0089799Y0104137D01*
X0089758Y0104189D01*
X0089713Y0104239D01*
X0089666Y0104286D01*
X0089616Y0104331D01*
X0089564Y0104372D01*
X0089509Y0104411D01*
X0089452Y0104446D01*
X0089393Y0104478D01*
X0089332Y0104506D01*
X0089270Y0104531D01*
X0089207Y0104552D01*
X0089142Y0104569D01*
X0089077Y0104583D01*
X0089011Y0104592D01*
X0088944Y0104598D01*
X0088877Y0104600D01*
X0086527Y0107278D02*
X0086525Y0107208D01*
X0086519Y0107137D01*
X0086510Y0107068D01*
X0086496Y0106999D01*
X0086479Y0106930D01*
X0086458Y0106863D01*
X0086433Y0106797D01*
X0086405Y0106733D01*
X0086373Y0106670D01*
X0086338Y0106609D01*
X0086299Y0106550D01*
X0086258Y0106493D01*
X0086213Y0106439D01*
X0086165Y0106387D01*
X0086115Y0106338D01*
X0086061Y0106291D01*
X0086006Y0106248D01*
X0085948Y0106208D01*
X0085888Y0106171D01*
X0085826Y0106138D01*
X0085762Y0106108D01*
X0085697Y0106081D01*
X0085631Y0106058D01*
X0085563Y0106039D01*
X0085494Y0106024D01*
X0085425Y0106012D01*
X0085355Y0106004D01*
X0085284Y0106000D01*
X0085214Y0106000D01*
X0085143Y0106004D01*
X0085073Y0106012D01*
X0085004Y0106024D01*
X0084935Y0106039D01*
X0084867Y0106058D01*
X0084801Y0106081D01*
X0084736Y0106108D01*
X0084672Y0106138D01*
X0084610Y0106171D01*
X0084550Y0106208D01*
X0084492Y0106248D01*
X0084437Y0106291D01*
X0084383Y0106338D01*
X0084333Y0106387D01*
X0084285Y0106439D01*
X0084240Y0106493D01*
X0084199Y0106550D01*
X0084160Y0106609D01*
X0084125Y0106670D01*
X0084093Y0106733D01*
X0084065Y0106797D01*
X0084040Y0106863D01*
X0084019Y0106930D01*
X0084002Y0106999D01*
X0083988Y0107068D01*
X0083979Y0107137D01*
X0083973Y0107208D01*
X0083971Y0107278D01*
X0083973Y0107348D01*
X0083979Y0107419D01*
X0083988Y0107488D01*
X0084002Y0107557D01*
X0084019Y0107626D01*
X0084040Y0107693D01*
X0084065Y0107759D01*
X0084093Y0107823D01*
X0084125Y0107886D01*
X0084160Y0107947D01*
X0084199Y0108006D01*
X0084240Y0108063D01*
X0084285Y0108117D01*
X0084333Y0108169D01*
X0084383Y0108218D01*
X0084437Y0108265D01*
X0084492Y0108308D01*
X0084550Y0108348D01*
X0084610Y0108385D01*
X0084672Y0108418D01*
X0084736Y0108448D01*
X0084801Y0108475D01*
X0084867Y0108498D01*
X0084935Y0108517D01*
X0085004Y0108532D01*
X0085073Y0108544D01*
X0085143Y0108552D01*
X0085214Y0108556D01*
X0085284Y0108556D01*
X0085355Y0108552D01*
X0085425Y0108544D01*
X0085494Y0108532D01*
X0085563Y0108517D01*
X0085631Y0108498D01*
X0085697Y0108475D01*
X0085762Y0108448D01*
X0085826Y0108418D01*
X0085888Y0108385D01*
X0085948Y0108348D01*
X0086006Y0108308D01*
X0086061Y0108265D01*
X0086115Y0108218D01*
X0086165Y0108169D01*
X0086213Y0108117D01*
X0086258Y0108063D01*
X0086299Y0108006D01*
X0086338Y0107947D01*
X0086373Y0107886D01*
X0086405Y0107823D01*
X0086433Y0107759D01*
X0086458Y0107693D01*
X0086479Y0107626D01*
X0086496Y0107557D01*
X0086510Y0107488D01*
X0086519Y0107419D01*
X0086525Y0107348D01*
X0086527Y0107278D01*
X0086271Y0109578D02*
X0086269Y0109515D01*
X0086263Y0109452D01*
X0086254Y0109390D01*
X0086240Y0109329D01*
X0086223Y0109268D01*
X0086202Y0109209D01*
X0086177Y0109151D01*
X0086149Y0109094D01*
X0086118Y0109040D01*
X0086083Y0108988D01*
X0086045Y0108937D01*
X0086004Y0108889D01*
X0085960Y0108844D01*
X0085914Y0108802D01*
X0085865Y0108762D01*
X0085814Y0108726D01*
X0085760Y0108693D01*
X0085705Y0108663D01*
X0085647Y0108637D01*
X0085589Y0108614D01*
X0085529Y0108595D01*
X0085468Y0108580D01*
X0085406Y0108568D01*
X0085343Y0108560D01*
X0085280Y0108556D01*
X0085218Y0108556D01*
X0085155Y0108560D01*
X0085092Y0108568D01*
X0085030Y0108580D01*
X0084969Y0108595D01*
X0084909Y0108614D01*
X0084851Y0108637D01*
X0084793Y0108663D01*
X0084738Y0108693D01*
X0084684Y0108726D01*
X0084633Y0108762D01*
X0084584Y0108802D01*
X0084538Y0108844D01*
X0084494Y0108889D01*
X0084453Y0108937D01*
X0084415Y0108988D01*
X0084380Y0109040D01*
X0084349Y0109094D01*
X0084321Y0109151D01*
X0084296Y0109209D01*
X0084275Y0109268D01*
X0084258Y0109329D01*
X0084244Y0109390D01*
X0084235Y0109452D01*
X0084229Y0109515D01*
X0084227Y0109578D01*
X0084229Y0109641D01*
X0084235Y0109704D01*
X0084244Y0109766D01*
X0084258Y0109827D01*
X0084275Y0109888D01*
X0084296Y0109947D01*
X0084321Y0110005D01*
X0084349Y0110062D01*
X0084380Y0110116D01*
X0084415Y0110168D01*
X0084453Y0110219D01*
X0084494Y0110267D01*
X0084538Y0110312D01*
X0084584Y0110354D01*
X0084633Y0110394D01*
X0084684Y0110430D01*
X0084738Y0110463D01*
X0084793Y0110493D01*
X0084851Y0110519D01*
X0084909Y0110542D01*
X0084969Y0110561D01*
X0085030Y0110576D01*
X0085092Y0110588D01*
X0085155Y0110596D01*
X0085218Y0110600D01*
X0085280Y0110600D01*
X0085343Y0110596D01*
X0085406Y0110588D01*
X0085468Y0110576D01*
X0085529Y0110561D01*
X0085589Y0110542D01*
X0085647Y0110519D01*
X0085705Y0110493D01*
X0085760Y0110463D01*
X0085814Y0110430D01*
X0085865Y0110394D01*
X0085914Y0110354D01*
X0085960Y0110312D01*
X0086004Y0110267D01*
X0086045Y0110219D01*
X0086083Y0110168D01*
X0086118Y0110116D01*
X0086149Y0110062D01*
X0086177Y0110005D01*
X0086202Y0109947D01*
X0086223Y0109888D01*
X0086240Y0109827D01*
X0086254Y0109766D01*
X0086263Y0109704D01*
X0086269Y0109641D01*
X0086271Y0109578D01*
X0080778Y0110600D02*
X0080848Y0110598D01*
X0080919Y0110592D01*
X0080988Y0110583D01*
X0081057Y0110569D01*
X0081126Y0110552D01*
X0081193Y0110531D01*
X0081259Y0110506D01*
X0081323Y0110478D01*
X0081386Y0110446D01*
X0081447Y0110411D01*
X0081506Y0110372D01*
X0081563Y0110331D01*
X0081617Y0110286D01*
X0081669Y0110238D01*
X0081718Y0110188D01*
X0081765Y0110134D01*
X0081808Y0110079D01*
X0081848Y0110021D01*
X0081885Y0109961D01*
X0081918Y0109899D01*
X0081948Y0109835D01*
X0081975Y0109770D01*
X0081998Y0109704D01*
X0082017Y0109636D01*
X0082032Y0109567D01*
X0082044Y0109498D01*
X0082052Y0109428D01*
X0082056Y0109357D01*
X0082056Y0109287D01*
X0082052Y0109216D01*
X0082044Y0109146D01*
X0082032Y0109077D01*
X0082017Y0109008D01*
X0081998Y0108940D01*
X0081975Y0108874D01*
X0081948Y0108809D01*
X0081918Y0108745D01*
X0081885Y0108683D01*
X0081848Y0108623D01*
X0081808Y0108565D01*
X0081765Y0108510D01*
X0081718Y0108456D01*
X0081669Y0108406D01*
X0081617Y0108358D01*
X0081563Y0108313D01*
X0081506Y0108272D01*
X0081447Y0108233D01*
X0081386Y0108198D01*
X0081323Y0108166D01*
X0081259Y0108138D01*
X0081193Y0108113D01*
X0081126Y0108092D01*
X0081057Y0108075D01*
X0080988Y0108061D01*
X0080919Y0108052D01*
X0080848Y0108046D01*
X0080778Y0108044D01*
X0080778Y0110600D02*
X0079500Y0110600D01*
X0083000Y0104600D02*
X0083000Y0100000D01*
X0080527Y0102044D02*
X0080527Y0103322D01*
X0080527Y0102044D02*
X0078993Y0102044D01*
X0080526Y0102044D02*
X0080524Y0101955D01*
X0080518Y0101866D01*
X0080509Y0101777D01*
X0080495Y0101689D01*
X0080478Y0101602D01*
X0080456Y0101515D01*
X0080431Y0101429D01*
X0080403Y0101345D01*
X0080370Y0101262D01*
X0080334Y0101180D01*
X0080295Y0101100D01*
X0080252Y0101022D01*
X0080206Y0100946D01*
X0080156Y0100872D01*
X0080104Y0100800D01*
X0080048Y0100730D01*
X0079989Y0100663D01*
X0079927Y0100599D01*
X0079863Y0100537D01*
X0079796Y0100478D01*
X0079726Y0100422D01*
X0079654Y0100370D01*
X0079580Y0100320D01*
X0079504Y0100274D01*
X0079426Y0100231D01*
X0079346Y0100192D01*
X0079264Y0100156D01*
X0079181Y0100123D01*
X0079097Y0100095D01*
X0079011Y0100070D01*
X0078924Y0100048D01*
X0078837Y0100031D01*
X0078749Y0100017D01*
X0078660Y0100008D01*
X0078571Y0100002D01*
X0078482Y0100000D01*
X0076056Y0100000D02*
X0075033Y0102044D01*
X0074778Y0102044D02*
X0073500Y0102044D01*
X0074778Y0102044D02*
X0074848Y0102046D01*
X0074919Y0102052D01*
X0074988Y0102061D01*
X0075057Y0102075D01*
X0075126Y0102092D01*
X0075193Y0102113D01*
X0075259Y0102138D01*
X0075323Y0102166D01*
X0075386Y0102198D01*
X0075447Y0102233D01*
X0075506Y0102272D01*
X0075563Y0102313D01*
X0075617Y0102358D01*
X0075669Y0102406D01*
X0075718Y0102456D01*
X0075765Y0102510D01*
X0075808Y0102565D01*
X0075848Y0102623D01*
X0075885Y0102683D01*
X0075918Y0102745D01*
X0075948Y0102809D01*
X0075975Y0102874D01*
X0075998Y0102940D01*
X0076017Y0103008D01*
X0076032Y0103077D01*
X0076044Y0103146D01*
X0076052Y0103216D01*
X0076056Y0103287D01*
X0076056Y0103357D01*
X0076052Y0103428D01*
X0076044Y0103498D01*
X0076032Y0103567D01*
X0076017Y0103636D01*
X0075998Y0103704D01*
X0075975Y0103770D01*
X0075948Y0103835D01*
X0075918Y0103899D01*
X0075885Y0103961D01*
X0075848Y0104021D01*
X0075808Y0104079D01*
X0075765Y0104134D01*
X0075718Y0104188D01*
X0075669Y0104238D01*
X0075617Y0104286D01*
X0075563Y0104331D01*
X0075506Y0104372D01*
X0075447Y0104411D01*
X0075386Y0104446D01*
X0075323Y0104478D01*
X0075259Y0104506D01*
X0075193Y0104531D01*
X0075126Y0104552D01*
X0075057Y0104569D01*
X0074988Y0104583D01*
X0074919Y0104592D01*
X0074848Y0104598D01*
X0074778Y0104600D01*
X0073500Y0104600D01*
X0073500Y0100000D01*
X0070527Y0101022D02*
X0070527Y0101533D01*
X0070526Y0101533D02*
X0070524Y0101595D01*
X0070519Y0101656D01*
X0070509Y0101717D01*
X0070496Y0101778D01*
X0070480Y0101837D01*
X0070460Y0101895D01*
X0070436Y0101952D01*
X0070409Y0102008D01*
X0070379Y0102062D01*
X0070345Y0102114D01*
X0070309Y0102163D01*
X0070269Y0102211D01*
X0070227Y0102256D01*
X0070182Y0102298D01*
X0070134Y0102338D01*
X0070085Y0102374D01*
X0070033Y0102408D01*
X0069979Y0102438D01*
X0069923Y0102465D01*
X0069866Y0102489D01*
X0069808Y0102509D01*
X0069749Y0102525D01*
X0069688Y0102538D01*
X0069627Y0102548D01*
X0069566Y0102553D01*
X0069504Y0102555D01*
X0069504Y0102556D02*
X0067971Y0102556D01*
X0067971Y0104600D01*
X0070527Y0104600D01*
X0070526Y0101022D02*
X0070524Y0100960D01*
X0070519Y0100899D01*
X0070509Y0100838D01*
X0070496Y0100777D01*
X0070480Y0100718D01*
X0070460Y0100660D01*
X0070436Y0100603D01*
X0070409Y0100547D01*
X0070379Y0100493D01*
X0070345Y0100441D01*
X0070309Y0100392D01*
X0070269Y0100344D01*
X0070227Y0100299D01*
X0070182Y0100257D01*
X0070134Y0100217D01*
X0070085Y0100181D01*
X0070033Y0100147D01*
X0069979Y0100117D01*
X0069923Y0100090D01*
X0069866Y0100066D01*
X0069808Y0100046D01*
X0069749Y0100030D01*
X0069688Y0100017D01*
X0069627Y0100007D01*
X0069566Y0100002D01*
X0069504Y0100000D01*
X0067971Y0100000D01*
X0066056Y0100000D02*
X0065033Y0102044D01*
X0064778Y0102044D02*
X0063500Y0102044D01*
X0064778Y0102044D02*
X0064848Y0102046D01*
X0064919Y0102052D01*
X0064988Y0102061D01*
X0065057Y0102075D01*
X0065126Y0102092D01*
X0065193Y0102113D01*
X0065259Y0102138D01*
X0065323Y0102166D01*
X0065386Y0102198D01*
X0065447Y0102233D01*
X0065506Y0102272D01*
X0065563Y0102313D01*
X0065617Y0102358D01*
X0065669Y0102406D01*
X0065718Y0102456D01*
X0065765Y0102510D01*
X0065808Y0102565D01*
X0065848Y0102623D01*
X0065885Y0102683D01*
X0065918Y0102745D01*
X0065948Y0102809D01*
X0065975Y0102874D01*
X0065998Y0102940D01*
X0066017Y0103008D01*
X0066032Y0103077D01*
X0066044Y0103146D01*
X0066052Y0103216D01*
X0066056Y0103287D01*
X0066056Y0103357D01*
X0066052Y0103428D01*
X0066044Y0103498D01*
X0066032Y0103567D01*
X0066017Y0103636D01*
X0065998Y0103704D01*
X0065975Y0103770D01*
X0065948Y0103835D01*
X0065918Y0103899D01*
X0065885Y0103961D01*
X0065848Y0104021D01*
X0065808Y0104079D01*
X0065765Y0104134D01*
X0065718Y0104188D01*
X0065669Y0104238D01*
X0065617Y0104286D01*
X0065563Y0104331D01*
X0065506Y0104372D01*
X0065447Y0104411D01*
X0065386Y0104446D01*
X0065323Y0104478D01*
X0065259Y0104506D01*
X0065193Y0104531D01*
X0065126Y0104552D01*
X0065057Y0104569D01*
X0064988Y0104583D01*
X0064919Y0104592D01*
X0064848Y0104598D01*
X0064778Y0104600D01*
X0063500Y0104600D01*
X0063500Y0100000D01*
X0062778Y0096100D02*
X0061500Y0096100D01*
X0061500Y0091500D01*
X0061500Y0093544D02*
X0062778Y0093544D01*
X0063033Y0093544D02*
X0064056Y0091500D01*
X0065971Y0092522D02*
X0068527Y0092522D01*
X0067760Y0093544D02*
X0067760Y0091500D01*
X0065971Y0092522D02*
X0066993Y0096100D01*
X0062778Y0096100D02*
X0062848Y0096098D01*
X0062919Y0096092D01*
X0062988Y0096083D01*
X0063057Y0096069D01*
X0063126Y0096052D01*
X0063193Y0096031D01*
X0063259Y0096006D01*
X0063323Y0095978D01*
X0063386Y0095946D01*
X0063447Y0095911D01*
X0063506Y0095872D01*
X0063563Y0095831D01*
X0063617Y0095786D01*
X0063669Y0095738D01*
X0063718Y0095688D01*
X0063765Y0095634D01*
X0063808Y0095579D01*
X0063848Y0095521D01*
X0063885Y0095461D01*
X0063918Y0095399D01*
X0063948Y0095335D01*
X0063975Y0095270D01*
X0063998Y0095204D01*
X0064017Y0095136D01*
X0064032Y0095067D01*
X0064044Y0094998D01*
X0064052Y0094928D01*
X0064056Y0094857D01*
X0064056Y0094787D01*
X0064052Y0094716D01*
X0064044Y0094646D01*
X0064032Y0094577D01*
X0064017Y0094508D01*
X0063998Y0094440D01*
X0063975Y0094374D01*
X0063948Y0094309D01*
X0063918Y0094245D01*
X0063885Y0094183D01*
X0063848Y0094123D01*
X0063808Y0094065D01*
X0063765Y0094010D01*
X0063718Y0093956D01*
X0063669Y0093906D01*
X0063617Y0093858D01*
X0063563Y0093813D01*
X0063506Y0093772D01*
X0063447Y0093733D01*
X0063386Y0093698D01*
X0063323Y0093666D01*
X0063259Y0093638D01*
X0063193Y0093613D01*
X0063126Y0093592D01*
X0063057Y0093575D01*
X0062988Y0093561D01*
X0062919Y0093552D01*
X0062848Y0093546D01*
X0062778Y0093544D01*
X0057027Y0093100D02*
X0054471Y0093100D01*
X0054471Y0091056D01*
X0056004Y0091056D01*
X0056004Y0091055D02*
X0056066Y0091053D01*
X0056127Y0091048D01*
X0056188Y0091038D01*
X0056249Y0091025D01*
X0056308Y0091009D01*
X0056366Y0090989D01*
X0056423Y0090965D01*
X0056479Y0090938D01*
X0056533Y0090908D01*
X0056585Y0090874D01*
X0056634Y0090838D01*
X0056682Y0090798D01*
X0056727Y0090756D01*
X0056769Y0090711D01*
X0056809Y0090663D01*
X0056845Y0090614D01*
X0056879Y0090562D01*
X0056909Y0090508D01*
X0056936Y0090452D01*
X0056960Y0090395D01*
X0056980Y0090337D01*
X0056996Y0090278D01*
X0057009Y0090217D01*
X0057019Y0090156D01*
X0057024Y0090095D01*
X0057026Y0090033D01*
X0057027Y0090033D02*
X0057027Y0089522D01*
X0057026Y0089522D02*
X0057024Y0089460D01*
X0057019Y0089399D01*
X0057009Y0089338D01*
X0056996Y0089277D01*
X0056980Y0089218D01*
X0056960Y0089160D01*
X0056936Y0089103D01*
X0056909Y0089047D01*
X0056879Y0088993D01*
X0056845Y0088941D01*
X0056809Y0088892D01*
X0056769Y0088844D01*
X0056727Y0088799D01*
X0056682Y0088757D01*
X0056634Y0088717D01*
X0056585Y0088681D01*
X0056533Y0088647D01*
X0056479Y0088617D01*
X0056423Y0088590D01*
X0056366Y0088566D01*
X0056308Y0088546D01*
X0056249Y0088530D01*
X0056188Y0088517D01*
X0056127Y0088507D01*
X0056066Y0088502D01*
X0056004Y0088500D01*
X0054471Y0088500D01*
X0052527Y0088500D02*
X0049971Y0088500D01*
X0051249Y0088500D02*
X0051249Y0093100D01*
X0049971Y0092078D01*
X0046778Y0093100D02*
X0046848Y0093098D01*
X0046919Y0093092D01*
X0046988Y0093083D01*
X0047057Y0093069D01*
X0047126Y0093052D01*
X0047193Y0093031D01*
X0047259Y0093006D01*
X0047323Y0092978D01*
X0047386Y0092946D01*
X0047447Y0092911D01*
X0047506Y0092872D01*
X0047563Y0092831D01*
X0047617Y0092786D01*
X0047669Y0092738D01*
X0047718Y0092688D01*
X0047765Y0092634D01*
X0047808Y0092579D01*
X0047848Y0092521D01*
X0047885Y0092461D01*
X0047918Y0092399D01*
X0047948Y0092335D01*
X0047975Y0092270D01*
X0047998Y0092204D01*
X0048017Y0092136D01*
X0048032Y0092067D01*
X0048044Y0091998D01*
X0048052Y0091928D01*
X0048056Y0091857D01*
X0048056Y0091787D01*
X0048052Y0091716D01*
X0048044Y0091646D01*
X0048032Y0091577D01*
X0048017Y0091508D01*
X0047998Y0091440D01*
X0047975Y0091374D01*
X0047948Y0091309D01*
X0047918Y0091245D01*
X0047885Y0091183D01*
X0047848Y0091123D01*
X0047808Y0091065D01*
X0047765Y0091010D01*
X0047718Y0090956D01*
X0047669Y0090906D01*
X0047617Y0090858D01*
X0047563Y0090813D01*
X0047506Y0090772D01*
X0047447Y0090733D01*
X0047386Y0090698D01*
X0047323Y0090666D01*
X0047259Y0090638D01*
X0047193Y0090613D01*
X0047126Y0090592D01*
X0047057Y0090575D01*
X0046988Y0090561D01*
X0046919Y0090552D01*
X0046848Y0090546D01*
X0046778Y0090544D01*
X0045500Y0090544D01*
X0047033Y0090544D02*
X0048056Y0088500D01*
X0045500Y0088500D02*
X0045500Y0093100D01*
X0046778Y0093100D01*
X0038200Y0096994D02*
X0033000Y0096994D01*
X0033000Y0098438D01*
X0033002Y0098514D01*
X0033008Y0098589D01*
X0033018Y0098664D01*
X0033032Y0098738D01*
X0033049Y0098812D01*
X0033071Y0098884D01*
X0033096Y0098955D01*
X0033125Y0099025D01*
X0033157Y0099094D01*
X0033193Y0099160D01*
X0033233Y0099224D01*
X0033276Y0099287D01*
X0033322Y0099347D01*
X0033371Y0099404D01*
X0033423Y0099459D01*
X0033478Y0099511D01*
X0033535Y0099560D01*
X0033595Y0099606D01*
X0033658Y0099649D01*
X0033722Y0099689D01*
X0033788Y0099725D01*
X0033857Y0099757D01*
X0033927Y0099786D01*
X0033998Y0099811D01*
X0034070Y0099833D01*
X0034144Y0099850D01*
X0034218Y0099864D01*
X0034293Y0099874D01*
X0034368Y0099880D01*
X0034444Y0099882D01*
X0034520Y0099880D01*
X0034595Y0099874D01*
X0034670Y0099864D01*
X0034744Y0099850D01*
X0034818Y0099833D01*
X0034890Y0099811D01*
X0034961Y0099786D01*
X0035031Y0099757D01*
X0035100Y0099725D01*
X0035166Y0099689D01*
X0035230Y0099649D01*
X0035293Y0099606D01*
X0035353Y0099560D01*
X0035410Y0099511D01*
X0035465Y0099459D01*
X0035517Y0099404D01*
X0035566Y0099347D01*
X0035612Y0099287D01*
X0035655Y0099224D01*
X0035695Y0099160D01*
X0035731Y0099094D01*
X0035763Y0099025D01*
X0035792Y0098955D01*
X0035817Y0098884D01*
X0035839Y0098812D01*
X0035856Y0098738D01*
X0035870Y0098664D01*
X0035880Y0098589D01*
X0035886Y0098514D01*
X0035888Y0098438D01*
X0035889Y0098438D02*
X0035889Y0096994D01*
X0035889Y0101994D02*
X0035889Y0103438D01*
X0035889Y0103727D02*
X0038200Y0104883D01*
X0036756Y0107003D02*
X0034444Y0107003D01*
X0034444Y0107004D02*
X0034368Y0107006D01*
X0034293Y0107012D01*
X0034218Y0107022D01*
X0034144Y0107036D01*
X0034070Y0107053D01*
X0033998Y0107075D01*
X0033927Y0107100D01*
X0033857Y0107129D01*
X0033788Y0107161D01*
X0033722Y0107197D01*
X0033658Y0107237D01*
X0033595Y0107280D01*
X0033535Y0107326D01*
X0033478Y0107375D01*
X0033423Y0107427D01*
X0033371Y0107482D01*
X0033322Y0107539D01*
X0033276Y0107599D01*
X0033233Y0107662D01*
X0033193Y0107726D01*
X0033157Y0107792D01*
X0033125Y0107861D01*
X0033096Y0107931D01*
X0033071Y0108002D01*
X0033049Y0108074D01*
X0033032Y0108148D01*
X0033018Y0108222D01*
X0033008Y0108297D01*
X0033002Y0108372D01*
X0033000Y0108448D01*
X0033002Y0108524D01*
X0033008Y0108599D01*
X0033018Y0108674D01*
X0033032Y0108748D01*
X0033049Y0108822D01*
X0033071Y0108894D01*
X0033096Y0108965D01*
X0033125Y0109035D01*
X0033157Y0109104D01*
X0033193Y0109170D01*
X0033233Y0109234D01*
X0033276Y0109297D01*
X0033322Y0109357D01*
X0033371Y0109414D01*
X0033423Y0109469D01*
X0033478Y0109521D01*
X0033535Y0109570D01*
X0033595Y0109616D01*
X0033658Y0109659D01*
X0033722Y0109699D01*
X0033788Y0109735D01*
X0033857Y0109767D01*
X0033927Y0109796D01*
X0033998Y0109821D01*
X0034070Y0109843D01*
X0034144Y0109860D01*
X0034218Y0109874D01*
X0034293Y0109884D01*
X0034368Y0109890D01*
X0034444Y0109892D01*
X0036756Y0109892D01*
X0036832Y0109890D01*
X0036907Y0109884D01*
X0036982Y0109874D01*
X0037056Y0109860D01*
X0037130Y0109843D01*
X0037202Y0109821D01*
X0037273Y0109796D01*
X0037343Y0109767D01*
X0037412Y0109735D01*
X0037478Y0109699D01*
X0037542Y0109659D01*
X0037605Y0109616D01*
X0037665Y0109570D01*
X0037722Y0109521D01*
X0037777Y0109469D01*
X0037829Y0109414D01*
X0037878Y0109357D01*
X0037924Y0109297D01*
X0037967Y0109234D01*
X0038007Y0109170D01*
X0038043Y0109104D01*
X0038075Y0109035D01*
X0038104Y0108965D01*
X0038129Y0108894D01*
X0038151Y0108822D01*
X0038168Y0108748D01*
X0038182Y0108674D01*
X0038192Y0108599D01*
X0038198Y0108524D01*
X0038200Y0108448D01*
X0038198Y0108372D01*
X0038192Y0108297D01*
X0038182Y0108222D01*
X0038168Y0108148D01*
X0038151Y0108074D01*
X0038129Y0108002D01*
X0038104Y0107931D01*
X0038075Y0107861D01*
X0038043Y0107792D01*
X0038007Y0107726D01*
X0037967Y0107662D01*
X0037924Y0107599D01*
X0037878Y0107539D01*
X0037829Y0107482D01*
X0037777Y0107427D01*
X0037722Y0107375D01*
X0037665Y0107326D01*
X0037605Y0107280D01*
X0037542Y0107237D01*
X0037478Y0107197D01*
X0037412Y0107161D01*
X0037343Y0107129D01*
X0037273Y0107100D01*
X0037202Y0107075D01*
X0037130Y0107053D01*
X0037056Y0107036D01*
X0036982Y0107022D01*
X0036907Y0107012D01*
X0036832Y0107006D01*
X0036756Y0107004D01*
X0035888Y0103438D02*
X0035886Y0103514D01*
X0035880Y0103589D01*
X0035870Y0103664D01*
X0035856Y0103738D01*
X0035839Y0103812D01*
X0035817Y0103884D01*
X0035792Y0103955D01*
X0035763Y0104025D01*
X0035731Y0104094D01*
X0035695Y0104160D01*
X0035655Y0104224D01*
X0035612Y0104287D01*
X0035566Y0104347D01*
X0035517Y0104404D01*
X0035465Y0104459D01*
X0035410Y0104511D01*
X0035353Y0104560D01*
X0035293Y0104606D01*
X0035230Y0104649D01*
X0035166Y0104689D01*
X0035100Y0104725D01*
X0035031Y0104757D01*
X0034961Y0104786D01*
X0034890Y0104811D01*
X0034818Y0104833D01*
X0034744Y0104850D01*
X0034670Y0104864D01*
X0034595Y0104874D01*
X0034520Y0104880D01*
X0034444Y0104882D01*
X0034368Y0104880D01*
X0034293Y0104874D01*
X0034218Y0104864D01*
X0034144Y0104850D01*
X0034070Y0104833D01*
X0033998Y0104811D01*
X0033927Y0104786D01*
X0033857Y0104757D01*
X0033788Y0104725D01*
X0033722Y0104689D01*
X0033658Y0104649D01*
X0033595Y0104606D01*
X0033535Y0104560D01*
X0033478Y0104511D01*
X0033423Y0104459D01*
X0033371Y0104404D01*
X0033322Y0104347D01*
X0033276Y0104287D01*
X0033233Y0104224D01*
X0033193Y0104160D01*
X0033157Y0104094D01*
X0033125Y0104025D01*
X0033096Y0103955D01*
X0033071Y0103884D01*
X0033049Y0103812D01*
X0033032Y0103738D01*
X0033018Y0103664D01*
X0033008Y0103589D01*
X0033002Y0103514D01*
X0033000Y0103438D01*
X0033000Y0101994D01*
X0038200Y0101994D01*
X0037044Y0112211D02*
X0034156Y0112211D01*
X0034089Y0112213D01*
X0034022Y0112219D01*
X0033955Y0112229D01*
X0033889Y0112242D01*
X0033824Y0112260D01*
X0033761Y0112281D01*
X0033698Y0112306D01*
X0033637Y0112334D01*
X0033578Y0112366D01*
X0033521Y0112401D01*
X0033466Y0112440D01*
X0033413Y0112481D01*
X0033363Y0112526D01*
X0033315Y0112574D01*
X0033270Y0112624D01*
X0033229Y0112677D01*
X0033190Y0112732D01*
X0033155Y0112789D01*
X0033123Y0112848D01*
X0033095Y0112909D01*
X0033070Y0112972D01*
X0033049Y0113035D01*
X0033031Y0113100D01*
X0033018Y0113166D01*
X0033008Y0113233D01*
X0033002Y0113300D01*
X0033000Y0113367D01*
X0033000Y0115100D01*
X0035311Y0115100D02*
X0038200Y0115100D01*
X0038200Y0113367D01*
X0038198Y0113300D01*
X0038192Y0113233D01*
X0038182Y0113166D01*
X0038169Y0113100D01*
X0038151Y0113035D01*
X0038130Y0112972D01*
X0038105Y0112909D01*
X0038077Y0112848D01*
X0038045Y0112789D01*
X0038010Y0112732D01*
X0037971Y0112677D01*
X0037930Y0112624D01*
X0037885Y0112574D01*
X0037837Y0112526D01*
X0037787Y0112481D01*
X0037734Y0112440D01*
X0037679Y0112401D01*
X0037622Y0112366D01*
X0037563Y0112334D01*
X0037502Y0112306D01*
X0037439Y0112281D01*
X0037376Y0112260D01*
X0037311Y0112242D01*
X0037245Y0112229D01*
X0037178Y0112219D01*
X0037111Y0112213D01*
X0037044Y0112211D01*
X0035311Y0114233D02*
X0035311Y0115100D01*
X0037573Y0120500D02*
X0037573Y0125100D01*
X0038851Y0125100D01*
X0038921Y0125098D01*
X0038992Y0125092D01*
X0039061Y0125083D01*
X0039130Y0125069D01*
X0039199Y0125052D01*
X0039266Y0125031D01*
X0039332Y0125006D01*
X0039396Y0124978D01*
X0039459Y0124946D01*
X0039520Y0124911D01*
X0039579Y0124872D01*
X0039636Y0124831D01*
X0039690Y0124786D01*
X0039742Y0124738D01*
X0039791Y0124688D01*
X0039838Y0124634D01*
X0039881Y0124579D01*
X0039921Y0124521D01*
X0039958Y0124461D01*
X0039991Y0124399D01*
X0040021Y0124335D01*
X0040048Y0124270D01*
X0040071Y0124204D01*
X0040090Y0124136D01*
X0040105Y0124067D01*
X0040117Y0123998D01*
X0040125Y0123928D01*
X0040129Y0123857D01*
X0040129Y0123787D01*
X0040125Y0123716D01*
X0040117Y0123646D01*
X0040105Y0123577D01*
X0040090Y0123508D01*
X0040071Y0123440D01*
X0040048Y0123374D01*
X0040021Y0123309D01*
X0039991Y0123245D01*
X0039958Y0123183D01*
X0039921Y0123123D01*
X0039881Y0123065D01*
X0039838Y0123010D01*
X0039791Y0122956D01*
X0039742Y0122906D01*
X0039690Y0122858D01*
X0039636Y0122813D01*
X0039579Y0122772D01*
X0039520Y0122733D01*
X0039459Y0122698D01*
X0039396Y0122666D01*
X0039332Y0122638D01*
X0039266Y0122613D01*
X0039199Y0122592D01*
X0039130Y0122575D01*
X0039061Y0122561D01*
X0038992Y0122552D01*
X0038921Y0122546D01*
X0038851Y0122544D01*
X0037573Y0122544D01*
X0039107Y0122544D02*
X0040129Y0120500D01*
X0042044Y0120500D02*
X0043322Y0120500D01*
X0043392Y0120502D01*
X0043463Y0120508D01*
X0043532Y0120517D01*
X0043601Y0120531D01*
X0043670Y0120548D01*
X0043737Y0120569D01*
X0043803Y0120594D01*
X0043867Y0120622D01*
X0043930Y0120654D01*
X0043991Y0120689D01*
X0044050Y0120728D01*
X0044107Y0120769D01*
X0044161Y0120814D01*
X0044213Y0120862D01*
X0044262Y0120912D01*
X0044309Y0120966D01*
X0044352Y0121021D01*
X0044392Y0121079D01*
X0044429Y0121139D01*
X0044462Y0121201D01*
X0044492Y0121265D01*
X0044519Y0121330D01*
X0044542Y0121396D01*
X0044561Y0121464D01*
X0044576Y0121533D01*
X0044588Y0121602D01*
X0044596Y0121672D01*
X0044600Y0121743D01*
X0044600Y0121813D01*
X0044596Y0121884D01*
X0044588Y0121954D01*
X0044576Y0122023D01*
X0044561Y0122092D01*
X0044542Y0122160D01*
X0044519Y0122226D01*
X0044492Y0122291D01*
X0044462Y0122355D01*
X0044429Y0122417D01*
X0044392Y0122477D01*
X0044352Y0122535D01*
X0044309Y0122590D01*
X0044262Y0122644D01*
X0044213Y0122694D01*
X0044161Y0122742D01*
X0044107Y0122787D01*
X0044050Y0122828D01*
X0043991Y0122867D01*
X0043930Y0122902D01*
X0043867Y0122934D01*
X0043803Y0122962D01*
X0043737Y0122987D01*
X0043670Y0123008D01*
X0043601Y0123025D01*
X0043532Y0123039D01*
X0043463Y0123048D01*
X0043392Y0123054D01*
X0043322Y0123056D01*
X0043578Y0123056D02*
X0042556Y0123056D01*
X0043578Y0123056D02*
X0043641Y0123058D01*
X0043704Y0123064D01*
X0043766Y0123073D01*
X0043827Y0123087D01*
X0043888Y0123104D01*
X0043947Y0123125D01*
X0044005Y0123150D01*
X0044062Y0123178D01*
X0044116Y0123209D01*
X0044168Y0123244D01*
X0044219Y0123282D01*
X0044267Y0123323D01*
X0044312Y0123367D01*
X0044354Y0123413D01*
X0044394Y0123462D01*
X0044430Y0123513D01*
X0044463Y0123567D01*
X0044493Y0123622D01*
X0044519Y0123680D01*
X0044542Y0123738D01*
X0044561Y0123798D01*
X0044576Y0123859D01*
X0044588Y0123921D01*
X0044596Y0123984D01*
X0044600Y0124047D01*
X0044600Y0124109D01*
X0044596Y0124172D01*
X0044588Y0124235D01*
X0044576Y0124297D01*
X0044561Y0124358D01*
X0044542Y0124418D01*
X0044519Y0124476D01*
X0044493Y0124534D01*
X0044463Y0124589D01*
X0044430Y0124643D01*
X0044394Y0124694D01*
X0044354Y0124743D01*
X0044312Y0124789D01*
X0044267Y0124833D01*
X0044219Y0124874D01*
X0044168Y0124912D01*
X0044116Y0124947D01*
X0044062Y0124978D01*
X0044005Y0125006D01*
X0043947Y0125031D01*
X0043888Y0125052D01*
X0043827Y0125069D01*
X0043766Y0125083D01*
X0043704Y0125092D01*
X0043641Y0125098D01*
X0043578Y0125100D01*
X0042044Y0125100D01*
X0071500Y0096100D02*
X0072778Y0096100D01*
X0072848Y0096098D01*
X0072919Y0096092D01*
X0072988Y0096083D01*
X0073057Y0096069D01*
X0073126Y0096052D01*
X0073193Y0096031D01*
X0073259Y0096006D01*
X0073323Y0095978D01*
X0073386Y0095946D01*
X0073447Y0095911D01*
X0073506Y0095872D01*
X0073563Y0095831D01*
X0073617Y0095786D01*
X0073669Y0095738D01*
X0073718Y0095688D01*
X0073765Y0095634D01*
X0073808Y0095579D01*
X0073848Y0095521D01*
X0073885Y0095461D01*
X0073918Y0095399D01*
X0073948Y0095335D01*
X0073975Y0095270D01*
X0073998Y0095204D01*
X0074017Y0095136D01*
X0074032Y0095067D01*
X0074044Y0094998D01*
X0074052Y0094928D01*
X0074056Y0094857D01*
X0074056Y0094787D01*
X0074052Y0094716D01*
X0074044Y0094646D01*
X0074032Y0094577D01*
X0074017Y0094508D01*
X0073998Y0094440D01*
X0073975Y0094374D01*
X0073948Y0094309D01*
X0073918Y0094245D01*
X0073885Y0094183D01*
X0073848Y0094123D01*
X0073808Y0094065D01*
X0073765Y0094010D01*
X0073718Y0093956D01*
X0073669Y0093906D01*
X0073617Y0093858D01*
X0073563Y0093813D01*
X0073506Y0093772D01*
X0073447Y0093733D01*
X0073386Y0093698D01*
X0073323Y0093666D01*
X0073259Y0093638D01*
X0073193Y0093613D01*
X0073126Y0093592D01*
X0073057Y0093575D01*
X0072988Y0093561D01*
X0072919Y0093552D01*
X0072848Y0093546D01*
X0072778Y0093544D01*
X0071500Y0093544D01*
X0073033Y0093544D02*
X0074056Y0091500D01*
X0075971Y0091500D02*
X0078527Y0091500D01*
X0077249Y0091500D02*
X0077249Y0096100D01*
X0075971Y0095078D01*
X0080471Y0095078D02*
X0081749Y0096100D01*
X0081749Y0091500D01*
X0080471Y0091500D02*
X0083027Y0091500D01*
X0085000Y0091500D02*
X0085000Y0096100D01*
X0086278Y0096100D01*
X0086348Y0096098D01*
X0086419Y0096092D01*
X0086488Y0096083D01*
X0086557Y0096069D01*
X0086626Y0096052D01*
X0086693Y0096031D01*
X0086759Y0096006D01*
X0086823Y0095978D01*
X0086886Y0095946D01*
X0086947Y0095911D01*
X0087006Y0095872D01*
X0087063Y0095831D01*
X0087117Y0095786D01*
X0087169Y0095738D01*
X0087218Y0095688D01*
X0087265Y0095634D01*
X0087308Y0095579D01*
X0087348Y0095521D01*
X0087385Y0095461D01*
X0087418Y0095399D01*
X0087448Y0095335D01*
X0087475Y0095270D01*
X0087498Y0095204D01*
X0087517Y0095136D01*
X0087532Y0095067D01*
X0087544Y0094998D01*
X0087552Y0094928D01*
X0087556Y0094857D01*
X0087556Y0094787D01*
X0087552Y0094716D01*
X0087544Y0094646D01*
X0087532Y0094577D01*
X0087517Y0094508D01*
X0087498Y0094440D01*
X0087475Y0094374D01*
X0087448Y0094309D01*
X0087418Y0094245D01*
X0087385Y0094183D01*
X0087348Y0094123D01*
X0087308Y0094065D01*
X0087265Y0094010D01*
X0087218Y0093956D01*
X0087169Y0093906D01*
X0087117Y0093858D01*
X0087063Y0093813D01*
X0087006Y0093772D01*
X0086947Y0093733D01*
X0086886Y0093698D01*
X0086823Y0093666D01*
X0086759Y0093638D01*
X0086693Y0093613D01*
X0086626Y0093592D01*
X0086557Y0093575D01*
X0086488Y0093561D01*
X0086419Y0093552D01*
X0086348Y0093546D01*
X0086278Y0093544D01*
X0085000Y0093544D01*
X0086533Y0093544D02*
X0087556Y0091500D01*
X0089471Y0091500D02*
X0092027Y0091500D01*
X0090749Y0091500D02*
X0090749Y0096100D01*
X0089471Y0095078D01*
X0080527Y0103322D02*
X0080525Y0103392D01*
X0080519Y0103463D01*
X0080510Y0103532D01*
X0080496Y0103601D01*
X0080479Y0103670D01*
X0080458Y0103737D01*
X0080433Y0103803D01*
X0080405Y0103867D01*
X0080373Y0103930D01*
X0080338Y0103991D01*
X0080299Y0104050D01*
X0080258Y0104107D01*
X0080213Y0104161D01*
X0080165Y0104213D01*
X0080115Y0104262D01*
X0080061Y0104309D01*
X0080006Y0104352D01*
X0079948Y0104392D01*
X0079888Y0104429D01*
X0079826Y0104462D01*
X0079762Y0104492D01*
X0079697Y0104519D01*
X0079631Y0104542D01*
X0079563Y0104561D01*
X0079494Y0104576D01*
X0079425Y0104588D01*
X0079355Y0104596D01*
X0079284Y0104600D01*
X0079214Y0104600D01*
X0079143Y0104596D01*
X0079073Y0104588D01*
X0079004Y0104576D01*
X0078935Y0104561D01*
X0078867Y0104542D01*
X0078801Y0104519D01*
X0078736Y0104492D01*
X0078672Y0104462D01*
X0078610Y0104429D01*
X0078550Y0104392D01*
X0078492Y0104352D01*
X0078437Y0104309D01*
X0078383Y0104262D01*
X0078333Y0104213D01*
X0078285Y0104161D01*
X0078240Y0104107D01*
X0078199Y0104050D01*
X0078160Y0103991D01*
X0078125Y0103930D01*
X0078093Y0103867D01*
X0078065Y0103803D01*
X0078040Y0103737D01*
X0078019Y0103670D01*
X0078002Y0103601D01*
X0077988Y0103532D01*
X0077979Y0103463D01*
X0077973Y0103392D01*
X0077971Y0103322D01*
X0077971Y0103067D01*
X0077973Y0103005D01*
X0077978Y0102944D01*
X0077988Y0102883D01*
X0078001Y0102822D01*
X0078017Y0102763D01*
X0078037Y0102705D01*
X0078061Y0102648D01*
X0078088Y0102592D01*
X0078118Y0102538D01*
X0078152Y0102486D01*
X0078188Y0102437D01*
X0078228Y0102389D01*
X0078270Y0102344D01*
X0078315Y0102302D01*
X0078363Y0102262D01*
X0078412Y0102226D01*
X0078464Y0102192D01*
X0078518Y0102162D01*
X0078574Y0102135D01*
X0078631Y0102111D01*
X0078689Y0102091D01*
X0078748Y0102075D01*
X0078809Y0102062D01*
X0078870Y0102052D01*
X0078931Y0102047D01*
X0078993Y0102045D01*
X0071500Y0096100D02*
X0071500Y0091500D01*
X0066210Y0086071D02*
X0067294Y0084987D01*
X0067337Y0084941D01*
X0067377Y0084892D01*
X0067414Y0084842D01*
X0067448Y0084789D01*
X0067479Y0084734D01*
X0067506Y0084677D01*
X0067530Y0084618D01*
X0067550Y0084559D01*
X0067566Y0084498D01*
X0067578Y0084436D01*
X0067587Y0084374D01*
X0067592Y0084311D01*
X0067593Y0084248D01*
X0067590Y0084185D01*
X0067583Y0084123D01*
X0067573Y0084061D01*
X0067558Y0083999D01*
X0067540Y0083939D01*
X0067518Y0083880D01*
X0067493Y0083823D01*
X0067464Y0083767D01*
X0067432Y0083713D01*
X0067396Y0083661D01*
X0067357Y0083611D01*
X0067316Y0083564D01*
X0067271Y0083519D01*
X0067224Y0083478D01*
X0067174Y0083439D01*
X0067122Y0083403D01*
X0067068Y0083371D01*
X0067012Y0083342D01*
X0066955Y0083317D01*
X0066896Y0083295D01*
X0066836Y0083277D01*
X0066774Y0083262D01*
X0066712Y0083252D01*
X0066650Y0083245D01*
X0066587Y0083242D01*
X0066524Y0083243D01*
X0066461Y0083248D01*
X0066399Y0083257D01*
X0066337Y0083269D01*
X0066276Y0083285D01*
X0066217Y0083305D01*
X0066158Y0083329D01*
X0066101Y0083356D01*
X0066046Y0083387D01*
X0065993Y0083421D01*
X0065943Y0083458D01*
X0065894Y0083498D01*
X0065848Y0083541D01*
X0065849Y0083542D02*
X0065126Y0084264D01*
X0065668Y0083723D02*
X0065716Y0083672D01*
X0065762Y0083618D01*
X0065804Y0083562D01*
X0065843Y0083503D01*
X0065879Y0083443D01*
X0065912Y0083380D01*
X0065941Y0083316D01*
X0065967Y0083251D01*
X0065989Y0083184D01*
X0066007Y0083116D01*
X0066022Y0083047D01*
X0066032Y0082977D01*
X0066039Y0082907D01*
X0066042Y0082837D01*
X0066041Y0082766D01*
X0066036Y0082696D01*
X0066027Y0082626D01*
X0066015Y0082557D01*
X0065998Y0082488D01*
X0065978Y0082421D01*
X0065955Y0082354D01*
X0065927Y0082290D01*
X0065896Y0082226D01*
X0065862Y0082165D01*
X0065824Y0082105D01*
X0065783Y0082048D01*
X0065739Y0081993D01*
X0065692Y0081941D01*
X0065642Y0081891D01*
X0065590Y0081844D01*
X0065535Y0081800D01*
X0065478Y0081759D01*
X0065418Y0081721D01*
X0065357Y0081687D01*
X0065293Y0081656D01*
X0065229Y0081628D01*
X0065162Y0081605D01*
X0065095Y0081585D01*
X0065026Y0081568D01*
X0064957Y0081556D01*
X0064887Y0081547D01*
X0064817Y0081542D01*
X0064746Y0081541D01*
X0064676Y0081544D01*
X0064606Y0081551D01*
X0064536Y0081561D01*
X0064467Y0081576D01*
X0064399Y0081594D01*
X0064332Y0081616D01*
X0064267Y0081642D01*
X0064203Y0081671D01*
X0064140Y0081704D01*
X0064080Y0081740D01*
X0064021Y0081779D01*
X0063965Y0081821D01*
X0063911Y0081867D01*
X0063860Y0081915D01*
X0063861Y0081915D02*
X0062957Y0082819D01*
X0061742Y0084034D02*
X0061019Y0084757D01*
X0060977Y0084802D01*
X0060937Y0084850D01*
X0060901Y0084899D01*
X0060867Y0084951D01*
X0060837Y0085005D01*
X0060810Y0085061D01*
X0060786Y0085118D01*
X0060766Y0085176D01*
X0060750Y0085235D01*
X0060737Y0085296D01*
X0060727Y0085357D01*
X0060722Y0085418D01*
X0060720Y0085480D01*
X0060722Y0085542D01*
X0060727Y0085603D01*
X0060737Y0085664D01*
X0060750Y0085725D01*
X0060766Y0085784D01*
X0060786Y0085842D01*
X0060810Y0085899D01*
X0060837Y0085955D01*
X0060867Y0086009D01*
X0060901Y0086061D01*
X0060938Y0086110D01*
X0060977Y0086158D01*
X0061019Y0086203D01*
X0061019Y0086202D02*
X0062826Y0088010D01*
X0062871Y0088052D01*
X0062919Y0088092D01*
X0062968Y0088128D01*
X0063020Y0088162D01*
X0063074Y0088192D01*
X0063130Y0088219D01*
X0063187Y0088243D01*
X0063245Y0088263D01*
X0063304Y0088279D01*
X0063365Y0088292D01*
X0063426Y0088302D01*
X0063487Y0088307D01*
X0063549Y0088309D01*
X0063611Y0088307D01*
X0063672Y0088302D01*
X0063733Y0088292D01*
X0063794Y0088279D01*
X0063853Y0088263D01*
X0063911Y0088243D01*
X0063968Y0088219D01*
X0064024Y0088192D01*
X0064078Y0088162D01*
X0064130Y0088128D01*
X0064179Y0088092D01*
X0064227Y0088052D01*
X0064272Y0088010D01*
X0064995Y0087287D01*
X0060626Y0082156D02*
X0061348Y0081433D01*
X0060626Y0082156D02*
X0060581Y0082198D01*
X0060533Y0082238D01*
X0060484Y0082274D01*
X0060432Y0082308D01*
X0060378Y0082338D01*
X0060322Y0082365D01*
X0060265Y0082389D01*
X0060207Y0082409D01*
X0060148Y0082425D01*
X0060087Y0082438D01*
X0060026Y0082448D01*
X0059965Y0082453D01*
X0059903Y0082455D01*
X0059841Y0082453D01*
X0059780Y0082448D01*
X0059719Y0082438D01*
X0059658Y0082425D01*
X0059599Y0082409D01*
X0059541Y0082389D01*
X0059484Y0082365D01*
X0059428Y0082338D01*
X0059374Y0082308D01*
X0059322Y0082274D01*
X0059273Y0082238D01*
X0059225Y0082198D01*
X0059180Y0082156D01*
X0057373Y0080349D01*
X0057331Y0080304D01*
X0057292Y0080256D01*
X0057255Y0080207D01*
X0057221Y0080155D01*
X0057191Y0080101D01*
X0057164Y0080045D01*
X0057140Y0079988D01*
X0057120Y0079930D01*
X0057104Y0079871D01*
X0057091Y0079810D01*
X0057081Y0079749D01*
X0057076Y0079688D01*
X0057074Y0079626D01*
X0057076Y0079564D01*
X0057081Y0079503D01*
X0057091Y0079442D01*
X0057104Y0079381D01*
X0057120Y0079322D01*
X0057140Y0079264D01*
X0057164Y0079207D01*
X0057191Y0079151D01*
X0057221Y0079097D01*
X0057255Y0079045D01*
X0057291Y0078996D01*
X0057331Y0078948D01*
X0057373Y0078903D01*
X0058096Y0078180D01*
X0060034Y0077688D02*
X0061841Y0075881D01*
X0062021Y0077146D02*
X0060576Y0075700D01*
X0060034Y0077688D02*
X0063286Y0079495D01*
X0071606Y0075588D02*
X0073588Y0073606D01*
X0075958Y0075975D02*
X0073975Y0077958D01*
X0069329Y0073104D02*
X0071311Y0071122D01*
X0068942Y0068753D02*
X0066960Y0070735D01*
X0058850Y0070805D02*
X0058896Y0070853D01*
X0058939Y0070905D01*
X0058979Y0070958D01*
X0059016Y0071014D01*
X0059049Y0071072D01*
X0059079Y0071132D01*
X0059106Y0071193D01*
X0059129Y0071256D01*
X0059148Y0071320D01*
X0059163Y0071385D01*
X0059175Y0071451D01*
X0059183Y0071518D01*
X0059187Y0071585D01*
X0059187Y0071651D01*
X0059183Y0071718D01*
X0059175Y0071785D01*
X0059163Y0071851D01*
X0059148Y0071916D01*
X0059129Y0071980D01*
X0059106Y0072043D01*
X0059079Y0072104D01*
X0059049Y0072164D01*
X0059016Y0072222D01*
X0058979Y0072278D01*
X0058939Y0072331D01*
X0058896Y0072383D01*
X0058850Y0072431D01*
X0058850Y0070805D02*
X0058802Y0070759D01*
X0058751Y0070716D01*
X0058698Y0070675D01*
X0058643Y0070638D01*
X0058586Y0070603D01*
X0058527Y0070572D01*
X0058466Y0070544D01*
X0058405Y0070519D01*
X0058341Y0070498D01*
X0058277Y0070480D01*
X0058212Y0070466D01*
X0058146Y0070455D01*
X0058080Y0070447D01*
X0058014Y0070444D01*
X0057947Y0070443D01*
X0054604Y0070172D01*
X0056411Y0068365D01*
X0057134Y0072701D02*
X0057201Y0072733D01*
X0057270Y0072762D01*
X0057340Y0072787D01*
X0057411Y0072809D01*
X0057483Y0072827D01*
X0057556Y0072842D01*
X0057629Y0072852D01*
X0057703Y0072859D01*
X0057777Y0072863D01*
X0057852Y0072862D01*
X0057926Y0072858D01*
X0058000Y0072850D01*
X0058073Y0072839D01*
X0058146Y0072823D01*
X0058218Y0072805D01*
X0058288Y0072782D01*
X0058358Y0072756D01*
X0058426Y0072727D01*
X0058493Y0072694D01*
X0058558Y0072657D01*
X0058621Y0072618D01*
X0058682Y0072576D01*
X0058740Y0072530D01*
X0058797Y0072482D01*
X0058850Y0072430D01*
X0055578Y0075703D02*
X0052325Y0072451D01*
X0051422Y0073354D02*
X0053229Y0071547D01*
X0050067Y0074709D02*
X0050790Y0076877D01*
X0050610Y0077058D02*
X0049706Y0077961D01*
X0050609Y0077057D02*
X0050660Y0077009D01*
X0050714Y0076963D01*
X0050770Y0076921D01*
X0050829Y0076882D01*
X0050889Y0076846D01*
X0050952Y0076813D01*
X0051016Y0076784D01*
X0051081Y0076758D01*
X0051148Y0076736D01*
X0051216Y0076718D01*
X0051285Y0076703D01*
X0051355Y0076693D01*
X0051425Y0076686D01*
X0051495Y0076683D01*
X0051566Y0076684D01*
X0051636Y0076689D01*
X0051706Y0076698D01*
X0051775Y0076710D01*
X0051844Y0076727D01*
X0051911Y0076747D01*
X0051978Y0076770D01*
X0052042Y0076798D01*
X0052106Y0076829D01*
X0052167Y0076863D01*
X0052227Y0076901D01*
X0052284Y0076942D01*
X0052339Y0076986D01*
X0052391Y0077033D01*
X0052441Y0077083D01*
X0052488Y0077135D01*
X0052532Y0077190D01*
X0052573Y0077247D01*
X0052611Y0077307D01*
X0052645Y0077368D01*
X0052676Y0077432D01*
X0052704Y0077496D01*
X0052727Y0077563D01*
X0052747Y0077630D01*
X0052764Y0077699D01*
X0052776Y0077768D01*
X0052785Y0077838D01*
X0052790Y0077908D01*
X0052791Y0077979D01*
X0052788Y0078049D01*
X0052781Y0078119D01*
X0052771Y0078189D01*
X0052756Y0078258D01*
X0052738Y0078326D01*
X0052716Y0078393D01*
X0052690Y0078458D01*
X0052661Y0078522D01*
X0052628Y0078585D01*
X0052592Y0078645D01*
X0052553Y0078704D01*
X0052511Y0078760D01*
X0052465Y0078814D01*
X0052417Y0078865D01*
X0051513Y0079768D01*
X0048260Y0076516D01*
X0053952Y0075884D02*
X0055578Y0075703D01*
X0053822Y0064600D02*
X0052544Y0063578D01*
X0053822Y0064600D02*
X0053822Y0060000D01*
X0052544Y0060000D02*
X0055100Y0060000D01*
X0057044Y0061022D02*
X0059600Y0061022D01*
X0058833Y0062044D02*
X0058833Y0060000D01*
X0057044Y0061022D02*
X0058067Y0064600D01*
X0049351Y0064600D02*
X0048073Y0064600D01*
X0048073Y0060000D01*
X0048073Y0062044D02*
X0049351Y0062044D01*
X0049607Y0062044D02*
X0050629Y0060000D01*
X0049351Y0062044D02*
X0049421Y0062046D01*
X0049492Y0062052D01*
X0049561Y0062061D01*
X0049630Y0062075D01*
X0049699Y0062092D01*
X0049766Y0062113D01*
X0049832Y0062138D01*
X0049896Y0062166D01*
X0049959Y0062198D01*
X0050020Y0062233D01*
X0050079Y0062272D01*
X0050136Y0062313D01*
X0050190Y0062358D01*
X0050242Y0062406D01*
X0050291Y0062456D01*
X0050338Y0062510D01*
X0050381Y0062565D01*
X0050421Y0062623D01*
X0050458Y0062683D01*
X0050491Y0062745D01*
X0050521Y0062809D01*
X0050548Y0062874D01*
X0050571Y0062940D01*
X0050590Y0063008D01*
X0050605Y0063077D01*
X0050617Y0063146D01*
X0050625Y0063216D01*
X0050629Y0063287D01*
X0050629Y0063357D01*
X0050625Y0063428D01*
X0050617Y0063498D01*
X0050605Y0063567D01*
X0050590Y0063636D01*
X0050571Y0063704D01*
X0050548Y0063770D01*
X0050521Y0063835D01*
X0050491Y0063899D01*
X0050458Y0063961D01*
X0050421Y0064021D01*
X0050381Y0064079D01*
X0050338Y0064134D01*
X0050291Y0064188D01*
X0050242Y0064238D01*
X0050190Y0064286D01*
X0050136Y0064331D01*
X0050079Y0064372D01*
X0050020Y0064411D01*
X0049959Y0064446D01*
X0049896Y0064478D01*
X0049832Y0064506D01*
X0049766Y0064531D01*
X0049699Y0064552D01*
X0049630Y0064569D01*
X0049561Y0064583D01*
X0049492Y0064592D01*
X0049421Y0064598D01*
X0049351Y0064600D01*
X0028100Y0063100D02*
X0028100Y0060544D01*
X0025544Y0062717D01*
X0023500Y0061950D02*
X0023502Y0061876D01*
X0023507Y0061802D01*
X0023517Y0061728D01*
X0023530Y0061655D01*
X0023546Y0061582D01*
X0023567Y0061511D01*
X0023591Y0061441D01*
X0023618Y0061372D01*
X0023649Y0061304D01*
X0023683Y0061238D01*
X0023720Y0061174D01*
X0023761Y0061112D01*
X0023805Y0061051D01*
X0023851Y0060994D01*
X0023901Y0060938D01*
X0023953Y0060885D01*
X0024008Y0060835D01*
X0024065Y0060788D01*
X0024125Y0060744D01*
X0024187Y0060702D01*
X0024250Y0060664D01*
X0024316Y0060629D01*
X0024383Y0060598D01*
X0024452Y0060570D01*
X0024522Y0060545D01*
X0025544Y0062717D02*
X0025497Y0062764D01*
X0025447Y0062808D01*
X0025395Y0062850D01*
X0025341Y0062889D01*
X0025285Y0062924D01*
X0025227Y0062957D01*
X0025167Y0062987D01*
X0025106Y0063013D01*
X0025043Y0063036D01*
X0024979Y0063055D01*
X0024915Y0063071D01*
X0024849Y0063084D01*
X0024783Y0063093D01*
X0024717Y0063098D01*
X0024650Y0063100D01*
X0024583Y0063098D01*
X0024516Y0063092D01*
X0024450Y0063083D01*
X0024385Y0063069D01*
X0024320Y0063052D01*
X0024257Y0063031D01*
X0024195Y0063006D01*
X0024134Y0062978D01*
X0024075Y0062946D01*
X0024018Y0062911D01*
X0023963Y0062872D01*
X0023911Y0062831D01*
X0023861Y0062786D01*
X0023814Y0062739D01*
X0023769Y0062689D01*
X0023728Y0062637D01*
X0023689Y0062582D01*
X0023654Y0062525D01*
X0023622Y0062466D01*
X0023594Y0062405D01*
X0023569Y0062343D01*
X0023548Y0062280D01*
X0023531Y0062215D01*
X0023517Y0062150D01*
X0023508Y0062084D01*
X0023502Y0062017D01*
X0023500Y0061950D01*
X0023500Y0058826D02*
X0023500Y0057804D01*
X0023502Y0057742D01*
X0023507Y0057681D01*
X0023517Y0057620D01*
X0023530Y0057559D01*
X0023546Y0057500D01*
X0023566Y0057442D01*
X0023590Y0057385D01*
X0023617Y0057329D01*
X0023647Y0057275D01*
X0023681Y0057223D01*
X0023718Y0057174D01*
X0023757Y0057126D01*
X0023799Y0057081D01*
X0023844Y0057039D01*
X0023892Y0056999D01*
X0023941Y0056963D01*
X0023993Y0056929D01*
X0024047Y0056899D01*
X0024103Y0056872D01*
X0024160Y0056848D01*
X0024218Y0056828D01*
X0024277Y0056812D01*
X0024338Y0056799D01*
X0024399Y0056789D01*
X0024460Y0056784D01*
X0024522Y0056782D01*
X0024522Y0056781D02*
X0027078Y0056781D01*
X0027078Y0056782D02*
X0027140Y0056784D01*
X0027201Y0056789D01*
X0027262Y0056799D01*
X0027323Y0056812D01*
X0027382Y0056828D01*
X0027440Y0056848D01*
X0027497Y0056872D01*
X0027553Y0056899D01*
X0027607Y0056929D01*
X0027659Y0056963D01*
X0027708Y0056999D01*
X0027756Y0057039D01*
X0027801Y0057081D01*
X0027843Y0057126D01*
X0027883Y0057174D01*
X0027919Y0057223D01*
X0027953Y0057275D01*
X0027983Y0057329D01*
X0028010Y0057385D01*
X0028034Y0057442D01*
X0028054Y0057500D01*
X0028070Y0057559D01*
X0028083Y0057620D01*
X0028093Y0057681D01*
X0028098Y0057742D01*
X0028100Y0057804D01*
X0028100Y0058826D01*
X0027501Y0067898D02*
X0027501Y0070702D01*
X0024150Y0070702D02*
X0024150Y0067898D01*
X0183000Y0068544D02*
X0183000Y0071100D01*
X0187600Y0069822D01*
X0187600Y0066629D02*
X0185556Y0065607D01*
X0185556Y0065351D02*
X0185556Y0064073D01*
X0185556Y0065351D02*
X0185554Y0065421D01*
X0185548Y0065492D01*
X0185539Y0065561D01*
X0185525Y0065630D01*
X0185508Y0065699D01*
X0185487Y0065766D01*
X0185462Y0065832D01*
X0185434Y0065896D01*
X0185402Y0065959D01*
X0185367Y0066020D01*
X0185328Y0066079D01*
X0185287Y0066136D01*
X0185242Y0066190D01*
X0185194Y0066242D01*
X0185144Y0066291D01*
X0185090Y0066338D01*
X0185035Y0066381D01*
X0184977Y0066421D01*
X0184917Y0066458D01*
X0184855Y0066491D01*
X0184791Y0066521D01*
X0184726Y0066548D01*
X0184660Y0066571D01*
X0184592Y0066590D01*
X0184523Y0066605D01*
X0184454Y0066617D01*
X0184384Y0066625D01*
X0184313Y0066629D01*
X0184243Y0066629D01*
X0184172Y0066625D01*
X0184102Y0066617D01*
X0184033Y0066605D01*
X0183964Y0066590D01*
X0183896Y0066571D01*
X0183830Y0066548D01*
X0183765Y0066521D01*
X0183701Y0066491D01*
X0183639Y0066458D01*
X0183579Y0066421D01*
X0183521Y0066381D01*
X0183466Y0066338D01*
X0183412Y0066291D01*
X0183362Y0066242D01*
X0183314Y0066190D01*
X0183269Y0066136D01*
X0183228Y0066079D01*
X0183189Y0066020D01*
X0183154Y0065959D01*
X0183122Y0065896D01*
X0183094Y0065832D01*
X0183069Y0065766D01*
X0183048Y0065699D01*
X0183031Y0065630D01*
X0183017Y0065561D01*
X0183008Y0065492D01*
X0183002Y0065421D01*
X0183000Y0065351D01*
X0183000Y0064073D01*
X0187600Y0064073D01*
X0183511Y0068544D02*
X0183000Y0068544D01*
X0202600Y0105309D02*
X0202600Y0107353D01*
X0202600Y0116500D02*
X0198000Y0116500D01*
D13*
X0167833Y0105278D02*
X0161700Y0105278D01*
X0164767Y0108344D02*
X0164767Y0102211D01*
X0166822Y0099833D02*
X0166822Y0093700D01*
D14*
X0031717Y0058879D02*
X0031717Y0030532D01*
X0077780Y0030532D01*
X0077780Y0058879D01*
X0031717Y0058879D01*
X0030379Y0063406D02*
X0030379Y0075954D01*
X0030379Y0081568D02*
X0030379Y0096032D01*
X0030379Y0101568D02*
X0030379Y0116032D01*
X0030379Y0121568D02*
X0030379Y0136032D01*
X0030379Y0142146D02*
X0030379Y0144194D01*
X0040221Y0144194D01*
X0040221Y0131646D01*
X0040221Y0125694D02*
X0040221Y0111906D01*
X0040221Y0105694D02*
X0040221Y0091906D01*
X0040221Y0085694D02*
X0040221Y0071906D01*
X0040221Y0065454D02*
X0040221Y0063406D01*
X0030379Y0063406D01*
X0040221Y0063406D01*
X0040221Y0144194D01*
X0030379Y0144194D01*
X0030379Y0063406D01*
X0029550Y0144550D02*
X0029550Y0145050D01*
X0029548Y0145110D01*
X0029543Y0145171D01*
X0029534Y0145230D01*
X0029521Y0145289D01*
X0029505Y0145348D01*
X0029485Y0145405D01*
X0029462Y0145460D01*
X0029435Y0145515D01*
X0029406Y0145567D01*
X0029373Y0145618D01*
X0029337Y0145667D01*
X0029299Y0145713D01*
X0029257Y0145757D01*
X0029213Y0145799D01*
X0029167Y0145837D01*
X0029118Y0145873D01*
X0029067Y0145906D01*
X0029015Y0145935D01*
X0028960Y0145962D01*
X0028905Y0145985D01*
X0028848Y0146005D01*
X0028789Y0146021D01*
X0028730Y0146034D01*
X0028671Y0146043D01*
X0028610Y0146048D01*
X0028550Y0146050D01*
X0025050Y0146050D01*
X0025050Y0148179D02*
X0025050Y0149679D01*
X0025052Y0149741D01*
X0025058Y0149802D01*
X0025067Y0149863D01*
X0025080Y0149923D01*
X0025097Y0149982D01*
X0025118Y0150040D01*
X0025142Y0150097D01*
X0025169Y0150152D01*
X0025200Y0150205D01*
X0025234Y0150257D01*
X0025271Y0150306D01*
X0025311Y0150353D01*
X0025354Y0150397D01*
X0025399Y0150438D01*
X0025447Y0150477D01*
X0025498Y0150513D01*
X0025550Y0150545D01*
X0025604Y0150574D01*
X0025660Y0150600D01*
X0025718Y0150622D01*
X0025776Y0150641D01*
X0025836Y0150656D01*
X0025897Y0150667D01*
X0025958Y0150675D01*
X0026019Y0150679D01*
X0026081Y0150679D01*
X0026142Y0150675D01*
X0026203Y0150667D01*
X0026264Y0150656D01*
X0026324Y0150641D01*
X0026382Y0150622D01*
X0026440Y0150600D01*
X0026496Y0150574D01*
X0026550Y0150545D01*
X0026602Y0150513D01*
X0026653Y0150477D01*
X0026701Y0150438D01*
X0026746Y0150397D01*
X0026789Y0150353D01*
X0026829Y0150306D01*
X0026866Y0150257D01*
X0026900Y0150205D01*
X0026931Y0150152D01*
X0026958Y0150097D01*
X0026982Y0150040D01*
X0027003Y0149982D01*
X0027020Y0149923D01*
X0027033Y0149863D01*
X0027042Y0149802D01*
X0027048Y0149741D01*
X0027050Y0149679D01*
X0027050Y0148679D01*
X0027050Y0149429D02*
X0027052Y0149498D01*
X0027058Y0149567D01*
X0027067Y0149635D01*
X0027080Y0149702D01*
X0027097Y0149769D01*
X0027118Y0149835D01*
X0027142Y0149899D01*
X0027170Y0149962D01*
X0027201Y0150024D01*
X0027235Y0150084D01*
X0027273Y0150141D01*
X0027314Y0150197D01*
X0027357Y0150250D01*
X0027404Y0150301D01*
X0027453Y0150349D01*
X0027505Y0150394D01*
X0027560Y0150436D01*
X0027616Y0150475D01*
X0027675Y0150512D01*
X0027736Y0150544D01*
X0027798Y0150574D01*
X0027862Y0150600D01*
X0027927Y0150622D01*
X0027993Y0150641D01*
X0028060Y0150656D01*
X0028128Y0150667D01*
X0028197Y0150675D01*
X0028266Y0150679D01*
X0028334Y0150679D01*
X0028403Y0150675D01*
X0028472Y0150667D01*
X0028540Y0150656D01*
X0028607Y0150641D01*
X0028673Y0150622D01*
X0028738Y0150600D01*
X0028802Y0150574D01*
X0028864Y0150544D01*
X0028925Y0150512D01*
X0028984Y0150475D01*
X0029040Y0150436D01*
X0029095Y0150394D01*
X0029147Y0150349D01*
X0029196Y0150301D01*
X0029243Y0150250D01*
X0029286Y0150197D01*
X0029327Y0150141D01*
X0029365Y0150084D01*
X0029399Y0150024D01*
X0029430Y0149962D01*
X0029458Y0149899D01*
X0029482Y0149835D01*
X0029503Y0149769D01*
X0029520Y0149702D01*
X0029533Y0149635D01*
X0029542Y0149567D01*
X0029548Y0149498D01*
X0029550Y0149429D01*
X0029550Y0148179D01*
X0161717Y0058879D02*
X0207780Y0058879D01*
X0207780Y0030532D01*
X0161717Y0030532D01*
X0161717Y0058879D01*
D15*
X0130300Y0093300D03*
X0125300Y0093300D03*
X0116800Y0093300D03*
X0111800Y0093300D03*
X0103300Y0093300D03*
X0098300Y0093300D03*
X0098300Y0102300D03*
X0103300Y0102300D03*
X0111800Y0102300D03*
X0116800Y0102300D03*
X0125300Y0102300D03*
X0130300Y0102300D03*
X0074300Y0108300D03*
X0069300Y0108300D03*
X0043300Y0117300D03*
X0038300Y0117300D03*
X0048300Y0081800D03*
X0053300Y0081800D03*
G36*
X0062315Y0068688D02*
X0063446Y0067557D01*
X0061043Y0065154D01*
X0059912Y0066285D01*
X0062315Y0068688D01*
G37*
G36*
X0065850Y0065153D02*
X0066981Y0064022D01*
X0064578Y0061619D01*
X0063447Y0062750D01*
X0065850Y0065153D01*
G37*
X0041800Y0062300D03*
X0036800Y0062300D03*
D16*
X0025820Y0067016D03*
X0025820Y0071616D03*
D17*
G36*
X0068150Y0074566D02*
X0069542Y0073174D01*
X0066898Y0070530D01*
X0065506Y0071922D01*
X0068150Y0074566D01*
G37*
G36*
X0072796Y0079419D02*
X0074188Y0078027D01*
X0071544Y0075383D01*
X0070152Y0076775D01*
X0072796Y0079419D01*
G37*
G36*
X0076049Y0076166D02*
X0077441Y0074774D01*
X0074797Y0072130D01*
X0073405Y0073522D01*
X0076049Y0076166D01*
G37*
G36*
X0071403Y0071313D02*
X0072795Y0069921D01*
X0070151Y0067277D01*
X0068759Y0068669D01*
X0071403Y0071313D01*
G37*
D18*
X0194839Y0080300D03*
X0199761Y0080300D03*
D19*
X0199366Y0076181D02*
X0199366Y0075153D01*
X0198133Y0075153D01*
X0199366Y0075153D02*
X0199364Y0075075D01*
X0199359Y0074997D01*
X0199349Y0074919D01*
X0199336Y0074842D01*
X0199320Y0074765D01*
X0199299Y0074690D01*
X0199276Y0074615D01*
X0199248Y0074542D01*
X0199217Y0074470D01*
X0199183Y0074400D01*
X0199146Y0074331D01*
X0199105Y0074264D01*
X0199061Y0074199D01*
X0199014Y0074137D01*
X0198964Y0074076D01*
X0198912Y0074019D01*
X0198856Y0073963D01*
X0198799Y0073911D01*
X0198738Y0073861D01*
X0198676Y0073814D01*
X0198611Y0073770D01*
X0198544Y0073729D01*
X0198475Y0073692D01*
X0198405Y0073658D01*
X0198333Y0073627D01*
X0198260Y0073599D01*
X0198185Y0073576D01*
X0198110Y0073555D01*
X0198033Y0073539D01*
X0197956Y0073526D01*
X0197878Y0073516D01*
X0197800Y0073511D01*
X0197722Y0073509D01*
X0195945Y0073509D02*
X0195123Y0073509D01*
X0195067Y0073511D01*
X0195011Y0073517D01*
X0194956Y0073526D01*
X0194901Y0073539D01*
X0194848Y0073556D01*
X0194796Y0073577D01*
X0194745Y0073601D01*
X0194696Y0073629D01*
X0194649Y0073659D01*
X0194604Y0073693D01*
X0194562Y0073730D01*
X0194522Y0073770D01*
X0194485Y0073812D01*
X0194451Y0073857D01*
X0194421Y0073904D01*
X0194393Y0073953D01*
X0194369Y0074004D01*
X0194348Y0074056D01*
X0194331Y0074109D01*
X0194318Y0074164D01*
X0194309Y0074219D01*
X0194303Y0074275D01*
X0194301Y0074331D01*
X0194300Y0074331D02*
X0194300Y0076387D01*
X0194301Y0076387D02*
X0194303Y0076443D01*
X0194309Y0076499D01*
X0194318Y0076554D01*
X0194331Y0076609D01*
X0194348Y0076662D01*
X0194369Y0076714D01*
X0194393Y0076765D01*
X0194421Y0076814D01*
X0194451Y0076861D01*
X0194485Y0076906D01*
X0194522Y0076948D01*
X0194562Y0076988D01*
X0194604Y0077025D01*
X0194649Y0077059D01*
X0194696Y0077089D01*
X0194745Y0077117D01*
X0194796Y0077141D01*
X0194848Y0077162D01*
X0194901Y0077179D01*
X0194956Y0077192D01*
X0195011Y0077201D01*
X0195067Y0077207D01*
X0195123Y0077209D01*
X0195945Y0077209D01*
X0197311Y0076181D02*
X0197311Y0075976D01*
X0197313Y0075920D01*
X0197319Y0075864D01*
X0197328Y0075809D01*
X0197341Y0075754D01*
X0197358Y0075701D01*
X0197379Y0075649D01*
X0197403Y0075598D01*
X0197431Y0075549D01*
X0197461Y0075502D01*
X0197495Y0075457D01*
X0197532Y0075415D01*
X0197572Y0075375D01*
X0197614Y0075338D01*
X0197659Y0075304D01*
X0197706Y0075274D01*
X0197755Y0075246D01*
X0197806Y0075222D01*
X0197858Y0075201D01*
X0197911Y0075184D01*
X0197966Y0075171D01*
X0198021Y0075162D01*
X0198077Y0075156D01*
X0198133Y0075154D01*
X0197310Y0076181D02*
X0197312Y0076244D01*
X0197318Y0076307D01*
X0197328Y0076370D01*
X0197341Y0076432D01*
X0197358Y0076493D01*
X0197379Y0076552D01*
X0197404Y0076611D01*
X0197432Y0076667D01*
X0197464Y0076722D01*
X0197499Y0076775D01*
X0197537Y0076825D01*
X0197578Y0076874D01*
X0197622Y0076919D01*
X0197669Y0076962D01*
X0197718Y0077001D01*
X0197770Y0077038D01*
X0197824Y0077071D01*
X0197880Y0077101D01*
X0197937Y0077128D01*
X0197996Y0077151D01*
X0198057Y0077170D01*
X0198118Y0077185D01*
X0198180Y0077197D01*
X0198243Y0077205D01*
X0198306Y0077209D01*
X0198370Y0077209D01*
X0198433Y0077205D01*
X0198496Y0077197D01*
X0198558Y0077185D01*
X0198619Y0077170D01*
X0198680Y0077151D01*
X0198739Y0077128D01*
X0198796Y0077101D01*
X0198852Y0077071D01*
X0198906Y0077038D01*
X0198958Y0077001D01*
X0199007Y0076962D01*
X0199054Y0076919D01*
X0199098Y0076874D01*
X0199139Y0076825D01*
X0199177Y0076775D01*
X0199212Y0076722D01*
X0199244Y0076667D01*
X0199272Y0076611D01*
X0199297Y0076552D01*
X0199318Y0076493D01*
X0199335Y0076432D01*
X0199348Y0076370D01*
X0199358Y0076307D01*
X0199364Y0076244D01*
X0199366Y0076181D01*
D20*
X0191300Y0068800D03*
X0191300Y0063800D03*
M02*
