G75*
%MOIN*%
%OFA0B0*%
%FSLAX25Y25*%
%IPPOS*%
%LPD*%
%AMOC8*
5,1,8,0,0,1.08239X$1,22.5*
%
%ADD10C,0.05937*%
%ADD11R,0.12268X0.12268*%
%ADD12R,0.03937X0.04331*%
%ADD13R,0.04331X0.03937*%
%ADD14OC8,0.06000*%
%ADD15R,0.04134X0.04252*%
%ADD16C,0.07400*%
%ADD17R,0.07874X0.03937*%
%ADD18C,0.00600*%
%ADD19C,0.02978*%
%ADD20C,0.01000*%
%ADD21C,0.03200*%
%ADD22C,0.02400*%
%ADD23C,0.01200*%
%ADD24C,0.01600*%
%ADD25C,0.02000*%
%ADD26C,0.06500*%
D10*
X0044906Y0043721D03*
X0054749Y0043721D03*
X0064591Y0043721D03*
X0064591Y0053564D03*
X0044906Y0053564D03*
X0174906Y0053564D03*
X0174906Y0043721D03*
X0184749Y0043721D03*
X0194591Y0043721D03*
X0194591Y0053564D03*
D11*
X0207780Y0048643D03*
X0161717Y0048643D03*
X0077780Y0048643D03*
X0031717Y0048643D03*
D12*
X0035954Y0062300D03*
X0042646Y0062300D03*
X0025800Y0065954D03*
X0025800Y0072646D03*
X0047454Y0081800D03*
X0054146Y0081800D03*
G36*
X0061219Y0070442D02*
X0064002Y0067659D01*
X0060941Y0064598D01*
X0058158Y0067381D01*
X0061219Y0070442D01*
G37*
G36*
X0065952Y0065709D02*
X0068735Y0062926D01*
X0065674Y0059865D01*
X0062891Y0062648D01*
X0065952Y0065709D01*
G37*
X0097454Y0093300D03*
X0104146Y0093300D03*
X0110954Y0093300D03*
X0117646Y0093300D03*
X0124454Y0093300D03*
X0131146Y0093300D03*
X0131146Y0102300D03*
X0124454Y0102300D03*
X0117646Y0102300D03*
X0110954Y0102300D03*
X0104146Y0102300D03*
X0097454Y0102300D03*
X0075146Y0108300D03*
X0068454Y0108300D03*
X0044146Y0117300D03*
X0037454Y0117300D03*
D13*
G36*
X0071295Y0081088D02*
X0074356Y0078027D01*
X0071573Y0075244D01*
X0068512Y0078305D01*
X0071295Y0081088D01*
G37*
G36*
X0066648Y0076235D02*
X0069709Y0073174D01*
X0066926Y0070391D01*
X0063865Y0073452D01*
X0066648Y0076235D01*
G37*
G36*
X0071381Y0071502D02*
X0074442Y0068441D01*
X0071659Y0065658D01*
X0068598Y0068719D01*
X0071381Y0071502D01*
G37*
G36*
X0076027Y0076356D02*
X0079088Y0073295D01*
X0076305Y0070512D01*
X0073244Y0073573D01*
X0076027Y0076356D01*
G37*
X0191300Y0069646D03*
X0191300Y0062954D03*
D14*
X0129690Y0112158D03*
X0119690Y0112158D03*
X0109690Y0112158D03*
X0099690Y0112158D03*
X0099690Y0122158D03*
X0109690Y0122158D03*
X0119690Y0122158D03*
X0129690Y0122158D03*
D15*
X0193855Y0080300D03*
X0200745Y0080300D03*
D16*
X0188437Y0095339D02*
X0181037Y0095339D01*
X0181037Y0105339D02*
X0188437Y0105339D01*
X0188437Y0126918D02*
X0181037Y0126918D01*
X0181037Y0136918D02*
X0188437Y0136918D01*
X0058996Y0128918D02*
X0051596Y0128918D01*
X0051596Y0118918D02*
X0058996Y0118918D01*
D17*
X0041796Y0128800D03*
X0028804Y0138800D03*
X0028804Y0118800D03*
X0041796Y0108800D03*
X0028804Y0098800D03*
X0041796Y0088800D03*
X0028804Y0078800D03*
X0041796Y0068800D03*
D18*
X0022899Y0062882D02*
X0022899Y0032600D01*
X0081300Y0032600D01*
X0082022Y0032671D01*
X0083356Y0033224D01*
X0084376Y0034244D01*
X0084929Y0035578D01*
X0085000Y0036300D01*
X0085000Y0041756D01*
X0084453Y0041209D01*
X0071108Y0041209D01*
X0070346Y0041970D01*
X0070346Y0055315D01*
X0071108Y0056076D01*
X0084453Y0056076D01*
X0085214Y0055315D01*
X0085214Y0053070D01*
X0085959Y0054869D01*
X0085959Y0054869D01*
X0087731Y0056641D01*
X0087731Y0056641D01*
X0090047Y0057600D01*
X0138336Y0057600D01*
X0138394Y0057647D01*
X0138865Y0057600D01*
X0139338Y0057600D01*
X0139391Y0057547D01*
X0140181Y0057468D01*
X0140181Y0057468D01*
X0142399Y0056279D01*
X0142399Y0056279D01*
X0142399Y0056279D01*
X0143992Y0054331D01*
X0143992Y0054331D01*
X0144719Y0051923D01*
X0144719Y0051922D01*
X0144600Y0050735D01*
X0144600Y0035800D01*
X0144661Y0035176D01*
X0145139Y0034022D01*
X0146022Y0033139D01*
X0147176Y0032661D01*
X0147800Y0032600D01*
X0217150Y0032600D01*
X0217150Y0167795D01*
X0022899Y0167795D01*
X0022899Y0105792D01*
X0022936Y0105880D01*
X0023720Y0106664D01*
X0024745Y0107089D01*
X0025855Y0107089D01*
X0026880Y0106664D01*
X0027444Y0106100D01*
X0028046Y0106100D01*
X0029546Y0104600D01*
X0030600Y0103546D01*
X0030600Y0102068D01*
X0033279Y0102068D01*
X0034041Y0101307D01*
X0034041Y0096293D01*
X0033279Y0095531D01*
X0024328Y0095531D01*
X0023567Y0096293D01*
X0023567Y0101307D01*
X0024056Y0101796D01*
X0023720Y0101936D01*
X0022936Y0102720D01*
X0022899Y0102808D01*
X0022899Y0089945D01*
X0023054Y0090100D01*
X0031156Y0090100D01*
X0031220Y0090164D01*
X0032245Y0090589D01*
X0033355Y0090589D01*
X0034380Y0090164D01*
X0035164Y0089380D01*
X0035589Y0088355D01*
X0035589Y0087245D01*
X0035164Y0086220D01*
X0034380Y0085436D01*
X0033355Y0085011D01*
X0032245Y0085011D01*
X0031220Y0085436D01*
X0030436Y0086220D01*
X0030320Y0086500D01*
X0025100Y0086500D01*
X0025100Y0082068D01*
X0033279Y0082068D01*
X0034041Y0081307D01*
X0034041Y0080283D01*
X0034722Y0080565D01*
X0035831Y0080565D01*
X0036856Y0080141D01*
X0037641Y0079356D01*
X0038065Y0078331D01*
X0038065Y0077222D01*
X0037641Y0076197D01*
X0036856Y0075412D01*
X0035831Y0074987D01*
X0034722Y0074987D01*
X0033697Y0075412D01*
X0033428Y0075680D01*
X0033279Y0075531D01*
X0028887Y0075531D01*
X0029068Y0075350D01*
X0029068Y0069943D01*
X0028388Y0069262D01*
X0028567Y0069159D01*
X0028809Y0068917D01*
X0028980Y0068621D01*
X0029068Y0068290D01*
X0029068Y0066254D01*
X0026100Y0066254D01*
X0026100Y0065654D01*
X0029068Y0065654D01*
X0029068Y0063617D01*
X0028980Y0063286D01*
X0028809Y0062990D01*
X0028567Y0062748D01*
X0028270Y0062577D01*
X0027940Y0062488D01*
X0026100Y0062488D01*
X0026100Y0065653D01*
X0025500Y0065653D01*
X0025500Y0062488D01*
X0023660Y0062488D01*
X0023330Y0062577D01*
X0023033Y0062748D01*
X0022899Y0062882D01*
X0022899Y0062423D02*
X0029011Y0062423D01*
X0029011Y0062855D02*
X0029011Y0061745D01*
X0029436Y0060720D01*
X0030220Y0059936D01*
X0031245Y0059511D01*
X0032355Y0059511D01*
X0032685Y0059648D01*
X0032685Y0059596D01*
X0033447Y0058835D01*
X0038461Y0058835D01*
X0039222Y0059596D01*
X0039222Y0065004D01*
X0039085Y0065141D01*
X0039444Y0065500D01*
X0039874Y0065500D01*
X0039378Y0065004D01*
X0039378Y0059596D01*
X0040139Y0058835D01*
X0043321Y0058835D01*
X0043970Y0058186D01*
X0044995Y0057761D01*
X0045206Y0057761D01*
X0045206Y0053864D01*
X0044606Y0053864D01*
X0044606Y0053264D01*
X0040638Y0053264D01*
X0040638Y0053228D01*
X0040743Y0052564D01*
X0040951Y0051925D01*
X0041256Y0051327D01*
X0041650Y0050783D01*
X0042126Y0050308D01*
X0042669Y0049913D01*
X0043268Y0049608D01*
X0043907Y0049400D01*
X0044570Y0049295D01*
X0044606Y0049295D01*
X0044606Y0053264D01*
X0045206Y0053264D01*
X0045206Y0049295D01*
X0045242Y0049295D01*
X0045906Y0049400D01*
X0046545Y0049608D01*
X0047143Y0049913D01*
X0047687Y0050308D01*
X0048162Y0050783D01*
X0048557Y0051327D01*
X0048862Y0051925D01*
X0049070Y0052564D01*
X0049175Y0053228D01*
X0049175Y0053264D01*
X0045206Y0053264D01*
X0045206Y0053864D01*
X0049175Y0053864D01*
X0049175Y0053900D01*
X0049070Y0054563D01*
X0048862Y0055202D01*
X0048557Y0055801D01*
X0048162Y0056345D01*
X0047687Y0056820D01*
X0047143Y0057215D01*
X0046545Y0057520D01*
X0045906Y0057727D01*
X0045692Y0057761D01*
X0046105Y0057761D01*
X0047130Y0058186D01*
X0047914Y0058970D01*
X0048339Y0059995D01*
X0048339Y0061105D01*
X0047914Y0062130D01*
X0047130Y0062914D01*
X0046105Y0063339D01*
X0045915Y0063339D01*
X0045915Y0065004D01*
X0045387Y0065531D01*
X0046272Y0065531D01*
X0047033Y0066293D01*
X0047033Y0071307D01*
X0046272Y0072068D01*
X0037321Y0072068D01*
X0036559Y0071307D01*
X0036559Y0070012D01*
X0035720Y0069664D01*
X0034936Y0068880D01*
X0034511Y0067855D01*
X0034511Y0066745D01*
X0034917Y0065765D01*
X0033447Y0065765D01*
X0032685Y0065004D01*
X0032685Y0064952D01*
X0032355Y0065089D01*
X0031245Y0065089D01*
X0030220Y0064664D01*
X0029436Y0063880D01*
X0029011Y0062855D01*
X0029080Y0063021D02*
X0028827Y0063021D01*
X0029068Y0063620D02*
X0029328Y0063620D01*
X0029068Y0064218D02*
X0029774Y0064218D01*
X0029068Y0064817D02*
X0030588Y0064817D01*
X0029068Y0065415D02*
X0033096Y0065415D01*
X0034814Y0066014D02*
X0026100Y0066014D01*
X0026100Y0065415D02*
X0025500Y0065415D01*
X0025500Y0064817D02*
X0026100Y0064817D01*
X0026100Y0064218D02*
X0025500Y0064218D01*
X0025500Y0063620D02*
X0026100Y0063620D01*
X0026100Y0063021D02*
X0025500Y0063021D01*
X0022899Y0061824D02*
X0029011Y0061824D01*
X0029226Y0061226D02*
X0022899Y0061226D01*
X0022899Y0060627D02*
X0029529Y0060627D01*
X0030127Y0060029D02*
X0022899Y0060029D01*
X0022899Y0059430D02*
X0032851Y0059430D01*
X0038390Y0056076D02*
X0025045Y0056076D01*
X0024283Y0055315D01*
X0024283Y0041970D01*
X0025045Y0041209D01*
X0038390Y0041209D01*
X0039151Y0041970D01*
X0039151Y0055315D01*
X0038390Y0056076D01*
X0038627Y0055839D02*
X0041283Y0055839D01*
X0041256Y0055801D02*
X0040951Y0055202D01*
X0040743Y0054563D01*
X0040638Y0053900D01*
X0040638Y0053864D01*
X0044606Y0053864D01*
X0044606Y0057832D01*
X0044570Y0057832D01*
X0043907Y0057727D01*
X0043268Y0057520D01*
X0042669Y0057215D01*
X0042126Y0056820D01*
X0041650Y0056345D01*
X0041256Y0055801D01*
X0040970Y0055240D02*
X0039151Y0055240D01*
X0039151Y0054642D02*
X0040768Y0054642D01*
X0040661Y0054043D02*
X0039151Y0054043D01*
X0039151Y0053445D02*
X0044606Y0053445D01*
X0044606Y0054043D02*
X0045206Y0054043D01*
X0045206Y0053445D02*
X0056500Y0053445D01*
X0056500Y0054043D02*
X0049152Y0054043D01*
X0049044Y0054642D02*
X0056500Y0054642D01*
X0056500Y0055054D02*
X0056500Y0048054D01*
X0060323Y0044232D01*
X0060323Y0042872D01*
X0060973Y0041303D01*
X0062173Y0040103D01*
X0063742Y0039453D01*
X0065440Y0039453D01*
X0067009Y0040103D01*
X0068210Y0041303D01*
X0068860Y0042872D01*
X0068860Y0044570D01*
X0068210Y0046139D01*
X0067009Y0047340D01*
X0065440Y0047990D01*
X0063742Y0047990D01*
X0062267Y0047379D01*
X0060100Y0049546D01*
X0060100Y0056546D01*
X0059046Y0057600D01*
X0059046Y0057600D01*
X0052100Y0064546D01*
X0052100Y0075046D01*
X0051046Y0076100D01*
X0050089Y0077057D01*
X0050089Y0077855D01*
X0049890Y0078335D01*
X0049961Y0078335D01*
X0050722Y0079096D01*
X0050722Y0084504D01*
X0049961Y0085265D01*
X0044947Y0085265D01*
X0044185Y0084504D01*
X0044185Y0079096D01*
X0044779Y0078502D01*
X0044511Y0077855D01*
X0044511Y0076745D01*
X0044936Y0075720D01*
X0045720Y0074936D01*
X0046745Y0074511D01*
X0047543Y0074511D01*
X0048500Y0073554D01*
X0048500Y0063054D01*
X0049554Y0062000D01*
X0049554Y0062000D01*
X0056500Y0055054D01*
X0056314Y0055240D02*
X0048843Y0055240D01*
X0048529Y0055839D02*
X0055715Y0055839D01*
X0055117Y0056437D02*
X0048069Y0056437D01*
X0047389Y0057036D02*
X0054518Y0057036D01*
X0053920Y0057634D02*
X0046191Y0057634D01*
X0045206Y0057634D02*
X0044606Y0057634D01*
X0044606Y0057036D02*
X0045206Y0057036D01*
X0045206Y0056437D02*
X0044606Y0056437D01*
X0044606Y0055839D02*
X0045206Y0055839D01*
X0045206Y0055240D02*
X0044606Y0055240D01*
X0044606Y0054642D02*
X0045206Y0054642D01*
X0045206Y0052846D02*
X0044606Y0052846D01*
X0044606Y0052248D02*
X0045206Y0052248D01*
X0045206Y0051649D02*
X0044606Y0051649D01*
X0044606Y0051051D02*
X0045206Y0051051D01*
X0045206Y0050452D02*
X0044606Y0050452D01*
X0044606Y0049854D02*
X0045206Y0049854D01*
X0047027Y0049854D02*
X0056500Y0049854D01*
X0056500Y0050452D02*
X0047831Y0050452D01*
X0048357Y0051051D02*
X0056500Y0051051D01*
X0056500Y0051649D02*
X0048722Y0051649D01*
X0048967Y0052248D02*
X0056500Y0052248D01*
X0056500Y0052846D02*
X0049114Y0052846D01*
X0047177Y0058233D02*
X0053321Y0058233D01*
X0052723Y0058832D02*
X0047776Y0058832D01*
X0048105Y0059430D02*
X0052124Y0059430D01*
X0051526Y0060029D02*
X0048339Y0060029D01*
X0048339Y0060627D02*
X0050927Y0060627D01*
X0050329Y0061226D02*
X0048289Y0061226D01*
X0048041Y0061824D02*
X0049730Y0061824D01*
X0049132Y0062423D02*
X0047622Y0062423D01*
X0046872Y0063021D02*
X0048533Y0063021D01*
X0048500Y0063620D02*
X0045915Y0063620D01*
X0045915Y0064218D02*
X0048500Y0064218D01*
X0048500Y0064817D02*
X0045915Y0064817D01*
X0045504Y0065415D02*
X0048500Y0065415D01*
X0048500Y0066014D02*
X0046754Y0066014D01*
X0047033Y0066612D02*
X0048500Y0066612D01*
X0048500Y0067211D02*
X0047033Y0067211D01*
X0047033Y0067809D02*
X0048500Y0067809D01*
X0048500Y0068408D02*
X0047033Y0068408D01*
X0047033Y0069006D02*
X0048500Y0069006D01*
X0048500Y0069605D02*
X0047033Y0069605D01*
X0047033Y0070203D02*
X0048500Y0070203D01*
X0048500Y0070802D02*
X0047033Y0070802D01*
X0046940Y0071400D02*
X0048500Y0071400D01*
X0048500Y0071999D02*
X0046341Y0071999D01*
X0048500Y0072597D02*
X0029068Y0072597D01*
X0029068Y0071999D02*
X0037251Y0071999D01*
X0036652Y0071400D02*
X0029068Y0071400D01*
X0029068Y0070802D02*
X0036559Y0070802D01*
X0036559Y0070203D02*
X0029068Y0070203D01*
X0028731Y0069605D02*
X0035661Y0069605D01*
X0035062Y0069006D02*
X0028720Y0069006D01*
X0029037Y0068408D02*
X0034740Y0068408D01*
X0034511Y0067809D02*
X0029068Y0067809D01*
X0029068Y0067211D02*
X0034511Y0067211D01*
X0034566Y0066612D02*
X0029068Y0066612D01*
X0029068Y0073196D02*
X0048500Y0073196D01*
X0048260Y0073794D02*
X0029068Y0073794D01*
X0029068Y0074393D02*
X0047662Y0074393D01*
X0045664Y0074991D02*
X0035841Y0074991D01*
X0034712Y0074991D02*
X0029068Y0074991D01*
X0033338Y0075590D02*
X0033519Y0075590D01*
X0037034Y0075590D02*
X0045066Y0075590D01*
X0044742Y0076188D02*
X0037633Y0076188D01*
X0037885Y0076787D02*
X0044511Y0076787D01*
X0044511Y0077385D02*
X0038065Y0077385D01*
X0038065Y0077984D02*
X0044565Y0077984D01*
X0044699Y0078582D02*
X0037961Y0078582D01*
X0037713Y0079181D02*
X0044185Y0079181D01*
X0044185Y0079779D02*
X0037218Y0079779D01*
X0036284Y0080378D02*
X0044185Y0080378D01*
X0044185Y0080976D02*
X0034041Y0080976D01*
X0034041Y0080378D02*
X0034269Y0080378D01*
X0033773Y0081575D02*
X0044185Y0081575D01*
X0044185Y0082173D02*
X0025100Y0082173D01*
X0025100Y0082772D02*
X0044185Y0082772D01*
X0044185Y0083370D02*
X0025100Y0083370D01*
X0025100Y0083969D02*
X0044185Y0083969D01*
X0044249Y0084568D02*
X0025100Y0084568D01*
X0025100Y0085166D02*
X0031871Y0085166D01*
X0030891Y0085765D02*
X0025100Y0085765D01*
X0025100Y0086363D02*
X0030376Y0086363D01*
X0033729Y0085166D02*
X0044847Y0085166D01*
X0045904Y0085531D02*
X0046235Y0085620D01*
X0046531Y0085791D01*
X0046773Y0086033D01*
X0046944Y0086330D01*
X0047033Y0086660D01*
X0047033Y0088500D01*
X0042096Y0088500D01*
X0042096Y0085531D01*
X0045904Y0085531D01*
X0046485Y0085765D02*
X0076290Y0085765D01*
X0075691Y0086363D02*
X0046953Y0086363D01*
X0047033Y0086962D02*
X0075093Y0086962D01*
X0074494Y0087560D02*
X0047033Y0087560D01*
X0047033Y0088159D02*
X0073896Y0088159D01*
X0073297Y0088757D02*
X0042096Y0088757D01*
X0042096Y0088500D02*
X0042096Y0089100D01*
X0041496Y0089100D01*
X0041496Y0088500D01*
X0036559Y0088500D01*
X0036559Y0086660D01*
X0036648Y0086330D01*
X0036819Y0086033D01*
X0037061Y0085791D01*
X0037357Y0085620D01*
X0037688Y0085531D01*
X0041496Y0085531D01*
X0041496Y0088500D01*
X0042096Y0088500D01*
X0042096Y0088159D02*
X0041496Y0088159D01*
X0041496Y0088757D02*
X0035422Y0088757D01*
X0035589Y0088159D02*
X0036559Y0088159D01*
X0036559Y0087560D02*
X0035589Y0087560D01*
X0035471Y0086962D02*
X0036559Y0086962D01*
X0036639Y0086363D02*
X0035224Y0086363D01*
X0034709Y0085765D02*
X0037107Y0085765D01*
X0036559Y0089100D02*
X0041496Y0089100D01*
X0041496Y0092068D01*
X0037688Y0092068D01*
X0037357Y0091980D01*
X0037061Y0091809D01*
X0036819Y0091567D01*
X0036648Y0091270D01*
X0036559Y0090940D01*
X0036559Y0089100D01*
X0036559Y0089356D02*
X0035174Y0089356D01*
X0034590Y0089954D02*
X0036559Y0089954D01*
X0036559Y0090553D02*
X0033443Y0090553D01*
X0032157Y0090553D02*
X0022899Y0090553D01*
X0022899Y0091151D02*
X0036616Y0091151D01*
X0037002Y0091750D02*
X0022899Y0091750D01*
X0022899Y0092348D02*
X0050706Y0092348D01*
X0050108Y0092947D02*
X0022899Y0092947D01*
X0022899Y0093545D02*
X0049509Y0093545D01*
X0048911Y0094144D02*
X0022899Y0094144D01*
X0022899Y0094742D02*
X0048312Y0094742D01*
X0047714Y0095341D02*
X0022899Y0095341D01*
X0022899Y0095939D02*
X0023921Y0095939D01*
X0023567Y0096538D02*
X0022899Y0096538D01*
X0022899Y0097136D02*
X0023567Y0097136D01*
X0023567Y0097735D02*
X0022899Y0097735D01*
X0022899Y0098333D02*
X0023567Y0098333D01*
X0023567Y0098932D02*
X0022899Y0098932D01*
X0022899Y0099530D02*
X0023567Y0099530D01*
X0023567Y0100129D02*
X0022899Y0100129D01*
X0022899Y0100727D02*
X0023567Y0100727D01*
X0023586Y0101326D02*
X0022899Y0101326D01*
X0022899Y0101924D02*
X0023747Y0101924D01*
X0023133Y0102523D02*
X0022899Y0102523D01*
X0022899Y0106114D02*
X0023170Y0106114D01*
X0022899Y0106712D02*
X0023836Y0106712D01*
X0022899Y0107311D02*
X0036559Y0107311D01*
X0036559Y0107909D02*
X0022899Y0107909D01*
X0022899Y0108508D02*
X0036559Y0108508D01*
X0036559Y0109106D02*
X0022899Y0109106D01*
X0022899Y0109705D02*
X0036559Y0109705D01*
X0036559Y0110303D02*
X0022899Y0110303D01*
X0022899Y0110902D02*
X0036559Y0110902D01*
X0036559Y0111307D02*
X0036559Y0106293D01*
X0037321Y0105531D01*
X0046272Y0105531D01*
X0047033Y0106293D01*
X0047033Y0108589D01*
X0047356Y0108912D01*
X0047436Y0108720D01*
X0048220Y0107936D01*
X0049245Y0107511D01*
X0050355Y0107511D01*
X0051380Y0107936D01*
X0051944Y0108500D01*
X0053054Y0108500D01*
X0055250Y0106304D01*
X0060954Y0100600D01*
X0056589Y0100600D01*
X0056589Y0101355D01*
X0056164Y0102380D01*
X0055380Y0103164D01*
X0054355Y0103589D01*
X0053245Y0103589D01*
X0052220Y0103164D01*
X0051436Y0102380D01*
X0051011Y0101355D01*
X0051011Y0100245D01*
X0051436Y0099220D01*
X0052220Y0098436D01*
X0052766Y0098210D01*
X0052436Y0097880D01*
X0052011Y0096855D01*
X0052011Y0096135D01*
X0049100Y0099046D01*
X0048046Y0100100D01*
X0044046Y0100100D01*
X0043589Y0100557D01*
X0043589Y0101355D01*
X0043164Y0102380D01*
X0042380Y0103164D01*
X0041355Y0103589D01*
X0040245Y0103589D01*
X0039220Y0103164D01*
X0038436Y0102380D01*
X0038011Y0101355D01*
X0038011Y0100245D01*
X0038436Y0099220D01*
X0039220Y0098436D01*
X0040245Y0098011D01*
X0041043Y0098011D01*
X0042554Y0096500D01*
X0046554Y0096500D01*
X0052554Y0090500D01*
X0071554Y0090500D01*
X0087554Y0074500D01*
X0136054Y0074500D01*
X0153554Y0057000D01*
X0169554Y0057000D01*
X0171078Y0055476D01*
X0170638Y0054413D01*
X0170638Y0052715D01*
X0171288Y0051146D01*
X0172488Y0049945D01*
X0174057Y0049295D01*
X0175755Y0049295D01*
X0177324Y0049945D01*
X0178000Y0050621D01*
X0178000Y0049361D01*
X0176373Y0047734D01*
X0175755Y0047990D01*
X0174057Y0047990D01*
X0172488Y0047340D01*
X0171288Y0046139D01*
X0170638Y0044570D01*
X0170638Y0042872D01*
X0171288Y0041303D01*
X0172488Y0040103D01*
X0174057Y0039453D01*
X0175755Y0039453D01*
X0177324Y0040103D01*
X0178525Y0041303D01*
X0179175Y0042872D01*
X0179175Y0044570D01*
X0178919Y0045188D01*
X0181600Y0047869D01*
X0181600Y0055954D01*
X0191194Y0046360D01*
X0190973Y0046139D01*
X0190323Y0044570D01*
X0190323Y0042872D01*
X0190973Y0041303D01*
X0192173Y0040103D01*
X0193742Y0039453D01*
X0195440Y0039453D01*
X0197009Y0040103D01*
X0198210Y0041303D01*
X0198860Y0042872D01*
X0198860Y0044570D01*
X0198210Y0046139D01*
X0197009Y0047340D01*
X0195440Y0047990D01*
X0194656Y0047990D01*
X0193078Y0049567D01*
X0193592Y0049400D01*
X0194255Y0049295D01*
X0194291Y0049295D01*
X0194291Y0053264D01*
X0190323Y0053264D01*
X0190323Y0053228D01*
X0190428Y0052564D01*
X0190595Y0052051D01*
X0182646Y0060000D01*
X0188281Y0060000D01*
X0188596Y0059685D01*
X0194004Y0059685D01*
X0194765Y0060447D01*
X0194765Y0065461D01*
X0194004Y0066222D01*
X0188596Y0066222D01*
X0187835Y0065461D01*
X0187835Y0063600D01*
X0175860Y0063600D01*
X0176443Y0063841D01*
X0177258Y0064657D01*
X0177700Y0065723D01*
X0177700Y0068877D01*
X0177258Y0069943D01*
X0176443Y0070758D01*
X0175258Y0071943D01*
X0171443Y0075758D01*
X0169200Y0078001D01*
X0169200Y0100789D01*
X0178956Y0100789D01*
X0180042Y0100339D01*
X0189432Y0100339D01*
X0191269Y0101101D01*
X0192676Y0102507D01*
X0193437Y0104345D01*
X0193437Y0106334D01*
X0192676Y0108172D01*
X0191269Y0109578D01*
X0189432Y0110339D01*
X0180042Y0110339D01*
X0178956Y0109889D01*
X0169145Y0109889D01*
X0141377Y0137657D01*
X0139705Y0138350D01*
X0087895Y0138350D01*
X0086223Y0137657D01*
X0084943Y0136377D01*
X0072033Y0123468D01*
X0061077Y0123468D01*
X0059991Y0123918D01*
X0050601Y0123918D01*
X0048764Y0123157D01*
X0047357Y0121750D01*
X0046863Y0120556D01*
X0046653Y0120765D01*
X0041639Y0120765D01*
X0040878Y0120004D01*
X0040878Y0114596D01*
X0041639Y0113835D01*
X0043500Y0113835D01*
X0043500Y0112944D01*
X0043156Y0112600D01*
X0043050Y0112600D01*
X0042519Y0112068D01*
X0037321Y0112068D01*
X0036559Y0111307D01*
X0036753Y0111501D02*
X0022899Y0111501D01*
X0022899Y0112099D02*
X0042550Y0112099D01*
X0043253Y0112698D02*
X0029805Y0112698D01*
X0029355Y0112511D02*
X0030380Y0112936D01*
X0031164Y0113720D01*
X0031589Y0114745D01*
X0031589Y0115500D01*
X0034185Y0115500D01*
X0034185Y0114596D01*
X0034947Y0113835D01*
X0039961Y0113835D01*
X0040722Y0114596D01*
X0040722Y0120004D01*
X0039961Y0120765D01*
X0034947Y0120765D01*
X0034185Y0120004D01*
X0034185Y0119100D01*
X0034041Y0119100D01*
X0034041Y0121307D01*
X0033279Y0122068D01*
X0031704Y0122068D01*
X0031704Y0126103D01*
X0036559Y0130958D01*
X0036559Y0126293D01*
X0037321Y0125531D01*
X0039011Y0125531D01*
X0039011Y0125245D01*
X0039436Y0124220D01*
X0040220Y0123436D01*
X0041245Y0123011D01*
X0042355Y0123011D01*
X0043380Y0123436D01*
X0044164Y0124220D01*
X0044589Y0125245D01*
X0044589Y0125531D01*
X0046272Y0125531D01*
X0047033Y0126293D01*
X0047033Y0126869D01*
X0047357Y0126086D01*
X0048764Y0124679D01*
X0050601Y0123918D01*
X0059991Y0123918D01*
X0061828Y0124679D01*
X0063235Y0126086D01*
X0063996Y0127924D01*
X0063996Y0129913D01*
X0063235Y0131750D01*
X0061828Y0133157D01*
X0059991Y0133918D01*
X0050601Y0133918D01*
X0048764Y0133157D01*
X0047357Y0131750D01*
X0047033Y0130968D01*
X0047033Y0131307D01*
X0046272Y0132068D01*
X0037670Y0132068D01*
X0051501Y0145900D01*
X0133423Y0145900D01*
X0133777Y0145546D01*
X0135516Y0145546D01*
X0135870Y0145900D01*
X0190479Y0145900D01*
X0198900Y0136215D01*
X0198900Y0094001D01*
X0193099Y0088200D01*
X0179849Y0088200D01*
X0178783Y0087758D01*
X0177967Y0086943D01*
X0173654Y0082630D01*
X0173213Y0081564D01*
X0173213Y0080410D01*
X0173654Y0079344D01*
X0174470Y0078529D01*
X0175536Y0078087D01*
X0176690Y0078087D01*
X0177756Y0078529D01*
X0181627Y0082400D01*
X0190488Y0082400D01*
X0190488Y0077636D01*
X0191250Y0076874D01*
X0192055Y0076874D01*
X0192055Y0072947D01*
X0192023Y0072915D01*
X0188596Y0072915D01*
X0187835Y0072153D01*
X0187835Y0067139D01*
X0188596Y0066378D01*
X0194004Y0066378D01*
X0194765Y0067139D01*
X0194765Y0070566D01*
X0195655Y0071456D01*
X0195655Y0076874D01*
X0196461Y0076874D01*
X0197222Y0077636D01*
X0197222Y0082964D01*
X0196755Y0083431D01*
X0196755Y0083654D01*
X0203443Y0090341D01*
X0204258Y0091157D01*
X0204700Y0092223D01*
X0204700Y0137199D01*
X0204733Y0137674D01*
X0204700Y0137773D01*
X0204700Y0137877D01*
X0204518Y0138316D01*
X0204367Y0138768D01*
X0204298Y0138846D01*
X0204258Y0138943D01*
X0203922Y0139279D01*
X0194298Y0150346D01*
X0194258Y0150443D01*
X0193922Y0150779D01*
X0193610Y0151138D01*
X0193516Y0151185D01*
X0193443Y0151258D01*
X0193003Y0151441D01*
X0192577Y0151653D01*
X0192473Y0151660D01*
X0192377Y0151700D01*
X0191901Y0151700D01*
X0191426Y0151733D01*
X0191327Y0151700D01*
X0049723Y0151700D01*
X0048657Y0151258D01*
X0034041Y0136642D01*
X0034041Y0141307D01*
X0033279Y0142068D01*
X0024328Y0142068D01*
X0023567Y0141307D01*
X0023567Y0136293D01*
X0024328Y0135531D01*
X0026011Y0135531D01*
X0026011Y0135245D01*
X0026436Y0134220D01*
X0027220Y0133436D01*
X0028245Y0133011D01*
X0029355Y0133011D01*
X0030380Y0133436D01*
X0031164Y0134220D01*
X0031589Y0135245D01*
X0031589Y0135531D01*
X0032930Y0135531D01*
X0026345Y0128947D01*
X0025904Y0127881D01*
X0025904Y0122068D01*
X0024328Y0122068D01*
X0023567Y0121307D01*
X0023567Y0116293D01*
X0024328Y0115531D01*
X0026011Y0115531D01*
X0026011Y0114745D01*
X0026436Y0113720D01*
X0027220Y0112936D01*
X0028245Y0112511D01*
X0029355Y0112511D01*
X0027795Y0112698D02*
X0022899Y0112698D01*
X0022899Y0113296D02*
X0026860Y0113296D01*
X0026363Y0113895D02*
X0022899Y0113895D01*
X0022899Y0114493D02*
X0026115Y0114493D01*
X0026011Y0115092D02*
X0022899Y0115092D01*
X0022899Y0115690D02*
X0024170Y0115690D01*
X0023571Y0116289D02*
X0022899Y0116289D01*
X0022899Y0116887D02*
X0023567Y0116887D01*
X0023567Y0117486D02*
X0022899Y0117486D01*
X0022899Y0118084D02*
X0023567Y0118084D01*
X0023567Y0118683D02*
X0022899Y0118683D01*
X0022899Y0119281D02*
X0023567Y0119281D01*
X0023567Y0119880D02*
X0022899Y0119880D01*
X0022899Y0120478D02*
X0023567Y0120478D01*
X0023567Y0121077D02*
X0022899Y0121077D01*
X0022899Y0121675D02*
X0023935Y0121675D01*
X0022899Y0122274D02*
X0025904Y0122274D01*
X0025904Y0122872D02*
X0022899Y0122872D01*
X0022899Y0123471D02*
X0025904Y0123471D01*
X0025904Y0124069D02*
X0022899Y0124069D01*
X0022899Y0124668D02*
X0025904Y0124668D01*
X0025904Y0125266D02*
X0022899Y0125266D01*
X0022899Y0125865D02*
X0025904Y0125865D01*
X0025904Y0126463D02*
X0022899Y0126463D01*
X0022899Y0127062D02*
X0025904Y0127062D01*
X0025904Y0127660D02*
X0022899Y0127660D01*
X0022899Y0128259D02*
X0026061Y0128259D01*
X0026308Y0128857D02*
X0022899Y0128857D01*
X0022899Y0129456D02*
X0026855Y0129456D01*
X0027453Y0130054D02*
X0022899Y0130054D01*
X0022899Y0130653D02*
X0028052Y0130653D01*
X0028650Y0131251D02*
X0022899Y0131251D01*
X0022899Y0131850D02*
X0029249Y0131850D01*
X0029847Y0132448D02*
X0022899Y0132448D01*
X0022899Y0133047D02*
X0028159Y0133047D01*
X0029441Y0133047D02*
X0030446Y0133047D01*
X0030590Y0133645D02*
X0031044Y0133645D01*
X0031174Y0134244D02*
X0031643Y0134244D01*
X0031422Y0134842D02*
X0032241Y0134842D01*
X0032840Y0135441D02*
X0031589Y0135441D01*
X0034041Y0137237D02*
X0034635Y0137237D01*
X0034041Y0137835D02*
X0035234Y0137835D01*
X0035832Y0138434D02*
X0034041Y0138434D01*
X0034041Y0139032D02*
X0036431Y0139032D01*
X0037029Y0139631D02*
X0034041Y0139631D01*
X0034041Y0140229D02*
X0037628Y0140229D01*
X0038226Y0140828D02*
X0034041Y0140828D01*
X0033922Y0141426D02*
X0038825Y0141426D01*
X0039423Y0142025D02*
X0033323Y0142025D01*
X0040022Y0142623D02*
X0022899Y0142623D01*
X0022899Y0142025D02*
X0024285Y0142025D01*
X0023686Y0141426D02*
X0022899Y0141426D01*
X0022899Y0140828D02*
X0023567Y0140828D01*
X0023567Y0140229D02*
X0022899Y0140229D01*
X0022899Y0139631D02*
X0023567Y0139631D01*
X0023567Y0139032D02*
X0022899Y0139032D01*
X0022899Y0138434D02*
X0023567Y0138434D01*
X0023567Y0137835D02*
X0022899Y0137835D01*
X0022899Y0137237D02*
X0023567Y0137237D01*
X0023567Y0136638D02*
X0022899Y0136638D01*
X0022899Y0136039D02*
X0023820Y0136039D01*
X0022899Y0135441D02*
X0026011Y0135441D01*
X0026178Y0134842D02*
X0022899Y0134842D01*
X0022899Y0134244D02*
X0026426Y0134244D01*
X0027010Y0133645D02*
X0022899Y0133645D01*
X0032065Y0126463D02*
X0036559Y0126463D01*
X0036559Y0127062D02*
X0032663Y0127062D01*
X0033262Y0127660D02*
X0036559Y0127660D01*
X0036559Y0128259D02*
X0033860Y0128259D01*
X0034459Y0128857D02*
X0036559Y0128857D01*
X0036559Y0129456D02*
X0035057Y0129456D01*
X0035656Y0130054D02*
X0036559Y0130054D01*
X0036559Y0130653D02*
X0036254Y0130653D01*
X0038050Y0132448D02*
X0048055Y0132448D01*
X0047457Y0131850D02*
X0046490Y0131850D01*
X0047033Y0131251D02*
X0047151Y0131251D01*
X0048654Y0133047D02*
X0038648Y0133047D01*
X0039247Y0133645D02*
X0049943Y0133645D01*
X0044035Y0138434D02*
X0176253Y0138434D01*
X0176037Y0137913D02*
X0176037Y0135924D01*
X0176798Y0134086D01*
X0178205Y0132679D01*
X0180042Y0131918D01*
X0178205Y0131157D01*
X0176798Y0129750D01*
X0176037Y0127913D01*
X0176037Y0125924D01*
X0176798Y0124086D01*
X0178205Y0122679D01*
X0180042Y0121918D01*
X0189432Y0121918D01*
X0191269Y0122679D01*
X0192676Y0124086D01*
X0193437Y0125924D01*
X0193437Y0127913D01*
X0192676Y0129750D01*
X0191269Y0131157D01*
X0189432Y0131918D01*
X0180042Y0131918D01*
X0189432Y0131918D01*
X0191269Y0132679D01*
X0192676Y0134086D01*
X0193437Y0135924D01*
X0193437Y0137913D01*
X0192676Y0139750D01*
X0191269Y0141157D01*
X0189432Y0141918D01*
X0180042Y0141918D01*
X0178205Y0141157D01*
X0176798Y0139750D01*
X0176037Y0137913D01*
X0176037Y0137835D02*
X0140948Y0137835D01*
X0141798Y0137237D02*
X0176037Y0137237D01*
X0176037Y0136638D02*
X0142397Y0136638D01*
X0142995Y0136039D02*
X0176037Y0136039D01*
X0176237Y0135441D02*
X0143594Y0135441D01*
X0144192Y0134842D02*
X0176485Y0134842D01*
X0176733Y0134244D02*
X0144791Y0134244D01*
X0145389Y0133645D02*
X0177239Y0133645D01*
X0177837Y0133047D02*
X0145988Y0133047D01*
X0146586Y0132448D02*
X0178762Y0132448D01*
X0178433Y0131251D02*
X0147783Y0131251D01*
X0148382Y0130653D02*
X0177701Y0130653D01*
X0177102Y0130054D02*
X0148980Y0130054D01*
X0149579Y0129456D02*
X0176676Y0129456D01*
X0176428Y0128857D02*
X0150177Y0128857D01*
X0150776Y0128259D02*
X0176180Y0128259D01*
X0176037Y0127660D02*
X0151374Y0127660D01*
X0151973Y0127062D02*
X0176037Y0127062D01*
X0176037Y0126463D02*
X0152571Y0126463D01*
X0153170Y0125865D02*
X0176061Y0125865D01*
X0176309Y0125266D02*
X0153768Y0125266D01*
X0154367Y0124668D02*
X0176557Y0124668D01*
X0176815Y0124069D02*
X0154965Y0124069D01*
X0155564Y0123471D02*
X0177413Y0123471D01*
X0178012Y0122872D02*
X0156162Y0122872D01*
X0156761Y0122274D02*
X0179184Y0122274D01*
X0179878Y0131850D02*
X0147185Y0131850D01*
X0140899Y0125266D02*
X0132663Y0125266D01*
X0133261Y0124668D02*
X0141498Y0124668D01*
X0142096Y0124069D02*
X0137283Y0124069D01*
X0136894Y0124458D02*
X0133471Y0124458D01*
X0131471Y0126458D01*
X0128642Y0126458D01*
X0126348Y0128753D01*
X0125851Y0129250D01*
X0136915Y0129250D01*
X0163400Y0102765D01*
X0163400Y0076223D01*
X0163841Y0075157D01*
X0167341Y0071657D01*
X0171157Y0067841D01*
X0171900Y0067099D01*
X0171900Y0065723D01*
X0171951Y0065600D01*
X0159046Y0065600D01*
X0140546Y0084100D01*
X0139054Y0084100D01*
X0121646Y0084100D01*
X0125046Y0087500D01*
X0126100Y0088554D01*
X0126100Y0089835D01*
X0126961Y0089835D01*
X0127722Y0090596D01*
X0127722Y0096000D01*
X0127878Y0096000D01*
X0127878Y0090596D01*
X0128639Y0089835D01*
X0133653Y0089835D01*
X0134415Y0090596D01*
X0134415Y0096004D01*
X0133653Y0096765D01*
X0132946Y0096765D01*
X0132946Y0098835D01*
X0133653Y0098835D01*
X0134415Y0099596D01*
X0134415Y0105004D01*
X0133653Y0105765D01*
X0132946Y0105765D01*
X0132946Y0109334D01*
X0133990Y0110377D01*
X0133990Y0113939D01*
X0131471Y0116458D01*
X0127909Y0116458D01*
X0125390Y0113939D01*
X0125390Y0110377D01*
X0127909Y0107858D01*
X0129346Y0107858D01*
X0129346Y0105765D01*
X0128639Y0105765D01*
X0127878Y0105004D01*
X0127878Y0099600D01*
X0127614Y0099600D01*
X0127633Y0099633D01*
X0127722Y0099963D01*
X0127722Y0102000D01*
X0124754Y0102000D01*
X0124754Y0102600D01*
X0127722Y0102600D01*
X0127722Y0104637D01*
X0127633Y0104967D01*
X0127462Y0105264D01*
X0127220Y0105506D01*
X0126924Y0105677D01*
X0126593Y0105765D01*
X0124754Y0105765D01*
X0124754Y0102600D01*
X0124154Y0102600D01*
X0124154Y0105765D01*
X0122314Y0105765D01*
X0121983Y0105677D01*
X0121687Y0105506D01*
X0121445Y0105264D01*
X0121274Y0104967D01*
X0121185Y0104637D01*
X0121185Y0102600D01*
X0124153Y0102600D01*
X0124153Y0102000D01*
X0121185Y0102000D01*
X0121185Y0101307D01*
X0120915Y0101577D01*
X0120915Y0105004D01*
X0120153Y0105765D01*
X0115139Y0105765D01*
X0114378Y0105004D01*
X0114378Y0100268D01*
X0114222Y0100424D01*
X0114222Y0105004D01*
X0113461Y0105765D01*
X0108447Y0105765D01*
X0107685Y0105004D01*
X0107685Y0099600D01*
X0107307Y0099600D01*
X0107326Y0099633D01*
X0107415Y0099963D01*
X0107415Y0102000D01*
X0104446Y0102000D01*
X0104446Y0102600D01*
X0103846Y0102600D01*
X0103846Y0102000D01*
X0100878Y0102000D01*
X0100878Y0099963D01*
X0100967Y0099633D01*
X0100986Y0099600D01*
X0100722Y0099600D01*
X0100722Y0105004D01*
X0099961Y0105765D01*
X0095600Y0105765D01*
X0095600Y0110167D01*
X0097909Y0107858D01*
X0099390Y0107858D01*
X0099390Y0111858D01*
X0099990Y0111858D01*
X0099990Y0112458D01*
X0103990Y0112458D01*
X0103990Y0113939D01*
X0101471Y0116458D01*
X0099990Y0116458D01*
X0099990Y0112458D01*
X0099390Y0112458D01*
X0099390Y0116458D01*
X0097909Y0116458D01*
X0095600Y0114150D01*
X0095600Y0116554D01*
X0097406Y0118361D01*
X0097909Y0117858D01*
X0101471Y0117858D01*
X0103990Y0120377D01*
X0103990Y0123939D01*
X0101471Y0126458D01*
X0097909Y0126458D01*
X0095390Y0123939D01*
X0095390Y0121435D01*
X0092000Y0118046D01*
X0092000Y0102554D01*
X0093054Y0101500D01*
X0094054Y0100500D01*
X0094185Y0100500D01*
X0094185Y0099596D01*
X0094947Y0098835D01*
X0095654Y0098835D01*
X0095654Y0096765D01*
X0094947Y0096765D01*
X0094185Y0096004D01*
X0094185Y0094452D01*
X0093855Y0094589D01*
X0092745Y0094589D01*
X0091720Y0094164D01*
X0091582Y0094026D01*
X0079560Y0105585D01*
X0078415Y0106731D01*
X0078415Y0111004D01*
X0077653Y0111765D01*
X0072639Y0111765D01*
X0071878Y0111004D01*
X0071878Y0106100D01*
X0071722Y0106100D01*
X0071722Y0111004D01*
X0070961Y0111765D01*
X0065947Y0111765D01*
X0065185Y0111004D01*
X0065185Y0110589D01*
X0064745Y0110589D01*
X0063720Y0110164D01*
X0062936Y0109380D01*
X0062856Y0109188D01*
X0062380Y0109664D01*
X0061355Y0110089D01*
X0060245Y0110089D01*
X0059220Y0109664D01*
X0058436Y0108880D01*
X0058239Y0108406D01*
X0057796Y0108850D01*
X0057796Y0108850D01*
X0055600Y0111046D01*
X0054546Y0112100D01*
X0051944Y0112100D01*
X0051380Y0112664D01*
X0050355Y0113089D01*
X0049245Y0113089D01*
X0048220Y0112664D01*
X0047744Y0112188D01*
X0047664Y0112380D01*
X0047100Y0112944D01*
X0047100Y0114281D01*
X0047415Y0114596D01*
X0047415Y0116028D01*
X0048764Y0114679D01*
X0050601Y0113918D01*
X0059991Y0113918D01*
X0061077Y0114368D01*
X0074823Y0114368D01*
X0076495Y0115061D01*
X0090685Y0129250D01*
X0113529Y0129250D01*
X0113031Y0128753D01*
X0113031Y0128753D01*
X0110737Y0126458D01*
X0107909Y0126458D01*
X0105390Y0123939D01*
X0105390Y0120377D01*
X0107909Y0117858D01*
X0111471Y0117858D01*
X0113990Y0120377D01*
X0113990Y0123206D01*
X0116284Y0125500D01*
X0116950Y0125500D01*
X0115390Y0123939D01*
X0115390Y0120377D01*
X0117909Y0117858D01*
X0121471Y0117858D01*
X0123990Y0120377D01*
X0123990Y0123939D01*
X0122429Y0125500D01*
X0123095Y0125500D01*
X0125390Y0123206D01*
X0125390Y0120377D01*
X0127909Y0117858D01*
X0131471Y0117858D01*
X0133471Y0119858D01*
X0134989Y0119858D01*
X0155500Y0099347D01*
X0155500Y0085944D01*
X0155436Y0085880D01*
X0155011Y0084855D01*
X0155011Y0083745D01*
X0155436Y0082720D01*
X0155500Y0082656D01*
X0155500Y0082444D01*
X0155436Y0082380D01*
X0155011Y0081355D01*
X0155011Y0080245D01*
X0155436Y0079220D01*
X0155500Y0079156D01*
X0155500Y0078944D01*
X0155436Y0078880D01*
X0155011Y0077855D01*
X0155011Y0076745D01*
X0155436Y0075720D01*
X0156220Y0074936D01*
X0157245Y0074511D01*
X0158355Y0074511D01*
X0159380Y0074936D01*
X0160164Y0075720D01*
X0160589Y0076745D01*
X0160589Y0077855D01*
X0160164Y0078880D01*
X0160100Y0078944D01*
X0160100Y0079156D01*
X0160164Y0079220D01*
X0160589Y0080245D01*
X0160589Y0081355D01*
X0160164Y0082380D01*
X0160100Y0082444D01*
X0160100Y0082656D01*
X0160164Y0082720D01*
X0160589Y0083745D01*
X0160589Y0084855D01*
X0160164Y0085880D01*
X0160100Y0085944D01*
X0160100Y0101253D01*
X0158753Y0102600D01*
X0138242Y0123111D01*
X0136894Y0124458D01*
X0137882Y0123471D02*
X0142695Y0123471D01*
X0143293Y0122872D02*
X0138480Y0122872D01*
X0138242Y0123111D02*
X0138242Y0123111D01*
X0139079Y0122274D02*
X0143892Y0122274D01*
X0144490Y0121675D02*
X0139677Y0121675D01*
X0140276Y0121077D02*
X0145089Y0121077D01*
X0145687Y0120478D02*
X0140874Y0120478D01*
X0141473Y0119880D02*
X0146286Y0119880D01*
X0146884Y0119281D02*
X0142072Y0119281D01*
X0142670Y0118683D02*
X0147483Y0118683D01*
X0148081Y0118084D02*
X0143269Y0118084D01*
X0143867Y0117486D02*
X0148680Y0117486D01*
X0149278Y0116887D02*
X0144466Y0116887D01*
X0145064Y0116289D02*
X0149877Y0116289D01*
X0150475Y0115690D02*
X0145663Y0115690D01*
X0146261Y0115092D02*
X0151074Y0115092D01*
X0151672Y0114493D02*
X0146860Y0114493D01*
X0147458Y0113895D02*
X0152271Y0113895D01*
X0152869Y0113296D02*
X0148057Y0113296D01*
X0148655Y0112698D02*
X0153468Y0112698D01*
X0154066Y0112099D02*
X0149254Y0112099D01*
X0149852Y0111501D02*
X0154665Y0111501D01*
X0155263Y0110902D02*
X0150451Y0110902D01*
X0151049Y0110303D02*
X0155862Y0110303D01*
X0156460Y0109705D02*
X0151648Y0109705D01*
X0152246Y0109106D02*
X0157059Y0109106D01*
X0157657Y0108508D02*
X0152845Y0108508D01*
X0153443Y0107909D02*
X0158256Y0107909D01*
X0158854Y0107311D02*
X0154042Y0107311D01*
X0154640Y0106712D02*
X0159453Y0106712D01*
X0160051Y0106114D02*
X0155239Y0106114D01*
X0155837Y0105515D02*
X0160650Y0105515D01*
X0161248Y0104917D02*
X0156436Y0104917D01*
X0157034Y0104318D02*
X0161847Y0104318D01*
X0162445Y0103720D02*
X0157633Y0103720D01*
X0158231Y0103121D02*
X0163044Y0103121D01*
X0163400Y0102523D02*
X0158830Y0102523D01*
X0159428Y0101924D02*
X0163400Y0101924D01*
X0163400Y0101326D02*
X0160027Y0101326D01*
X0160100Y0100727D02*
X0163400Y0100727D01*
X0163400Y0100129D02*
X0160100Y0100129D01*
X0160100Y0099530D02*
X0163400Y0099530D01*
X0163400Y0098932D02*
X0160100Y0098932D01*
X0160100Y0098333D02*
X0163400Y0098333D01*
X0163400Y0097735D02*
X0160100Y0097735D01*
X0160100Y0097136D02*
X0163400Y0097136D01*
X0163400Y0096538D02*
X0160100Y0096538D01*
X0160100Y0095939D02*
X0163400Y0095939D01*
X0163400Y0095341D02*
X0160100Y0095341D01*
X0160100Y0094742D02*
X0163400Y0094742D01*
X0163400Y0094144D02*
X0160100Y0094144D01*
X0160100Y0093545D02*
X0163400Y0093545D01*
X0163400Y0092947D02*
X0160100Y0092947D01*
X0160100Y0092348D02*
X0163400Y0092348D01*
X0163400Y0091750D02*
X0160100Y0091750D01*
X0160100Y0091151D02*
X0163400Y0091151D01*
X0163400Y0090553D02*
X0160100Y0090553D01*
X0160100Y0089954D02*
X0163400Y0089954D01*
X0163400Y0089356D02*
X0160100Y0089356D01*
X0160100Y0088757D02*
X0163400Y0088757D01*
X0163400Y0088159D02*
X0160100Y0088159D01*
X0160100Y0087560D02*
X0163400Y0087560D01*
X0163400Y0086962D02*
X0160100Y0086962D01*
X0160100Y0086363D02*
X0163400Y0086363D01*
X0163400Y0085765D02*
X0160212Y0085765D01*
X0160460Y0085166D02*
X0163400Y0085166D01*
X0163400Y0084568D02*
X0160589Y0084568D01*
X0160589Y0083969D02*
X0163400Y0083969D01*
X0163400Y0083370D02*
X0160434Y0083370D01*
X0160186Y0082772D02*
X0163400Y0082772D01*
X0163400Y0082173D02*
X0160250Y0082173D01*
X0160498Y0081575D02*
X0163400Y0081575D01*
X0163400Y0080976D02*
X0160589Y0080976D01*
X0160589Y0080378D02*
X0163400Y0080378D01*
X0163400Y0079779D02*
X0160396Y0079779D01*
X0160125Y0079181D02*
X0163400Y0079181D01*
X0163400Y0078582D02*
X0160288Y0078582D01*
X0160535Y0077984D02*
X0163400Y0077984D01*
X0163400Y0077385D02*
X0160589Y0077385D01*
X0160589Y0076787D02*
X0163400Y0076787D01*
X0163414Y0076188D02*
X0160358Y0076188D01*
X0160034Y0075590D02*
X0163662Y0075590D01*
X0164007Y0074991D02*
X0159436Y0074991D01*
X0156164Y0074991D02*
X0149654Y0074991D01*
X0150253Y0074393D02*
X0164606Y0074393D01*
X0165204Y0073794D02*
X0150851Y0073794D01*
X0151450Y0073196D02*
X0165803Y0073196D01*
X0166401Y0072597D02*
X0152048Y0072597D01*
X0152647Y0071999D02*
X0167000Y0071999D01*
X0167599Y0071400D02*
X0153245Y0071400D01*
X0153844Y0070802D02*
X0168197Y0070802D01*
X0168796Y0070203D02*
X0154442Y0070203D01*
X0155041Y0069605D02*
X0169394Y0069605D01*
X0169993Y0069006D02*
X0155639Y0069006D01*
X0156238Y0068408D02*
X0170591Y0068408D01*
X0171190Y0067809D02*
X0156836Y0067809D01*
X0157435Y0067211D02*
X0171788Y0067211D01*
X0171900Y0066612D02*
X0158033Y0066612D01*
X0158632Y0066014D02*
X0171900Y0066014D01*
X0175907Y0063620D02*
X0187835Y0063620D01*
X0187835Y0064218D02*
X0176819Y0064218D01*
X0177324Y0064817D02*
X0187835Y0064817D01*
X0187835Y0065415D02*
X0177572Y0065415D01*
X0177700Y0066014D02*
X0188388Y0066014D01*
X0188362Y0066612D02*
X0177700Y0066612D01*
X0177700Y0067211D02*
X0187835Y0067211D01*
X0187835Y0067809D02*
X0177700Y0067809D01*
X0177700Y0068408D02*
X0187835Y0068408D01*
X0187835Y0069006D02*
X0177646Y0069006D01*
X0177398Y0069605D02*
X0187835Y0069605D01*
X0187835Y0070203D02*
X0176998Y0070203D01*
X0176399Y0070802D02*
X0187835Y0070802D01*
X0187835Y0071400D02*
X0175801Y0071400D01*
X0175202Y0071999D02*
X0187835Y0071999D01*
X0188278Y0072597D02*
X0174604Y0072597D01*
X0174005Y0073196D02*
X0192055Y0073196D01*
X0192055Y0073794D02*
X0173407Y0073794D01*
X0172808Y0074393D02*
X0192055Y0074393D01*
X0192055Y0074991D02*
X0172210Y0074991D01*
X0171611Y0075590D02*
X0192055Y0075590D01*
X0192055Y0076188D02*
X0171013Y0076188D01*
X0170414Y0076787D02*
X0192055Y0076787D01*
X0190738Y0077385D02*
X0169816Y0077385D01*
X0169217Y0077984D02*
X0190488Y0077984D01*
X0190488Y0078582D02*
X0177810Y0078582D01*
X0178408Y0079181D02*
X0190488Y0079181D01*
X0190488Y0079779D02*
X0179007Y0079779D01*
X0179605Y0080378D02*
X0190488Y0080378D01*
X0190488Y0080976D02*
X0180204Y0080976D01*
X0180802Y0081575D02*
X0190488Y0081575D01*
X0190488Y0082173D02*
X0181401Y0082173D01*
X0177388Y0086363D02*
X0169200Y0086363D01*
X0169200Y0085765D02*
X0176789Y0085765D01*
X0176191Y0085166D02*
X0169200Y0085166D01*
X0169200Y0084568D02*
X0175592Y0084568D01*
X0174994Y0083969D02*
X0169200Y0083969D01*
X0169200Y0083370D02*
X0174395Y0083370D01*
X0173797Y0082772D02*
X0169200Y0082772D01*
X0169200Y0082173D02*
X0173466Y0082173D01*
X0173218Y0081575D02*
X0169200Y0081575D01*
X0169200Y0080976D02*
X0173213Y0080976D01*
X0173226Y0080378D02*
X0169200Y0080378D01*
X0169200Y0079779D02*
X0173474Y0079779D01*
X0173818Y0079181D02*
X0169200Y0079181D01*
X0169200Y0078582D02*
X0174416Y0078582D01*
X0177986Y0086962D02*
X0169200Y0086962D01*
X0169200Y0087560D02*
X0178585Y0087560D01*
X0179749Y0088159D02*
X0169200Y0088159D01*
X0169200Y0088757D02*
X0193656Y0088757D01*
X0194254Y0089356D02*
X0169200Y0089356D01*
X0169200Y0089954D02*
X0194853Y0089954D01*
X0195451Y0090553D02*
X0189885Y0090553D01*
X0189608Y0090462D02*
X0190356Y0090706D01*
X0191058Y0091063D01*
X0191694Y0091526D01*
X0192251Y0092082D01*
X0192713Y0092719D01*
X0193071Y0093420D01*
X0193314Y0094169D01*
X0193437Y0094946D01*
X0193437Y0095039D01*
X0185037Y0095039D01*
X0185037Y0090339D01*
X0188831Y0090339D01*
X0189608Y0090462D01*
X0191179Y0091151D02*
X0196050Y0091151D01*
X0196648Y0091750D02*
X0191918Y0091750D01*
X0192444Y0092348D02*
X0197247Y0092348D01*
X0197845Y0092947D02*
X0192829Y0092947D01*
X0193111Y0093545D02*
X0198444Y0093545D01*
X0198900Y0094144D02*
X0193306Y0094144D01*
X0193405Y0094742D02*
X0198900Y0094742D01*
X0198900Y0095341D02*
X0185037Y0095341D01*
X0185037Y0095639D02*
X0193437Y0095639D01*
X0193437Y0095733D01*
X0193314Y0096510D01*
X0193071Y0097259D01*
X0192713Y0097960D01*
X0192251Y0098597D01*
X0191694Y0099153D01*
X0191058Y0099616D01*
X0190356Y0099973D01*
X0189608Y0100216D01*
X0188831Y0100339D01*
X0185037Y0100339D01*
X0185037Y0095639D01*
X0185037Y0095039D01*
X0184437Y0095039D01*
X0184437Y0090339D01*
X0180643Y0090339D01*
X0179866Y0090462D01*
X0179118Y0090706D01*
X0178416Y0091063D01*
X0177780Y0091526D01*
X0177223Y0092082D01*
X0176761Y0092719D01*
X0176403Y0093420D01*
X0176160Y0094169D01*
X0176037Y0094946D01*
X0176037Y0095039D01*
X0184437Y0095039D01*
X0184437Y0095639D01*
X0176037Y0095639D01*
X0176037Y0095733D01*
X0176160Y0096510D01*
X0176403Y0097259D01*
X0176761Y0097960D01*
X0177223Y0098597D01*
X0177780Y0099153D01*
X0178416Y0099616D01*
X0179118Y0099973D01*
X0179866Y0100216D01*
X0180643Y0100339D01*
X0184437Y0100339D01*
X0184437Y0095639D01*
X0185037Y0095639D01*
X0185037Y0095939D02*
X0184437Y0095939D01*
X0184437Y0095341D02*
X0169200Y0095341D01*
X0169200Y0095939D02*
X0176070Y0095939D01*
X0176169Y0096538D02*
X0169200Y0096538D01*
X0169200Y0097136D02*
X0176364Y0097136D01*
X0176646Y0097735D02*
X0169200Y0097735D01*
X0169200Y0098333D02*
X0177032Y0098333D01*
X0177558Y0098932D02*
X0169200Y0098932D01*
X0169200Y0099530D02*
X0178299Y0099530D01*
X0179597Y0100129D02*
X0169200Y0100129D01*
X0169200Y0100727D02*
X0179106Y0100727D01*
X0184437Y0100129D02*
X0185037Y0100129D01*
X0185037Y0099530D02*
X0184437Y0099530D01*
X0184437Y0098932D02*
X0185037Y0098932D01*
X0185037Y0098333D02*
X0184437Y0098333D01*
X0184437Y0097735D02*
X0185037Y0097735D01*
X0185037Y0097136D02*
X0184437Y0097136D01*
X0184437Y0096538D02*
X0185037Y0096538D01*
X0185037Y0094742D02*
X0184437Y0094742D01*
X0184437Y0094144D02*
X0185037Y0094144D01*
X0185037Y0093545D02*
X0184437Y0093545D01*
X0184437Y0092947D02*
X0185037Y0092947D01*
X0185037Y0092348D02*
X0184437Y0092348D01*
X0184437Y0091750D02*
X0185037Y0091750D01*
X0185037Y0091151D02*
X0184437Y0091151D01*
X0184437Y0090553D02*
X0185037Y0090553D01*
X0179589Y0090553D02*
X0169200Y0090553D01*
X0169200Y0091151D02*
X0178295Y0091151D01*
X0177556Y0091750D02*
X0169200Y0091750D01*
X0169200Y0092348D02*
X0177030Y0092348D01*
X0176645Y0092947D02*
X0169200Y0092947D01*
X0169200Y0093545D02*
X0176363Y0093545D01*
X0176168Y0094144D02*
X0169200Y0094144D01*
X0169200Y0094742D02*
X0176069Y0094742D01*
X0189877Y0100129D02*
X0198900Y0100129D01*
X0198900Y0100727D02*
X0190368Y0100727D01*
X0191495Y0101326D02*
X0198900Y0101326D01*
X0198900Y0101924D02*
X0192093Y0101924D01*
X0192682Y0102523D02*
X0198900Y0102523D01*
X0198900Y0103121D02*
X0192930Y0103121D01*
X0193178Y0103720D02*
X0198900Y0103720D01*
X0198900Y0104318D02*
X0193426Y0104318D01*
X0193437Y0104917D02*
X0198900Y0104917D01*
X0198900Y0105515D02*
X0193437Y0105515D01*
X0193437Y0106114D02*
X0198900Y0106114D01*
X0198900Y0106712D02*
X0193280Y0106712D01*
X0193032Y0107311D02*
X0198900Y0107311D01*
X0198900Y0107909D02*
X0192784Y0107909D01*
X0192339Y0108508D02*
X0198900Y0108508D01*
X0198900Y0109106D02*
X0191741Y0109106D01*
X0190963Y0109705D02*
X0198900Y0109705D01*
X0198900Y0110303D02*
X0189518Y0110303D01*
X0198900Y0110902D02*
X0168133Y0110902D01*
X0168731Y0110303D02*
X0179956Y0110303D01*
X0167534Y0111501D02*
X0198900Y0111501D01*
X0198900Y0112099D02*
X0166936Y0112099D01*
X0166337Y0112698D02*
X0198900Y0112698D01*
X0198900Y0113296D02*
X0165739Y0113296D01*
X0165140Y0113895D02*
X0198900Y0113895D01*
X0198900Y0114493D02*
X0164542Y0114493D01*
X0163943Y0115092D02*
X0198900Y0115092D01*
X0198900Y0115690D02*
X0163345Y0115690D01*
X0162746Y0116289D02*
X0198900Y0116289D01*
X0198900Y0116887D02*
X0162148Y0116887D01*
X0161549Y0117486D02*
X0198900Y0117486D01*
X0198900Y0118084D02*
X0160951Y0118084D01*
X0160352Y0118683D02*
X0198900Y0118683D01*
X0198900Y0119281D02*
X0159753Y0119281D01*
X0159155Y0119880D02*
X0198900Y0119880D01*
X0198900Y0120478D02*
X0158556Y0120478D01*
X0157958Y0121077D02*
X0198900Y0121077D01*
X0198900Y0121675D02*
X0157359Y0121675D01*
X0144544Y0110303D02*
X0133916Y0110303D01*
X0133990Y0110902D02*
X0143945Y0110902D01*
X0143347Y0111501D02*
X0133990Y0111501D01*
X0133990Y0112099D02*
X0142748Y0112099D01*
X0142150Y0112698D02*
X0133990Y0112698D01*
X0133990Y0113296D02*
X0141551Y0113296D01*
X0140953Y0113895D02*
X0133990Y0113895D01*
X0133436Y0114493D02*
X0140354Y0114493D01*
X0139756Y0115092D02*
X0132838Y0115092D01*
X0132239Y0115690D02*
X0139157Y0115690D01*
X0138559Y0116289D02*
X0131641Y0116289D01*
X0131697Y0118084D02*
X0136763Y0118084D01*
X0136165Y0118683D02*
X0132295Y0118683D01*
X0132894Y0119281D02*
X0135566Y0119281D01*
X0137362Y0117486D02*
X0096531Y0117486D01*
X0097130Y0118084D02*
X0097683Y0118084D01*
X0097739Y0116289D02*
X0095600Y0116289D01*
X0095600Y0115690D02*
X0097141Y0115690D01*
X0096542Y0115092D02*
X0095600Y0115092D01*
X0095600Y0114493D02*
X0095943Y0114493D01*
X0095933Y0116887D02*
X0137960Y0116887D01*
X0133318Y0109705D02*
X0145142Y0109705D01*
X0145741Y0109106D02*
X0132946Y0109106D01*
X0132946Y0108508D02*
X0146339Y0108508D01*
X0146938Y0107909D02*
X0132946Y0107909D01*
X0132946Y0107311D02*
X0147536Y0107311D01*
X0148135Y0106712D02*
X0132946Y0106712D01*
X0132946Y0106114D02*
X0148733Y0106114D01*
X0149332Y0105515D02*
X0133903Y0105515D01*
X0134415Y0104917D02*
X0149930Y0104917D01*
X0150529Y0104318D02*
X0134415Y0104318D01*
X0134415Y0103720D02*
X0151127Y0103720D01*
X0151726Y0103121D02*
X0134415Y0103121D01*
X0134415Y0102523D02*
X0152324Y0102523D01*
X0152923Y0101924D02*
X0134415Y0101924D01*
X0134415Y0101326D02*
X0153521Y0101326D01*
X0154120Y0100727D02*
X0134415Y0100727D01*
X0134415Y0100129D02*
X0154719Y0100129D01*
X0155317Y0099530D02*
X0134349Y0099530D01*
X0133751Y0098932D02*
X0155500Y0098932D01*
X0155500Y0098333D02*
X0132946Y0098333D01*
X0132946Y0097735D02*
X0155500Y0097735D01*
X0155500Y0097136D02*
X0132946Y0097136D01*
X0133881Y0096538D02*
X0155500Y0096538D01*
X0155500Y0095939D02*
X0134415Y0095939D01*
X0134415Y0095341D02*
X0155500Y0095341D01*
X0155500Y0094742D02*
X0134415Y0094742D01*
X0134415Y0094144D02*
X0155500Y0094144D01*
X0155500Y0093545D02*
X0134415Y0093545D01*
X0134415Y0092947D02*
X0155500Y0092947D01*
X0155500Y0092348D02*
X0134415Y0092348D01*
X0134415Y0091750D02*
X0155500Y0091750D01*
X0155500Y0091151D02*
X0134415Y0091151D01*
X0134371Y0090553D02*
X0155500Y0090553D01*
X0155500Y0089954D02*
X0133773Y0089954D01*
X0128520Y0089954D02*
X0127080Y0089954D01*
X0127678Y0090553D02*
X0127921Y0090553D01*
X0127878Y0091151D02*
X0127722Y0091151D01*
X0127722Y0091750D02*
X0127878Y0091750D01*
X0127878Y0092348D02*
X0127722Y0092348D01*
X0127722Y0092947D02*
X0127878Y0092947D01*
X0127878Y0093545D02*
X0127722Y0093545D01*
X0127722Y0094144D02*
X0127878Y0094144D01*
X0127878Y0094742D02*
X0127722Y0094742D01*
X0127722Y0095341D02*
X0127878Y0095341D01*
X0127878Y0095939D02*
X0127722Y0095939D01*
X0127722Y0100129D02*
X0127878Y0100129D01*
X0127878Y0100727D02*
X0127722Y0100727D01*
X0127722Y0101326D02*
X0127878Y0101326D01*
X0127878Y0101924D02*
X0127722Y0101924D01*
X0127878Y0102523D02*
X0124754Y0102523D01*
X0124754Y0103121D02*
X0124154Y0103121D01*
X0124153Y0102523D02*
X0120915Y0102523D01*
X0120915Y0103121D02*
X0121185Y0103121D01*
X0121185Y0103720D02*
X0120915Y0103720D01*
X0120915Y0104318D02*
X0121185Y0104318D01*
X0121260Y0104917D02*
X0120915Y0104917D01*
X0120403Y0105515D02*
X0121704Y0105515D01*
X0124154Y0105515D02*
X0124754Y0105515D01*
X0124754Y0104917D02*
X0124154Y0104917D01*
X0124154Y0104318D02*
X0124754Y0104318D01*
X0124754Y0103720D02*
X0124154Y0103720D01*
X0127203Y0105515D02*
X0128390Y0105515D01*
X0127878Y0104917D02*
X0127647Y0104917D01*
X0127722Y0104318D02*
X0127878Y0104318D01*
X0127878Y0103720D02*
X0127722Y0103720D01*
X0127722Y0103121D02*
X0127878Y0103121D01*
X0129346Y0106114D02*
X0095600Y0106114D01*
X0095600Y0106712D02*
X0129346Y0106712D01*
X0129346Y0107311D02*
X0095600Y0107311D01*
X0095600Y0107909D02*
X0097857Y0107909D01*
X0097259Y0108508D02*
X0095600Y0108508D01*
X0095600Y0109106D02*
X0096660Y0109106D01*
X0096062Y0109705D02*
X0095600Y0109705D01*
X0099390Y0109705D02*
X0099990Y0109705D01*
X0099990Y0110303D02*
X0099390Y0110303D01*
X0099390Y0110902D02*
X0099990Y0110902D01*
X0099990Y0111501D02*
X0099390Y0111501D01*
X0099990Y0111858D02*
X0099990Y0107858D01*
X0101471Y0107858D01*
X0103990Y0110377D01*
X0103990Y0111858D01*
X0099990Y0111858D01*
X0099990Y0112099D02*
X0105390Y0112099D01*
X0105390Y0111501D02*
X0103990Y0111501D01*
X0103990Y0110902D02*
X0105390Y0110902D01*
X0105390Y0110377D02*
X0107909Y0107858D01*
X0111471Y0107858D01*
X0113990Y0110377D01*
X0113990Y0113939D01*
X0111471Y0116458D01*
X0107909Y0116458D01*
X0105390Y0113939D01*
X0105390Y0110377D01*
X0105463Y0110303D02*
X0103916Y0110303D01*
X0103318Y0109705D02*
X0106062Y0109705D01*
X0106660Y0109106D02*
X0102719Y0109106D01*
X0102121Y0108508D02*
X0107259Y0108508D01*
X0107857Y0107909D02*
X0101522Y0107909D01*
X0099990Y0107909D02*
X0099390Y0107909D01*
X0099390Y0108508D02*
X0099990Y0108508D01*
X0099990Y0109106D02*
X0099390Y0109106D01*
X0099390Y0112698D02*
X0099990Y0112698D01*
X0099990Y0113296D02*
X0099390Y0113296D01*
X0099390Y0113895D02*
X0099990Y0113895D01*
X0099990Y0114493D02*
X0099390Y0114493D01*
X0099390Y0115092D02*
X0099990Y0115092D01*
X0099990Y0115690D02*
X0099390Y0115690D01*
X0099390Y0116289D02*
X0099990Y0116289D01*
X0101641Y0116289D02*
X0107739Y0116289D01*
X0107140Y0115690D02*
X0102239Y0115690D01*
X0102838Y0115092D02*
X0106542Y0115092D01*
X0105943Y0114493D02*
X0103436Y0114493D01*
X0103990Y0113895D02*
X0105390Y0113895D01*
X0105390Y0113296D02*
X0103990Y0113296D01*
X0103990Y0112698D02*
X0105390Y0112698D01*
X0111522Y0107909D02*
X0117857Y0107909D01*
X0117909Y0107858D02*
X0121471Y0107858D01*
X0123990Y0110377D01*
X0123990Y0113939D01*
X0121471Y0116458D01*
X0117909Y0116458D01*
X0115390Y0113939D01*
X0115390Y0110377D01*
X0117909Y0107858D01*
X0117259Y0108508D02*
X0112121Y0108508D01*
X0112719Y0109106D02*
X0116660Y0109106D01*
X0116062Y0109705D02*
X0113318Y0109705D01*
X0113916Y0110303D02*
X0115463Y0110303D01*
X0115390Y0110902D02*
X0113990Y0110902D01*
X0113990Y0111501D02*
X0115390Y0111501D01*
X0115390Y0112099D02*
X0113990Y0112099D01*
X0113990Y0112698D02*
X0115390Y0112698D01*
X0115390Y0113296D02*
X0113990Y0113296D01*
X0113990Y0113895D02*
X0115390Y0113895D01*
X0115943Y0114493D02*
X0113436Y0114493D01*
X0112838Y0115092D02*
X0116542Y0115092D01*
X0117140Y0115690D02*
X0112239Y0115690D01*
X0111641Y0116289D02*
X0117739Y0116289D01*
X0117683Y0118084D02*
X0111697Y0118084D01*
X0112295Y0118683D02*
X0117084Y0118683D01*
X0116486Y0119281D02*
X0112894Y0119281D01*
X0113492Y0119880D02*
X0115887Y0119880D01*
X0115390Y0120478D02*
X0113990Y0120478D01*
X0113990Y0121077D02*
X0115390Y0121077D01*
X0115390Y0121675D02*
X0113990Y0121675D01*
X0113990Y0122274D02*
X0115390Y0122274D01*
X0115390Y0122872D02*
X0113990Y0122872D01*
X0114255Y0123471D02*
X0115390Y0123471D01*
X0115520Y0124069D02*
X0114853Y0124069D01*
X0115452Y0124668D02*
X0116118Y0124668D01*
X0116050Y0125266D02*
X0116717Y0125266D01*
X0113136Y0128857D02*
X0090292Y0128857D01*
X0089694Y0128259D02*
X0112538Y0128259D01*
X0111939Y0127660D02*
X0089095Y0127660D01*
X0088496Y0127062D02*
X0111341Y0127062D01*
X0110742Y0126463D02*
X0087898Y0126463D01*
X0087299Y0125865D02*
X0097315Y0125865D01*
X0096717Y0125266D02*
X0086701Y0125266D01*
X0086102Y0124668D02*
X0096118Y0124668D01*
X0095520Y0124069D02*
X0085504Y0124069D01*
X0084905Y0123471D02*
X0095390Y0123471D01*
X0095390Y0122872D02*
X0084307Y0122872D01*
X0083708Y0122274D02*
X0095390Y0122274D01*
X0095390Y0121675D02*
X0083110Y0121675D01*
X0082511Y0121077D02*
X0095031Y0121077D01*
X0094433Y0120478D02*
X0081913Y0120478D01*
X0081314Y0119880D02*
X0093834Y0119880D01*
X0093236Y0119281D02*
X0080716Y0119281D01*
X0080117Y0118683D02*
X0092637Y0118683D01*
X0092039Y0118084D02*
X0079519Y0118084D01*
X0078920Y0117486D02*
X0092000Y0117486D01*
X0092000Y0116887D02*
X0078322Y0116887D01*
X0077723Y0116289D02*
X0092000Y0116289D01*
X0092000Y0115690D02*
X0077125Y0115690D01*
X0076526Y0115092D02*
X0092000Y0115092D01*
X0092000Y0114493D02*
X0075125Y0114493D01*
X0072375Y0111501D02*
X0071225Y0111501D01*
X0071722Y0110902D02*
X0071878Y0110902D01*
X0071878Y0110303D02*
X0071722Y0110303D01*
X0071722Y0109705D02*
X0071878Y0109705D01*
X0071878Y0109106D02*
X0071722Y0109106D01*
X0071722Y0108508D02*
X0071878Y0108508D01*
X0071878Y0107909D02*
X0071722Y0107909D01*
X0071722Y0107311D02*
X0071878Y0107311D01*
X0071878Y0106712D02*
X0071722Y0106712D01*
X0071722Y0106114D02*
X0071878Y0106114D01*
X0065682Y0111501D02*
X0055145Y0111501D01*
X0055600Y0111046D02*
X0055600Y0111046D01*
X0055744Y0110902D02*
X0065185Y0110902D01*
X0064056Y0110303D02*
X0056342Y0110303D01*
X0056941Y0109705D02*
X0059318Y0109705D01*
X0058662Y0109106D02*
X0057539Y0109106D01*
X0058138Y0108508D02*
X0058282Y0108508D01*
X0062282Y0109705D02*
X0063261Y0109705D01*
X0057835Y0103720D02*
X0030426Y0103720D01*
X0030600Y0103121D02*
X0039177Y0103121D01*
X0038579Y0102523D02*
X0030600Y0102523D01*
X0029827Y0104318D02*
X0057236Y0104318D01*
X0056638Y0104917D02*
X0029229Y0104917D01*
X0028630Y0105515D02*
X0056039Y0105515D01*
X0055440Y0106114D02*
X0046854Y0106114D01*
X0047033Y0106712D02*
X0054842Y0106712D01*
X0055250Y0106304D02*
X0055250Y0106304D01*
X0054243Y0107311D02*
X0047033Y0107311D01*
X0047033Y0107909D02*
X0048283Y0107909D01*
X0047648Y0108508D02*
X0047033Y0108508D01*
X0047347Y0112698D02*
X0048300Y0112698D01*
X0047100Y0113296D02*
X0092000Y0113296D01*
X0092000Y0112698D02*
X0051300Y0112698D01*
X0049213Y0114493D02*
X0047312Y0114493D01*
X0047415Y0115092D02*
X0048352Y0115092D01*
X0047753Y0115690D02*
X0047415Y0115690D01*
X0047100Y0113895D02*
X0092000Y0113895D01*
X0092000Y0112099D02*
X0054547Y0112099D01*
X0053645Y0107909D02*
X0051317Y0107909D01*
X0052177Y0103121D02*
X0042423Y0103121D01*
X0043021Y0102523D02*
X0051579Y0102523D01*
X0051247Y0101924D02*
X0043353Y0101924D01*
X0043589Y0101326D02*
X0051011Y0101326D01*
X0051011Y0100727D02*
X0043589Y0100727D01*
X0044017Y0100129D02*
X0051059Y0100129D01*
X0051307Y0099530D02*
X0048615Y0099530D01*
X0049214Y0098932D02*
X0051724Y0098932D01*
X0052467Y0098333D02*
X0049812Y0098333D01*
X0050411Y0097735D02*
X0052376Y0097735D01*
X0052128Y0097136D02*
X0051009Y0097136D01*
X0051608Y0096538D02*
X0052011Y0096538D01*
X0047115Y0095939D02*
X0033687Y0095939D01*
X0034041Y0096538D02*
X0042517Y0096538D01*
X0041918Y0097136D02*
X0034041Y0097136D01*
X0034041Y0097735D02*
X0041320Y0097735D01*
X0039467Y0098333D02*
X0034041Y0098333D01*
X0034041Y0098932D02*
X0038724Y0098932D01*
X0038307Y0099530D02*
X0034041Y0099530D01*
X0034041Y0100129D02*
X0038059Y0100129D01*
X0038011Y0100727D02*
X0034041Y0100727D01*
X0034022Y0101326D02*
X0038011Y0101326D01*
X0038247Y0101924D02*
X0033424Y0101924D01*
X0036738Y0106114D02*
X0027430Y0106114D01*
X0026764Y0106712D02*
X0036559Y0106712D01*
X0030740Y0113296D02*
X0043500Y0113296D01*
X0041580Y0113895D02*
X0040020Y0113895D01*
X0040619Y0114493D02*
X0040981Y0114493D01*
X0040878Y0115092D02*
X0040722Y0115092D01*
X0040722Y0115690D02*
X0040878Y0115690D01*
X0040878Y0116289D02*
X0040722Y0116289D01*
X0040722Y0116887D02*
X0040878Y0116887D01*
X0040878Y0117486D02*
X0040722Y0117486D01*
X0040722Y0118084D02*
X0040878Y0118084D01*
X0040878Y0118683D02*
X0040722Y0118683D01*
X0040722Y0119281D02*
X0040878Y0119281D01*
X0040878Y0119880D02*
X0040722Y0119880D01*
X0040248Y0120478D02*
X0041352Y0120478D01*
X0040185Y0123471D02*
X0031704Y0123471D01*
X0031704Y0124069D02*
X0039587Y0124069D01*
X0039250Y0124668D02*
X0031704Y0124668D01*
X0031704Y0125266D02*
X0039011Y0125266D01*
X0036987Y0125865D02*
X0031704Y0125865D01*
X0031704Y0122872D02*
X0048479Y0122872D01*
X0047881Y0122274D02*
X0031704Y0122274D01*
X0033673Y0121675D02*
X0047326Y0121675D01*
X0047078Y0121077D02*
X0034041Y0121077D01*
X0034041Y0120478D02*
X0034659Y0120478D01*
X0034185Y0119880D02*
X0034041Y0119880D01*
X0034041Y0119281D02*
X0034185Y0119281D01*
X0034185Y0115092D02*
X0031589Y0115092D01*
X0031485Y0114493D02*
X0034288Y0114493D01*
X0034887Y0113895D02*
X0031237Y0113895D01*
X0043415Y0123471D02*
X0049521Y0123471D01*
X0050237Y0124069D02*
X0044013Y0124069D01*
X0044350Y0124668D02*
X0048792Y0124668D01*
X0048177Y0125266D02*
X0044589Y0125266D01*
X0046605Y0125865D02*
X0047578Y0125865D01*
X0047201Y0126463D02*
X0047033Y0126463D01*
X0039845Y0134244D02*
X0082809Y0134244D01*
X0082211Y0133645D02*
X0060649Y0133645D01*
X0061938Y0133047D02*
X0081612Y0133047D01*
X0081014Y0132448D02*
X0062537Y0132448D01*
X0063135Y0131850D02*
X0080415Y0131850D01*
X0079817Y0131251D02*
X0063442Y0131251D01*
X0063689Y0130653D02*
X0079218Y0130653D01*
X0078620Y0130054D02*
X0063937Y0130054D01*
X0063996Y0129456D02*
X0078021Y0129456D01*
X0077423Y0128857D02*
X0063996Y0128857D01*
X0063996Y0128259D02*
X0076824Y0128259D01*
X0076226Y0127660D02*
X0063887Y0127660D01*
X0063639Y0127062D02*
X0075627Y0127062D01*
X0075029Y0126463D02*
X0063391Y0126463D01*
X0063014Y0125865D02*
X0074430Y0125865D01*
X0073832Y0125266D02*
X0062415Y0125266D01*
X0061800Y0124668D02*
X0073233Y0124668D01*
X0072635Y0124069D02*
X0060356Y0124069D01*
X0061071Y0123471D02*
X0072036Y0123471D01*
X0083408Y0134842D02*
X0040444Y0134842D01*
X0041042Y0135441D02*
X0084006Y0135441D01*
X0084605Y0136039D02*
X0041641Y0136039D01*
X0042239Y0136638D02*
X0085203Y0136638D01*
X0085802Y0137237D02*
X0042838Y0137237D01*
X0043436Y0137835D02*
X0086652Y0137835D01*
X0102064Y0125865D02*
X0107315Y0125865D01*
X0106717Y0125266D02*
X0102663Y0125266D01*
X0103261Y0124668D02*
X0106118Y0124668D01*
X0105520Y0124069D02*
X0103860Y0124069D01*
X0103990Y0123471D02*
X0105390Y0123471D01*
X0105390Y0122872D02*
X0103990Y0122872D01*
X0103990Y0122274D02*
X0105390Y0122274D01*
X0105390Y0121675D02*
X0103990Y0121675D01*
X0103990Y0121077D02*
X0105390Y0121077D01*
X0105390Y0120478D02*
X0103990Y0120478D01*
X0103492Y0119880D02*
X0105887Y0119880D01*
X0106486Y0119281D02*
X0102894Y0119281D01*
X0102295Y0118683D02*
X0107084Y0118683D01*
X0107683Y0118084D02*
X0101697Y0118084D01*
X0092000Y0111501D02*
X0077918Y0111501D01*
X0078415Y0110902D02*
X0092000Y0110902D01*
X0092000Y0110303D02*
X0078415Y0110303D01*
X0078415Y0109705D02*
X0092000Y0109705D01*
X0092000Y0109106D02*
X0078415Y0109106D01*
X0078415Y0108508D02*
X0092000Y0108508D01*
X0092000Y0107909D02*
X0078415Y0107909D01*
X0078415Y0107311D02*
X0092000Y0107311D01*
X0092000Y0106712D02*
X0078433Y0106712D01*
X0079032Y0106114D02*
X0092000Y0106114D01*
X0092000Y0105515D02*
X0079633Y0105515D01*
X0080255Y0104917D02*
X0092000Y0104917D01*
X0092000Y0104318D02*
X0080878Y0104318D01*
X0081500Y0103720D02*
X0092000Y0103720D01*
X0092000Y0103121D02*
X0082123Y0103121D01*
X0082745Y0102523D02*
X0092032Y0102523D01*
X0092630Y0101924D02*
X0083368Y0101924D01*
X0083990Y0101326D02*
X0093229Y0101326D01*
X0093827Y0100727D02*
X0084613Y0100727D01*
X0085235Y0100129D02*
X0094185Y0100129D01*
X0094251Y0099530D02*
X0085857Y0099530D01*
X0086480Y0098932D02*
X0094849Y0098932D01*
X0095654Y0098333D02*
X0087102Y0098333D01*
X0087725Y0097735D02*
X0095654Y0097735D01*
X0095654Y0097136D02*
X0088347Y0097136D01*
X0088970Y0096538D02*
X0094719Y0096538D01*
X0094185Y0095939D02*
X0089592Y0095939D01*
X0090215Y0095341D02*
X0094185Y0095341D01*
X0094185Y0094742D02*
X0090837Y0094742D01*
X0091460Y0094144D02*
X0091699Y0094144D01*
X0100722Y0100129D02*
X0100878Y0100129D01*
X0100878Y0100727D02*
X0100722Y0100727D01*
X0100722Y0101326D02*
X0100878Y0101326D01*
X0100878Y0101924D02*
X0100722Y0101924D01*
X0100722Y0102523D02*
X0103846Y0102523D01*
X0103846Y0102600D02*
X0100878Y0102600D01*
X0100878Y0104637D01*
X0100967Y0104967D01*
X0101138Y0105264D01*
X0101380Y0105506D01*
X0101676Y0105677D01*
X0102007Y0105765D01*
X0103846Y0105765D01*
X0103846Y0102600D01*
X0103846Y0103121D02*
X0104446Y0103121D01*
X0104446Y0102600D02*
X0104446Y0105765D01*
X0106286Y0105765D01*
X0106617Y0105677D01*
X0106913Y0105506D01*
X0107155Y0105264D01*
X0107326Y0104967D01*
X0107415Y0104637D01*
X0107415Y0102600D01*
X0104446Y0102600D01*
X0104446Y0102523D02*
X0107685Y0102523D01*
X0107685Y0103121D02*
X0107415Y0103121D01*
X0107415Y0103720D02*
X0107685Y0103720D01*
X0107685Y0104318D02*
X0107415Y0104318D01*
X0107340Y0104917D02*
X0107685Y0104917D01*
X0108197Y0105515D02*
X0106896Y0105515D01*
X0104446Y0105515D02*
X0103846Y0105515D01*
X0103846Y0104917D02*
X0104446Y0104917D01*
X0104446Y0104318D02*
X0103846Y0104318D01*
X0103846Y0103720D02*
X0104446Y0103720D01*
X0107415Y0101924D02*
X0107685Y0101924D01*
X0107685Y0101326D02*
X0107415Y0101326D01*
X0107415Y0100727D02*
X0107685Y0100727D01*
X0107685Y0100129D02*
X0107415Y0100129D01*
X0114222Y0100727D02*
X0114378Y0100727D01*
X0114378Y0101326D02*
X0114222Y0101326D01*
X0114222Y0101924D02*
X0114378Y0101924D01*
X0114378Y0102523D02*
X0114222Y0102523D01*
X0114222Y0103121D02*
X0114378Y0103121D01*
X0114378Y0103720D02*
X0114222Y0103720D01*
X0114222Y0104318D02*
X0114378Y0104318D01*
X0114378Y0104917D02*
X0114222Y0104917D01*
X0113710Y0105515D02*
X0114890Y0105515D01*
X0120915Y0101924D02*
X0121185Y0101924D01*
X0121166Y0101326D02*
X0121185Y0101326D01*
X0121522Y0107909D02*
X0127857Y0107909D01*
X0127259Y0108508D02*
X0122121Y0108508D01*
X0122719Y0109106D02*
X0126660Y0109106D01*
X0126062Y0109705D02*
X0123318Y0109705D01*
X0123916Y0110303D02*
X0125463Y0110303D01*
X0125390Y0110902D02*
X0123990Y0110902D01*
X0123990Y0111501D02*
X0125390Y0111501D01*
X0125390Y0112099D02*
X0123990Y0112099D01*
X0123990Y0112698D02*
X0125390Y0112698D01*
X0125390Y0113296D02*
X0123990Y0113296D01*
X0123990Y0113895D02*
X0125390Y0113895D01*
X0125943Y0114493D02*
X0123436Y0114493D01*
X0122838Y0115092D02*
X0126542Y0115092D01*
X0127140Y0115690D02*
X0122239Y0115690D01*
X0121641Y0116289D02*
X0127739Y0116289D01*
X0127683Y0118084D02*
X0121697Y0118084D01*
X0122295Y0118683D02*
X0127084Y0118683D01*
X0126486Y0119281D02*
X0122894Y0119281D01*
X0123492Y0119880D02*
X0125887Y0119880D01*
X0125390Y0120478D02*
X0123990Y0120478D01*
X0123990Y0121077D02*
X0125390Y0121077D01*
X0125390Y0121675D02*
X0123990Y0121675D01*
X0123990Y0122274D02*
X0125390Y0122274D01*
X0125390Y0122872D02*
X0123990Y0122872D01*
X0123990Y0123471D02*
X0125125Y0123471D01*
X0124526Y0124069D02*
X0123860Y0124069D01*
X0123928Y0124668D02*
X0123261Y0124668D01*
X0123329Y0125266D02*
X0122663Y0125266D01*
X0126243Y0128857D02*
X0137308Y0128857D01*
X0137906Y0128259D02*
X0126842Y0128259D01*
X0127440Y0127660D02*
X0138505Y0127660D01*
X0139104Y0127062D02*
X0128039Y0127062D01*
X0128637Y0126463D02*
X0139702Y0126463D01*
X0140301Y0125865D02*
X0132064Y0125865D01*
X0133707Y0145616D02*
X0051217Y0145616D01*
X0050618Y0145017D02*
X0191246Y0145017D01*
X0190726Y0145616D02*
X0135585Y0145616D01*
X0176501Y0139032D02*
X0044633Y0139032D01*
X0045232Y0139631D02*
X0176749Y0139631D01*
X0177277Y0140229D02*
X0045830Y0140229D01*
X0046429Y0140828D02*
X0177875Y0140828D01*
X0178855Y0141426D02*
X0047027Y0141426D01*
X0047626Y0142025D02*
X0193849Y0142025D01*
X0193328Y0142623D02*
X0048224Y0142623D01*
X0048823Y0143222D02*
X0192808Y0143222D01*
X0192287Y0143820D02*
X0049421Y0143820D01*
X0050020Y0144419D02*
X0191767Y0144419D01*
X0190619Y0141426D02*
X0194369Y0141426D01*
X0194889Y0140828D02*
X0191599Y0140828D01*
X0192197Y0140229D02*
X0195410Y0140229D01*
X0195930Y0139631D02*
X0192725Y0139631D01*
X0192973Y0139032D02*
X0196451Y0139032D01*
X0196971Y0138434D02*
X0193221Y0138434D01*
X0193437Y0137835D02*
X0197492Y0137835D01*
X0198012Y0137237D02*
X0193437Y0137237D01*
X0193437Y0136638D02*
X0198533Y0136638D01*
X0198900Y0136039D02*
X0193437Y0136039D01*
X0193237Y0135441D02*
X0198900Y0135441D01*
X0198900Y0134842D02*
X0192989Y0134842D01*
X0192741Y0134244D02*
X0198900Y0134244D01*
X0198900Y0133645D02*
X0192235Y0133645D01*
X0191637Y0133047D02*
X0198900Y0133047D01*
X0198900Y0132448D02*
X0190712Y0132448D01*
X0191041Y0131251D02*
X0198900Y0131251D01*
X0198900Y0130653D02*
X0191773Y0130653D01*
X0192372Y0130054D02*
X0198900Y0130054D01*
X0198900Y0129456D02*
X0192798Y0129456D01*
X0193046Y0128857D02*
X0198900Y0128857D01*
X0198900Y0128259D02*
X0193294Y0128259D01*
X0193437Y0127660D02*
X0198900Y0127660D01*
X0198900Y0127062D02*
X0193437Y0127062D01*
X0193437Y0126463D02*
X0198900Y0126463D01*
X0198900Y0125865D02*
X0193413Y0125865D01*
X0193165Y0125266D02*
X0198900Y0125266D01*
X0198900Y0124668D02*
X0192917Y0124668D01*
X0192659Y0124069D02*
X0198900Y0124069D01*
X0198900Y0123471D02*
X0192061Y0123471D01*
X0191462Y0122872D02*
X0198900Y0122872D01*
X0198900Y0122274D02*
X0190290Y0122274D01*
X0189596Y0131850D02*
X0198900Y0131850D01*
X0204700Y0131850D02*
X0217150Y0131850D01*
X0217150Y0132448D02*
X0204700Y0132448D01*
X0204700Y0133047D02*
X0217150Y0133047D01*
X0217150Y0133645D02*
X0204700Y0133645D01*
X0204700Y0134244D02*
X0217150Y0134244D01*
X0217150Y0134842D02*
X0204700Y0134842D01*
X0204700Y0135441D02*
X0217150Y0135441D01*
X0217150Y0136039D02*
X0204700Y0136039D01*
X0204700Y0136638D02*
X0217150Y0136638D01*
X0217150Y0137237D02*
X0204703Y0137237D01*
X0204700Y0137835D02*
X0217150Y0137835D01*
X0217150Y0138434D02*
X0204479Y0138434D01*
X0204169Y0139032D02*
X0217150Y0139032D01*
X0217150Y0139631D02*
X0203616Y0139631D01*
X0203096Y0140229D02*
X0217150Y0140229D01*
X0217150Y0140828D02*
X0202576Y0140828D01*
X0202055Y0141426D02*
X0217150Y0141426D01*
X0217150Y0142025D02*
X0201535Y0142025D01*
X0201014Y0142623D02*
X0217150Y0142623D01*
X0217150Y0143222D02*
X0200494Y0143222D01*
X0199973Y0143820D02*
X0217150Y0143820D01*
X0217150Y0144419D02*
X0199453Y0144419D01*
X0198932Y0145017D02*
X0217150Y0145017D01*
X0217150Y0145616D02*
X0198412Y0145616D01*
X0197892Y0146214D02*
X0217150Y0146214D01*
X0217150Y0146813D02*
X0197371Y0146813D01*
X0196851Y0147411D02*
X0217150Y0147411D01*
X0217150Y0148010D02*
X0196330Y0148010D01*
X0195810Y0148608D02*
X0217150Y0148608D01*
X0217150Y0149207D02*
X0195289Y0149207D01*
X0194769Y0149805D02*
X0217150Y0149805D01*
X0217150Y0150404D02*
X0194275Y0150404D01*
X0193728Y0151002D02*
X0217150Y0151002D01*
X0217150Y0151601D02*
X0209174Y0151601D01*
X0210163Y0152010D02*
X0211913Y0153760D01*
X0212860Y0156047D01*
X0212860Y0158522D01*
X0211913Y0160808D01*
X0210163Y0162558D01*
X0207876Y0163505D01*
X0205401Y0163505D01*
X0203115Y0162558D01*
X0201364Y0160808D01*
X0200417Y0158522D01*
X0200417Y0156047D01*
X0201364Y0153760D01*
X0203115Y0152010D01*
X0205401Y0151063D01*
X0207876Y0151063D01*
X0210163Y0152010D01*
X0210352Y0152199D02*
X0217150Y0152199D01*
X0217150Y0152798D02*
X0210950Y0152798D01*
X0211549Y0153396D02*
X0217150Y0153396D01*
X0217150Y0153995D02*
X0212010Y0153995D01*
X0212258Y0154593D02*
X0217150Y0154593D01*
X0217150Y0155192D02*
X0212506Y0155192D01*
X0212754Y0155790D02*
X0217150Y0155790D01*
X0217150Y0156389D02*
X0212860Y0156389D01*
X0212860Y0156987D02*
X0217150Y0156987D01*
X0217150Y0157586D02*
X0212860Y0157586D01*
X0212860Y0158184D02*
X0217150Y0158184D01*
X0217150Y0158783D02*
X0212752Y0158783D01*
X0212504Y0159381D02*
X0217150Y0159381D01*
X0217150Y0159980D02*
X0212256Y0159980D01*
X0212008Y0160578D02*
X0217150Y0160578D01*
X0217150Y0161177D02*
X0211544Y0161177D01*
X0210946Y0161775D02*
X0217150Y0161775D01*
X0217150Y0162374D02*
X0210347Y0162374D01*
X0209163Y0162972D02*
X0217150Y0162972D01*
X0217150Y0163571D02*
X0022899Y0163571D01*
X0022899Y0162972D02*
X0030617Y0162972D01*
X0029617Y0162558D02*
X0027867Y0160808D01*
X0026920Y0158522D01*
X0026920Y0156047D01*
X0027867Y0153760D01*
X0029617Y0152010D01*
X0031903Y0151063D01*
X0034378Y0151063D01*
X0036665Y0152010D01*
X0038415Y0153760D01*
X0039362Y0156047D01*
X0039362Y0158522D01*
X0038415Y0160808D01*
X0036665Y0162558D01*
X0034378Y0163505D01*
X0031903Y0163505D01*
X0029617Y0162558D01*
X0029432Y0162374D02*
X0022899Y0162374D01*
X0022899Y0161775D02*
X0028834Y0161775D01*
X0028235Y0161177D02*
X0022899Y0161177D01*
X0022899Y0160578D02*
X0027772Y0160578D01*
X0027524Y0159980D02*
X0022899Y0159980D01*
X0022899Y0159381D02*
X0027276Y0159381D01*
X0027028Y0158783D02*
X0022899Y0158783D01*
X0022899Y0158184D02*
X0026920Y0158184D01*
X0026920Y0157586D02*
X0022899Y0157586D01*
X0022899Y0156987D02*
X0026920Y0156987D01*
X0026920Y0156389D02*
X0022899Y0156389D01*
X0022899Y0155790D02*
X0027026Y0155790D01*
X0027274Y0155192D02*
X0022899Y0155192D01*
X0022899Y0154593D02*
X0027522Y0154593D01*
X0027770Y0153995D02*
X0022899Y0153995D01*
X0022899Y0153396D02*
X0028231Y0153396D01*
X0028829Y0152798D02*
X0022899Y0152798D01*
X0022899Y0152199D02*
X0029428Y0152199D01*
X0030605Y0151601D02*
X0022899Y0151601D01*
X0022899Y0151002D02*
X0048401Y0151002D01*
X0047803Y0150404D02*
X0022899Y0150404D01*
X0022899Y0149805D02*
X0047204Y0149805D01*
X0046606Y0149207D02*
X0022899Y0149207D01*
X0022899Y0148608D02*
X0046007Y0148608D01*
X0045409Y0148010D02*
X0022899Y0148010D01*
X0022899Y0147411D02*
X0044810Y0147411D01*
X0044211Y0146813D02*
X0022899Y0146813D01*
X0022899Y0146214D02*
X0043613Y0146214D01*
X0043014Y0145616D02*
X0022899Y0145616D01*
X0022899Y0145017D02*
X0042416Y0145017D01*
X0041817Y0144419D02*
X0022899Y0144419D01*
X0022899Y0143820D02*
X0041219Y0143820D01*
X0040620Y0143222D02*
X0022899Y0143222D01*
X0035677Y0151601D02*
X0049484Y0151601D01*
X0039256Y0155790D02*
X0200524Y0155790D01*
X0200417Y0156389D02*
X0039362Y0156389D01*
X0039362Y0156987D02*
X0200417Y0156987D01*
X0200417Y0157586D02*
X0039362Y0157586D01*
X0039362Y0158184D02*
X0200417Y0158184D01*
X0200526Y0158783D02*
X0039254Y0158783D01*
X0039006Y0159381D02*
X0200773Y0159381D01*
X0201021Y0159980D02*
X0038758Y0159980D01*
X0038510Y0160578D02*
X0201269Y0160578D01*
X0201733Y0161177D02*
X0038046Y0161177D01*
X0037448Y0161775D02*
X0202332Y0161775D01*
X0202930Y0162374D02*
X0036849Y0162374D01*
X0035665Y0162972D02*
X0204114Y0162972D01*
X0200771Y0155192D02*
X0039008Y0155192D01*
X0038760Y0154593D02*
X0201019Y0154593D01*
X0201267Y0153995D02*
X0038512Y0153995D01*
X0038051Y0153396D02*
X0201728Y0153396D01*
X0202327Y0152798D02*
X0037453Y0152798D01*
X0036854Y0152199D02*
X0202925Y0152199D01*
X0204103Y0151601D02*
X0192682Y0151601D01*
X0204700Y0131251D02*
X0217150Y0131251D01*
X0217150Y0130653D02*
X0204700Y0130653D01*
X0204700Y0130054D02*
X0217150Y0130054D01*
X0217150Y0129456D02*
X0204700Y0129456D01*
X0204700Y0128857D02*
X0217150Y0128857D01*
X0217150Y0128259D02*
X0204700Y0128259D01*
X0204700Y0127660D02*
X0217150Y0127660D01*
X0217150Y0127062D02*
X0204700Y0127062D01*
X0204700Y0126463D02*
X0217150Y0126463D01*
X0217150Y0125865D02*
X0204700Y0125865D01*
X0204700Y0125266D02*
X0217150Y0125266D01*
X0217150Y0124668D02*
X0204700Y0124668D01*
X0204700Y0124069D02*
X0217150Y0124069D01*
X0217150Y0123471D02*
X0204700Y0123471D01*
X0204700Y0122872D02*
X0217150Y0122872D01*
X0217150Y0122274D02*
X0204700Y0122274D01*
X0204700Y0121675D02*
X0217150Y0121675D01*
X0217150Y0121077D02*
X0204700Y0121077D01*
X0204700Y0120478D02*
X0217150Y0120478D01*
X0217150Y0119880D02*
X0204700Y0119880D01*
X0204700Y0119281D02*
X0217150Y0119281D01*
X0217150Y0118683D02*
X0204700Y0118683D01*
X0204700Y0118084D02*
X0217150Y0118084D01*
X0217150Y0117486D02*
X0204700Y0117486D01*
X0204700Y0116887D02*
X0217150Y0116887D01*
X0217150Y0116289D02*
X0204700Y0116289D01*
X0204700Y0115690D02*
X0217150Y0115690D01*
X0217150Y0115092D02*
X0204700Y0115092D01*
X0204700Y0114493D02*
X0217150Y0114493D01*
X0217150Y0113895D02*
X0204700Y0113895D01*
X0204700Y0113296D02*
X0217150Y0113296D01*
X0217150Y0112698D02*
X0204700Y0112698D01*
X0204700Y0112099D02*
X0217150Y0112099D01*
X0217150Y0111501D02*
X0204700Y0111501D01*
X0204700Y0110902D02*
X0217150Y0110902D01*
X0217150Y0110303D02*
X0204700Y0110303D01*
X0204700Y0109705D02*
X0217150Y0109705D01*
X0217150Y0109106D02*
X0204700Y0109106D01*
X0204700Y0108508D02*
X0217150Y0108508D01*
X0217150Y0107909D02*
X0204700Y0107909D01*
X0204700Y0107311D02*
X0217150Y0107311D01*
X0217150Y0106712D02*
X0204700Y0106712D01*
X0204700Y0106114D02*
X0217150Y0106114D01*
X0217150Y0105515D02*
X0204700Y0105515D01*
X0204700Y0104917D02*
X0217150Y0104917D01*
X0217150Y0104318D02*
X0204700Y0104318D01*
X0204700Y0103720D02*
X0217150Y0103720D01*
X0217150Y0103121D02*
X0204700Y0103121D01*
X0204700Y0102523D02*
X0217150Y0102523D01*
X0217150Y0101924D02*
X0204700Y0101924D01*
X0204700Y0101326D02*
X0217150Y0101326D01*
X0217150Y0100727D02*
X0204700Y0100727D01*
X0204700Y0100129D02*
X0217150Y0100129D01*
X0217150Y0099530D02*
X0204700Y0099530D01*
X0204700Y0098932D02*
X0217150Y0098932D01*
X0217150Y0098333D02*
X0204700Y0098333D01*
X0204700Y0097735D02*
X0217150Y0097735D01*
X0217150Y0097136D02*
X0204700Y0097136D01*
X0204700Y0096538D02*
X0217150Y0096538D01*
X0217150Y0095939D02*
X0204700Y0095939D01*
X0204700Y0095341D02*
X0217150Y0095341D01*
X0217150Y0094742D02*
X0204700Y0094742D01*
X0204700Y0094144D02*
X0217150Y0094144D01*
X0217150Y0093545D02*
X0204700Y0093545D01*
X0204700Y0092947D02*
X0217150Y0092947D01*
X0217150Y0092348D02*
X0204700Y0092348D01*
X0204504Y0091750D02*
X0217150Y0091750D01*
X0217150Y0091151D02*
X0204252Y0091151D01*
X0203654Y0090553D02*
X0217150Y0090553D01*
X0217150Y0089954D02*
X0203055Y0089954D01*
X0202457Y0089356D02*
X0217150Y0089356D01*
X0217150Y0088757D02*
X0201858Y0088757D01*
X0201260Y0088159D02*
X0217150Y0088159D01*
X0217150Y0087560D02*
X0200661Y0087560D01*
X0200063Y0086962D02*
X0217150Y0086962D01*
X0217150Y0086363D02*
X0199464Y0086363D01*
X0198866Y0085765D02*
X0217150Y0085765D01*
X0217150Y0085166D02*
X0198267Y0085166D01*
X0197669Y0084568D02*
X0217150Y0084568D01*
X0217150Y0083969D02*
X0197070Y0083969D01*
X0196816Y0083370D02*
X0197784Y0083370D01*
X0197880Y0083466D02*
X0197638Y0083224D01*
X0197467Y0082928D01*
X0197378Y0082597D01*
X0197378Y0080600D01*
X0200445Y0080600D01*
X0200445Y0083726D01*
X0198507Y0083726D01*
X0198176Y0083637D01*
X0197880Y0083466D01*
X0197425Y0082772D02*
X0197222Y0082772D01*
X0197222Y0082173D02*
X0197378Y0082173D01*
X0197378Y0081575D02*
X0197222Y0081575D01*
X0197222Y0080976D02*
X0197378Y0080976D01*
X0197222Y0080378D02*
X0200445Y0080378D01*
X0200445Y0080600D02*
X0200445Y0080000D01*
X0201045Y0080000D01*
X0201045Y0080600D01*
X0204112Y0080600D01*
X0204112Y0082597D01*
X0204023Y0082928D01*
X0203852Y0083224D01*
X0203610Y0083466D01*
X0203314Y0083637D01*
X0202983Y0083726D01*
X0201045Y0083726D01*
X0201045Y0080600D01*
X0200445Y0080600D01*
X0200445Y0080976D02*
X0201045Y0080976D01*
X0201045Y0080378D02*
X0217150Y0080378D01*
X0217150Y0080976D02*
X0204112Y0080976D01*
X0204112Y0081575D02*
X0217150Y0081575D01*
X0217150Y0082173D02*
X0204112Y0082173D01*
X0204065Y0082772D02*
X0217150Y0082772D01*
X0217150Y0083370D02*
X0203706Y0083370D01*
X0201045Y0083370D02*
X0200445Y0083370D01*
X0200445Y0082772D02*
X0201045Y0082772D01*
X0201045Y0082173D02*
X0200445Y0082173D01*
X0200445Y0081575D02*
X0201045Y0081575D01*
X0201045Y0080000D02*
X0204112Y0080000D01*
X0204112Y0078003D01*
X0204023Y0077672D01*
X0203852Y0077376D01*
X0203610Y0077134D01*
X0203314Y0076963D01*
X0202983Y0076874D01*
X0201045Y0076874D01*
X0201045Y0080000D01*
X0201045Y0079779D02*
X0200445Y0079779D01*
X0200445Y0080000D02*
X0200445Y0076874D01*
X0198507Y0076874D01*
X0198176Y0076963D01*
X0197880Y0077134D01*
X0197638Y0077376D01*
X0197467Y0077672D01*
X0197378Y0078003D01*
X0197378Y0080000D01*
X0200445Y0080000D01*
X0200445Y0079181D02*
X0201045Y0079181D01*
X0201045Y0078582D02*
X0200445Y0078582D01*
X0200445Y0077984D02*
X0201045Y0077984D01*
X0201045Y0077385D02*
X0200445Y0077385D01*
X0197632Y0077385D02*
X0196972Y0077385D01*
X0197222Y0077984D02*
X0197383Y0077984D01*
X0197378Y0078582D02*
X0197222Y0078582D01*
X0197222Y0079181D02*
X0197378Y0079181D01*
X0197378Y0079779D02*
X0197222Y0079779D01*
X0195655Y0076787D02*
X0217150Y0076787D01*
X0217150Y0077385D02*
X0203858Y0077385D01*
X0204107Y0077984D02*
X0217150Y0077984D01*
X0217150Y0078582D02*
X0204112Y0078582D01*
X0204112Y0079181D02*
X0217150Y0079181D01*
X0217150Y0079779D02*
X0204112Y0079779D01*
X0195655Y0076188D02*
X0217150Y0076188D01*
X0217150Y0075590D02*
X0195655Y0075590D01*
X0195655Y0074991D02*
X0217150Y0074991D01*
X0217150Y0074393D02*
X0195655Y0074393D01*
X0195655Y0073794D02*
X0217150Y0073794D01*
X0217150Y0073196D02*
X0195655Y0073196D01*
X0195655Y0072597D02*
X0217150Y0072597D01*
X0217150Y0071999D02*
X0195655Y0071999D01*
X0195599Y0071400D02*
X0217150Y0071400D01*
X0217150Y0070802D02*
X0195001Y0070802D01*
X0194765Y0070203D02*
X0217150Y0070203D01*
X0217150Y0069605D02*
X0194765Y0069605D01*
X0194765Y0069006D02*
X0217150Y0069006D01*
X0217150Y0068408D02*
X0194765Y0068408D01*
X0194765Y0067809D02*
X0217150Y0067809D01*
X0217150Y0067211D02*
X0194765Y0067211D01*
X0194238Y0066612D02*
X0217150Y0066612D01*
X0217150Y0066014D02*
X0194212Y0066014D01*
X0194765Y0065415D02*
X0217150Y0065415D01*
X0217150Y0064817D02*
X0194765Y0064817D01*
X0194765Y0064218D02*
X0217150Y0064218D01*
X0217150Y0063620D02*
X0194765Y0063620D01*
X0194765Y0063021D02*
X0217150Y0063021D01*
X0217150Y0062423D02*
X0194765Y0062423D01*
X0194765Y0061824D02*
X0217150Y0061824D01*
X0217150Y0061226D02*
X0194765Y0061226D01*
X0194765Y0060627D02*
X0217150Y0060627D01*
X0217150Y0060029D02*
X0194347Y0060029D01*
X0194291Y0057832D02*
X0194255Y0057832D01*
X0193592Y0057727D01*
X0192953Y0057520D01*
X0192354Y0057215D01*
X0191811Y0056820D01*
X0191336Y0056345D01*
X0190941Y0055801D01*
X0190636Y0055202D01*
X0190428Y0054563D01*
X0190323Y0053900D01*
X0190323Y0053864D01*
X0194291Y0053864D01*
X0194291Y0053264D01*
X0194891Y0053264D01*
X0194891Y0049295D01*
X0194927Y0049295D01*
X0195591Y0049400D01*
X0196230Y0049608D01*
X0196829Y0049913D01*
X0197372Y0050308D01*
X0197847Y0050783D01*
X0198242Y0051327D01*
X0198547Y0051925D01*
X0198755Y0052564D01*
X0198860Y0053228D01*
X0198860Y0053264D01*
X0194891Y0053264D01*
X0194891Y0053864D01*
X0194291Y0053864D01*
X0194291Y0057832D01*
X0194291Y0057634D02*
X0194891Y0057634D01*
X0194891Y0057832D02*
X0194891Y0053864D01*
X0198860Y0053864D01*
X0198860Y0053900D01*
X0198755Y0054563D01*
X0198547Y0055202D01*
X0198242Y0055801D01*
X0197847Y0056345D01*
X0197372Y0056820D01*
X0196829Y0057215D01*
X0196230Y0057520D01*
X0195591Y0057727D01*
X0194927Y0057832D01*
X0194891Y0057832D01*
X0194891Y0057036D02*
X0194291Y0057036D01*
X0194291Y0056437D02*
X0194891Y0056437D01*
X0194891Y0055839D02*
X0194291Y0055839D01*
X0194291Y0055240D02*
X0194891Y0055240D01*
X0194891Y0054642D02*
X0194291Y0054642D01*
X0194291Y0054043D02*
X0194891Y0054043D01*
X0194891Y0053445D02*
X0200346Y0053445D01*
X0200346Y0054043D02*
X0198837Y0054043D01*
X0198729Y0054642D02*
X0200346Y0054642D01*
X0200346Y0055240D02*
X0198528Y0055240D01*
X0198214Y0055839D02*
X0200871Y0055839D01*
X0201108Y0056076D02*
X0200346Y0055315D01*
X0200346Y0041970D01*
X0201108Y0041209D01*
X0214453Y0041209D01*
X0215214Y0041970D01*
X0215214Y0055315D01*
X0214453Y0056076D01*
X0201108Y0056076D01*
X0197754Y0056437D02*
X0217150Y0056437D01*
X0217150Y0055839D02*
X0214690Y0055839D01*
X0215214Y0055240D02*
X0217150Y0055240D01*
X0217150Y0054642D02*
X0215214Y0054642D01*
X0215214Y0054043D02*
X0217150Y0054043D01*
X0217150Y0053445D02*
X0215214Y0053445D01*
X0215214Y0052846D02*
X0217150Y0052846D01*
X0217150Y0052248D02*
X0215214Y0052248D01*
X0215214Y0051649D02*
X0217150Y0051649D01*
X0217150Y0051051D02*
X0215214Y0051051D01*
X0215214Y0050452D02*
X0217150Y0050452D01*
X0217150Y0049854D02*
X0215214Y0049854D01*
X0215214Y0049255D02*
X0217150Y0049255D01*
X0217150Y0048657D02*
X0215214Y0048657D01*
X0215214Y0048058D02*
X0217150Y0048058D01*
X0217150Y0047460D02*
X0215214Y0047460D01*
X0215214Y0046861D02*
X0217150Y0046861D01*
X0217150Y0046263D02*
X0215214Y0046263D01*
X0215214Y0045664D02*
X0217150Y0045664D01*
X0217150Y0045066D02*
X0215214Y0045066D01*
X0215214Y0044467D02*
X0217150Y0044467D01*
X0217150Y0043869D02*
X0215214Y0043869D01*
X0215214Y0043270D02*
X0217150Y0043270D01*
X0217150Y0042672D02*
X0215214Y0042672D01*
X0215214Y0042073D02*
X0217150Y0042073D01*
X0217150Y0041475D02*
X0214719Y0041475D01*
X0217150Y0040876D02*
X0197783Y0040876D01*
X0198281Y0041475D02*
X0200842Y0041475D01*
X0200346Y0042073D02*
X0198529Y0042073D01*
X0198777Y0042672D02*
X0200346Y0042672D01*
X0200346Y0043270D02*
X0198860Y0043270D01*
X0198860Y0043869D02*
X0200346Y0043869D01*
X0200346Y0044467D02*
X0198860Y0044467D01*
X0198655Y0045066D02*
X0200346Y0045066D01*
X0200346Y0045664D02*
X0198407Y0045664D01*
X0198086Y0046263D02*
X0200346Y0046263D01*
X0200346Y0046861D02*
X0197488Y0046861D01*
X0196720Y0047460D02*
X0200346Y0047460D01*
X0200346Y0048058D02*
X0194587Y0048058D01*
X0193989Y0048657D02*
X0200346Y0048657D01*
X0200346Y0049255D02*
X0193390Y0049255D01*
X0194291Y0049854D02*
X0194891Y0049854D01*
X0194891Y0050452D02*
X0194291Y0050452D01*
X0194291Y0051051D02*
X0194891Y0051051D01*
X0194891Y0051649D02*
X0194291Y0051649D01*
X0194291Y0052248D02*
X0194891Y0052248D01*
X0194891Y0052846D02*
X0194291Y0052846D01*
X0194291Y0053445D02*
X0189201Y0053445D01*
X0189799Y0052846D02*
X0190383Y0052846D01*
X0190398Y0052248D02*
X0190531Y0052248D01*
X0190346Y0054043D02*
X0188602Y0054043D01*
X0188004Y0054642D02*
X0190453Y0054642D01*
X0190655Y0055240D02*
X0187405Y0055240D01*
X0186807Y0055839D02*
X0190968Y0055839D01*
X0191428Y0056437D02*
X0186208Y0056437D01*
X0185610Y0057036D02*
X0192108Y0057036D01*
X0193307Y0057634D02*
X0185011Y0057634D01*
X0184413Y0058233D02*
X0217150Y0058233D01*
X0217150Y0057634D02*
X0195876Y0057634D01*
X0197074Y0057036D02*
X0217150Y0057036D01*
X0217150Y0058832D02*
X0183814Y0058832D01*
X0183216Y0059430D02*
X0217150Y0059430D01*
X0200346Y0052846D02*
X0198799Y0052846D01*
X0198652Y0052248D02*
X0200346Y0052248D01*
X0200346Y0051649D02*
X0198407Y0051649D01*
X0198042Y0051051D02*
X0200346Y0051051D01*
X0200346Y0050452D02*
X0197516Y0050452D01*
X0196712Y0049854D02*
X0200346Y0049854D01*
X0191096Y0046263D02*
X0188178Y0046263D01*
X0188005Y0046502D02*
X0187530Y0046977D01*
X0186986Y0047372D01*
X0186387Y0047677D01*
X0185748Y0047885D01*
X0185085Y0047990D01*
X0185049Y0047990D01*
X0185049Y0044021D01*
X0189017Y0044021D01*
X0189017Y0044057D01*
X0188912Y0044721D01*
X0188705Y0045360D01*
X0188400Y0045958D01*
X0188005Y0046502D01*
X0187645Y0046861D02*
X0190693Y0046861D01*
X0190095Y0047460D02*
X0186814Y0047460D01*
X0185049Y0047460D02*
X0184449Y0047460D01*
X0184449Y0047990D02*
X0184413Y0047990D01*
X0183749Y0047885D01*
X0183110Y0047677D01*
X0182512Y0047372D01*
X0181968Y0046977D01*
X0181493Y0046502D01*
X0181098Y0045958D01*
X0180793Y0045360D01*
X0180585Y0044721D01*
X0180480Y0044057D01*
X0180480Y0044021D01*
X0184449Y0044021D01*
X0184449Y0043421D01*
X0185049Y0043421D01*
X0185049Y0044021D01*
X0184449Y0044021D01*
X0184449Y0047990D01*
X0184449Y0046861D02*
X0185049Y0046861D01*
X0185049Y0046263D02*
X0184449Y0046263D01*
X0184449Y0045664D02*
X0185049Y0045664D01*
X0185049Y0045066D02*
X0184449Y0045066D01*
X0184449Y0044467D02*
X0185049Y0044467D01*
X0185049Y0043869D02*
X0190323Y0043869D01*
X0190323Y0044467D02*
X0188952Y0044467D01*
X0188800Y0045066D02*
X0190528Y0045066D01*
X0190776Y0045664D02*
X0188549Y0045664D01*
X0189017Y0043421D02*
X0185049Y0043421D01*
X0185049Y0039453D01*
X0185085Y0039453D01*
X0185748Y0039558D01*
X0186387Y0039765D01*
X0186986Y0040071D01*
X0187530Y0040465D01*
X0188005Y0040941D01*
X0188400Y0041484D01*
X0188705Y0042083D01*
X0188912Y0042722D01*
X0189017Y0043385D01*
X0189017Y0043421D01*
X0188999Y0043270D02*
X0190323Y0043270D01*
X0190406Y0042672D02*
X0188896Y0042672D01*
X0188700Y0042073D02*
X0190654Y0042073D01*
X0190902Y0041475D02*
X0188393Y0041475D01*
X0187940Y0040876D02*
X0191400Y0040876D01*
X0191998Y0040278D02*
X0187271Y0040278D01*
X0186122Y0039679D02*
X0193196Y0039679D01*
X0195987Y0039679D02*
X0217150Y0039679D01*
X0217150Y0039081D02*
X0144600Y0039081D01*
X0144600Y0039679D02*
X0173511Y0039679D01*
X0172313Y0040278D02*
X0144600Y0040278D01*
X0144600Y0040876D02*
X0171715Y0040876D01*
X0171217Y0041475D02*
X0168656Y0041475D01*
X0168390Y0041209D02*
X0169151Y0041970D01*
X0169151Y0055315D01*
X0168390Y0056076D01*
X0155045Y0056076D01*
X0154283Y0055315D01*
X0154283Y0041970D01*
X0155045Y0041209D01*
X0168390Y0041209D01*
X0169151Y0042073D02*
X0170969Y0042073D01*
X0170721Y0042672D02*
X0169151Y0042672D01*
X0169151Y0043270D02*
X0170638Y0043270D01*
X0170638Y0043869D02*
X0169151Y0043869D01*
X0169151Y0044467D02*
X0170638Y0044467D01*
X0170843Y0045066D02*
X0169151Y0045066D01*
X0169151Y0045664D02*
X0171091Y0045664D01*
X0171411Y0046263D02*
X0169151Y0046263D01*
X0169151Y0046861D02*
X0172010Y0046861D01*
X0172778Y0047460D02*
X0169151Y0047460D01*
X0169151Y0048058D02*
X0176698Y0048058D01*
X0177296Y0048657D02*
X0169151Y0048657D01*
X0169151Y0049255D02*
X0177895Y0049255D01*
X0178000Y0049854D02*
X0177104Y0049854D01*
X0177831Y0050452D02*
X0178000Y0050452D01*
X0181600Y0050452D02*
X0187102Y0050452D01*
X0187701Y0049854D02*
X0181600Y0049854D01*
X0181600Y0049255D02*
X0188299Y0049255D01*
X0188898Y0048657D02*
X0181600Y0048657D01*
X0181600Y0048058D02*
X0189496Y0048058D01*
X0186504Y0051051D02*
X0181600Y0051051D01*
X0181600Y0051649D02*
X0185905Y0051649D01*
X0185307Y0052248D02*
X0181600Y0052248D01*
X0181600Y0052846D02*
X0184708Y0052846D01*
X0184109Y0053445D02*
X0181600Y0053445D01*
X0181600Y0054043D02*
X0183511Y0054043D01*
X0182912Y0054642D02*
X0181600Y0054642D01*
X0181600Y0055240D02*
X0182314Y0055240D01*
X0181715Y0055839D02*
X0181600Y0055839D01*
X0172709Y0049854D02*
X0169151Y0049854D01*
X0169151Y0050452D02*
X0171981Y0050452D01*
X0171383Y0051051D02*
X0169151Y0051051D01*
X0169151Y0051649D02*
X0171079Y0051649D01*
X0170831Y0052248D02*
X0169151Y0052248D01*
X0169151Y0052846D02*
X0170638Y0052846D01*
X0170638Y0053445D02*
X0169151Y0053445D01*
X0169151Y0054043D02*
X0170638Y0054043D01*
X0170733Y0054642D02*
X0169151Y0054642D01*
X0169151Y0055240D02*
X0170981Y0055240D01*
X0170715Y0055839D02*
X0168627Y0055839D01*
X0170117Y0056437D02*
X0142103Y0056437D01*
X0142758Y0055839D02*
X0154808Y0055839D01*
X0154283Y0055240D02*
X0143248Y0055240D01*
X0143738Y0054642D02*
X0154283Y0054642D01*
X0154283Y0054043D02*
X0144079Y0054043D01*
X0144259Y0053445D02*
X0154283Y0053445D01*
X0154283Y0052846D02*
X0144440Y0052846D01*
X0144621Y0052248D02*
X0154283Y0052248D01*
X0154283Y0051649D02*
X0144691Y0051649D01*
X0144632Y0051051D02*
X0154283Y0051051D01*
X0154283Y0050452D02*
X0144600Y0050452D01*
X0144600Y0049854D02*
X0154283Y0049854D01*
X0154283Y0049255D02*
X0144600Y0049255D01*
X0144600Y0048657D02*
X0154283Y0048657D01*
X0154283Y0048058D02*
X0144600Y0048058D01*
X0144600Y0047460D02*
X0154283Y0047460D01*
X0154283Y0046861D02*
X0144600Y0046861D01*
X0144600Y0046263D02*
X0154283Y0046263D01*
X0154283Y0045664D02*
X0144600Y0045664D01*
X0144600Y0045066D02*
X0154283Y0045066D01*
X0154283Y0044467D02*
X0144600Y0044467D01*
X0144600Y0043869D02*
X0154283Y0043869D01*
X0154283Y0043270D02*
X0144600Y0043270D01*
X0144600Y0042672D02*
X0154283Y0042672D01*
X0154283Y0042073D02*
X0144600Y0042073D01*
X0144600Y0041475D02*
X0154779Y0041475D01*
X0144600Y0038482D02*
X0217150Y0038482D01*
X0217150Y0037884D02*
X0144600Y0037884D01*
X0144600Y0037285D02*
X0217150Y0037285D01*
X0217150Y0036687D02*
X0144600Y0036687D01*
X0144600Y0036088D02*
X0217150Y0036088D01*
X0217150Y0035490D02*
X0144631Y0035490D01*
X0144779Y0034891D02*
X0217150Y0034891D01*
X0217150Y0034293D02*
X0145027Y0034293D01*
X0145467Y0033694D02*
X0217150Y0033694D01*
X0217150Y0033096D02*
X0146128Y0033096D01*
X0140987Y0057036D02*
X0153518Y0057036D01*
X0152920Y0057634D02*
X0138520Y0057634D01*
X0138378Y0057634D02*
X0067713Y0057634D01*
X0067713Y0057036D02*
X0088685Y0057036D01*
X0087528Y0056437D02*
X0067754Y0056437D01*
X0067713Y0056479D02*
X0067713Y0060065D01*
X0070036Y0062388D01*
X0070036Y0063465D01*
X0066490Y0067010D01*
X0065413Y0067010D01*
X0061590Y0063187D01*
X0061590Y0062110D01*
X0063913Y0059787D01*
X0063913Y0057832D01*
X0063742Y0057832D01*
X0062173Y0057182D01*
X0060973Y0055982D01*
X0060323Y0054413D01*
X0060323Y0052715D01*
X0060973Y0051146D01*
X0062173Y0049945D01*
X0063742Y0049295D01*
X0065440Y0049295D01*
X0067009Y0049945D01*
X0068210Y0051146D01*
X0068860Y0052715D01*
X0068860Y0054413D01*
X0068210Y0055982D01*
X0067713Y0056479D01*
X0068269Y0055839D02*
X0070871Y0055839D01*
X0070346Y0055240D02*
X0068517Y0055240D01*
X0068765Y0054642D02*
X0070346Y0054642D01*
X0070346Y0054043D02*
X0068860Y0054043D01*
X0068860Y0053445D02*
X0070346Y0053445D01*
X0070346Y0052846D02*
X0068860Y0052846D01*
X0068666Y0052248D02*
X0070346Y0052248D01*
X0070346Y0051649D02*
X0068419Y0051649D01*
X0068115Y0051051D02*
X0070346Y0051051D01*
X0070346Y0050452D02*
X0067516Y0050452D01*
X0066789Y0049854D02*
X0070346Y0049854D01*
X0070346Y0049255D02*
X0060390Y0049255D01*
X0060100Y0049854D02*
X0062394Y0049854D01*
X0061666Y0050452D02*
X0060100Y0050452D01*
X0060100Y0051051D02*
X0061068Y0051051D01*
X0060764Y0051649D02*
X0060100Y0051649D01*
X0060100Y0052248D02*
X0060516Y0052248D01*
X0060323Y0052846D02*
X0060100Y0052846D01*
X0060100Y0053445D02*
X0060323Y0053445D01*
X0060323Y0054043D02*
X0060100Y0054043D01*
X0060100Y0054642D02*
X0060418Y0054642D01*
X0060666Y0055240D02*
X0060100Y0055240D01*
X0060100Y0055839D02*
X0060914Y0055839D01*
X0061428Y0056437D02*
X0060100Y0056437D01*
X0059610Y0057036D02*
X0062027Y0057036D01*
X0063265Y0057634D02*
X0059011Y0057634D01*
X0058413Y0058233D02*
X0063913Y0058233D01*
X0063913Y0058832D02*
X0057814Y0058832D01*
X0057216Y0059430D02*
X0063913Y0059430D01*
X0063671Y0060029D02*
X0056617Y0060029D01*
X0056019Y0060627D02*
X0063072Y0060627D01*
X0062474Y0061226D02*
X0055420Y0061226D01*
X0054821Y0061824D02*
X0061875Y0061824D01*
X0061590Y0062423D02*
X0054223Y0062423D01*
X0053624Y0063021D02*
X0061590Y0063021D01*
X0061479Y0063297D02*
X0065303Y0067121D01*
X0065303Y0068198D01*
X0061758Y0071743D01*
X0060681Y0071743D01*
X0060112Y0071175D01*
X0057700Y0073587D01*
X0057700Y0076256D01*
X0058164Y0076720D01*
X0058589Y0077745D01*
X0058589Y0078855D01*
X0058164Y0079880D01*
X0057600Y0080444D01*
X0057600Y0080892D01*
X0057415Y0081077D01*
X0057415Y0084504D01*
X0056653Y0085265D01*
X0051639Y0085265D01*
X0050878Y0084504D01*
X0050878Y0079096D01*
X0051639Y0078335D01*
X0053011Y0078335D01*
X0053011Y0077745D01*
X0053436Y0076720D01*
X0053900Y0076256D01*
X0053900Y0072013D01*
X0055013Y0070900D01*
X0057425Y0068488D01*
X0056857Y0067919D01*
X0056857Y0066842D01*
X0060402Y0063297D01*
X0061479Y0063297D01*
X0061802Y0063620D02*
X0062023Y0063620D01*
X0062401Y0064218D02*
X0062621Y0064218D01*
X0062999Y0064817D02*
X0063220Y0064817D01*
X0063598Y0065415D02*
X0063818Y0065415D01*
X0064196Y0066014D02*
X0064417Y0066014D01*
X0064795Y0066612D02*
X0065015Y0066612D01*
X0065303Y0067211D02*
X0068267Y0067211D01*
X0067668Y0067809D02*
X0065303Y0067809D01*
X0065093Y0068408D02*
X0067334Y0068408D01*
X0067297Y0068548D02*
X0067385Y0068218D01*
X0067557Y0067921D01*
X0068997Y0066481D01*
X0071096Y0068580D01*
X0071520Y0068156D01*
X0071944Y0068580D01*
X0074182Y0066342D01*
X0075483Y0067643D01*
X0075654Y0067939D01*
X0075743Y0068270D01*
X0075743Y0068612D01*
X0075654Y0068943D01*
X0075483Y0069239D01*
X0074043Y0070679D01*
X0071944Y0068580D01*
X0071520Y0069004D01*
X0073619Y0071103D01*
X0072179Y0072543D01*
X0071882Y0072715D01*
X0071552Y0072803D01*
X0071209Y0072803D01*
X0071010Y0072750D01*
X0071010Y0073712D01*
X0067187Y0077536D01*
X0066110Y0077536D01*
X0066059Y0077485D01*
X0065880Y0077664D01*
X0064855Y0078089D01*
X0063745Y0078089D01*
X0062720Y0077664D01*
X0061936Y0076880D01*
X0061511Y0075855D01*
X0061511Y0074745D01*
X0061936Y0073720D01*
X0062564Y0073092D01*
X0062564Y0072913D01*
X0066388Y0069090D01*
X0067350Y0069090D01*
X0067297Y0068890D01*
X0067297Y0068548D01*
X0067328Y0069006D02*
X0064494Y0069006D01*
X0063896Y0069605D02*
X0065873Y0069605D01*
X0065274Y0070203D02*
X0063297Y0070203D01*
X0062699Y0070802D02*
X0064676Y0070802D01*
X0064077Y0071400D02*
X0062100Y0071400D01*
X0062880Y0072597D02*
X0058690Y0072597D01*
X0059288Y0071999D02*
X0063479Y0071999D01*
X0062460Y0073196D02*
X0058091Y0073196D01*
X0057700Y0073794D02*
X0061905Y0073794D01*
X0061657Y0074393D02*
X0057700Y0074393D01*
X0057700Y0074991D02*
X0061511Y0074991D01*
X0061511Y0075590D02*
X0057700Y0075590D01*
X0057700Y0076188D02*
X0061649Y0076188D01*
X0061897Y0076787D02*
X0058192Y0076787D01*
X0058440Y0077385D02*
X0062441Y0077385D01*
X0063492Y0077984D02*
X0058589Y0077984D01*
X0058589Y0078582D02*
X0065218Y0078582D01*
X0065186Y0078596D02*
X0066211Y0078171D01*
X0067211Y0078171D01*
X0067211Y0077767D01*
X0071034Y0073943D01*
X0071997Y0073943D01*
X0071943Y0073744D01*
X0071943Y0073402D01*
X0072032Y0073071D01*
X0072203Y0072775D01*
X0073643Y0071335D01*
X0075742Y0073434D01*
X0076166Y0073009D01*
X0074067Y0070910D01*
X0075507Y0069470D01*
X0075804Y0069299D01*
X0076134Y0069211D01*
X0076477Y0069211D01*
X0076807Y0069299D01*
X0077104Y0069470D01*
X0078405Y0070771D01*
X0076166Y0073009D01*
X0076591Y0073434D01*
X0076166Y0073858D01*
X0078265Y0075957D01*
X0076825Y0077397D01*
X0076529Y0077568D01*
X0076198Y0077657D01*
X0075856Y0077657D01*
X0075657Y0077603D01*
X0075657Y0078566D01*
X0071833Y0082389D01*
X0070756Y0082389D01*
X0070256Y0081889D01*
X0069385Y0082760D01*
X0068910Y0082760D01*
X0068346Y0083325D01*
X0067321Y0083749D01*
X0066211Y0083749D01*
X0065186Y0083325D01*
X0064401Y0082540D01*
X0063977Y0081515D01*
X0063977Y0080405D01*
X0064401Y0079380D01*
X0065186Y0078596D01*
X0065108Y0077984D02*
X0067211Y0077984D01*
X0067337Y0077385D02*
X0067592Y0077385D01*
X0067935Y0076787D02*
X0068191Y0076787D01*
X0068534Y0076188D02*
X0068789Y0076188D01*
X0069132Y0075590D02*
X0069388Y0075590D01*
X0069731Y0074991D02*
X0069986Y0074991D01*
X0070330Y0074393D02*
X0070585Y0074393D01*
X0070928Y0073794D02*
X0071957Y0073794D01*
X0071998Y0073196D02*
X0071010Y0073196D01*
X0072086Y0072597D02*
X0072380Y0072597D01*
X0072724Y0071999D02*
X0072979Y0071999D01*
X0073322Y0071400D02*
X0073577Y0071400D01*
X0073709Y0071400D02*
X0074557Y0071400D01*
X0074307Y0071999D02*
X0075156Y0071999D01*
X0074906Y0072597D02*
X0075754Y0072597D01*
X0075980Y0073196D02*
X0075504Y0073196D01*
X0076353Y0073196D02*
X0076828Y0073196D01*
X0076591Y0073434D02*
X0078829Y0071195D01*
X0080130Y0072496D01*
X0080301Y0072793D01*
X0080389Y0073123D01*
X0080389Y0073466D01*
X0080301Y0073796D01*
X0080130Y0074093D01*
X0078690Y0075533D01*
X0076591Y0073434D01*
X0076230Y0073794D02*
X0076951Y0073794D01*
X0076701Y0074393D02*
X0077550Y0074393D01*
X0077300Y0074991D02*
X0078148Y0074991D01*
X0077898Y0075590D02*
X0086465Y0075590D01*
X0087063Y0074991D02*
X0079231Y0074991D01*
X0079830Y0074393D02*
X0136162Y0074393D01*
X0136760Y0073794D02*
X0080301Y0073794D01*
X0080389Y0073196D02*
X0137359Y0073196D01*
X0137957Y0072597D02*
X0080188Y0072597D01*
X0079632Y0071999D02*
X0138556Y0071999D01*
X0139154Y0071400D02*
X0079034Y0071400D01*
X0078624Y0071400D02*
X0077775Y0071400D01*
X0078025Y0071999D02*
X0077177Y0071999D01*
X0077427Y0072597D02*
X0076578Y0072597D01*
X0078374Y0070802D02*
X0139753Y0070802D01*
X0140351Y0070203D02*
X0077837Y0070203D01*
X0077238Y0069605D02*
X0140950Y0069605D01*
X0141548Y0069006D02*
X0075618Y0069006D01*
X0075743Y0068408D02*
X0142147Y0068408D01*
X0142745Y0067809D02*
X0075579Y0067809D01*
X0075051Y0067211D02*
X0143344Y0067211D01*
X0143942Y0066612D02*
X0074453Y0066612D01*
X0073912Y0066612D02*
X0073064Y0066612D01*
X0073313Y0067211D02*
X0072465Y0067211D01*
X0072715Y0067809D02*
X0071867Y0067809D01*
X0071520Y0068156D02*
X0073758Y0065918D01*
X0072457Y0064617D01*
X0072161Y0064446D01*
X0071830Y0064357D01*
X0071488Y0064357D01*
X0071157Y0064446D01*
X0070861Y0064617D01*
X0069421Y0066057D01*
X0071520Y0068156D01*
X0071772Y0068408D02*
X0072116Y0068408D01*
X0072370Y0069006D02*
X0071522Y0069006D01*
X0071268Y0068408D02*
X0070923Y0068408D01*
X0071173Y0067809D02*
X0070325Y0067809D01*
X0070575Y0067211D02*
X0069726Y0067211D01*
X0069976Y0066612D02*
X0069128Y0066612D01*
X0068865Y0066612D02*
X0066889Y0066612D01*
X0067487Y0066014D02*
X0069464Y0066014D01*
X0070062Y0065415D02*
X0068086Y0065415D01*
X0068684Y0064817D02*
X0070661Y0064817D01*
X0069881Y0063620D02*
X0146935Y0063620D01*
X0146336Y0064218D02*
X0069283Y0064218D01*
X0070036Y0063021D02*
X0147533Y0063021D01*
X0148132Y0062423D02*
X0070036Y0062423D01*
X0069472Y0061824D02*
X0148730Y0061824D01*
X0149329Y0061226D02*
X0068873Y0061226D01*
X0068275Y0060627D02*
X0149927Y0060627D01*
X0150526Y0060029D02*
X0067713Y0060029D01*
X0067713Y0059430D02*
X0151124Y0059430D01*
X0151723Y0058832D02*
X0067713Y0058832D01*
X0067713Y0058233D02*
X0152321Y0058233D01*
X0145738Y0064817D02*
X0072657Y0064817D01*
X0073256Y0065415D02*
X0145139Y0065415D01*
X0144541Y0066014D02*
X0073662Y0066014D01*
X0072969Y0069605D02*
X0072120Y0069605D01*
X0072719Y0070203D02*
X0073567Y0070203D01*
X0073317Y0070802D02*
X0074176Y0070802D01*
X0074519Y0070203D02*
X0074774Y0070203D01*
X0075118Y0069605D02*
X0075373Y0069605D01*
X0078034Y0076188D02*
X0085866Y0076188D01*
X0085268Y0076787D02*
X0077435Y0076787D01*
X0076837Y0077385D02*
X0084669Y0077385D01*
X0084071Y0077984D02*
X0075657Y0077984D01*
X0075640Y0078582D02*
X0083472Y0078582D01*
X0082873Y0079181D02*
X0075041Y0079181D01*
X0074443Y0079779D02*
X0082275Y0079779D01*
X0081676Y0080378D02*
X0073844Y0080378D01*
X0073246Y0080976D02*
X0081078Y0080976D01*
X0080479Y0081575D02*
X0072647Y0081575D01*
X0072049Y0082173D02*
X0079881Y0082173D01*
X0079282Y0082772D02*
X0068898Y0082772D01*
X0068235Y0083370D02*
X0078684Y0083370D01*
X0078085Y0083969D02*
X0057415Y0083969D01*
X0057415Y0083370D02*
X0065297Y0083370D01*
X0064633Y0082772D02*
X0057415Y0082772D01*
X0057415Y0082173D02*
X0064250Y0082173D01*
X0064002Y0081575D02*
X0057415Y0081575D01*
X0057516Y0080976D02*
X0063977Y0080976D01*
X0063988Y0080378D02*
X0057666Y0080378D01*
X0058206Y0079779D02*
X0064236Y0079779D01*
X0064601Y0079181D02*
X0058454Y0079181D01*
X0053900Y0076188D02*
X0050957Y0076188D01*
X0051556Y0075590D02*
X0053900Y0075590D01*
X0053900Y0074991D02*
X0052100Y0074991D01*
X0052100Y0074393D02*
X0053900Y0074393D01*
X0053900Y0073794D02*
X0052100Y0073794D01*
X0052100Y0073196D02*
X0053900Y0073196D01*
X0053900Y0072597D02*
X0052100Y0072597D01*
X0052100Y0071999D02*
X0053914Y0071999D01*
X0054513Y0071400D02*
X0052100Y0071400D01*
X0052100Y0070802D02*
X0055111Y0070802D01*
X0055013Y0070900D02*
X0055013Y0070900D01*
X0055710Y0070203D02*
X0052100Y0070203D01*
X0052100Y0069605D02*
X0056308Y0069605D01*
X0056907Y0069006D02*
X0052100Y0069006D01*
X0052100Y0068408D02*
X0057346Y0068408D01*
X0056857Y0067809D02*
X0052100Y0067809D01*
X0052100Y0067211D02*
X0056857Y0067211D01*
X0057087Y0066612D02*
X0052100Y0066612D01*
X0052100Y0066014D02*
X0057686Y0066014D01*
X0058284Y0065415D02*
X0052100Y0065415D01*
X0052100Y0064817D02*
X0058883Y0064817D01*
X0059481Y0064218D02*
X0052427Y0064218D01*
X0053026Y0063620D02*
X0060080Y0063620D01*
X0059887Y0071400D02*
X0060338Y0071400D01*
X0053408Y0076787D02*
X0050359Y0076787D01*
X0050089Y0077385D02*
X0053160Y0077385D01*
X0053011Y0077984D02*
X0050035Y0077984D01*
X0050208Y0078582D02*
X0051392Y0078582D01*
X0050878Y0079181D02*
X0050722Y0079181D01*
X0050722Y0079779D02*
X0050878Y0079779D01*
X0050878Y0080378D02*
X0050722Y0080378D01*
X0050722Y0080976D02*
X0050878Y0080976D01*
X0050878Y0081575D02*
X0050722Y0081575D01*
X0050722Y0082173D02*
X0050878Y0082173D01*
X0050878Y0082772D02*
X0050722Y0082772D01*
X0050722Y0083370D02*
X0050878Y0083370D01*
X0050878Y0083969D02*
X0050722Y0083969D01*
X0050658Y0084568D02*
X0050942Y0084568D01*
X0051540Y0085166D02*
X0050060Y0085166D01*
X0047033Y0089100D02*
X0047033Y0090940D01*
X0046944Y0091270D01*
X0046773Y0091567D01*
X0046531Y0091809D01*
X0046235Y0091980D01*
X0045904Y0092068D01*
X0042096Y0092068D01*
X0042096Y0089100D01*
X0047033Y0089100D01*
X0047033Y0089356D02*
X0072699Y0089356D01*
X0072100Y0089954D02*
X0047033Y0089954D01*
X0047033Y0090553D02*
X0052502Y0090553D01*
X0051903Y0091151D02*
X0046976Y0091151D01*
X0046590Y0091750D02*
X0051305Y0091750D01*
X0056753Y0085166D02*
X0076888Y0085166D01*
X0077487Y0084568D02*
X0057351Y0084568D01*
X0069972Y0082173D02*
X0070540Y0082173D01*
X0060827Y0100727D02*
X0056589Y0100727D01*
X0056589Y0101326D02*
X0060229Y0101326D01*
X0059630Y0101924D02*
X0056353Y0101924D01*
X0056021Y0102523D02*
X0059032Y0102523D01*
X0058433Y0103121D02*
X0055423Y0103121D01*
X0042096Y0091750D02*
X0041496Y0091750D01*
X0041496Y0091151D02*
X0042096Y0091151D01*
X0042096Y0090553D02*
X0041496Y0090553D01*
X0041496Y0089954D02*
X0042096Y0089954D01*
X0042096Y0089356D02*
X0041496Y0089356D01*
X0041496Y0087560D02*
X0042096Y0087560D01*
X0042096Y0086962D02*
X0041496Y0086962D01*
X0041496Y0086363D02*
X0042096Y0086363D01*
X0042096Y0085765D02*
X0041496Y0085765D01*
X0022909Y0089954D02*
X0022899Y0089954D01*
X0039359Y0065415D02*
X0039789Y0065415D01*
X0039378Y0064817D02*
X0039222Y0064817D01*
X0039222Y0064218D02*
X0039378Y0064218D01*
X0039378Y0063620D02*
X0039222Y0063620D01*
X0039222Y0063021D02*
X0039378Y0063021D01*
X0039378Y0062423D02*
X0039222Y0062423D01*
X0039222Y0061824D02*
X0039378Y0061824D01*
X0039378Y0061226D02*
X0039222Y0061226D01*
X0039222Y0060627D02*
X0039378Y0060627D01*
X0039378Y0060029D02*
X0039222Y0060029D01*
X0039056Y0059430D02*
X0039544Y0059430D01*
X0041743Y0056437D02*
X0022899Y0056437D01*
X0022899Y0055839D02*
X0024808Y0055839D01*
X0024283Y0055240D02*
X0022899Y0055240D01*
X0022899Y0054642D02*
X0024283Y0054642D01*
X0024283Y0054043D02*
X0022899Y0054043D01*
X0022899Y0053445D02*
X0024283Y0053445D01*
X0024283Y0052846D02*
X0022899Y0052846D01*
X0022899Y0052248D02*
X0024283Y0052248D01*
X0024283Y0051649D02*
X0022899Y0051649D01*
X0022899Y0051051D02*
X0024283Y0051051D01*
X0024283Y0050452D02*
X0022899Y0050452D01*
X0022899Y0049854D02*
X0024283Y0049854D01*
X0024283Y0049255D02*
X0022899Y0049255D01*
X0022899Y0048657D02*
X0024283Y0048657D01*
X0024283Y0048058D02*
X0022899Y0048058D01*
X0022899Y0047460D02*
X0024283Y0047460D01*
X0024283Y0046861D02*
X0022899Y0046861D01*
X0022899Y0046263D02*
X0024283Y0046263D01*
X0024283Y0045664D02*
X0022899Y0045664D01*
X0022899Y0045066D02*
X0024283Y0045066D01*
X0024283Y0044467D02*
X0022899Y0044467D01*
X0022899Y0043869D02*
X0024283Y0043869D01*
X0024283Y0043270D02*
X0022899Y0043270D01*
X0022899Y0042672D02*
X0024283Y0042672D01*
X0024283Y0042073D02*
X0022899Y0042073D01*
X0022899Y0041475D02*
X0024779Y0041475D01*
X0022899Y0040876D02*
X0041715Y0040876D01*
X0041288Y0041303D02*
X0042488Y0040103D01*
X0044057Y0039453D01*
X0045755Y0039453D01*
X0047324Y0040103D01*
X0048525Y0041303D01*
X0049175Y0042872D01*
X0049175Y0044570D01*
X0048525Y0046139D01*
X0047324Y0047340D01*
X0045755Y0047990D01*
X0044057Y0047990D01*
X0042488Y0047340D01*
X0041288Y0046139D01*
X0040638Y0044570D01*
X0040638Y0042872D01*
X0041288Y0041303D01*
X0041217Y0041475D02*
X0038656Y0041475D01*
X0039151Y0042073D02*
X0040969Y0042073D01*
X0040721Y0042672D02*
X0039151Y0042672D01*
X0039151Y0043270D02*
X0040638Y0043270D01*
X0040638Y0043869D02*
X0039151Y0043869D01*
X0039151Y0044467D02*
X0040638Y0044467D01*
X0040843Y0045066D02*
X0039151Y0045066D01*
X0039151Y0045664D02*
X0041091Y0045664D01*
X0041411Y0046263D02*
X0039151Y0046263D01*
X0039151Y0046861D02*
X0042010Y0046861D01*
X0042778Y0047460D02*
X0039151Y0047460D01*
X0039151Y0048058D02*
X0056500Y0048058D01*
X0056387Y0047677D02*
X0055748Y0047885D01*
X0055085Y0047990D01*
X0055049Y0047990D01*
X0055049Y0044021D01*
X0059017Y0044021D01*
X0059017Y0044057D01*
X0058912Y0044721D01*
X0058705Y0045360D01*
X0058400Y0045958D01*
X0058005Y0046502D01*
X0057530Y0046977D01*
X0056986Y0047372D01*
X0056387Y0047677D01*
X0056814Y0047460D02*
X0057095Y0047460D01*
X0057645Y0046861D02*
X0057693Y0046861D01*
X0058178Y0046263D02*
X0058292Y0046263D01*
X0058549Y0045664D02*
X0058890Y0045664D01*
X0058800Y0045066D02*
X0059489Y0045066D01*
X0058952Y0044467D02*
X0060087Y0044467D01*
X0060323Y0043869D02*
X0055049Y0043869D01*
X0055049Y0044021D02*
X0055049Y0043421D01*
X0059017Y0043421D01*
X0059017Y0043385D01*
X0058912Y0042722D01*
X0058705Y0042083D01*
X0058400Y0041484D01*
X0058005Y0040941D01*
X0057530Y0040465D01*
X0056986Y0040071D01*
X0056387Y0039765D01*
X0055748Y0039558D01*
X0055085Y0039453D01*
X0055049Y0039453D01*
X0055049Y0043421D01*
X0054449Y0043421D01*
X0054449Y0039453D01*
X0054413Y0039453D01*
X0053749Y0039558D01*
X0053110Y0039765D01*
X0052512Y0040071D01*
X0051968Y0040465D01*
X0051493Y0040941D01*
X0051098Y0041484D01*
X0050793Y0042083D01*
X0050585Y0042722D01*
X0050480Y0043385D01*
X0050480Y0043421D01*
X0054449Y0043421D01*
X0054449Y0044021D01*
X0050480Y0044021D01*
X0050480Y0044057D01*
X0050585Y0044721D01*
X0050793Y0045360D01*
X0051098Y0045958D01*
X0051493Y0046502D01*
X0051968Y0046977D01*
X0052512Y0047372D01*
X0053110Y0047677D01*
X0053749Y0047885D01*
X0054413Y0047990D01*
X0054449Y0047990D01*
X0054449Y0044021D01*
X0055049Y0044021D01*
X0055049Y0044467D02*
X0054449Y0044467D01*
X0054449Y0043869D02*
X0049175Y0043869D01*
X0049175Y0044467D02*
X0050545Y0044467D01*
X0050698Y0045066D02*
X0048970Y0045066D01*
X0048722Y0045664D02*
X0050948Y0045664D01*
X0051319Y0046263D02*
X0048401Y0046263D01*
X0047803Y0046861D02*
X0051852Y0046861D01*
X0052684Y0047460D02*
X0047035Y0047460D01*
X0049175Y0043270D02*
X0050499Y0043270D01*
X0050602Y0042672D02*
X0049092Y0042672D01*
X0048844Y0042073D02*
X0050798Y0042073D01*
X0051105Y0041475D02*
X0048596Y0041475D01*
X0048098Y0040876D02*
X0051557Y0040876D01*
X0052226Y0040278D02*
X0047499Y0040278D01*
X0046302Y0039679D02*
X0053376Y0039679D01*
X0054449Y0039679D02*
X0055049Y0039679D01*
X0055049Y0040278D02*
X0054449Y0040278D01*
X0054449Y0040876D02*
X0055049Y0040876D01*
X0055049Y0041475D02*
X0054449Y0041475D01*
X0054449Y0042073D02*
X0055049Y0042073D01*
X0055049Y0042672D02*
X0054449Y0042672D01*
X0054449Y0043270D02*
X0055049Y0043270D01*
X0055049Y0045066D02*
X0054449Y0045066D01*
X0054449Y0045664D02*
X0055049Y0045664D01*
X0055049Y0046263D02*
X0054449Y0046263D01*
X0054449Y0046861D02*
X0055049Y0046861D01*
X0055049Y0047460D02*
X0054449Y0047460D01*
X0056500Y0048657D02*
X0039151Y0048657D01*
X0039151Y0049255D02*
X0056500Y0049255D01*
X0060989Y0048657D02*
X0070346Y0048657D01*
X0070346Y0048058D02*
X0061587Y0048058D01*
X0062186Y0047460D02*
X0062463Y0047460D01*
X0066720Y0047460D02*
X0070346Y0047460D01*
X0070346Y0046861D02*
X0067488Y0046861D01*
X0068086Y0046263D02*
X0070346Y0046263D01*
X0070346Y0045664D02*
X0068407Y0045664D01*
X0068655Y0045066D02*
X0070346Y0045066D01*
X0070346Y0044467D02*
X0068860Y0044467D01*
X0068860Y0043869D02*
X0070346Y0043869D01*
X0070346Y0043270D02*
X0068860Y0043270D01*
X0068777Y0042672D02*
X0070346Y0042672D01*
X0070346Y0042073D02*
X0068529Y0042073D01*
X0068281Y0041475D02*
X0070842Y0041475D01*
X0067783Y0040876D02*
X0085000Y0040876D01*
X0085000Y0040278D02*
X0067184Y0040278D01*
X0065987Y0039679D02*
X0085000Y0039679D01*
X0085000Y0039081D02*
X0022899Y0039081D01*
X0022899Y0039679D02*
X0043511Y0039679D01*
X0042313Y0040278D02*
X0022899Y0040278D01*
X0022899Y0038482D02*
X0085000Y0038482D01*
X0085000Y0037884D02*
X0022899Y0037884D01*
X0022899Y0037285D02*
X0085000Y0037285D01*
X0085000Y0036687D02*
X0022899Y0036687D01*
X0022899Y0036088D02*
X0084979Y0036088D01*
X0084892Y0035490D02*
X0022899Y0035490D01*
X0022899Y0034891D02*
X0084644Y0034891D01*
X0084396Y0034293D02*
X0022899Y0034293D01*
X0022899Y0033694D02*
X0083826Y0033694D01*
X0083047Y0033096D02*
X0022899Y0033096D01*
X0039151Y0049854D02*
X0042785Y0049854D01*
X0041981Y0050452D02*
X0039151Y0050452D01*
X0039151Y0051051D02*
X0041456Y0051051D01*
X0041091Y0051649D02*
X0039151Y0051649D01*
X0039151Y0052248D02*
X0040846Y0052248D01*
X0040698Y0052846D02*
X0039151Y0052846D01*
X0042423Y0057036D02*
X0022899Y0057036D01*
X0022899Y0057634D02*
X0043622Y0057634D01*
X0043923Y0058233D02*
X0022899Y0058233D01*
X0022899Y0058832D02*
X0043324Y0058832D01*
X0058999Y0043270D02*
X0060323Y0043270D01*
X0060406Y0042672D02*
X0058896Y0042672D01*
X0058700Y0042073D02*
X0060654Y0042073D01*
X0060902Y0041475D02*
X0058393Y0041475D01*
X0057940Y0040876D02*
X0061400Y0040876D01*
X0061998Y0040278D02*
X0057271Y0040278D01*
X0056122Y0039679D02*
X0063196Y0039679D01*
X0084719Y0041475D02*
X0085000Y0041475D01*
X0085214Y0053445D02*
X0085369Y0053445D01*
X0085214Y0054043D02*
X0085617Y0054043D01*
X0085865Y0054642D02*
X0085214Y0054642D01*
X0085214Y0055240D02*
X0086331Y0055240D01*
X0086929Y0055839D02*
X0084690Y0055839D01*
X0122113Y0084568D02*
X0155011Y0084568D01*
X0155011Y0083969D02*
X0140677Y0083969D01*
X0141275Y0083370D02*
X0155166Y0083370D01*
X0155414Y0082772D02*
X0141874Y0082772D01*
X0142472Y0082173D02*
X0155350Y0082173D01*
X0155102Y0081575D02*
X0143071Y0081575D01*
X0143669Y0080976D02*
X0155011Y0080976D01*
X0155011Y0080378D02*
X0144268Y0080378D01*
X0144866Y0079779D02*
X0155204Y0079779D01*
X0155475Y0079181D02*
X0145465Y0079181D01*
X0146063Y0078582D02*
X0155312Y0078582D01*
X0155065Y0077984D02*
X0146662Y0077984D01*
X0147260Y0077385D02*
X0155011Y0077385D01*
X0155011Y0076787D02*
X0147859Y0076787D01*
X0148457Y0076188D02*
X0155242Y0076188D01*
X0155566Y0075590D02*
X0149056Y0075590D01*
X0155140Y0085166D02*
X0122712Y0085166D01*
X0123310Y0085765D02*
X0155388Y0085765D01*
X0155500Y0086363D02*
X0123909Y0086363D01*
X0124507Y0086962D02*
X0155500Y0086962D01*
X0155500Y0087560D02*
X0125106Y0087560D01*
X0125704Y0088159D02*
X0155500Y0088159D01*
X0155500Y0088757D02*
X0126100Y0088757D01*
X0126100Y0089356D02*
X0155500Y0089356D01*
X0191175Y0099530D02*
X0198900Y0099530D01*
X0198900Y0098932D02*
X0191916Y0098932D01*
X0192442Y0098333D02*
X0198900Y0098333D01*
X0198900Y0097735D02*
X0192828Y0097735D01*
X0193110Y0097136D02*
X0198900Y0097136D01*
X0198900Y0096538D02*
X0193305Y0096538D01*
X0193404Y0095939D02*
X0198900Y0095939D01*
X0182684Y0047460D02*
X0181190Y0047460D01*
X0180592Y0046861D02*
X0181852Y0046861D01*
X0181319Y0046263D02*
X0179993Y0046263D01*
X0179395Y0045664D02*
X0180948Y0045664D01*
X0180698Y0045066D02*
X0178970Y0045066D01*
X0179175Y0044467D02*
X0180545Y0044467D01*
X0180480Y0043421D02*
X0180480Y0043385D01*
X0180585Y0042722D01*
X0180793Y0042083D01*
X0181098Y0041484D01*
X0181493Y0040941D01*
X0181968Y0040465D01*
X0182512Y0040071D01*
X0183110Y0039765D01*
X0183749Y0039558D01*
X0184413Y0039453D01*
X0184449Y0039453D01*
X0184449Y0043421D01*
X0180480Y0043421D01*
X0180499Y0043270D02*
X0179175Y0043270D01*
X0179175Y0043869D02*
X0184449Y0043869D01*
X0184449Y0043270D02*
X0185049Y0043270D01*
X0185049Y0042672D02*
X0184449Y0042672D01*
X0184449Y0042073D02*
X0185049Y0042073D01*
X0185049Y0041475D02*
X0184449Y0041475D01*
X0184449Y0040876D02*
X0185049Y0040876D01*
X0185049Y0040278D02*
X0184449Y0040278D01*
X0184449Y0039679D02*
X0185049Y0039679D01*
X0183376Y0039679D02*
X0176302Y0039679D01*
X0177499Y0040278D02*
X0182226Y0040278D01*
X0181557Y0040876D02*
X0178098Y0040876D01*
X0178596Y0041475D02*
X0181105Y0041475D01*
X0180798Y0042073D02*
X0178844Y0042073D01*
X0179092Y0042672D02*
X0180602Y0042672D01*
X0197184Y0040278D02*
X0217150Y0040278D01*
X0100878Y0103121D02*
X0100722Y0103121D01*
X0100722Y0103720D02*
X0100878Y0103720D01*
X0100878Y0104318D02*
X0100722Y0104318D01*
X0100722Y0104917D02*
X0100953Y0104917D01*
X0101397Y0105515D02*
X0100210Y0105515D01*
X0022899Y0164170D02*
X0217150Y0164170D01*
X0217150Y0164768D02*
X0022899Y0164768D01*
X0022899Y0165367D02*
X0217150Y0165367D01*
X0217150Y0165965D02*
X0022899Y0165965D01*
X0022899Y0166564D02*
X0217150Y0166564D01*
X0217150Y0167162D02*
X0022899Y0167162D01*
X0022899Y0167761D02*
X0217150Y0167761D01*
D19*
X0136300Y0116300D03*
X0136300Y0106300D03*
X0157800Y0084300D03*
X0157800Y0080800D03*
X0157800Y0077300D03*
X0169800Y0073300D03*
X0172800Y0070300D03*
X0174800Y0066300D03*
X0176113Y0080987D03*
X0178800Y0083800D03*
X0182800Y0085300D03*
X0126300Y0061300D03*
X0116300Y0061300D03*
X0106300Y0061300D03*
X0096300Y0061300D03*
X0093300Y0078800D03*
X0093300Y0091800D03*
X0066766Y0080960D03*
X0064300Y0075300D03*
X0055800Y0078300D03*
X0047300Y0077300D03*
X0041300Y0077300D03*
X0035276Y0077776D03*
X0043800Y0083800D03*
X0050300Y0086800D03*
X0054800Y0086800D03*
X0054800Y0096300D03*
X0053800Y0100800D03*
X0060800Y0107300D03*
X0065300Y0107800D03*
X0063800Y0111800D03*
X0057800Y0111800D03*
X0049800Y0110300D03*
X0045300Y0110800D03*
X0040800Y0100800D03*
X0035800Y0090300D03*
X0032800Y0087800D03*
X0025300Y0104300D03*
X0028800Y0115300D03*
X0041800Y0125800D03*
X0028800Y0135800D03*
X0051300Y0141300D03*
X0061300Y0136300D03*
X0091300Y0126300D03*
X0037300Y0067300D03*
X0031800Y0062300D03*
X0045550Y0060550D03*
X0036300Y0036300D03*
X0031300Y0036300D03*
X0071300Y0036300D03*
X0076300Y0036300D03*
D20*
X0064591Y0043721D02*
X0063379Y0043721D01*
X0058300Y0048800D01*
X0058300Y0055800D01*
X0050300Y0063800D01*
X0050300Y0074300D01*
X0047300Y0077300D01*
X0047300Y0081646D01*
X0047454Y0081800D01*
X0054146Y0081800D02*
X0055800Y0080146D01*
X0055800Y0078300D01*
X0064300Y0075300D02*
X0066287Y0073313D01*
X0066787Y0073313D01*
X0071434Y0078166D02*
X0068640Y0080960D01*
X0066766Y0080960D01*
X0072300Y0092300D02*
X0053300Y0092300D01*
X0047300Y0098300D01*
X0043300Y0098300D01*
X0040800Y0100800D01*
X0041796Y0108800D02*
X0043796Y0110800D01*
X0045300Y0110800D01*
X0045300Y0116646D01*
X0044146Y0117300D01*
X0037454Y0117300D02*
X0030304Y0117300D01*
X0028804Y0118800D01*
X0041800Y0125800D02*
X0041800Y0128796D01*
X0041796Y0128800D01*
X0028800Y0135800D02*
X0028800Y0138796D01*
X0028804Y0138800D01*
X0049800Y0110300D02*
X0053800Y0110300D01*
X0057050Y0107050D01*
X0061800Y0102300D01*
X0076800Y0102300D01*
X0085800Y0093300D01*
X0085300Y0093800D01*
X0085800Y0093300D02*
X0090300Y0088800D01*
X0102300Y0088800D01*
X0113300Y0088800D01*
X0114300Y0089800D01*
X0114300Y0097800D01*
X0110954Y0101146D01*
X0110954Y0102300D01*
X0110800Y0102146D01*
X0109800Y0097800D02*
X0097454Y0097800D01*
X0097454Y0093300D01*
X0093300Y0091800D02*
X0091300Y0091800D01*
X0078300Y0104300D01*
X0075146Y0107454D01*
X0075146Y0108300D01*
X0078300Y0104300D02*
X0063800Y0104300D01*
X0060800Y0107300D01*
X0065300Y0107800D02*
X0067954Y0107800D01*
X0068454Y0108300D01*
X0075300Y0098800D02*
X0055800Y0098800D01*
X0053800Y0100800D01*
X0054800Y0096300D02*
X0056300Y0094800D01*
X0073800Y0094800D01*
X0086300Y0082300D01*
X0139800Y0082300D01*
X0158300Y0063800D01*
X0172800Y0063800D01*
X0174800Y0061800D01*
X0176300Y0061800D01*
X0178300Y0061800D01*
X0190146Y0061800D01*
X0191300Y0062954D01*
X0191300Y0069646D02*
X0193855Y0072202D01*
X0193855Y0080300D01*
X0180426Y0085300D02*
X0178926Y0083800D01*
X0178800Y0083800D01*
X0178300Y0061800D02*
X0194591Y0045509D01*
X0194591Y0043721D01*
X0179800Y0048615D02*
X0174906Y0043721D01*
X0179800Y0048615D02*
X0179800Y0056300D01*
X0176800Y0059300D01*
X0173800Y0059300D01*
X0171800Y0061300D01*
X0156300Y0061300D01*
X0138800Y0078800D01*
X0093300Y0078800D01*
X0088300Y0076300D02*
X0072300Y0092300D01*
X0075300Y0098800D02*
X0088800Y0085300D01*
X0120300Y0085300D01*
X0124300Y0089300D01*
X0124300Y0093146D01*
X0124454Y0093300D01*
X0117646Y0093300D01*
X0122146Y0097800D02*
X0131146Y0097800D01*
X0131146Y0102300D01*
X0131146Y0110702D01*
X0129690Y0112158D01*
X0117646Y0102300D02*
X0122146Y0097800D01*
X0131146Y0097800D02*
X0131146Y0093300D01*
X0136800Y0076300D02*
X0088300Y0076300D01*
X0102300Y0088800D02*
X0104146Y0090646D01*
X0104146Y0093300D01*
X0097454Y0097800D02*
X0097454Y0102300D01*
X0094800Y0102300D01*
X0093800Y0103300D01*
X0093800Y0117300D01*
X0098658Y0122158D01*
X0099690Y0122158D01*
X0109800Y0097800D02*
X0110954Y0096646D01*
X0110954Y0093300D01*
X0136800Y0076300D02*
X0154300Y0058800D01*
X0170300Y0058800D01*
X0174906Y0054194D01*
X0174906Y0053564D01*
X0045550Y0060550D02*
X0043800Y0062300D01*
X0042646Y0062300D01*
X0040296Y0067300D02*
X0037300Y0067300D01*
X0040296Y0067300D02*
X0041796Y0068800D01*
X0041796Y0068300D01*
X0035954Y0062300D02*
X0031800Y0062300D01*
X0025800Y0072646D02*
X0023300Y0075146D01*
X0023300Y0087800D01*
X0023800Y0088300D01*
X0032300Y0088300D01*
X0032800Y0087800D01*
X0028804Y0078800D02*
X0028804Y0078276D01*
X0029304Y0077776D02*
X0035276Y0077776D01*
X0028804Y0098800D02*
X0028800Y0098804D01*
X0028800Y0102800D01*
X0027300Y0104300D01*
X0025300Y0104300D01*
D21*
X0028804Y0118800D02*
X0028804Y0127304D01*
X0050300Y0148800D01*
X0111800Y0148800D01*
X0135800Y0148800D01*
X0191800Y0148800D01*
X0201800Y0137300D01*
X0201800Y0092800D01*
X0194300Y0085300D01*
X0193855Y0084855D01*
X0193855Y0080300D01*
X0194300Y0085300D02*
X0182800Y0085300D01*
X0183300Y0085300D01*
X0182800Y0085300D02*
X0180426Y0085300D01*
X0176113Y0080987D01*
X0169800Y0073300D02*
X0172800Y0070300D01*
X0174800Y0068300D01*
X0174800Y0066300D01*
X0169800Y0073300D02*
X0166300Y0076800D01*
X0166300Y0104379D01*
X0167261Y0105339D01*
D22*
X0028800Y0115300D02*
X0028800Y0115800D01*
X0028804Y0115804D01*
X0028804Y0118800D01*
D23*
X0028804Y0078276D02*
X0029304Y0077776D01*
X0055800Y0078300D02*
X0055800Y0072800D01*
X0061080Y0067520D01*
X0065813Y0062787D02*
X0065813Y0054785D01*
X0064591Y0053564D01*
D24*
X0134646Y0147646D02*
X0135800Y0148800D01*
X0111954Y0148954D02*
X0111800Y0148800D01*
D25*
X0111800Y0134300D02*
X0111300Y0133800D01*
X0115331Y0127800D02*
X0124048Y0127800D01*
X0129690Y0122158D01*
X0135942Y0122158D01*
X0157800Y0100300D01*
X0157800Y0084300D01*
X0157800Y0080800D01*
X0157800Y0077300D01*
X0109690Y0122158D02*
X0115331Y0127800D01*
D26*
X0111300Y0133800D02*
X0138800Y0133800D01*
X0167261Y0105339D01*
X0184737Y0105339D01*
X0111300Y0133800D02*
X0088800Y0133800D01*
X0073918Y0118918D01*
X0055296Y0118918D01*
M02*
