%
M48
M72
T01C0.01378
T02C0.03937
T03C0.04000
T04C0.04400
T05C0.08268
T06C0.09843
%
T01
X31300Y36300
X36300Y36300
X45550Y60550
X37300Y67300
X31800Y62300
X35276Y77776
X41300Y77300
X47300Y77300
X43800Y83800
X50300Y86800
X54800Y86800
X55800Y78300
X64300Y75300
X66766Y80960
X54800Y96300
X53800Y100800
X60800Y107300
X65300Y107800
X63800Y111800
X57800Y111800
X49800Y110300
X45300Y110800
X40800Y100800
X35800Y90300
X32800Y87800
X25300Y104300
X28800Y115300
X41800Y125800
X28800Y135800
X51300Y141300
X61300Y136300
X91300Y126300
X93300Y91800
X93300Y78800
X96300Y61300
X106300Y61300
X116300Y61300
X126300Y61300
X157800Y77300
X157800Y80800
X157800Y84300
X169800Y73300
X172800Y70300
X174800Y66300
X176113Y80987
X178800Y83800
X182800Y85300
X136300Y106300
X136300Y116300
X76300Y36300
X71300Y36300
T02
X64591Y43721
X54749Y43721
X44906Y43721
X44906Y53564
X64591Y53564
X174906Y53564
X174906Y43721
X184749Y43721
X194591Y43721
X194591Y53564
T03
X129690Y112158
X119690Y112158
X109690Y112158
X99690Y112158
X99690Y122158
X109690Y122158
X119690Y122158
X129690Y122158
T04
X184737Y126918
X184737Y136918
X184737Y105339
X184737Y95339
X55296Y118918
X55296Y128918
T05
X77780Y48643
X31717Y48643
X161717Y48643
X207780Y48643
T06
X206639Y157284
X33141Y157284
M30
