G75*
%MOIN*%
%OFA0B0*%
%FSLAX25Y25*%
%IPPOS*%
%LPD*%
%AMOC8*
5,1,8,0,0,1.08239X$1,22.5*
%
%ADD10C,0.05937*%
%ADD11R,0.12268X0.12268*%
%ADD12R,0.05000X0.02200*%
%ADD13R,0.02200X0.05000*%
%ADD14R,0.03937X0.04331*%
%ADD15R,0.04331X0.03937*%
%ADD16R,0.04331X0.05118*%
%ADD17OC8,0.06000*%
%ADD18R,0.04800X0.08800*%
%ADD19R,0.14173X0.08661*%
%ADD20R,0.24409X0.21260*%
%ADD21R,0.06299X0.03937*%
%ADD22R,0.06299X0.05512*%
%ADD23R,0.05512X0.06299*%
%ADD24C,0.07400*%
%ADD25R,0.09449X0.09449*%
%ADD26R,0.04134X0.04252*%
%ADD27C,0.00600*%
%ADD28C,0.02978*%
%ADD29C,0.01000*%
%ADD30C,0.03200*%
%ADD31C,0.01200*%
%ADD32C,0.01600*%
%ADD33C,0.02000*%
%ADD34C,0.06500*%
D10*
X0044906Y0043721D03*
X0054749Y0043721D03*
X0064591Y0043721D03*
X0064591Y0053564D03*
X0044906Y0053564D03*
X0174906Y0053564D03*
X0174906Y0043721D03*
X0184749Y0043721D03*
X0194591Y0043721D03*
X0194591Y0053564D03*
D11*
X0207780Y0048643D03*
X0161717Y0048643D03*
X0077780Y0048643D03*
X0031717Y0048643D03*
D12*
X0028400Y0077776D03*
X0028400Y0080926D03*
X0028400Y0084076D03*
X0028400Y0087225D03*
X0028400Y0090375D03*
X0028400Y0093524D03*
X0028400Y0096674D03*
X0028400Y0099824D03*
X0062200Y0099824D03*
X0062200Y0096674D03*
X0062200Y0093524D03*
X0062200Y0090375D03*
X0062200Y0087225D03*
X0062200Y0084076D03*
X0062200Y0080926D03*
X0062200Y0077776D03*
D13*
X0056324Y0071900D03*
X0053174Y0071900D03*
X0050024Y0071900D03*
X0046875Y0071900D03*
X0043725Y0071900D03*
X0040576Y0071900D03*
X0037426Y0071900D03*
X0034276Y0071900D03*
X0034276Y0105700D03*
X0037426Y0105700D03*
X0040576Y0105700D03*
X0043725Y0105700D03*
X0046875Y0105700D03*
X0050024Y0105700D03*
X0053174Y0105700D03*
X0056324Y0105700D03*
D14*
X0028300Y0073146D03*
X0028300Y0066454D03*
X0180454Y0053300D03*
X0187146Y0053300D03*
D15*
X0077646Y0092300D03*
X0070954Y0092300D03*
X0070954Y0098800D03*
X0077646Y0098800D03*
X0108300Y0145954D03*
X0108300Y0152646D03*
X0135300Y0152646D03*
X0135300Y0145954D03*
D16*
X0077843Y0086328D03*
X0070757Y0086328D03*
X0070757Y0077272D03*
X0077843Y0077272D03*
D17*
X0099690Y0112158D03*
X0109690Y0112158D03*
X0119690Y0112158D03*
X0129690Y0112158D03*
X0129690Y0122158D03*
X0119690Y0122158D03*
X0109690Y0122158D03*
X0099690Y0122158D03*
D18*
X0148700Y0093000D03*
X0157800Y0093000D03*
X0166900Y0093000D03*
D19*
X0157800Y0068599D03*
D20*
X0203643Y0070800D03*
X0169143Y0150300D03*
X0074457Y0150300D03*
D21*
X0103198Y0141324D03*
X0103198Y0159276D03*
X0140402Y0159276D03*
X0140402Y0141324D03*
X0174902Y0079776D03*
X0174902Y0061824D03*
D22*
X0164706Y0059300D03*
X0152894Y0059300D03*
X0160894Y0103800D03*
X0172706Y0103800D03*
D23*
X0151800Y0102894D03*
X0151800Y0114706D03*
D24*
X0181037Y0105339D02*
X0188437Y0105339D01*
X0188437Y0095339D02*
X0181037Y0095339D01*
X0181037Y0126918D02*
X0188437Y0126918D01*
X0188437Y0136918D02*
X0181037Y0136918D01*
X0058996Y0128918D02*
X0051596Y0128918D01*
X0051596Y0118918D02*
X0058996Y0118918D01*
D25*
X0074300Y0112639D03*
X0074300Y0129961D03*
X0165300Y0129961D03*
X0165300Y0112639D03*
D26*
X0175855Y0038300D03*
X0182745Y0038300D03*
X0186355Y0038300D03*
X0193245Y0038300D03*
X0063745Y0038800D03*
X0056855Y0038800D03*
X0052745Y0038800D03*
X0045855Y0038800D03*
D27*
X0022899Y0032600D02*
X0022899Y0077155D01*
X0024054Y0076000D01*
X0024738Y0076000D01*
X0025031Y0075706D01*
X0025031Y0070443D01*
X0025712Y0069762D01*
X0025533Y0069659D01*
X0025291Y0069417D01*
X0025120Y0069121D01*
X0025031Y0068790D01*
X0025031Y0066754D01*
X0028000Y0066754D01*
X0028000Y0066154D01*
X0025031Y0066154D01*
X0025031Y0064117D01*
X0025120Y0063786D01*
X0025291Y0063490D01*
X0025533Y0063248D01*
X0025830Y0063077D01*
X0026160Y0062988D01*
X0028000Y0062988D01*
X0028000Y0066153D01*
X0028600Y0066153D01*
X0028600Y0062988D01*
X0029066Y0062988D01*
X0029011Y0062855D01*
X0029011Y0061745D01*
X0029436Y0060720D01*
X0030220Y0059936D01*
X0031245Y0059511D01*
X0032355Y0059511D01*
X0033380Y0059936D01*
X0034164Y0060720D01*
X0034589Y0061745D01*
X0034589Y0062855D01*
X0034164Y0063880D01*
X0033600Y0064444D01*
X0033600Y0068100D01*
X0034613Y0068100D01*
X0034511Y0067855D01*
X0034511Y0066745D01*
X0034936Y0065720D01*
X0035720Y0064936D01*
X0036745Y0064511D01*
X0037855Y0064511D01*
X0038776Y0064892D01*
X0038776Y0064779D01*
X0042761Y0060793D01*
X0042761Y0059995D01*
X0043186Y0058970D01*
X0043970Y0058186D01*
X0044995Y0057761D01*
X0045206Y0057761D01*
X0045206Y0053864D01*
X0044606Y0053864D01*
X0044606Y0053264D01*
X0040638Y0053264D01*
X0040638Y0053228D01*
X0040743Y0052564D01*
X0040951Y0051925D01*
X0041256Y0051327D01*
X0041650Y0050783D01*
X0042126Y0050308D01*
X0042669Y0049913D01*
X0043268Y0049608D01*
X0043907Y0049400D01*
X0044570Y0049295D01*
X0044606Y0049295D01*
X0044606Y0053264D01*
X0045206Y0053264D01*
X0045206Y0049295D01*
X0045242Y0049295D01*
X0045906Y0049400D01*
X0046545Y0049608D01*
X0047143Y0049913D01*
X0047687Y0050308D01*
X0048162Y0050783D01*
X0048557Y0051327D01*
X0048862Y0051925D01*
X0049070Y0052564D01*
X0049175Y0053228D01*
X0049175Y0053264D01*
X0045206Y0053264D01*
X0045206Y0053864D01*
X0049175Y0053864D01*
X0049175Y0053900D01*
X0049084Y0054470D01*
X0049500Y0054054D01*
X0049500Y0049546D01*
X0047303Y0047349D01*
X0045755Y0047990D01*
X0044057Y0047990D01*
X0042488Y0047340D01*
X0041288Y0046139D01*
X0040638Y0044570D01*
X0040638Y0042872D01*
X0041288Y0041303D01*
X0042488Y0040103D01*
X0042488Y0036136D01*
X0043250Y0035374D01*
X0048461Y0035374D01*
X0049222Y0036136D01*
X0049222Y0041464D01*
X0048776Y0041910D01*
X0049175Y0042872D01*
X0049175Y0044129D01*
X0051348Y0046302D01*
X0051098Y0045958D01*
X0050793Y0045360D01*
X0050585Y0044721D01*
X0050480Y0044057D01*
X0050480Y0044021D01*
X0054449Y0044021D01*
X0054449Y0043421D01*
X0050480Y0043421D01*
X0050480Y0043385D01*
X0050585Y0042722D01*
X0050746Y0042226D01*
X0050507Y0042226D01*
X0050176Y0042137D01*
X0049880Y0041966D01*
X0049638Y0041724D01*
X0049467Y0041428D01*
X0049378Y0041097D01*
X0049378Y0039100D01*
X0052445Y0039100D01*
X0052445Y0038500D01*
X0053045Y0038500D01*
X0053045Y0039100D01*
X0056112Y0039100D01*
X0056555Y0039100D01*
X0056555Y0038500D01*
X0053045Y0038500D01*
X0053045Y0035374D01*
X0056555Y0035374D01*
X0056555Y0038500D01*
X0057155Y0038500D01*
X0057155Y0035374D01*
X0059093Y0035374D01*
X0059424Y0035463D01*
X0059720Y0035634D01*
X0059962Y0035876D01*
X0060133Y0036172D01*
X0060222Y0036503D01*
X0060222Y0038500D01*
X0057155Y0038500D01*
X0057155Y0039100D01*
X0060222Y0039100D01*
X0060222Y0041097D01*
X0060133Y0041428D01*
X0059962Y0041724D01*
X0059720Y0041966D01*
X0059424Y0042137D01*
X0059093Y0042226D01*
X0058751Y0042226D01*
X0058912Y0042722D01*
X0059017Y0043385D01*
X0059017Y0043421D01*
X0055049Y0043421D01*
X0055049Y0044021D01*
X0059017Y0044021D01*
X0059017Y0044057D01*
X0058912Y0044721D01*
X0058705Y0045360D01*
X0058400Y0045958D01*
X0058005Y0046502D01*
X0057530Y0046977D01*
X0056986Y0047372D01*
X0056387Y0047677D01*
X0055748Y0047885D01*
X0055085Y0047990D01*
X0055049Y0047990D01*
X0055049Y0044021D01*
X0054449Y0044021D01*
X0054449Y0047990D01*
X0054413Y0047990D01*
X0053749Y0047885D01*
X0053110Y0047677D01*
X0052512Y0047372D01*
X0052168Y0047122D01*
X0053100Y0048054D01*
X0053100Y0055546D01*
X0048339Y0060307D01*
X0048339Y0061105D01*
X0047914Y0062130D01*
X0047130Y0062914D01*
X0046105Y0063339D01*
X0045307Y0063339D01*
X0042376Y0066270D01*
X0042376Y0068100D01*
X0048224Y0068100D01*
X0048224Y0063830D01*
X0059236Y0052818D01*
X0060291Y0051764D01*
X0060717Y0051764D01*
X0060973Y0051146D01*
X0062173Y0049945D01*
X0063742Y0049295D01*
X0065440Y0049295D01*
X0067009Y0049945D01*
X0068210Y0051146D01*
X0068860Y0052715D01*
X0068860Y0054413D01*
X0068210Y0055982D01*
X0067009Y0057182D01*
X0065440Y0057832D01*
X0063742Y0057832D01*
X0062173Y0057182D01*
X0061068Y0056077D01*
X0055446Y0061700D01*
X0082216Y0061700D01*
X0085862Y0062884D01*
X0088963Y0065137D01*
X0088963Y0065137D01*
X0088963Y0065137D01*
X0091216Y0068238D01*
X0091216Y0068238D01*
X0092400Y0071884D01*
X0092400Y0076154D01*
X0092745Y0076011D01*
X0093855Y0076011D01*
X0094880Y0076436D01*
X0095664Y0077220D01*
X0096089Y0078245D01*
X0096089Y0079355D01*
X0095664Y0080380D01*
X0095100Y0080944D01*
X0095100Y0089656D01*
X0095664Y0090220D01*
X0096089Y0091245D01*
X0096089Y0092355D01*
X0095664Y0093380D01*
X0094880Y0094164D01*
X0093855Y0094589D01*
X0092745Y0094589D01*
X0092507Y0094490D01*
X0092889Y0095411D01*
X0093689Y0096211D01*
X0094734Y0096644D01*
X0095300Y0096700D01*
X0136712Y0096700D01*
X0139322Y0097781D01*
X0141319Y0099778D01*
X0141319Y0099778D01*
X0142400Y0102388D01*
X0142400Y0138055D01*
X0144090Y0138055D01*
X0144852Y0138817D01*
X0144852Y0143831D01*
X0144090Y0144592D01*
X0139631Y0144592D01*
X0138765Y0145458D01*
X0138765Y0148461D01*
X0138004Y0149222D01*
X0132596Y0149222D01*
X0131835Y0148461D01*
X0131835Y0143447D01*
X0132596Y0142685D01*
X0135599Y0142685D01*
X0135953Y0142331D01*
X0135953Y0138817D01*
X0136714Y0138055D01*
X0138200Y0138055D01*
X0138200Y0103800D01*
X0138144Y0103234D01*
X0137711Y0102189D01*
X0136911Y0101389D01*
X0135866Y0100956D01*
X0135300Y0100900D01*
X0093888Y0100900D01*
X0091278Y0099819D01*
X0089281Y0097822D01*
X0089281Y0097822D01*
X0088200Y0095212D01*
X0088200Y0073800D01*
X0088103Y0072564D01*
X0087339Y0070213D01*
X0085886Y0068214D01*
X0083887Y0066761D01*
X0081536Y0065997D01*
X0080300Y0065900D01*
X0056170Y0065900D01*
X0055274Y0066796D01*
X0055274Y0068100D01*
X0057154Y0068100D01*
X0057324Y0067930D01*
X0058554Y0066700D01*
X0081712Y0066700D01*
X0084322Y0067781D01*
X0086319Y0069778D01*
X0086319Y0069778D01*
X0087400Y0072388D01*
X0087400Y0128800D01*
X0087456Y0129366D01*
X0087889Y0130411D01*
X0088689Y0131211D01*
X0089734Y0131644D01*
X0090300Y0131700D01*
X0110320Y0131700D01*
X0113213Y0132640D01*
X0115673Y0134427D01*
X0115673Y0134427D01*
X0115673Y0134427D01*
X0117460Y0136887D01*
X0117460Y0136887D01*
X0118400Y0139780D01*
X0118400Y0148712D01*
X0117319Y0151322D01*
X0115322Y0153319D01*
X0115322Y0153319D01*
X0112712Y0154400D01*
X0111765Y0154400D01*
X0111765Y0155153D01*
X0111004Y0155915D01*
X0109655Y0155915D01*
X0108400Y0157170D01*
X0107647Y0157923D01*
X0107647Y0161783D01*
X0106886Y0162545D01*
X0099510Y0162545D01*
X0098748Y0161783D01*
X0098748Y0156769D01*
X0099510Y0156008D01*
X0103496Y0156008D01*
X0104835Y0154670D01*
X0104835Y0150139D01*
X0105596Y0149378D01*
X0111004Y0149378D01*
X0111765Y0150139D01*
X0111765Y0150154D01*
X0111866Y0150144D01*
X0112911Y0149711D01*
X0113711Y0148911D01*
X0114144Y0147866D01*
X0114200Y0147300D01*
X0114200Y0141300D01*
X0114134Y0140455D01*
X0113611Y0138848D01*
X0112618Y0137482D01*
X0111252Y0136489D01*
X0109645Y0135966D01*
X0108800Y0135900D01*
X0088888Y0135900D01*
X0086278Y0134819D01*
X0084281Y0132822D01*
X0084281Y0132822D01*
X0083200Y0130212D01*
X0083200Y0073800D01*
X0083144Y0073234D01*
X0082711Y0072189D01*
X0081911Y0071389D01*
X0080866Y0070956D01*
X0080300Y0070900D01*
X0060293Y0070900D01*
X0058724Y0072470D01*
X0058724Y0074938D01*
X0057962Y0075700D01*
X0056811Y0075700D01*
X0057380Y0075936D01*
X0058164Y0076720D01*
X0058400Y0077289D01*
X0058400Y0076138D01*
X0059162Y0075376D01*
X0061511Y0075376D01*
X0061511Y0074745D01*
X0061936Y0073720D01*
X0062720Y0072936D01*
X0063745Y0072511D01*
X0064855Y0072511D01*
X0065880Y0072936D01*
X0066664Y0073720D01*
X0067089Y0074745D01*
X0067089Y0075855D01*
X0067039Y0075976D01*
X0067291Y0075976D01*
X0067291Y0074175D01*
X0068053Y0073413D01*
X0073461Y0073413D01*
X0074222Y0074175D01*
X0074222Y0079131D01*
X0074378Y0079131D01*
X0074378Y0074175D01*
X0075139Y0073413D01*
X0080547Y0073413D01*
X0081309Y0074175D01*
X0081309Y0080370D01*
X0080547Y0081131D01*
X0077677Y0081131D01*
X0078546Y0082000D01*
X0079014Y0082469D01*
X0080547Y0082469D01*
X0081309Y0083230D01*
X0081309Y0089425D01*
X0080980Y0089754D01*
X0081023Y0089830D01*
X0081112Y0090160D01*
X0081112Y0092000D01*
X0077946Y0092000D01*
X0077946Y0092600D01*
X0077346Y0092600D01*
X0077346Y0095531D01*
X0077346Y0098500D01*
X0077946Y0098500D01*
X0077946Y0092600D01*
X0081112Y0092600D01*
X0081112Y0094440D01*
X0081023Y0094770D01*
X0080852Y0095067D01*
X0080610Y0095309D01*
X0080314Y0095480D01*
X0080052Y0095550D01*
X0080314Y0095620D01*
X0080610Y0095791D01*
X0080852Y0096033D01*
X0081023Y0096330D01*
X0081112Y0096660D01*
X0081112Y0098500D01*
X0077946Y0098500D01*
X0077946Y0099100D01*
X0077346Y0099100D01*
X0077346Y0102068D01*
X0075310Y0102068D01*
X0074979Y0101980D01*
X0074683Y0101809D01*
X0074441Y0101567D01*
X0074338Y0101388D01*
X0073657Y0102068D01*
X0070040Y0102068D01*
X0067100Y0104748D01*
X0067100Y0105656D01*
X0067664Y0106220D01*
X0068089Y0107245D01*
X0068089Y0108355D01*
X0067664Y0109380D01*
X0066880Y0110164D01*
X0065855Y0110589D01*
X0064745Y0110589D01*
X0063720Y0110164D01*
X0062936Y0109380D01*
X0062856Y0109188D01*
X0062380Y0109664D01*
X0061355Y0110089D01*
X0060245Y0110089D01*
X0059220Y0109664D01*
X0058656Y0109100D01*
X0058362Y0109100D01*
X0057962Y0109500D01*
X0052487Y0109500D01*
X0052589Y0109745D01*
X0052589Y0110855D01*
X0052164Y0111880D01*
X0051380Y0112664D01*
X0050355Y0113089D01*
X0049245Y0113089D01*
X0048220Y0112664D01*
X0047744Y0112188D01*
X0047664Y0112380D01*
X0046880Y0113164D01*
X0045855Y0113589D01*
X0044745Y0113589D01*
X0043720Y0113164D01*
X0042936Y0112380D01*
X0042511Y0111355D01*
X0042511Y0110245D01*
X0042820Y0109500D01*
X0039226Y0109500D01*
X0039226Y0118180D01*
X0042546Y0121500D01*
X0043600Y0122554D01*
X0043600Y0123656D01*
X0044164Y0124220D01*
X0044589Y0125245D01*
X0044589Y0126355D01*
X0044164Y0127380D01*
X0043380Y0128164D01*
X0042355Y0128589D01*
X0041245Y0128589D01*
X0040220Y0128164D01*
X0039436Y0127380D01*
X0039011Y0126355D01*
X0039011Y0125245D01*
X0039436Y0124220D01*
X0039805Y0123851D01*
X0036076Y0120122D01*
X0036076Y0127569D01*
X0030600Y0133046D01*
X0030600Y0133656D01*
X0031164Y0134220D01*
X0031589Y0135245D01*
X0031589Y0136355D01*
X0031164Y0137380D01*
X0030380Y0138164D01*
X0029355Y0138589D01*
X0028245Y0138589D01*
X0027220Y0138164D01*
X0026436Y0137380D01*
X0026011Y0136355D01*
X0026011Y0135245D01*
X0026436Y0134220D01*
X0027000Y0133656D01*
X0027000Y0131554D01*
X0028054Y0130500D01*
X0032476Y0126078D01*
X0032476Y0109338D01*
X0031876Y0108738D01*
X0031876Y0105193D01*
X0030900Y0106170D01*
X0030900Y0113456D01*
X0031164Y0113720D01*
X0031589Y0114745D01*
X0031589Y0115855D01*
X0031164Y0116880D01*
X0030380Y0117664D01*
X0029355Y0118089D01*
X0028245Y0118089D01*
X0027220Y0117664D01*
X0026436Y0116880D01*
X0026011Y0115855D01*
X0026011Y0114745D01*
X0026436Y0113720D01*
X0026700Y0113456D01*
X0026700Y0106739D01*
X0025855Y0107089D01*
X0024745Y0107089D01*
X0023720Y0106664D01*
X0022936Y0105880D01*
X0022899Y0105792D01*
X0022899Y0167795D01*
X0217150Y0167795D01*
X0217150Y0032600D01*
X0147800Y0032600D01*
X0147176Y0032661D01*
X0146022Y0033139D01*
X0145139Y0034022D01*
X0144661Y0035176D01*
X0144600Y0035800D01*
X0144600Y0050735D01*
X0144719Y0051922D01*
X0144719Y0051923D01*
X0143992Y0054331D01*
X0143992Y0054331D01*
X0142399Y0056279D01*
X0142399Y0056279D01*
X0142399Y0056279D01*
X0140181Y0057468D01*
X0139391Y0057547D01*
X0139338Y0057600D01*
X0138865Y0057600D01*
X0138394Y0057647D01*
X0138336Y0057600D01*
X0090047Y0057600D01*
X0087731Y0056641D01*
X0085959Y0054869D01*
X0085959Y0054869D01*
X0085214Y0053070D01*
X0085214Y0055315D01*
X0084453Y0056076D01*
X0071108Y0056076D01*
X0070346Y0055315D01*
X0070346Y0041970D01*
X0071108Y0041209D01*
X0084453Y0041209D01*
X0085000Y0041756D01*
X0085000Y0036300D01*
X0084929Y0035578D01*
X0084376Y0034244D01*
X0083356Y0033224D01*
X0082022Y0032671D01*
X0081300Y0032600D01*
X0022899Y0032600D01*
X0022899Y0033096D02*
X0083047Y0033096D01*
X0083826Y0033694D02*
X0022899Y0033694D01*
X0022899Y0034293D02*
X0084396Y0034293D01*
X0084644Y0034891D02*
X0022899Y0034891D01*
X0022899Y0035490D02*
X0043134Y0035490D01*
X0042536Y0036088D02*
X0022899Y0036088D01*
X0022899Y0036687D02*
X0042488Y0036687D01*
X0042488Y0037285D02*
X0022899Y0037285D01*
X0022899Y0037884D02*
X0042488Y0037884D01*
X0042488Y0038482D02*
X0022899Y0038482D01*
X0022899Y0039081D02*
X0042488Y0039081D01*
X0042488Y0039679D02*
X0022899Y0039679D01*
X0022899Y0040278D02*
X0042313Y0040278D01*
X0041715Y0040876D02*
X0022899Y0040876D01*
X0022899Y0041475D02*
X0024779Y0041475D01*
X0025045Y0041209D02*
X0038390Y0041209D01*
X0039151Y0041970D01*
X0039151Y0055315D01*
X0038390Y0056076D01*
X0025045Y0056076D01*
X0024283Y0055315D01*
X0024283Y0041970D01*
X0025045Y0041209D01*
X0024283Y0042073D02*
X0022899Y0042073D01*
X0022899Y0042672D02*
X0024283Y0042672D01*
X0024283Y0043270D02*
X0022899Y0043270D01*
X0022899Y0043869D02*
X0024283Y0043869D01*
X0024283Y0044467D02*
X0022899Y0044467D01*
X0022899Y0045066D02*
X0024283Y0045066D01*
X0024283Y0045664D02*
X0022899Y0045664D01*
X0022899Y0046263D02*
X0024283Y0046263D01*
X0024283Y0046861D02*
X0022899Y0046861D01*
X0022899Y0047460D02*
X0024283Y0047460D01*
X0024283Y0048058D02*
X0022899Y0048058D01*
X0022899Y0048657D02*
X0024283Y0048657D01*
X0024283Y0049255D02*
X0022899Y0049255D01*
X0022899Y0049854D02*
X0024283Y0049854D01*
X0024283Y0050452D02*
X0022899Y0050452D01*
X0022899Y0051051D02*
X0024283Y0051051D01*
X0024283Y0051649D02*
X0022899Y0051649D01*
X0022899Y0052248D02*
X0024283Y0052248D01*
X0024283Y0052846D02*
X0022899Y0052846D01*
X0022899Y0053445D02*
X0024283Y0053445D01*
X0024283Y0054043D02*
X0022899Y0054043D01*
X0022899Y0054642D02*
X0024283Y0054642D01*
X0024283Y0055240D02*
X0022899Y0055240D01*
X0022899Y0055839D02*
X0024808Y0055839D01*
X0022899Y0056437D02*
X0041743Y0056437D01*
X0041650Y0056345D02*
X0041256Y0055801D01*
X0040951Y0055202D01*
X0040743Y0054563D01*
X0040638Y0053900D01*
X0040638Y0053864D01*
X0044606Y0053864D01*
X0044606Y0057832D01*
X0044570Y0057832D01*
X0043907Y0057727D01*
X0043268Y0057520D01*
X0042669Y0057215D01*
X0042126Y0056820D01*
X0041650Y0056345D01*
X0041283Y0055839D02*
X0038627Y0055839D01*
X0039151Y0055240D02*
X0040970Y0055240D01*
X0040768Y0054642D02*
X0039151Y0054642D01*
X0039151Y0054043D02*
X0040661Y0054043D01*
X0040698Y0052846D02*
X0039151Y0052846D01*
X0039151Y0052248D02*
X0040846Y0052248D01*
X0041091Y0051649D02*
X0039151Y0051649D01*
X0039151Y0051051D02*
X0041456Y0051051D01*
X0041981Y0050452D02*
X0039151Y0050452D01*
X0039151Y0049854D02*
X0042785Y0049854D01*
X0044606Y0049854D02*
X0045206Y0049854D01*
X0045206Y0050452D02*
X0044606Y0050452D01*
X0044606Y0051051D02*
X0045206Y0051051D01*
X0045206Y0051649D02*
X0044606Y0051649D01*
X0044606Y0052248D02*
X0045206Y0052248D01*
X0045206Y0052846D02*
X0044606Y0052846D01*
X0044606Y0053445D02*
X0039151Y0053445D01*
X0039151Y0049255D02*
X0049210Y0049255D01*
X0049500Y0049854D02*
X0047027Y0049854D01*
X0047831Y0050452D02*
X0049500Y0050452D01*
X0049500Y0051051D02*
X0048357Y0051051D01*
X0048722Y0051649D02*
X0049500Y0051649D01*
X0049500Y0052248D02*
X0048967Y0052248D01*
X0049114Y0052846D02*
X0049500Y0052846D01*
X0049500Y0053445D02*
X0045206Y0053445D01*
X0045206Y0054043D02*
X0044606Y0054043D01*
X0044606Y0054642D02*
X0045206Y0054642D01*
X0045206Y0055240D02*
X0044606Y0055240D01*
X0044606Y0055839D02*
X0045206Y0055839D01*
X0045206Y0056437D02*
X0044606Y0056437D01*
X0044606Y0057036D02*
X0045206Y0057036D01*
X0045206Y0057634D02*
X0044606Y0057634D01*
X0043923Y0058233D02*
X0022899Y0058233D01*
X0022899Y0057634D02*
X0043622Y0057634D01*
X0043324Y0058832D02*
X0022899Y0058832D01*
X0022899Y0059430D02*
X0042995Y0059430D01*
X0042761Y0060029D02*
X0033473Y0060029D01*
X0034071Y0060627D02*
X0042761Y0060627D01*
X0042329Y0061226D02*
X0034374Y0061226D01*
X0034589Y0061824D02*
X0041730Y0061824D01*
X0041132Y0062423D02*
X0034589Y0062423D01*
X0034520Y0063021D02*
X0040533Y0063021D01*
X0039935Y0063620D02*
X0034272Y0063620D01*
X0033826Y0064218D02*
X0039336Y0064218D01*
X0038776Y0064817D02*
X0038593Y0064817D01*
X0036007Y0064817D02*
X0033600Y0064817D01*
X0033600Y0065415D02*
X0035241Y0065415D01*
X0034814Y0066014D02*
X0033600Y0066014D01*
X0033600Y0066612D02*
X0034566Y0066612D01*
X0034511Y0067211D02*
X0033600Y0067211D01*
X0033600Y0067809D02*
X0034511Y0067809D01*
X0028600Y0066014D02*
X0028000Y0066014D01*
X0028000Y0066612D02*
X0022899Y0066612D01*
X0022899Y0066014D02*
X0025031Y0066014D01*
X0025031Y0065415D02*
X0022899Y0065415D01*
X0022899Y0064817D02*
X0025031Y0064817D01*
X0025031Y0064218D02*
X0022899Y0064218D01*
X0022899Y0063620D02*
X0025216Y0063620D01*
X0026038Y0063021D02*
X0022899Y0063021D01*
X0022899Y0062423D02*
X0029011Y0062423D01*
X0029011Y0061824D02*
X0022899Y0061824D01*
X0022899Y0061226D02*
X0029226Y0061226D01*
X0029529Y0060627D02*
X0022899Y0060627D01*
X0022899Y0060029D02*
X0030127Y0060029D01*
X0028600Y0063021D02*
X0028000Y0063021D01*
X0028000Y0063620D02*
X0028600Y0063620D01*
X0028600Y0064218D02*
X0028000Y0064218D01*
X0028000Y0064817D02*
X0028600Y0064817D01*
X0028600Y0065415D02*
X0028000Y0065415D01*
X0025031Y0067211D02*
X0022899Y0067211D01*
X0022899Y0067809D02*
X0025031Y0067809D01*
X0025031Y0068408D02*
X0022899Y0068408D01*
X0022899Y0069006D02*
X0025089Y0069006D01*
X0025479Y0069605D02*
X0022899Y0069605D01*
X0022899Y0070203D02*
X0025271Y0070203D01*
X0025031Y0070802D02*
X0022899Y0070802D01*
X0022899Y0071400D02*
X0025031Y0071400D01*
X0025031Y0071999D02*
X0022899Y0071999D01*
X0022899Y0072597D02*
X0025031Y0072597D01*
X0025031Y0073196D02*
X0022899Y0073196D01*
X0022899Y0073794D02*
X0025031Y0073794D01*
X0025031Y0074393D02*
X0022899Y0074393D01*
X0022899Y0074991D02*
X0025031Y0074991D01*
X0025031Y0075590D02*
X0022899Y0075590D01*
X0022899Y0076188D02*
X0023866Y0076188D01*
X0023268Y0076787D02*
X0022899Y0076787D01*
X0032200Y0082826D02*
X0032200Y0085030D01*
X0032245Y0085011D01*
X0033355Y0085011D01*
X0034380Y0085436D01*
X0035164Y0086220D01*
X0035589Y0087245D01*
X0035589Y0088355D01*
X0035164Y0089380D01*
X0034380Y0090164D01*
X0033355Y0090589D01*
X0032245Y0090589D01*
X0031220Y0090164D01*
X0031181Y0090125D01*
X0028650Y0090125D01*
X0028650Y0090625D01*
X0032200Y0090625D01*
X0032200Y0091646D01*
X0032149Y0091835D01*
X0032200Y0091886D01*
X0032200Y0098930D01*
X0040700Y0090430D01*
X0040700Y0088930D01*
X0040900Y0088730D01*
X0040900Y0088087D01*
X0035639Y0082826D01*
X0032200Y0082826D01*
X0032200Y0083370D02*
X0036183Y0083370D01*
X0036782Y0083969D02*
X0032200Y0083969D01*
X0032200Y0084568D02*
X0037381Y0084568D01*
X0037979Y0085166D02*
X0033729Y0085166D01*
X0034709Y0085765D02*
X0038578Y0085765D01*
X0039176Y0086363D02*
X0035224Y0086363D01*
X0035471Y0086962D02*
X0039775Y0086962D01*
X0040373Y0087560D02*
X0035589Y0087560D01*
X0035589Y0088159D02*
X0040900Y0088159D01*
X0040873Y0088757D02*
X0035422Y0088757D01*
X0035174Y0089356D02*
X0040700Y0089356D01*
X0040700Y0089954D02*
X0034590Y0089954D01*
X0033443Y0090553D02*
X0040578Y0090553D01*
X0039979Y0091151D02*
X0032200Y0091151D01*
X0032172Y0091750D02*
X0039380Y0091750D01*
X0038782Y0092348D02*
X0032200Y0092348D01*
X0032200Y0092947D02*
X0038183Y0092947D01*
X0037585Y0093545D02*
X0032200Y0093545D01*
X0032200Y0094144D02*
X0036986Y0094144D01*
X0036388Y0094742D02*
X0032200Y0094742D01*
X0032200Y0095341D02*
X0035789Y0095341D01*
X0035191Y0095939D02*
X0032200Y0095939D01*
X0032200Y0096538D02*
X0034592Y0096538D01*
X0033994Y0097136D02*
X0032200Y0097136D01*
X0032200Y0097735D02*
X0033395Y0097735D01*
X0032797Y0098333D02*
X0032200Y0098333D01*
X0035744Y0101326D02*
X0038011Y0101326D01*
X0038011Y0101355D02*
X0038011Y0100245D01*
X0038436Y0099220D01*
X0039220Y0098436D01*
X0040245Y0098011D01*
X0041355Y0098011D01*
X0042380Y0098436D01*
X0043164Y0099220D01*
X0043589Y0100245D01*
X0043589Y0101355D01*
X0043363Y0101900D01*
X0051237Y0101900D01*
X0051011Y0101355D01*
X0051011Y0100245D01*
X0051436Y0099220D01*
X0052220Y0098436D01*
X0052766Y0098210D01*
X0052436Y0097880D01*
X0052011Y0096855D01*
X0052011Y0095745D01*
X0052436Y0094720D01*
X0053220Y0093936D01*
X0054245Y0093511D01*
X0055355Y0093511D01*
X0056380Y0093936D01*
X0057164Y0094720D01*
X0057589Y0095745D01*
X0057589Y0096855D01*
X0057534Y0096988D01*
X0058400Y0097854D01*
X0058400Y0095036D01*
X0058451Y0094985D01*
X0058400Y0094796D01*
X0058400Y0093774D01*
X0061950Y0093774D01*
X0061950Y0093274D01*
X0058400Y0093274D01*
X0058400Y0092475D01*
X0058005Y0092475D01*
X0057805Y0092275D01*
X0044795Y0092275D01*
X0043670Y0093400D01*
X0035170Y0101900D01*
X0038237Y0101900D01*
X0038011Y0101355D01*
X0038011Y0100727D02*
X0036343Y0100727D01*
X0036941Y0100129D02*
X0038059Y0100129D01*
X0038307Y0099530D02*
X0037540Y0099530D01*
X0038138Y0098932D02*
X0038724Y0098932D01*
X0038737Y0098333D02*
X0039467Y0098333D01*
X0039335Y0097735D02*
X0052376Y0097735D01*
X0052467Y0098333D02*
X0042133Y0098333D01*
X0042876Y0098932D02*
X0051724Y0098932D01*
X0051307Y0099530D02*
X0043293Y0099530D01*
X0043541Y0100129D02*
X0051059Y0100129D01*
X0051011Y0100727D02*
X0043589Y0100727D01*
X0043589Y0101326D02*
X0051011Y0101326D01*
X0052128Y0097136D02*
X0039934Y0097136D01*
X0040532Y0096538D02*
X0052011Y0096538D01*
X0052011Y0095939D02*
X0041131Y0095939D01*
X0041729Y0095341D02*
X0052179Y0095341D01*
X0052426Y0094742D02*
X0042328Y0094742D01*
X0042926Y0094144D02*
X0053012Y0094144D01*
X0054163Y0093545D02*
X0043525Y0093545D01*
X0044123Y0092947D02*
X0058400Y0092947D01*
X0057878Y0092348D02*
X0044722Y0092348D01*
X0046812Y0088475D02*
X0057805Y0088475D01*
X0058005Y0088275D01*
X0058400Y0088275D01*
X0058400Y0087475D01*
X0061950Y0087475D01*
X0061950Y0086975D01*
X0058400Y0086975D01*
X0058400Y0085976D01*
X0058289Y0085976D01*
X0056513Y0084200D01*
X0055400Y0083087D01*
X0055400Y0081089D01*
X0055245Y0081089D01*
X0054505Y0080782D01*
X0046812Y0088475D01*
X0047128Y0088159D02*
X0058400Y0088159D01*
X0058400Y0087560D02*
X0047727Y0087560D01*
X0048325Y0086962D02*
X0058400Y0086962D01*
X0058400Y0086363D02*
X0048924Y0086363D01*
X0049522Y0085765D02*
X0058078Y0085765D01*
X0057479Y0085166D02*
X0050121Y0085166D01*
X0050719Y0084568D02*
X0056881Y0084568D01*
X0056282Y0083969D02*
X0051318Y0083969D01*
X0051916Y0083370D02*
X0055683Y0083370D01*
X0055400Y0082772D02*
X0052515Y0082772D01*
X0053114Y0082173D02*
X0055400Y0082173D01*
X0055400Y0081575D02*
X0053712Y0081575D01*
X0054311Y0080976D02*
X0054974Y0080976D01*
X0051929Y0077984D02*
X0050035Y0077984D01*
X0050089Y0077855D02*
X0049664Y0078880D01*
X0048880Y0079664D01*
X0047855Y0080089D01*
X0046745Y0080089D01*
X0045720Y0079664D01*
X0044936Y0078880D01*
X0044511Y0077855D01*
X0044511Y0076745D01*
X0044936Y0075720D01*
X0044956Y0075700D01*
X0037144Y0075700D01*
X0037641Y0076197D01*
X0038065Y0077222D01*
X0038065Y0078331D01*
X0037641Y0079356D01*
X0037592Y0079405D01*
X0044050Y0085863D01*
X0053513Y0076400D01*
X0053756Y0076400D01*
X0054220Y0075936D01*
X0054789Y0075700D01*
X0049644Y0075700D01*
X0049664Y0075720D01*
X0050089Y0076745D01*
X0050089Y0077855D01*
X0050089Y0077385D02*
X0052528Y0077385D01*
X0053126Y0076787D02*
X0050089Y0076787D01*
X0049858Y0076188D02*
X0053967Y0076188D01*
X0051331Y0078582D02*
X0049788Y0078582D01*
X0049363Y0079181D02*
X0050732Y0079181D01*
X0050134Y0079779D02*
X0048602Y0079779D01*
X0049535Y0080378D02*
X0038565Y0080378D01*
X0039163Y0080976D02*
X0048937Y0080976D01*
X0048338Y0081575D02*
X0039762Y0081575D01*
X0040360Y0082173D02*
X0047740Y0082173D01*
X0047141Y0082772D02*
X0040959Y0082772D01*
X0041557Y0083370D02*
X0046543Y0083370D01*
X0045944Y0083969D02*
X0042156Y0083969D01*
X0042755Y0084568D02*
X0045345Y0084568D01*
X0044747Y0085166D02*
X0043353Y0085166D01*
X0043952Y0085765D02*
X0044148Y0085765D01*
X0045998Y0079779D02*
X0037966Y0079779D01*
X0037713Y0079181D02*
X0045237Y0079181D01*
X0044812Y0078582D02*
X0037961Y0078582D01*
X0038065Y0077984D02*
X0044565Y0077984D01*
X0044511Y0077385D02*
X0038065Y0077385D01*
X0037885Y0076787D02*
X0044511Y0076787D01*
X0044742Y0076188D02*
X0037633Y0076188D01*
X0042376Y0067809D02*
X0048224Y0067809D01*
X0048224Y0067211D02*
X0042376Y0067211D01*
X0042376Y0066612D02*
X0048224Y0066612D01*
X0048224Y0066014D02*
X0042632Y0066014D01*
X0043230Y0065415D02*
X0048224Y0065415D01*
X0048224Y0064817D02*
X0043829Y0064817D01*
X0044427Y0064218D02*
X0048224Y0064218D01*
X0048435Y0063620D02*
X0045026Y0063620D01*
X0046872Y0063021D02*
X0049033Y0063021D01*
X0049632Y0062423D02*
X0047622Y0062423D01*
X0048041Y0061824D02*
X0050230Y0061824D01*
X0050829Y0061226D02*
X0048289Y0061226D01*
X0048339Y0060627D02*
X0051427Y0060627D01*
X0052026Y0060029D02*
X0048617Y0060029D01*
X0049216Y0059430D02*
X0052624Y0059430D01*
X0053223Y0058832D02*
X0049814Y0058832D01*
X0050413Y0058233D02*
X0053821Y0058233D01*
X0054420Y0057634D02*
X0051011Y0057634D01*
X0051610Y0057036D02*
X0055018Y0057036D01*
X0055617Y0056437D02*
X0052208Y0056437D01*
X0052807Y0055839D02*
X0056215Y0055839D01*
X0056814Y0055240D02*
X0053100Y0055240D01*
X0053100Y0054642D02*
X0057412Y0054642D01*
X0058011Y0054043D02*
X0053100Y0054043D01*
X0053100Y0053445D02*
X0058609Y0053445D01*
X0059208Y0052846D02*
X0053100Y0052846D01*
X0053100Y0052248D02*
X0059807Y0052248D01*
X0060764Y0051649D02*
X0053100Y0051649D01*
X0053100Y0051051D02*
X0061068Y0051051D01*
X0061666Y0050452D02*
X0053100Y0050452D01*
X0053100Y0049854D02*
X0062394Y0049854D01*
X0063742Y0047990D02*
X0062173Y0047340D01*
X0060973Y0046139D01*
X0060323Y0044570D01*
X0060323Y0042872D01*
X0060751Y0041838D01*
X0060378Y0041464D01*
X0060378Y0036136D01*
X0061139Y0035374D01*
X0066350Y0035374D01*
X0067112Y0036136D01*
X0067112Y0040205D01*
X0068210Y0041303D01*
X0068860Y0042872D01*
X0068860Y0044570D01*
X0068210Y0046139D01*
X0067009Y0047340D01*
X0065440Y0047990D01*
X0063742Y0047990D01*
X0062463Y0047460D02*
X0056814Y0047460D01*
X0057645Y0046861D02*
X0061695Y0046861D01*
X0061096Y0046263D02*
X0058178Y0046263D01*
X0058549Y0045664D02*
X0060776Y0045664D01*
X0060528Y0045066D02*
X0058800Y0045066D01*
X0058952Y0044467D02*
X0060323Y0044467D01*
X0060323Y0043869D02*
X0055049Y0043869D01*
X0055049Y0044467D02*
X0054449Y0044467D01*
X0054449Y0043869D02*
X0049175Y0043869D01*
X0049175Y0043270D02*
X0050499Y0043270D01*
X0050602Y0042672D02*
X0049092Y0042672D01*
X0048844Y0042073D02*
X0050065Y0042073D01*
X0049494Y0041475D02*
X0049212Y0041475D01*
X0049222Y0040876D02*
X0049378Y0040876D01*
X0049378Y0040278D02*
X0049222Y0040278D01*
X0049222Y0039679D02*
X0049378Y0039679D01*
X0049222Y0039081D02*
X0052445Y0039081D01*
X0052445Y0038500D02*
X0049378Y0038500D01*
X0049378Y0036503D01*
X0049467Y0036172D01*
X0049638Y0035876D01*
X0049880Y0035634D01*
X0050176Y0035463D01*
X0050507Y0035374D01*
X0052445Y0035374D01*
X0052445Y0038500D01*
X0052445Y0038482D02*
X0053045Y0038482D01*
X0053045Y0037884D02*
X0052445Y0037884D01*
X0052445Y0037285D02*
X0053045Y0037285D01*
X0053045Y0036687D02*
X0052445Y0036687D01*
X0052445Y0036088D02*
X0053045Y0036088D01*
X0053045Y0035490D02*
X0052445Y0035490D01*
X0050129Y0035490D02*
X0048576Y0035490D01*
X0049175Y0036088D02*
X0049515Y0036088D01*
X0049378Y0036687D02*
X0049222Y0036687D01*
X0049222Y0037285D02*
X0049378Y0037285D01*
X0049378Y0037884D02*
X0049222Y0037884D01*
X0049222Y0038482D02*
X0049378Y0038482D01*
X0053045Y0039081D02*
X0056555Y0039081D01*
X0056555Y0038482D02*
X0057155Y0038482D01*
X0057155Y0037884D02*
X0056555Y0037884D01*
X0056555Y0037285D02*
X0057155Y0037285D01*
X0057155Y0036687D02*
X0056555Y0036687D01*
X0056555Y0036088D02*
X0057155Y0036088D01*
X0057155Y0035490D02*
X0056555Y0035490D01*
X0059471Y0035490D02*
X0061024Y0035490D01*
X0060425Y0036088D02*
X0060085Y0036088D01*
X0060222Y0036687D02*
X0060378Y0036687D01*
X0060378Y0037285D02*
X0060222Y0037285D01*
X0060222Y0037884D02*
X0060378Y0037884D01*
X0060378Y0038482D02*
X0060222Y0038482D01*
X0060378Y0039081D02*
X0057155Y0039081D01*
X0060222Y0039679D02*
X0060378Y0039679D01*
X0060378Y0040278D02*
X0060222Y0040278D01*
X0060222Y0040876D02*
X0060378Y0040876D01*
X0060388Y0041475D02*
X0060106Y0041475D01*
X0060654Y0042073D02*
X0059535Y0042073D01*
X0058896Y0042672D02*
X0060406Y0042672D01*
X0060323Y0043270D02*
X0058999Y0043270D01*
X0055049Y0045066D02*
X0054449Y0045066D01*
X0054449Y0045664D02*
X0055049Y0045664D01*
X0055049Y0046263D02*
X0054449Y0046263D01*
X0054449Y0046861D02*
X0055049Y0046861D01*
X0055049Y0047460D02*
X0054449Y0047460D01*
X0053100Y0048058D02*
X0070346Y0048058D01*
X0070346Y0047460D02*
X0066720Y0047460D01*
X0067488Y0046861D02*
X0070346Y0046861D01*
X0070346Y0046263D02*
X0068086Y0046263D01*
X0068407Y0045664D02*
X0070346Y0045664D01*
X0070346Y0045066D02*
X0068655Y0045066D01*
X0068860Y0044467D02*
X0070346Y0044467D01*
X0070346Y0043869D02*
X0068860Y0043869D01*
X0068860Y0043270D02*
X0070346Y0043270D01*
X0070346Y0042672D02*
X0068777Y0042672D01*
X0068529Y0042073D02*
X0070346Y0042073D01*
X0070842Y0041475D02*
X0068281Y0041475D01*
X0067783Y0040876D02*
X0085000Y0040876D01*
X0085000Y0040278D02*
X0067184Y0040278D01*
X0067112Y0039679D02*
X0085000Y0039679D01*
X0085000Y0039081D02*
X0067112Y0039081D01*
X0067112Y0038482D02*
X0085000Y0038482D01*
X0085000Y0037884D02*
X0067112Y0037884D01*
X0067112Y0037285D02*
X0085000Y0037285D01*
X0085000Y0036687D02*
X0067112Y0036687D01*
X0067064Y0036088D02*
X0084979Y0036088D01*
X0084892Y0035490D02*
X0066466Y0035490D01*
X0052684Y0047460D02*
X0052505Y0047460D01*
X0053100Y0048657D02*
X0070346Y0048657D01*
X0070346Y0049255D02*
X0053100Y0049255D01*
X0051319Y0046263D02*
X0051308Y0046263D01*
X0050948Y0045664D02*
X0050710Y0045664D01*
X0050698Y0045066D02*
X0050111Y0045066D01*
X0050545Y0044467D02*
X0049513Y0044467D01*
X0047414Y0047460D02*
X0047035Y0047460D01*
X0048013Y0048058D02*
X0039151Y0048058D01*
X0039151Y0047460D02*
X0042778Y0047460D01*
X0042010Y0046861D02*
X0039151Y0046861D01*
X0039151Y0046263D02*
X0041411Y0046263D01*
X0041091Y0045664D02*
X0039151Y0045664D01*
X0039151Y0045066D02*
X0040843Y0045066D01*
X0040638Y0044467D02*
X0039151Y0044467D01*
X0039151Y0043869D02*
X0040638Y0043869D01*
X0040638Y0043270D02*
X0039151Y0043270D01*
X0039151Y0042672D02*
X0040721Y0042672D01*
X0040969Y0042073D02*
X0039151Y0042073D01*
X0038656Y0041475D02*
X0041217Y0041475D01*
X0039151Y0048657D02*
X0048611Y0048657D01*
X0049152Y0054043D02*
X0049500Y0054043D01*
X0042423Y0057036D02*
X0022899Y0057036D01*
X0055274Y0067211D02*
X0058043Y0067211D01*
X0057445Y0067809D02*
X0055274Y0067809D01*
X0055458Y0066612D02*
X0083428Y0066612D01*
X0082945Y0067211D02*
X0084505Y0067211D01*
X0084322Y0067781D02*
X0084322Y0067781D01*
X0084350Y0067809D02*
X0085329Y0067809D01*
X0084949Y0068408D02*
X0086027Y0068408D01*
X0086462Y0069006D02*
X0085547Y0069006D01*
X0086146Y0069605D02*
X0086897Y0069605D01*
X0086495Y0070203D02*
X0087332Y0070203D01*
X0087530Y0070802D02*
X0086743Y0070802D01*
X0086991Y0071400D02*
X0087725Y0071400D01*
X0087919Y0071999D02*
X0087239Y0071999D01*
X0087400Y0072597D02*
X0088105Y0072597D01*
X0088152Y0073196D02*
X0087400Y0073196D01*
X0087400Y0073794D02*
X0088200Y0073794D01*
X0088200Y0074393D02*
X0087400Y0074393D01*
X0087400Y0074991D02*
X0088200Y0074991D01*
X0088200Y0075590D02*
X0087400Y0075590D01*
X0087400Y0076188D02*
X0088200Y0076188D01*
X0088200Y0076787D02*
X0087400Y0076787D01*
X0087400Y0077385D02*
X0088200Y0077385D01*
X0088200Y0077984D02*
X0087400Y0077984D01*
X0087400Y0078582D02*
X0088200Y0078582D01*
X0088200Y0079181D02*
X0087400Y0079181D01*
X0087400Y0079779D02*
X0088200Y0079779D01*
X0088200Y0080378D02*
X0087400Y0080378D01*
X0087400Y0080976D02*
X0088200Y0080976D01*
X0088200Y0081575D02*
X0087400Y0081575D01*
X0087400Y0082173D02*
X0088200Y0082173D01*
X0088200Y0082772D02*
X0087400Y0082772D01*
X0087400Y0083370D02*
X0088200Y0083370D01*
X0088200Y0083969D02*
X0087400Y0083969D01*
X0087400Y0084568D02*
X0088200Y0084568D01*
X0088200Y0085166D02*
X0087400Y0085166D01*
X0087400Y0085765D02*
X0088200Y0085765D01*
X0088200Y0086363D02*
X0087400Y0086363D01*
X0087400Y0086962D02*
X0088200Y0086962D01*
X0088200Y0087560D02*
X0087400Y0087560D01*
X0087400Y0088159D02*
X0088200Y0088159D01*
X0088200Y0088757D02*
X0087400Y0088757D01*
X0087400Y0089356D02*
X0088200Y0089356D01*
X0088200Y0089954D02*
X0087400Y0089954D01*
X0087400Y0090553D02*
X0088200Y0090553D01*
X0088200Y0091151D02*
X0087400Y0091151D01*
X0087400Y0091750D02*
X0088200Y0091750D01*
X0088200Y0092348D02*
X0087400Y0092348D01*
X0087400Y0092947D02*
X0088200Y0092947D01*
X0088200Y0093545D02*
X0087400Y0093545D01*
X0087400Y0094144D02*
X0088200Y0094144D01*
X0088200Y0094742D02*
X0087400Y0094742D01*
X0087400Y0095341D02*
X0088253Y0095341D01*
X0088501Y0095939D02*
X0087400Y0095939D01*
X0087400Y0096538D02*
X0088749Y0096538D01*
X0088997Y0097136D02*
X0087400Y0097136D01*
X0087400Y0097735D02*
X0089245Y0097735D01*
X0089792Y0098333D02*
X0087400Y0098333D01*
X0087400Y0098932D02*
X0090391Y0098932D01*
X0090989Y0099530D02*
X0087400Y0099530D01*
X0087400Y0100129D02*
X0092026Y0100129D01*
X0091278Y0099819D02*
X0091278Y0099819D01*
X0093471Y0100727D02*
X0087400Y0100727D01*
X0087400Y0101326D02*
X0136759Y0101326D01*
X0137447Y0101924D02*
X0087400Y0101924D01*
X0087400Y0102523D02*
X0137850Y0102523D01*
X0138098Y0103121D02*
X0087400Y0103121D01*
X0087400Y0103720D02*
X0138192Y0103720D01*
X0138200Y0104318D02*
X0087400Y0104318D01*
X0087400Y0104917D02*
X0138200Y0104917D01*
X0138200Y0105515D02*
X0087400Y0105515D01*
X0087400Y0106114D02*
X0138200Y0106114D01*
X0138200Y0106712D02*
X0087400Y0106712D01*
X0087400Y0107311D02*
X0138200Y0107311D01*
X0138200Y0107909D02*
X0131522Y0107909D01*
X0131471Y0107858D02*
X0133990Y0110377D01*
X0133990Y0113939D01*
X0131471Y0116458D01*
X0127909Y0116458D01*
X0125390Y0113939D01*
X0125390Y0110377D01*
X0127909Y0107858D01*
X0131471Y0107858D01*
X0132121Y0108508D02*
X0138200Y0108508D01*
X0138200Y0109106D02*
X0132719Y0109106D01*
X0133318Y0109705D02*
X0138200Y0109705D01*
X0138200Y0110303D02*
X0133916Y0110303D01*
X0133990Y0110902D02*
X0138200Y0110902D01*
X0138200Y0111501D02*
X0133990Y0111501D01*
X0133990Y0112099D02*
X0138200Y0112099D01*
X0138200Y0112698D02*
X0133990Y0112698D01*
X0133990Y0113296D02*
X0138200Y0113296D01*
X0138200Y0113895D02*
X0133990Y0113895D01*
X0133436Y0114493D02*
X0138200Y0114493D01*
X0138200Y0115092D02*
X0132838Y0115092D01*
X0132239Y0115690D02*
X0138200Y0115690D01*
X0138200Y0116289D02*
X0131641Y0116289D01*
X0131471Y0117858D02*
X0133990Y0120377D01*
X0133990Y0123939D01*
X0131471Y0126458D01*
X0127909Y0126458D01*
X0125390Y0123939D01*
X0125390Y0120377D01*
X0127909Y0117858D01*
X0131471Y0117858D01*
X0131697Y0118084D02*
X0138200Y0118084D01*
X0138200Y0117486D02*
X0087400Y0117486D01*
X0087400Y0118084D02*
X0097683Y0118084D01*
X0097909Y0117858D02*
X0101471Y0117858D01*
X0103990Y0120377D01*
X0103990Y0123939D01*
X0101471Y0126458D01*
X0097909Y0126458D01*
X0095390Y0123939D01*
X0095390Y0120377D01*
X0097909Y0117858D01*
X0097084Y0118683D02*
X0087400Y0118683D01*
X0087400Y0119281D02*
X0096486Y0119281D01*
X0095887Y0119880D02*
X0087400Y0119880D01*
X0087400Y0120478D02*
X0095390Y0120478D01*
X0095390Y0121077D02*
X0087400Y0121077D01*
X0087400Y0121675D02*
X0095390Y0121675D01*
X0095390Y0122274D02*
X0087400Y0122274D01*
X0087400Y0122872D02*
X0095390Y0122872D01*
X0095390Y0123471D02*
X0087400Y0123471D01*
X0087400Y0124069D02*
X0095520Y0124069D01*
X0096118Y0124668D02*
X0087400Y0124668D01*
X0087400Y0125266D02*
X0096717Y0125266D01*
X0097315Y0125865D02*
X0087400Y0125865D01*
X0087400Y0126463D02*
X0138200Y0126463D01*
X0138200Y0125865D02*
X0132064Y0125865D01*
X0132663Y0125266D02*
X0138200Y0125266D01*
X0138200Y0124668D02*
X0133261Y0124668D01*
X0133860Y0124069D02*
X0138200Y0124069D01*
X0138200Y0123471D02*
X0133990Y0123471D01*
X0133990Y0122872D02*
X0138200Y0122872D01*
X0138200Y0122274D02*
X0133990Y0122274D01*
X0133990Y0121675D02*
X0138200Y0121675D01*
X0138200Y0121077D02*
X0133990Y0121077D01*
X0133990Y0120478D02*
X0138200Y0120478D01*
X0138200Y0119880D02*
X0133492Y0119880D01*
X0132894Y0119281D02*
X0138200Y0119281D01*
X0138200Y0118683D02*
X0132295Y0118683D01*
X0127683Y0118084D02*
X0121697Y0118084D01*
X0121471Y0117858D02*
X0123990Y0120377D01*
X0123990Y0123939D01*
X0121471Y0126458D01*
X0117909Y0126458D01*
X0115390Y0123939D01*
X0115390Y0120377D01*
X0117909Y0117858D01*
X0121471Y0117858D01*
X0122295Y0118683D02*
X0127084Y0118683D01*
X0126486Y0119281D02*
X0122894Y0119281D01*
X0123492Y0119880D02*
X0125887Y0119880D01*
X0125390Y0120478D02*
X0123990Y0120478D01*
X0123990Y0121077D02*
X0125390Y0121077D01*
X0125390Y0121675D02*
X0123990Y0121675D01*
X0123990Y0122274D02*
X0125390Y0122274D01*
X0125390Y0122872D02*
X0123990Y0122872D01*
X0123990Y0123471D02*
X0125390Y0123471D01*
X0125520Y0124069D02*
X0123860Y0124069D01*
X0123261Y0124668D02*
X0126118Y0124668D01*
X0126717Y0125266D02*
X0122663Y0125266D01*
X0122064Y0125865D02*
X0127315Y0125865D01*
X0117315Y0125865D02*
X0112064Y0125865D01*
X0111471Y0126458D02*
X0113990Y0123939D01*
X0113990Y0120377D01*
X0111471Y0117858D01*
X0107909Y0117858D01*
X0105390Y0120377D01*
X0105390Y0123939D01*
X0107909Y0126458D01*
X0111471Y0126458D01*
X0112663Y0125266D02*
X0116717Y0125266D01*
X0116118Y0124668D02*
X0113261Y0124668D01*
X0113860Y0124069D02*
X0115520Y0124069D01*
X0115390Y0123471D02*
X0113990Y0123471D01*
X0113990Y0122872D02*
X0115390Y0122872D01*
X0115390Y0122274D02*
X0113990Y0122274D01*
X0113990Y0121675D02*
X0115390Y0121675D01*
X0115390Y0121077D02*
X0113990Y0121077D01*
X0113990Y0120478D02*
X0115390Y0120478D01*
X0115887Y0119880D02*
X0113492Y0119880D01*
X0112894Y0119281D02*
X0116486Y0119281D01*
X0117084Y0118683D02*
X0112295Y0118683D01*
X0111697Y0118084D02*
X0117683Y0118084D01*
X0117909Y0116458D02*
X0115390Y0113939D01*
X0115390Y0110377D01*
X0117909Y0107858D01*
X0121471Y0107858D01*
X0123990Y0110377D01*
X0123990Y0113939D01*
X0121471Y0116458D01*
X0117909Y0116458D01*
X0117739Y0116289D02*
X0111641Y0116289D01*
X0111471Y0116458D02*
X0113990Y0113939D01*
X0113990Y0110377D01*
X0111471Y0107858D01*
X0107909Y0107858D01*
X0105390Y0110377D01*
X0105390Y0113939D01*
X0107909Y0116458D01*
X0111471Y0116458D01*
X0112239Y0115690D02*
X0117140Y0115690D01*
X0116542Y0115092D02*
X0112838Y0115092D01*
X0113436Y0114493D02*
X0115943Y0114493D01*
X0115390Y0113895D02*
X0113990Y0113895D01*
X0113990Y0113296D02*
X0115390Y0113296D01*
X0115390Y0112698D02*
X0113990Y0112698D01*
X0113990Y0112099D02*
X0115390Y0112099D01*
X0115390Y0111501D02*
X0113990Y0111501D01*
X0113990Y0110902D02*
X0115390Y0110902D01*
X0115463Y0110303D02*
X0113916Y0110303D01*
X0113318Y0109705D02*
X0116062Y0109705D01*
X0116660Y0109106D02*
X0112719Y0109106D01*
X0112121Y0108508D02*
X0117259Y0108508D01*
X0117857Y0107909D02*
X0111522Y0107909D01*
X0107857Y0107909D02*
X0101522Y0107909D01*
X0101471Y0107858D02*
X0103990Y0110377D01*
X0103990Y0111858D01*
X0099990Y0111858D01*
X0099990Y0112458D01*
X0103990Y0112458D01*
X0103990Y0113939D01*
X0101471Y0116458D01*
X0099990Y0116458D01*
X0099990Y0112458D01*
X0099390Y0112458D01*
X0099390Y0111858D01*
X0099990Y0111858D01*
X0099990Y0107858D01*
X0101471Y0107858D01*
X0102121Y0108508D02*
X0107259Y0108508D01*
X0106660Y0109106D02*
X0102719Y0109106D01*
X0103318Y0109705D02*
X0106062Y0109705D01*
X0105463Y0110303D02*
X0103916Y0110303D01*
X0103990Y0110902D02*
X0105390Y0110902D01*
X0105390Y0111501D02*
X0103990Y0111501D01*
X0103990Y0112698D02*
X0105390Y0112698D01*
X0105390Y0113296D02*
X0103990Y0113296D01*
X0103990Y0113895D02*
X0105390Y0113895D01*
X0105943Y0114493D02*
X0103436Y0114493D01*
X0102838Y0115092D02*
X0106542Y0115092D01*
X0107140Y0115690D02*
X0102239Y0115690D01*
X0101641Y0116289D02*
X0107739Y0116289D01*
X0107683Y0118084D02*
X0101697Y0118084D01*
X0102295Y0118683D02*
X0107084Y0118683D01*
X0106486Y0119281D02*
X0102894Y0119281D01*
X0103492Y0119880D02*
X0105887Y0119880D01*
X0105390Y0120478D02*
X0103990Y0120478D01*
X0103990Y0121077D02*
X0105390Y0121077D01*
X0105390Y0121675D02*
X0103990Y0121675D01*
X0103990Y0122274D02*
X0105390Y0122274D01*
X0105390Y0122872D02*
X0103990Y0122872D01*
X0103990Y0123471D02*
X0105390Y0123471D01*
X0105520Y0124069D02*
X0103860Y0124069D01*
X0103261Y0124668D02*
X0106118Y0124668D01*
X0106717Y0125266D02*
X0102663Y0125266D01*
X0102064Y0125865D02*
X0107315Y0125865D01*
X0110782Y0131850D02*
X0138200Y0131850D01*
X0138200Y0132448D02*
X0112624Y0132448D01*
X0113213Y0132640D02*
X0113213Y0132640D01*
X0113773Y0133047D02*
X0138200Y0133047D01*
X0138200Y0133645D02*
X0114597Y0133645D01*
X0115421Y0134244D02*
X0138200Y0134244D01*
X0138200Y0134842D02*
X0115975Y0134842D01*
X0116409Y0135441D02*
X0138200Y0135441D01*
X0138200Y0136039D02*
X0116844Y0136039D01*
X0117279Y0136638D02*
X0138200Y0136638D01*
X0138200Y0137237D02*
X0117574Y0137237D01*
X0117768Y0137835D02*
X0138200Y0137835D01*
X0136336Y0138434D02*
X0117963Y0138434D01*
X0118157Y0139032D02*
X0135953Y0139032D01*
X0135953Y0139631D02*
X0118352Y0139631D01*
X0118400Y0140229D02*
X0135953Y0140229D01*
X0135953Y0140828D02*
X0118400Y0140828D01*
X0118400Y0141426D02*
X0135953Y0141426D01*
X0135953Y0142025D02*
X0118400Y0142025D01*
X0118400Y0142623D02*
X0135661Y0142623D01*
X0132060Y0143222D02*
X0118400Y0143222D01*
X0118400Y0143820D02*
X0131835Y0143820D01*
X0131835Y0144419D02*
X0118400Y0144419D01*
X0118400Y0145017D02*
X0131835Y0145017D01*
X0131835Y0145616D02*
X0118400Y0145616D01*
X0118400Y0146214D02*
X0131835Y0146214D01*
X0131835Y0146813D02*
X0118400Y0146813D01*
X0118400Y0147411D02*
X0131835Y0147411D01*
X0131835Y0148010D02*
X0118400Y0148010D01*
X0118400Y0148608D02*
X0131982Y0148608D01*
X0132581Y0149207D02*
X0118195Y0149207D01*
X0117947Y0149805D02*
X0132169Y0149805D01*
X0132094Y0149880D02*
X0132336Y0149638D01*
X0132633Y0149467D01*
X0132963Y0149378D01*
X0135000Y0149378D01*
X0135000Y0152346D01*
X0135600Y0152346D01*
X0135600Y0149378D01*
X0137637Y0149378D01*
X0137967Y0149467D01*
X0138264Y0149638D01*
X0138506Y0149880D01*
X0138677Y0150176D01*
X0138765Y0150507D01*
X0138765Y0152346D01*
X0135600Y0152346D01*
X0135600Y0152946D01*
X0138765Y0152946D01*
X0138765Y0154786D01*
X0138677Y0155117D01*
X0138506Y0155413D01*
X0138264Y0155655D01*
X0137967Y0155826D01*
X0137637Y0155915D01*
X0135600Y0155915D01*
X0135600Y0152946D01*
X0135000Y0152946D01*
X0135000Y0152346D01*
X0131835Y0152346D01*
X0131835Y0150507D01*
X0131923Y0150176D01*
X0132094Y0149880D01*
X0131862Y0150404D02*
X0117699Y0150404D01*
X0117451Y0151002D02*
X0131835Y0151002D01*
X0131835Y0151601D02*
X0117040Y0151601D01*
X0117319Y0151322D02*
X0117319Y0151322D01*
X0116442Y0152199D02*
X0131835Y0152199D01*
X0131835Y0152946D02*
X0135000Y0152946D01*
X0135000Y0155915D01*
X0132963Y0155915D01*
X0132633Y0155826D01*
X0132336Y0155655D01*
X0132094Y0155413D01*
X0131923Y0155117D01*
X0131835Y0154786D01*
X0131835Y0152946D01*
X0131835Y0153396D02*
X0115135Y0153396D01*
X0115843Y0152798D02*
X0135000Y0152798D01*
X0135000Y0153396D02*
X0135600Y0153396D01*
X0135600Y0152798D02*
X0155638Y0152798D01*
X0155638Y0153396D02*
X0138765Y0153396D01*
X0138765Y0153995D02*
X0155638Y0153995D01*
X0155638Y0154593D02*
X0138765Y0154593D01*
X0138633Y0155192D02*
X0155638Y0155192D01*
X0155638Y0155790D02*
X0138029Y0155790D01*
X0137082Y0156008D02*
X0140102Y0156008D01*
X0140102Y0158976D01*
X0140702Y0158976D01*
X0140702Y0156008D01*
X0143723Y0156008D01*
X0144054Y0156096D01*
X0144350Y0156268D01*
X0144592Y0156510D01*
X0144763Y0156806D01*
X0144852Y0157137D01*
X0144852Y0158976D01*
X0140702Y0158976D01*
X0140702Y0159576D01*
X0140102Y0159576D01*
X0140102Y0158976D01*
X0135953Y0158976D01*
X0135953Y0157137D01*
X0136041Y0156806D01*
X0136213Y0156510D01*
X0136455Y0156268D01*
X0136751Y0156096D01*
X0137082Y0156008D01*
X0136333Y0156389D02*
X0109181Y0156389D01*
X0108582Y0156987D02*
X0135993Y0156987D01*
X0135953Y0157586D02*
X0107984Y0157586D01*
X0107647Y0158184D02*
X0135953Y0158184D01*
X0135953Y0158783D02*
X0107647Y0158783D01*
X0107647Y0159381D02*
X0140102Y0159381D01*
X0140102Y0159576D02*
X0135953Y0159576D01*
X0135953Y0161416D01*
X0136041Y0161747D01*
X0136213Y0162043D01*
X0136455Y0162285D01*
X0136751Y0162456D01*
X0137082Y0162545D01*
X0140102Y0162545D01*
X0140102Y0159576D01*
X0140102Y0159980D02*
X0140702Y0159980D01*
X0140702Y0159576D02*
X0140702Y0162545D01*
X0143723Y0162545D01*
X0144054Y0162456D01*
X0144350Y0162285D01*
X0144592Y0162043D01*
X0144763Y0161747D01*
X0144852Y0161416D01*
X0144852Y0159576D01*
X0140702Y0159576D01*
X0140702Y0159381D02*
X0155638Y0159381D01*
X0155638Y0158783D02*
X0144852Y0158783D01*
X0144852Y0158184D02*
X0155638Y0158184D01*
X0155638Y0157586D02*
X0144852Y0157586D01*
X0144812Y0156987D02*
X0155638Y0156987D01*
X0155638Y0156389D02*
X0144471Y0156389D01*
X0144852Y0159980D02*
X0155638Y0159980D01*
X0155638Y0160578D02*
X0144852Y0160578D01*
X0144852Y0161177D02*
X0155638Y0161177D01*
X0155638Y0161468D02*
X0155638Y0139132D01*
X0156399Y0138370D01*
X0167274Y0138370D01*
X0164890Y0135986D01*
X0160037Y0135986D01*
X0159276Y0135224D01*
X0159276Y0124699D01*
X0160037Y0123937D01*
X0170563Y0123937D01*
X0171324Y0124699D01*
X0171324Y0129551D01*
X0174141Y0132368D01*
X0178956Y0132368D01*
X0180042Y0131918D01*
X0178205Y0131157D01*
X0176798Y0129750D01*
X0176037Y0127913D01*
X0176037Y0125924D01*
X0176798Y0124086D01*
X0178205Y0122679D01*
X0180042Y0121918D01*
X0180187Y0121918D01*
X0180187Y0118185D01*
X0179191Y0117189D01*
X0171324Y0117189D01*
X0171324Y0117901D01*
X0170563Y0118663D01*
X0160037Y0118663D01*
X0159276Y0117901D01*
X0159276Y0107856D01*
X0157574Y0107856D01*
X0157243Y0107767D01*
X0156947Y0107596D01*
X0156705Y0107354D01*
X0156533Y0107058D01*
X0156445Y0106727D01*
X0156445Y0104100D01*
X0160594Y0104100D01*
X0160594Y0103500D01*
X0156445Y0103500D01*
X0156445Y0101256D01*
X0155856Y0101845D01*
X0155856Y0106583D01*
X0155094Y0107344D01*
X0148506Y0107344D01*
X0147744Y0106583D01*
X0147744Y0099206D01*
X0148251Y0098700D01*
X0146129Y0098700D01*
X0145798Y0098611D01*
X0145502Y0098440D01*
X0145260Y0098198D01*
X0145089Y0097902D01*
X0145000Y0097571D01*
X0145000Y0093300D01*
X0148400Y0093300D01*
X0148400Y0092700D01*
X0149000Y0092700D01*
X0149000Y0093300D01*
X0152400Y0093300D01*
X0152400Y0097099D01*
X0154100Y0095399D01*
X0154100Y0088062D01*
X0154862Y0087300D01*
X0155500Y0087300D01*
X0155500Y0085944D01*
X0155436Y0085880D01*
X0155011Y0084855D01*
X0155011Y0083745D01*
X0155436Y0082720D01*
X0155500Y0082656D01*
X0155500Y0082444D01*
X0155436Y0082380D01*
X0155011Y0081355D01*
X0155011Y0080245D01*
X0155436Y0079220D01*
X0155500Y0079156D01*
X0155500Y0078944D01*
X0155436Y0078880D01*
X0155011Y0077855D01*
X0155011Y0076745D01*
X0155436Y0075720D01*
X0155500Y0075656D01*
X0155500Y0074230D01*
X0150175Y0074230D01*
X0149413Y0073468D01*
X0149413Y0063730D01*
X0149788Y0063356D01*
X0149574Y0063356D01*
X0149243Y0063267D01*
X0148947Y0063096D01*
X0148705Y0062854D01*
X0148533Y0062558D01*
X0148445Y0062227D01*
X0148445Y0059600D01*
X0152594Y0059600D01*
X0152594Y0059000D01*
X0148445Y0059000D01*
X0148445Y0056373D01*
X0148533Y0056042D01*
X0148705Y0055746D01*
X0148947Y0055504D01*
X0149243Y0055333D01*
X0149574Y0055244D01*
X0152595Y0055244D01*
X0152595Y0059000D01*
X0153194Y0059000D01*
X0153194Y0055244D01*
X0154283Y0055244D01*
X0154283Y0041970D01*
X0155045Y0041209D01*
X0168390Y0041209D01*
X0169151Y0041970D01*
X0169151Y0055315D01*
X0168808Y0055658D01*
X0169155Y0056006D01*
X0169155Y0057200D01*
X0172531Y0057200D01*
X0172488Y0057182D01*
X0171288Y0055982D01*
X0170638Y0054413D01*
X0170638Y0052715D01*
X0171288Y0051146D01*
X0172488Y0049945D01*
X0174057Y0049295D01*
X0175755Y0049295D01*
X0177324Y0049945D01*
X0177580Y0050201D01*
X0177947Y0049835D01*
X0182961Y0049835D01*
X0183722Y0050596D01*
X0183722Y0056004D01*
X0182961Y0056765D01*
X0177947Y0056765D01*
X0177844Y0056663D01*
X0177324Y0057182D01*
X0175755Y0057832D01*
X0174057Y0057832D01*
X0173756Y0057708D01*
X0174479Y0058430D01*
X0174604Y0058555D01*
X0178590Y0058555D01*
X0179352Y0059317D01*
X0179352Y0064331D01*
X0178590Y0065092D01*
X0177802Y0065092D01*
X0177802Y0068774D01*
X0177361Y0069840D01*
X0176545Y0070656D01*
X0175258Y0071943D01*
X0171443Y0075758D01*
X0170377Y0076200D01*
X0169223Y0076200D01*
X0168157Y0075758D01*
X0167341Y0074943D01*
X0166900Y0073877D01*
X0166900Y0072723D01*
X0167341Y0071657D01*
X0171157Y0067841D01*
X0172002Y0066996D01*
X0172002Y0065092D01*
X0171214Y0065092D01*
X0170453Y0064331D01*
X0170453Y0061400D01*
X0169155Y0061400D01*
X0169155Y0062594D01*
X0168394Y0063356D01*
X0165812Y0063356D01*
X0166187Y0063730D01*
X0166187Y0073468D01*
X0165425Y0074230D01*
X0160100Y0074230D01*
X0160100Y0075656D01*
X0160164Y0075720D01*
X0160589Y0076745D01*
X0160589Y0077855D01*
X0160164Y0078880D01*
X0160100Y0078944D01*
X0160100Y0079156D01*
X0160164Y0079220D01*
X0160589Y0080245D01*
X0160589Y0081355D01*
X0160164Y0082380D01*
X0160100Y0082444D01*
X0160100Y0082656D01*
X0160164Y0082720D01*
X0160589Y0083745D01*
X0160589Y0084855D01*
X0160164Y0085880D01*
X0160100Y0085944D01*
X0160100Y0087300D01*
X0160738Y0087300D01*
X0161500Y0088062D01*
X0161500Y0097938D01*
X0160738Y0098700D01*
X0159001Y0098700D01*
X0157957Y0099744D01*
X0160595Y0099744D01*
X0160595Y0103500D01*
X0161194Y0103500D01*
X0161194Y0099744D01*
X0164215Y0099744D01*
X0164546Y0099833D01*
X0164842Y0100004D01*
X0165084Y0100246D01*
X0165255Y0100542D01*
X0165344Y0100873D01*
X0165344Y0103500D01*
X0161195Y0103500D01*
X0161195Y0104100D01*
X0165344Y0104100D01*
X0165344Y0106614D01*
X0168256Y0106614D01*
X0168256Y0100506D01*
X0169017Y0099744D01*
X0169543Y0099744D01*
X0168499Y0098700D01*
X0163962Y0098700D01*
X0163200Y0097938D01*
X0163200Y0088062D01*
X0163962Y0087300D01*
X0164000Y0087300D01*
X0164000Y0083123D01*
X0164441Y0082057D01*
X0169181Y0077318D01*
X0170247Y0076876D01*
X0170846Y0076876D01*
X0171214Y0076508D01*
X0178590Y0076508D01*
X0179352Y0077269D01*
X0179352Y0077876D01*
X0181537Y0077876D01*
X0185246Y0074167D01*
X0185246Y0056765D01*
X0184639Y0056765D01*
X0183878Y0056004D01*
X0183878Y0050596D01*
X0184639Y0049835D01*
X0189653Y0049835D01*
X0190415Y0050596D01*
X0190415Y0052646D01*
X0190428Y0052564D01*
X0190636Y0051925D01*
X0190941Y0051327D01*
X0191336Y0050783D01*
X0191811Y0050308D01*
X0192354Y0049913D01*
X0192953Y0049608D01*
X0193592Y0049400D01*
X0194255Y0049295D01*
X0194291Y0049295D01*
X0194291Y0053264D01*
X0194891Y0053264D01*
X0194891Y0049295D01*
X0194927Y0049295D01*
X0195591Y0049400D01*
X0196230Y0049608D01*
X0196829Y0049913D01*
X0197372Y0050308D01*
X0197847Y0050783D01*
X0198242Y0051327D01*
X0198547Y0051925D01*
X0198755Y0052564D01*
X0198860Y0053228D01*
X0198860Y0053264D01*
X0194891Y0053264D01*
X0194891Y0053864D01*
X0194291Y0053864D01*
X0194291Y0057832D01*
X0194255Y0057832D01*
X0193592Y0057727D01*
X0192953Y0057520D01*
X0192354Y0057215D01*
X0191811Y0056820D01*
X0191336Y0056345D01*
X0190941Y0055801D01*
X0190636Y0055202D01*
X0190428Y0054563D01*
X0190415Y0054481D01*
X0190415Y0056004D01*
X0189653Y0056765D01*
X0189046Y0056765D01*
X0189046Y0075741D01*
X0183111Y0081676D01*
X0180904Y0081676D01*
X0181627Y0082400D01*
X0183877Y0082400D01*
X0184943Y0082841D01*
X0185758Y0083657D01*
X0186200Y0084723D01*
X0186200Y0085877D01*
X0185758Y0086943D01*
X0184943Y0087758D01*
X0183877Y0088200D01*
X0179849Y0088200D01*
X0178783Y0087758D01*
X0177967Y0086943D01*
X0174470Y0083445D01*
X0174070Y0083045D01*
X0171656Y0083045D01*
X0169800Y0084901D01*
X0169800Y0087300D01*
X0169838Y0087300D01*
X0170600Y0088062D01*
X0170600Y0092599D01*
X0174348Y0096347D01*
X0175164Y0097163D01*
X0175605Y0098229D01*
X0175605Y0099744D01*
X0176394Y0099744D01*
X0177155Y0100506D01*
X0177155Y0102150D01*
X0178205Y0101101D01*
X0180042Y0100339D01*
X0189432Y0100339D01*
X0191269Y0101101D01*
X0192676Y0102507D01*
X0193437Y0104345D01*
X0193437Y0106334D01*
X0192676Y0108172D01*
X0191269Y0109578D01*
X0189432Y0110339D01*
X0189287Y0110339D01*
X0189287Y0121918D01*
X0189432Y0121918D01*
X0191269Y0122679D01*
X0192676Y0124086D01*
X0193437Y0125924D01*
X0193437Y0127913D01*
X0192676Y0129750D01*
X0191269Y0131157D01*
X0189432Y0131918D01*
X0180042Y0131918D01*
X0189432Y0131918D01*
X0191269Y0132679D01*
X0192676Y0134086D01*
X0193437Y0135924D01*
X0193437Y0137913D01*
X0192676Y0139750D01*
X0191269Y0141157D01*
X0189432Y0141918D01*
X0182647Y0141918D01*
X0182647Y0161468D01*
X0181886Y0162230D01*
X0156399Y0162230D01*
X0155638Y0161468D01*
X0155945Y0161775D02*
X0144747Y0161775D01*
X0144196Y0162374D02*
X0202930Y0162374D01*
X0203115Y0162558D02*
X0201364Y0160808D01*
X0200417Y0158522D01*
X0200417Y0156047D01*
X0201364Y0153760D01*
X0203115Y0152010D01*
X0205401Y0151063D01*
X0207876Y0151063D01*
X0210163Y0152010D01*
X0211913Y0153760D01*
X0212860Y0156047D01*
X0212860Y0158522D01*
X0211913Y0160808D01*
X0210163Y0162558D01*
X0207876Y0163505D01*
X0205401Y0163505D01*
X0203115Y0162558D01*
X0204114Y0162972D02*
X0035665Y0162972D01*
X0036665Y0162558D02*
X0034378Y0163505D01*
X0031903Y0163505D01*
X0029617Y0162558D01*
X0027867Y0160808D01*
X0026920Y0158522D01*
X0026920Y0156047D01*
X0027867Y0153760D01*
X0029617Y0152010D01*
X0031903Y0151063D01*
X0034378Y0151063D01*
X0036665Y0152010D01*
X0038415Y0153760D01*
X0039362Y0156047D01*
X0039362Y0158522D01*
X0038415Y0160808D01*
X0036665Y0162558D01*
X0036849Y0162374D02*
X0099339Y0162374D01*
X0098748Y0161775D02*
X0087655Y0161775D01*
X0087962Y0161468D02*
X0087201Y0162230D01*
X0061714Y0162230D01*
X0060953Y0161468D01*
X0060953Y0139132D01*
X0061714Y0138370D01*
X0069750Y0138370D01*
X0069750Y0135986D01*
X0069037Y0135986D01*
X0068276Y0135224D01*
X0068276Y0133468D01*
X0061077Y0133468D01*
X0059991Y0133918D01*
X0050601Y0133918D01*
X0048764Y0133157D01*
X0047357Y0131750D01*
X0046596Y0129913D01*
X0046596Y0127924D01*
X0047357Y0126086D01*
X0048764Y0124679D01*
X0050601Y0123918D01*
X0048764Y0123157D01*
X0047357Y0121750D01*
X0046596Y0119913D01*
X0046596Y0117924D01*
X0047357Y0116086D01*
X0048764Y0114679D01*
X0050601Y0113918D01*
X0059991Y0113918D01*
X0061077Y0114368D01*
X0066136Y0114368D01*
X0068276Y0112228D01*
X0068276Y0107376D01*
X0069037Y0106614D01*
X0079563Y0106614D01*
X0080324Y0107376D01*
X0080324Y0117901D01*
X0079563Y0118663D01*
X0074710Y0118663D01*
X0070598Y0122775D01*
X0068926Y0123468D01*
X0061077Y0123468D01*
X0059991Y0123918D01*
X0061077Y0124368D01*
X0068606Y0124368D01*
X0069037Y0123937D01*
X0079563Y0123937D01*
X0080324Y0124699D01*
X0080324Y0135224D01*
X0079563Y0135986D01*
X0078850Y0135986D01*
X0078850Y0138370D01*
X0087201Y0138370D01*
X0087962Y0139132D01*
X0087962Y0161468D01*
X0087962Y0161177D02*
X0098748Y0161177D01*
X0098748Y0160578D02*
X0087962Y0160578D01*
X0087962Y0159980D02*
X0098748Y0159980D01*
X0098748Y0159381D02*
X0087962Y0159381D01*
X0087962Y0158783D02*
X0098748Y0158783D01*
X0098748Y0158184D02*
X0087962Y0158184D01*
X0087962Y0157586D02*
X0098748Y0157586D01*
X0098748Y0156987D02*
X0087962Y0156987D01*
X0087962Y0156389D02*
X0099129Y0156389D01*
X0103714Y0155790D02*
X0087962Y0155790D01*
X0087962Y0155192D02*
X0104312Y0155192D01*
X0104835Y0154593D02*
X0087962Y0154593D01*
X0087962Y0153995D02*
X0104835Y0153995D01*
X0104835Y0153396D02*
X0087962Y0153396D01*
X0087962Y0152798D02*
X0104835Y0152798D01*
X0104835Y0152199D02*
X0087962Y0152199D01*
X0087962Y0151601D02*
X0104835Y0151601D01*
X0104835Y0151002D02*
X0087962Y0151002D01*
X0087962Y0150404D02*
X0104835Y0150404D01*
X0105169Y0149805D02*
X0087962Y0149805D01*
X0087962Y0149207D02*
X0105906Y0149207D01*
X0105963Y0149222D02*
X0105633Y0149133D01*
X0105336Y0148962D01*
X0105094Y0148720D01*
X0104923Y0148424D01*
X0104835Y0148093D01*
X0104835Y0146254D01*
X0108000Y0146254D01*
X0108000Y0149222D01*
X0105963Y0149222D01*
X0105030Y0148608D02*
X0087962Y0148608D01*
X0087962Y0148010D02*
X0104835Y0148010D01*
X0104835Y0147411D02*
X0087962Y0147411D01*
X0087962Y0146813D02*
X0104835Y0146813D01*
X0104835Y0145654D02*
X0104835Y0144592D01*
X0103498Y0144592D01*
X0103498Y0141624D01*
X0102898Y0141624D01*
X0102898Y0144592D01*
X0099877Y0144592D01*
X0099546Y0144504D01*
X0099250Y0144332D01*
X0099008Y0144090D01*
X0098837Y0143794D01*
X0098748Y0143463D01*
X0098748Y0141624D01*
X0102898Y0141624D01*
X0102898Y0141024D01*
X0103498Y0141024D01*
X0103498Y0141624D01*
X0107647Y0141624D01*
X0107647Y0142685D01*
X0108000Y0142685D01*
X0108000Y0145653D01*
X0108600Y0145653D01*
X0108600Y0142685D01*
X0110637Y0142685D01*
X0110967Y0142774D01*
X0111264Y0142945D01*
X0111506Y0143187D01*
X0111677Y0143483D01*
X0111765Y0143814D01*
X0111765Y0145654D01*
X0108600Y0145654D01*
X0108600Y0146254D01*
X0108000Y0146254D01*
X0108000Y0145654D01*
X0104835Y0145654D01*
X0104835Y0145616D02*
X0087962Y0145616D01*
X0087962Y0146214D02*
X0108000Y0146214D01*
X0108000Y0145616D02*
X0108600Y0145616D01*
X0108600Y0146214D02*
X0114200Y0146214D01*
X0114200Y0145616D02*
X0111765Y0145616D01*
X0111765Y0145017D02*
X0114200Y0145017D01*
X0114200Y0144419D02*
X0111765Y0144419D01*
X0111765Y0143820D02*
X0114200Y0143820D01*
X0114200Y0143222D02*
X0111526Y0143222D01*
X0114200Y0142623D02*
X0107647Y0142623D01*
X0107647Y0142025D02*
X0114200Y0142025D01*
X0114200Y0141426D02*
X0103498Y0141426D01*
X0103498Y0141024D02*
X0107647Y0141024D01*
X0107647Y0139184D01*
X0107559Y0138853D01*
X0107387Y0138557D01*
X0107145Y0138315D01*
X0106849Y0138144D01*
X0106518Y0138055D01*
X0103498Y0138055D01*
X0103498Y0141024D01*
X0103498Y0140828D02*
X0102898Y0140828D01*
X0102898Y0141024D02*
X0102898Y0138055D01*
X0099877Y0138055D01*
X0099546Y0138144D01*
X0099250Y0138315D01*
X0099008Y0138557D01*
X0098837Y0138853D01*
X0098748Y0139184D01*
X0098748Y0141024D01*
X0102898Y0141024D01*
X0102898Y0141426D02*
X0087962Y0141426D01*
X0087962Y0140828D02*
X0098748Y0140828D01*
X0098748Y0140229D02*
X0087962Y0140229D01*
X0087962Y0139631D02*
X0098748Y0139631D01*
X0098789Y0139032D02*
X0087863Y0139032D01*
X0087264Y0138434D02*
X0099131Y0138434D01*
X0098748Y0142025D02*
X0087962Y0142025D01*
X0087962Y0142623D02*
X0098748Y0142623D01*
X0098748Y0143222D02*
X0087962Y0143222D01*
X0087962Y0143820D02*
X0098852Y0143820D01*
X0099399Y0144419D02*
X0087962Y0144419D01*
X0087962Y0145017D02*
X0104835Y0145017D01*
X0103498Y0144419D02*
X0102898Y0144419D01*
X0102898Y0143820D02*
X0103498Y0143820D01*
X0103498Y0143222D02*
X0102898Y0143222D01*
X0102898Y0142623D02*
X0103498Y0142623D01*
X0103498Y0142025D02*
X0102898Y0142025D01*
X0102898Y0140229D02*
X0103498Y0140229D01*
X0103498Y0139631D02*
X0102898Y0139631D01*
X0102898Y0139032D02*
X0103498Y0139032D01*
X0103498Y0138434D02*
X0102898Y0138434D01*
X0107264Y0138434D02*
X0113310Y0138434D01*
X0113671Y0139032D02*
X0107607Y0139032D01*
X0107647Y0139631D02*
X0113866Y0139631D01*
X0114060Y0140229D02*
X0107647Y0140229D01*
X0107647Y0140828D02*
X0114163Y0140828D01*
X0112875Y0137835D02*
X0078850Y0137835D01*
X0078850Y0137237D02*
X0112281Y0137237D01*
X0111457Y0136638D02*
X0078850Y0136638D01*
X0078850Y0136039D02*
X0109869Y0136039D01*
X0108600Y0143222D02*
X0108000Y0143222D01*
X0108000Y0143820D02*
X0108600Y0143820D01*
X0108600Y0144419D02*
X0108000Y0144419D01*
X0108000Y0145017D02*
X0108600Y0145017D01*
X0108600Y0146254D02*
X0111765Y0146254D01*
X0111765Y0148093D01*
X0111677Y0148424D01*
X0111506Y0148720D01*
X0111264Y0148962D01*
X0110967Y0149133D01*
X0110637Y0149222D01*
X0108600Y0149222D01*
X0108600Y0146254D01*
X0108600Y0146813D02*
X0108000Y0146813D01*
X0108000Y0147411D02*
X0108600Y0147411D01*
X0108600Y0148010D02*
X0108000Y0148010D01*
X0108000Y0148608D02*
X0108600Y0148608D01*
X0108600Y0149207D02*
X0108000Y0149207D01*
X0110694Y0149207D02*
X0113416Y0149207D01*
X0113837Y0148608D02*
X0111570Y0148608D01*
X0111765Y0148010D02*
X0114085Y0148010D01*
X0114189Y0147411D02*
X0111765Y0147411D01*
X0111765Y0146813D02*
X0114200Y0146813D01*
X0112684Y0149805D02*
X0111431Y0149805D01*
X0113690Y0153995D02*
X0131835Y0153995D01*
X0131835Y0154593D02*
X0111765Y0154593D01*
X0111727Y0155192D02*
X0131967Y0155192D01*
X0132571Y0155790D02*
X0111128Y0155790D01*
X0107647Y0159980D02*
X0135953Y0159980D01*
X0135953Y0160578D02*
X0107647Y0160578D01*
X0107647Y0161177D02*
X0135953Y0161177D01*
X0136058Y0161775D02*
X0107647Y0161775D01*
X0107057Y0162374D02*
X0136608Y0162374D01*
X0140102Y0162374D02*
X0140702Y0162374D01*
X0140702Y0161775D02*
X0140102Y0161775D01*
X0140102Y0161177D02*
X0140702Y0161177D01*
X0140702Y0160578D02*
X0140102Y0160578D01*
X0140102Y0158783D02*
X0140702Y0158783D01*
X0140702Y0158184D02*
X0140102Y0158184D01*
X0140102Y0157586D02*
X0140702Y0157586D01*
X0140702Y0156987D02*
X0140102Y0156987D01*
X0140102Y0156389D02*
X0140702Y0156389D01*
X0138765Y0152199D02*
X0155638Y0152199D01*
X0155638Y0151601D02*
X0138765Y0151601D01*
X0138765Y0151002D02*
X0155638Y0151002D01*
X0155638Y0150404D02*
X0138738Y0150404D01*
X0138431Y0149805D02*
X0155638Y0149805D01*
X0155638Y0149207D02*
X0138019Y0149207D01*
X0138618Y0148608D02*
X0155638Y0148608D01*
X0155638Y0148010D02*
X0138765Y0148010D01*
X0138765Y0147411D02*
X0155638Y0147411D01*
X0155638Y0146813D02*
X0138765Y0146813D01*
X0138765Y0146214D02*
X0155638Y0146214D01*
X0155638Y0145616D02*
X0138765Y0145616D01*
X0139206Y0145017D02*
X0155638Y0145017D01*
X0155638Y0144419D02*
X0144264Y0144419D01*
X0144852Y0143820D02*
X0155638Y0143820D01*
X0155638Y0143222D02*
X0144852Y0143222D01*
X0144852Y0142623D02*
X0155638Y0142623D01*
X0155638Y0142025D02*
X0144852Y0142025D01*
X0144852Y0141426D02*
X0155638Y0141426D01*
X0155638Y0140828D02*
X0144852Y0140828D01*
X0144852Y0140229D02*
X0155638Y0140229D01*
X0155638Y0139631D02*
X0144852Y0139631D01*
X0144852Y0139032D02*
X0155737Y0139032D01*
X0156336Y0138434D02*
X0144469Y0138434D01*
X0142400Y0137835D02*
X0166739Y0137835D01*
X0166140Y0137237D02*
X0142400Y0137237D01*
X0142400Y0136638D02*
X0165542Y0136638D01*
X0164943Y0136039D02*
X0142400Y0136039D01*
X0142400Y0135441D02*
X0159492Y0135441D01*
X0159276Y0134842D02*
X0142400Y0134842D01*
X0142400Y0134244D02*
X0159276Y0134244D01*
X0159276Y0133645D02*
X0142400Y0133645D01*
X0142400Y0133047D02*
X0159276Y0133047D01*
X0159276Y0132448D02*
X0142400Y0132448D01*
X0142400Y0131850D02*
X0159276Y0131850D01*
X0159276Y0131251D02*
X0142400Y0131251D01*
X0142400Y0130653D02*
X0159276Y0130653D01*
X0159276Y0130054D02*
X0142400Y0130054D01*
X0142400Y0129456D02*
X0159276Y0129456D01*
X0159276Y0128857D02*
X0142400Y0128857D01*
X0142400Y0128259D02*
X0159276Y0128259D01*
X0159276Y0127660D02*
X0142400Y0127660D01*
X0142400Y0127062D02*
X0159276Y0127062D01*
X0159276Y0126463D02*
X0142400Y0126463D01*
X0142400Y0125865D02*
X0159276Y0125865D01*
X0159276Y0125266D02*
X0142400Y0125266D01*
X0142400Y0124668D02*
X0159306Y0124668D01*
X0159905Y0124069D02*
X0142400Y0124069D01*
X0142400Y0123471D02*
X0177413Y0123471D01*
X0176815Y0124069D02*
X0170695Y0124069D01*
X0171294Y0124668D02*
X0176557Y0124668D01*
X0176309Y0125266D02*
X0171324Y0125266D01*
X0171324Y0125865D02*
X0176061Y0125865D01*
X0176037Y0126463D02*
X0171324Y0126463D01*
X0171324Y0127062D02*
X0176037Y0127062D01*
X0176037Y0127660D02*
X0171324Y0127660D01*
X0171324Y0128259D02*
X0176180Y0128259D01*
X0176428Y0128857D02*
X0171324Y0128857D01*
X0171324Y0129456D02*
X0176676Y0129456D01*
X0177102Y0130054D02*
X0171828Y0130054D01*
X0172426Y0130653D02*
X0177701Y0130653D01*
X0178433Y0131251D02*
X0173025Y0131251D01*
X0173623Y0131850D02*
X0179878Y0131850D01*
X0189596Y0131850D02*
X0217150Y0131850D01*
X0217150Y0132448D02*
X0190712Y0132448D01*
X0191637Y0133047D02*
X0217150Y0133047D01*
X0217150Y0133645D02*
X0192235Y0133645D01*
X0192741Y0134244D02*
X0217150Y0134244D01*
X0217150Y0134842D02*
X0192989Y0134842D01*
X0193237Y0135441D02*
X0217150Y0135441D01*
X0217150Y0136039D02*
X0193437Y0136039D01*
X0193437Y0136638D02*
X0217150Y0136638D01*
X0217150Y0137237D02*
X0193437Y0137237D01*
X0193437Y0137835D02*
X0217150Y0137835D01*
X0217150Y0138434D02*
X0193221Y0138434D01*
X0192973Y0139032D02*
X0217150Y0139032D01*
X0217150Y0139631D02*
X0192725Y0139631D01*
X0192197Y0140229D02*
X0217150Y0140229D01*
X0217150Y0140828D02*
X0191599Y0140828D01*
X0190619Y0141426D02*
X0217150Y0141426D01*
X0217150Y0142025D02*
X0182647Y0142025D01*
X0182647Y0142623D02*
X0217150Y0142623D01*
X0217150Y0143222D02*
X0182647Y0143222D01*
X0182647Y0143820D02*
X0217150Y0143820D01*
X0217150Y0144419D02*
X0182647Y0144419D01*
X0182647Y0145017D02*
X0217150Y0145017D01*
X0217150Y0145616D02*
X0182647Y0145616D01*
X0182647Y0146214D02*
X0217150Y0146214D01*
X0217150Y0146813D02*
X0182647Y0146813D01*
X0182647Y0147411D02*
X0217150Y0147411D01*
X0217150Y0148010D02*
X0182647Y0148010D01*
X0182647Y0148608D02*
X0217150Y0148608D01*
X0217150Y0149207D02*
X0182647Y0149207D01*
X0182647Y0149805D02*
X0217150Y0149805D01*
X0217150Y0150404D02*
X0182647Y0150404D01*
X0182647Y0151002D02*
X0217150Y0151002D01*
X0217150Y0151601D02*
X0209174Y0151601D01*
X0210352Y0152199D02*
X0217150Y0152199D01*
X0217150Y0152798D02*
X0210950Y0152798D01*
X0211549Y0153396D02*
X0217150Y0153396D01*
X0217150Y0153995D02*
X0212010Y0153995D01*
X0212258Y0154593D02*
X0217150Y0154593D01*
X0217150Y0155192D02*
X0212506Y0155192D01*
X0212754Y0155790D02*
X0217150Y0155790D01*
X0217150Y0156389D02*
X0212860Y0156389D01*
X0212860Y0156987D02*
X0217150Y0156987D01*
X0217150Y0157586D02*
X0212860Y0157586D01*
X0212860Y0158184D02*
X0217150Y0158184D01*
X0217150Y0158783D02*
X0212752Y0158783D01*
X0212504Y0159381D02*
X0217150Y0159381D01*
X0217150Y0159980D02*
X0212256Y0159980D01*
X0212008Y0160578D02*
X0217150Y0160578D01*
X0217150Y0161177D02*
X0211544Y0161177D01*
X0210946Y0161775D02*
X0217150Y0161775D01*
X0217150Y0162374D02*
X0210347Y0162374D01*
X0209163Y0162972D02*
X0217150Y0162972D01*
X0217150Y0163571D02*
X0022899Y0163571D01*
X0022899Y0162972D02*
X0030617Y0162972D01*
X0029432Y0162374D02*
X0022899Y0162374D01*
X0022899Y0161775D02*
X0028834Y0161775D01*
X0028235Y0161177D02*
X0022899Y0161177D01*
X0022899Y0160578D02*
X0027772Y0160578D01*
X0027524Y0159980D02*
X0022899Y0159980D01*
X0022899Y0159381D02*
X0027276Y0159381D01*
X0027028Y0158783D02*
X0022899Y0158783D01*
X0022899Y0158184D02*
X0026920Y0158184D01*
X0026920Y0157586D02*
X0022899Y0157586D01*
X0022899Y0156987D02*
X0026920Y0156987D01*
X0026920Y0156389D02*
X0022899Y0156389D01*
X0022899Y0155790D02*
X0027026Y0155790D01*
X0027274Y0155192D02*
X0022899Y0155192D01*
X0022899Y0154593D02*
X0027522Y0154593D01*
X0027770Y0153995D02*
X0022899Y0153995D01*
X0022899Y0153396D02*
X0028231Y0153396D01*
X0028829Y0152798D02*
X0022899Y0152798D01*
X0022899Y0152199D02*
X0029428Y0152199D01*
X0030605Y0151601D02*
X0022899Y0151601D01*
X0022899Y0151002D02*
X0060953Y0151002D01*
X0060953Y0150404D02*
X0022899Y0150404D01*
X0022899Y0149805D02*
X0060953Y0149805D01*
X0060953Y0149207D02*
X0022899Y0149207D01*
X0022899Y0148608D02*
X0060953Y0148608D01*
X0060953Y0148010D02*
X0022899Y0148010D01*
X0022899Y0147411D02*
X0060953Y0147411D01*
X0060953Y0146813D02*
X0022899Y0146813D01*
X0022899Y0146214D02*
X0060953Y0146214D01*
X0060953Y0145616D02*
X0022899Y0145616D01*
X0022899Y0145017D02*
X0060953Y0145017D01*
X0060953Y0144419D02*
X0022899Y0144419D01*
X0022899Y0143820D02*
X0060953Y0143820D01*
X0060953Y0143222D02*
X0022899Y0143222D01*
X0022899Y0142623D02*
X0060953Y0142623D01*
X0060953Y0142025D02*
X0022899Y0142025D01*
X0022899Y0141426D02*
X0060953Y0141426D01*
X0060953Y0140828D02*
X0022899Y0140828D01*
X0022899Y0140229D02*
X0060953Y0140229D01*
X0060953Y0139631D02*
X0022899Y0139631D01*
X0022899Y0139032D02*
X0061052Y0139032D01*
X0061651Y0138434D02*
X0029730Y0138434D01*
X0030709Y0137835D02*
X0069750Y0137835D01*
X0069750Y0137237D02*
X0031224Y0137237D01*
X0031472Y0136638D02*
X0069750Y0136638D01*
X0069750Y0136039D02*
X0031589Y0136039D01*
X0031589Y0135441D02*
X0068492Y0135441D01*
X0068276Y0134842D02*
X0031422Y0134842D01*
X0031174Y0134244D02*
X0068276Y0134244D01*
X0068276Y0133645D02*
X0060649Y0133645D01*
X0049943Y0133645D02*
X0030600Y0133645D01*
X0030600Y0133047D02*
X0048654Y0133047D01*
X0048055Y0132448D02*
X0031197Y0132448D01*
X0031796Y0131850D02*
X0047457Y0131850D01*
X0047151Y0131251D02*
X0032394Y0131251D01*
X0032993Y0130653D02*
X0046903Y0130653D01*
X0046655Y0130054D02*
X0033591Y0130054D01*
X0034190Y0129456D02*
X0046596Y0129456D01*
X0046596Y0128857D02*
X0034788Y0128857D01*
X0035387Y0128259D02*
X0040448Y0128259D01*
X0039716Y0127660D02*
X0035985Y0127660D01*
X0036076Y0127062D02*
X0039304Y0127062D01*
X0039056Y0126463D02*
X0036076Y0126463D01*
X0036076Y0125865D02*
X0039011Y0125865D01*
X0039011Y0125266D02*
X0036076Y0125266D01*
X0036076Y0124668D02*
X0039250Y0124668D01*
X0039587Y0124069D02*
X0036076Y0124069D01*
X0036076Y0123471D02*
X0039425Y0123471D01*
X0038827Y0122872D02*
X0036076Y0122872D01*
X0036076Y0122274D02*
X0038228Y0122274D01*
X0037630Y0121675D02*
X0036076Y0121675D01*
X0036076Y0121077D02*
X0037031Y0121077D01*
X0036433Y0120478D02*
X0036076Y0120478D01*
X0032476Y0120478D02*
X0022899Y0120478D01*
X0022899Y0119880D02*
X0032476Y0119880D01*
X0032476Y0119281D02*
X0022899Y0119281D01*
X0022899Y0118683D02*
X0032476Y0118683D01*
X0032476Y0118084D02*
X0029366Y0118084D01*
X0028234Y0118084D02*
X0022899Y0118084D01*
X0022899Y0117486D02*
X0027041Y0117486D01*
X0026443Y0116887D02*
X0022899Y0116887D01*
X0022899Y0116289D02*
X0026191Y0116289D01*
X0026011Y0115690D02*
X0022899Y0115690D01*
X0022899Y0115092D02*
X0026011Y0115092D01*
X0026115Y0114493D02*
X0022899Y0114493D01*
X0022899Y0113895D02*
X0026363Y0113895D01*
X0026700Y0113296D02*
X0022899Y0113296D01*
X0022899Y0112698D02*
X0026700Y0112698D01*
X0026700Y0112099D02*
X0022899Y0112099D01*
X0022899Y0111501D02*
X0026700Y0111501D01*
X0026700Y0110902D02*
X0022899Y0110902D01*
X0022899Y0110303D02*
X0026700Y0110303D01*
X0026700Y0109705D02*
X0022899Y0109705D01*
X0022899Y0109106D02*
X0026700Y0109106D01*
X0026700Y0108508D02*
X0022899Y0108508D01*
X0022899Y0107909D02*
X0026700Y0107909D01*
X0026700Y0107311D02*
X0022899Y0107311D01*
X0022899Y0106712D02*
X0023836Y0106712D01*
X0023170Y0106114D02*
X0022899Y0106114D01*
X0030900Y0106712D02*
X0031876Y0106712D01*
X0031876Y0106114D02*
X0030956Y0106114D01*
X0031554Y0105515D02*
X0031876Y0105515D01*
X0031876Y0107311D02*
X0030900Y0107311D01*
X0030900Y0107909D02*
X0031876Y0107909D01*
X0031876Y0108508D02*
X0030900Y0108508D01*
X0030900Y0109106D02*
X0032244Y0109106D01*
X0032476Y0109705D02*
X0030900Y0109705D01*
X0030900Y0110303D02*
X0032476Y0110303D01*
X0032476Y0110902D02*
X0030900Y0110902D01*
X0030900Y0111501D02*
X0032476Y0111501D01*
X0032476Y0112099D02*
X0030900Y0112099D01*
X0030900Y0112698D02*
X0032476Y0112698D01*
X0032476Y0113296D02*
X0030900Y0113296D01*
X0031237Y0113895D02*
X0032476Y0113895D01*
X0032476Y0114493D02*
X0031485Y0114493D01*
X0031589Y0115092D02*
X0032476Y0115092D01*
X0032476Y0115690D02*
X0031589Y0115690D01*
X0031409Y0116289D02*
X0032476Y0116289D01*
X0032476Y0116887D02*
X0031157Y0116887D01*
X0030559Y0117486D02*
X0032476Y0117486D01*
X0032476Y0121077D02*
X0022899Y0121077D01*
X0022899Y0121675D02*
X0032476Y0121675D01*
X0032476Y0122274D02*
X0022899Y0122274D01*
X0022899Y0122872D02*
X0032476Y0122872D01*
X0032476Y0123471D02*
X0022899Y0123471D01*
X0022899Y0124069D02*
X0032476Y0124069D01*
X0032476Y0124668D02*
X0022899Y0124668D01*
X0022899Y0125266D02*
X0032476Y0125266D01*
X0032476Y0125865D02*
X0022899Y0125865D01*
X0022899Y0126463D02*
X0032091Y0126463D01*
X0031493Y0127062D02*
X0022899Y0127062D01*
X0022899Y0127660D02*
X0030894Y0127660D01*
X0030296Y0128259D02*
X0022899Y0128259D01*
X0022899Y0128857D02*
X0029697Y0128857D01*
X0029099Y0129456D02*
X0022899Y0129456D01*
X0022899Y0130054D02*
X0028500Y0130054D01*
X0027902Y0130653D02*
X0022899Y0130653D01*
X0022899Y0131251D02*
X0027303Y0131251D01*
X0027000Y0131850D02*
X0022899Y0131850D01*
X0022899Y0132448D02*
X0027000Y0132448D01*
X0027000Y0133047D02*
X0022899Y0133047D01*
X0022899Y0133645D02*
X0027000Y0133645D01*
X0026426Y0134244D02*
X0022899Y0134244D01*
X0022899Y0134842D02*
X0026178Y0134842D01*
X0026011Y0135441D02*
X0022899Y0135441D01*
X0022899Y0136039D02*
X0026011Y0136039D01*
X0026128Y0136638D02*
X0022899Y0136638D01*
X0022899Y0137237D02*
X0026376Y0137237D01*
X0026891Y0137835D02*
X0022899Y0137835D01*
X0022899Y0138434D02*
X0027870Y0138434D01*
X0043152Y0128259D02*
X0046596Y0128259D01*
X0046705Y0127660D02*
X0043884Y0127660D01*
X0044296Y0127062D02*
X0046953Y0127062D01*
X0047201Y0126463D02*
X0044544Y0126463D01*
X0044589Y0125865D02*
X0047578Y0125865D01*
X0048177Y0125266D02*
X0044589Y0125266D01*
X0044350Y0124668D02*
X0048792Y0124668D01*
X0049521Y0123471D02*
X0043600Y0123471D01*
X0043600Y0122872D02*
X0048479Y0122872D01*
X0047881Y0122274D02*
X0043319Y0122274D01*
X0042721Y0121675D02*
X0047326Y0121675D01*
X0047078Y0121077D02*
X0042122Y0121077D01*
X0041524Y0120478D02*
X0046830Y0120478D01*
X0046596Y0119880D02*
X0040925Y0119880D01*
X0040327Y0119281D02*
X0046596Y0119281D01*
X0046596Y0118683D02*
X0039728Y0118683D01*
X0039226Y0118084D02*
X0046596Y0118084D01*
X0046777Y0117486D02*
X0039226Y0117486D01*
X0039226Y0116887D02*
X0047025Y0116887D01*
X0047273Y0116289D02*
X0039226Y0116289D01*
X0039226Y0115690D02*
X0047753Y0115690D01*
X0048352Y0115092D02*
X0039226Y0115092D01*
X0039226Y0114493D02*
X0049213Y0114493D01*
X0048300Y0112698D02*
X0047347Y0112698D01*
X0046562Y0113296D02*
X0067208Y0113296D01*
X0067806Y0112698D02*
X0051300Y0112698D01*
X0051945Y0112099D02*
X0068276Y0112099D01*
X0068276Y0111501D02*
X0052321Y0111501D01*
X0052569Y0110902D02*
X0068276Y0110902D01*
X0068276Y0110303D02*
X0066544Y0110303D01*
X0067339Y0109705D02*
X0068276Y0109705D01*
X0068276Y0109106D02*
X0067778Y0109106D01*
X0068026Y0108508D02*
X0068276Y0108508D01*
X0068276Y0107909D02*
X0068089Y0107909D01*
X0068089Y0107311D02*
X0068340Y0107311D01*
X0067868Y0106712D02*
X0068939Y0106712D01*
X0067558Y0106114D02*
X0083200Y0106114D01*
X0083200Y0106712D02*
X0079661Y0106712D01*
X0080260Y0107311D02*
X0083200Y0107311D01*
X0083200Y0107909D02*
X0080324Y0107909D01*
X0080324Y0108508D02*
X0083200Y0108508D01*
X0083200Y0109106D02*
X0080324Y0109106D01*
X0080324Y0109705D02*
X0083200Y0109705D01*
X0083200Y0110303D02*
X0080324Y0110303D01*
X0080324Y0110902D02*
X0083200Y0110902D01*
X0083200Y0111501D02*
X0080324Y0111501D01*
X0080324Y0112099D02*
X0083200Y0112099D01*
X0083200Y0112698D02*
X0080324Y0112698D01*
X0080324Y0113296D02*
X0083200Y0113296D01*
X0083200Y0113895D02*
X0080324Y0113895D01*
X0080324Y0114493D02*
X0083200Y0114493D01*
X0083200Y0115092D02*
X0080324Y0115092D01*
X0080324Y0115690D02*
X0083200Y0115690D01*
X0083200Y0116289D02*
X0080324Y0116289D01*
X0080324Y0116887D02*
X0083200Y0116887D01*
X0083200Y0117486D02*
X0080324Y0117486D01*
X0080142Y0118084D02*
X0083200Y0118084D01*
X0083200Y0118683D02*
X0074691Y0118683D01*
X0074092Y0119281D02*
X0083200Y0119281D01*
X0083200Y0119880D02*
X0073494Y0119880D01*
X0072895Y0120478D02*
X0083200Y0120478D01*
X0083200Y0121077D02*
X0072297Y0121077D01*
X0071698Y0121675D02*
X0083200Y0121675D01*
X0083200Y0122274D02*
X0071100Y0122274D01*
X0070364Y0122872D02*
X0083200Y0122872D01*
X0083200Y0123471D02*
X0061071Y0123471D01*
X0060356Y0124069D02*
X0068905Y0124069D01*
X0059991Y0123918D02*
X0050601Y0123918D01*
X0059991Y0123918D01*
X0050237Y0124069D02*
X0044013Y0124069D01*
X0039226Y0113895D02*
X0066609Y0113895D01*
X0064056Y0110303D02*
X0052589Y0110303D01*
X0052572Y0109705D02*
X0059318Y0109705D01*
X0058662Y0109106D02*
X0058356Y0109106D01*
X0062282Y0109705D02*
X0063261Y0109705D01*
X0067100Y0105515D02*
X0083200Y0105515D01*
X0083200Y0104917D02*
X0067100Y0104917D01*
X0067572Y0104318D02*
X0083200Y0104318D01*
X0083200Y0103720D02*
X0068228Y0103720D01*
X0068885Y0103121D02*
X0083200Y0103121D01*
X0083200Y0102523D02*
X0069541Y0102523D01*
X0067488Y0099523D02*
X0066000Y0100880D01*
X0066000Y0095036D01*
X0065949Y0094985D01*
X0066000Y0094796D01*
X0066000Y0093774D01*
X0062450Y0093774D01*
X0062450Y0093274D01*
X0066000Y0093274D01*
X0066000Y0092700D01*
X0066513Y0092700D01*
X0066900Y0093087D01*
X0067488Y0093675D01*
X0067488Y0094807D01*
X0068231Y0095550D01*
X0067488Y0096293D01*
X0067488Y0099523D01*
X0067480Y0099530D02*
X0066000Y0099530D01*
X0066000Y0098932D02*
X0067488Y0098932D01*
X0067488Y0098333D02*
X0066000Y0098333D01*
X0066000Y0097735D02*
X0067488Y0097735D01*
X0067488Y0097136D02*
X0066000Y0097136D01*
X0066000Y0096538D02*
X0067488Y0096538D01*
X0067842Y0095939D02*
X0066000Y0095939D01*
X0066000Y0095341D02*
X0068022Y0095341D01*
X0067488Y0094742D02*
X0066000Y0094742D01*
X0066000Y0094144D02*
X0067488Y0094144D01*
X0067358Y0093545D02*
X0062450Y0093545D01*
X0061950Y0093545D02*
X0055437Y0093545D01*
X0056588Y0094144D02*
X0058400Y0094144D01*
X0058400Y0094742D02*
X0057173Y0094742D01*
X0057421Y0095341D02*
X0058400Y0095341D01*
X0058400Y0095939D02*
X0057589Y0095939D01*
X0057589Y0096538D02*
X0058400Y0096538D01*
X0058400Y0097136D02*
X0057682Y0097136D01*
X0058280Y0097735D02*
X0058400Y0097735D01*
X0066000Y0100129D02*
X0066824Y0100129D01*
X0066167Y0100727D02*
X0066000Y0100727D01*
X0073802Y0101924D02*
X0074883Y0101924D01*
X0077346Y0101924D02*
X0077946Y0101924D01*
X0077946Y0102068D02*
X0077946Y0099100D01*
X0081112Y0099100D01*
X0081112Y0100940D01*
X0081023Y0101270D01*
X0080852Y0101567D01*
X0080610Y0101809D01*
X0080314Y0101980D01*
X0079983Y0102068D01*
X0077946Y0102068D01*
X0077946Y0101326D02*
X0077346Y0101326D01*
X0077346Y0100727D02*
X0077946Y0100727D01*
X0077946Y0100129D02*
X0077346Y0100129D01*
X0077346Y0099530D02*
X0077946Y0099530D01*
X0077946Y0098932D02*
X0083200Y0098932D01*
X0083200Y0099530D02*
X0081112Y0099530D01*
X0081112Y0100129D02*
X0083200Y0100129D01*
X0083200Y0100727D02*
X0081112Y0100727D01*
X0080991Y0101326D02*
X0083200Y0101326D01*
X0083200Y0101924D02*
X0080410Y0101924D01*
X0081112Y0098333D02*
X0083200Y0098333D01*
X0083200Y0097735D02*
X0081112Y0097735D01*
X0081112Y0097136D02*
X0083200Y0097136D01*
X0083200Y0096538D02*
X0081079Y0096538D01*
X0080758Y0095939D02*
X0083200Y0095939D01*
X0083200Y0095341D02*
X0080555Y0095341D01*
X0081031Y0094742D02*
X0083200Y0094742D01*
X0083200Y0094144D02*
X0081112Y0094144D01*
X0081112Y0093545D02*
X0083200Y0093545D01*
X0083200Y0092947D02*
X0081112Y0092947D01*
X0081112Y0091750D02*
X0083200Y0091750D01*
X0083200Y0092348D02*
X0077946Y0092348D01*
X0077946Y0092947D02*
X0077346Y0092947D01*
X0077346Y0093545D02*
X0077946Y0093545D01*
X0077946Y0094144D02*
X0077346Y0094144D01*
X0077346Y0094742D02*
X0077946Y0094742D01*
X0077946Y0095341D02*
X0077346Y0095341D01*
X0077346Y0095939D02*
X0077946Y0095939D01*
X0077946Y0096538D02*
X0077346Y0096538D01*
X0077346Y0097136D02*
X0077946Y0097136D01*
X0077946Y0097735D02*
X0077346Y0097735D01*
X0077346Y0098333D02*
X0077946Y0098333D01*
X0081112Y0091151D02*
X0083200Y0091151D01*
X0083200Y0090553D02*
X0081112Y0090553D01*
X0081057Y0089954D02*
X0083200Y0089954D01*
X0083200Y0089356D02*
X0081309Y0089356D01*
X0081309Y0088757D02*
X0083200Y0088757D01*
X0083200Y0088159D02*
X0081309Y0088159D01*
X0081309Y0087560D02*
X0083200Y0087560D01*
X0083200Y0086962D02*
X0081309Y0086962D01*
X0081309Y0086363D02*
X0083200Y0086363D01*
X0083200Y0085765D02*
X0081309Y0085765D01*
X0081309Y0085166D02*
X0083200Y0085166D01*
X0083200Y0084568D02*
X0081309Y0084568D01*
X0081309Y0083969D02*
X0083200Y0083969D01*
X0083200Y0083370D02*
X0081309Y0083370D01*
X0080851Y0082772D02*
X0083200Y0082772D01*
X0083200Y0082173D02*
X0078719Y0082173D01*
X0078121Y0081575D02*
X0083200Y0081575D01*
X0083200Y0080976D02*
X0080702Y0080976D01*
X0081301Y0080378D02*
X0083200Y0080378D01*
X0083200Y0079779D02*
X0081309Y0079779D01*
X0081309Y0079181D02*
X0083200Y0079181D01*
X0083200Y0078582D02*
X0081309Y0078582D01*
X0081309Y0077984D02*
X0083200Y0077984D01*
X0083200Y0077385D02*
X0081309Y0077385D01*
X0081309Y0076787D02*
X0083200Y0076787D01*
X0083200Y0076188D02*
X0081309Y0076188D01*
X0081309Y0075590D02*
X0083200Y0075590D01*
X0083200Y0074991D02*
X0081309Y0074991D01*
X0081309Y0074393D02*
X0083200Y0074393D01*
X0083199Y0073794D02*
X0080928Y0073794D01*
X0083128Y0073196D02*
X0066140Y0073196D01*
X0066695Y0073794D02*
X0067672Y0073794D01*
X0067291Y0074393D02*
X0066943Y0074393D01*
X0067089Y0074991D02*
X0067291Y0074991D01*
X0067291Y0075590D02*
X0067089Y0075590D01*
X0065063Y0072597D02*
X0082880Y0072597D01*
X0082521Y0071999D02*
X0059195Y0071999D01*
X0058724Y0072597D02*
X0063537Y0072597D01*
X0062460Y0073196D02*
X0058724Y0073196D01*
X0058724Y0073794D02*
X0061905Y0073794D01*
X0061657Y0074393D02*
X0058724Y0074393D01*
X0058671Y0074991D02*
X0061511Y0074991D01*
X0058948Y0075590D02*
X0058072Y0075590D01*
X0058400Y0076188D02*
X0057633Y0076188D01*
X0058192Y0076787D02*
X0058400Y0076787D01*
X0059793Y0071400D02*
X0081923Y0071400D01*
X0081586Y0066014D02*
X0056056Y0066014D01*
X0057324Y0067930D02*
X0057324Y0067930D01*
X0055920Y0061226D02*
X0148445Y0061226D01*
X0148445Y0061824D02*
X0082598Y0061824D01*
X0084440Y0062423D02*
X0148497Y0062423D01*
X0148872Y0063021D02*
X0086050Y0063021D01*
X0085862Y0062884D02*
X0085862Y0062884D01*
X0086874Y0063620D02*
X0149524Y0063620D01*
X0149413Y0064218D02*
X0087697Y0064218D01*
X0088521Y0064817D02*
X0149413Y0064817D01*
X0149413Y0065415D02*
X0089164Y0065415D01*
X0089599Y0066014D02*
X0149413Y0066014D01*
X0149413Y0066612D02*
X0090034Y0066612D01*
X0090469Y0067211D02*
X0149413Y0067211D01*
X0149413Y0067809D02*
X0090904Y0067809D01*
X0091271Y0068408D02*
X0149413Y0068408D01*
X0149413Y0069006D02*
X0091465Y0069006D01*
X0091660Y0069605D02*
X0149413Y0069605D01*
X0149413Y0070203D02*
X0091854Y0070203D01*
X0092048Y0070802D02*
X0149413Y0070802D01*
X0149413Y0071400D02*
X0092243Y0071400D01*
X0092400Y0071999D02*
X0149413Y0071999D01*
X0149413Y0072597D02*
X0092400Y0072597D01*
X0092400Y0073196D02*
X0149413Y0073196D01*
X0149739Y0073794D02*
X0092400Y0073794D01*
X0092400Y0074393D02*
X0155500Y0074393D01*
X0155500Y0074991D02*
X0092400Y0074991D01*
X0092400Y0075590D02*
X0155500Y0075590D01*
X0155242Y0076188D02*
X0094283Y0076188D01*
X0095231Y0076787D02*
X0155011Y0076787D01*
X0155011Y0077385D02*
X0095733Y0077385D01*
X0095981Y0077984D02*
X0155065Y0077984D01*
X0155312Y0078582D02*
X0096089Y0078582D01*
X0096089Y0079181D02*
X0155475Y0079181D01*
X0155204Y0079779D02*
X0095913Y0079779D01*
X0095665Y0080378D02*
X0155011Y0080378D01*
X0155011Y0080976D02*
X0095100Y0080976D01*
X0095100Y0081575D02*
X0155102Y0081575D01*
X0155350Y0082173D02*
X0095100Y0082173D01*
X0095100Y0082772D02*
X0155414Y0082772D01*
X0155166Y0083370D02*
X0095100Y0083370D01*
X0095100Y0083969D02*
X0155011Y0083969D01*
X0155011Y0084568D02*
X0095100Y0084568D01*
X0095100Y0085166D02*
X0155140Y0085166D01*
X0155388Y0085765D02*
X0095100Y0085765D01*
X0095100Y0086363D02*
X0155500Y0086363D01*
X0155500Y0086962D02*
X0095100Y0086962D01*
X0095100Y0087560D02*
X0145501Y0087560D01*
X0145502Y0087560D02*
X0145798Y0087389D01*
X0146129Y0087300D01*
X0148400Y0087300D01*
X0148400Y0092700D01*
X0145000Y0092700D01*
X0145000Y0088429D01*
X0145089Y0088098D01*
X0145260Y0087802D01*
X0145502Y0087560D01*
X0145072Y0088159D02*
X0095100Y0088159D01*
X0095100Y0088757D02*
X0145000Y0088757D01*
X0145000Y0089356D02*
X0095100Y0089356D01*
X0095398Y0089954D02*
X0145000Y0089954D01*
X0145000Y0090553D02*
X0095802Y0090553D01*
X0096050Y0091151D02*
X0145000Y0091151D01*
X0145000Y0091750D02*
X0096089Y0091750D01*
X0096089Y0092348D02*
X0145000Y0092348D01*
X0145000Y0093545D02*
X0095499Y0093545D01*
X0095844Y0092947D02*
X0148400Y0092947D01*
X0148400Y0092348D02*
X0149000Y0092348D01*
X0149000Y0092700D02*
X0149000Y0087300D01*
X0151271Y0087300D01*
X0151602Y0087389D01*
X0151898Y0087560D01*
X0152140Y0087802D01*
X0152311Y0088098D01*
X0152400Y0088429D01*
X0152400Y0092700D01*
X0149000Y0092700D01*
X0149000Y0092947D02*
X0154100Y0092947D01*
X0154100Y0093545D02*
X0152400Y0093545D01*
X0152400Y0094144D02*
X0154100Y0094144D01*
X0154100Y0094742D02*
X0152400Y0094742D01*
X0152400Y0095341D02*
X0154100Y0095341D01*
X0153560Y0095939D02*
X0152400Y0095939D01*
X0152400Y0096538D02*
X0152961Y0096538D01*
X0148019Y0098932D02*
X0140473Y0098932D01*
X0141071Y0099530D02*
X0147744Y0099530D01*
X0147744Y0100129D02*
X0141464Y0100129D01*
X0141712Y0100727D02*
X0147744Y0100727D01*
X0147744Y0101326D02*
X0141960Y0101326D01*
X0142208Y0101924D02*
X0147744Y0101924D01*
X0147744Y0102523D02*
X0142400Y0102523D01*
X0142400Y0103121D02*
X0147744Y0103121D01*
X0147744Y0103720D02*
X0142400Y0103720D01*
X0142400Y0104318D02*
X0147744Y0104318D01*
X0147744Y0104917D02*
X0142400Y0104917D01*
X0142400Y0105515D02*
X0147744Y0105515D01*
X0147744Y0106114D02*
X0142400Y0106114D01*
X0142400Y0106712D02*
X0147874Y0106712D01*
X0148472Y0107311D02*
X0142400Y0107311D01*
X0142400Y0107909D02*
X0159276Y0107909D01*
X0159276Y0108508D02*
X0142400Y0108508D01*
X0142400Y0109106D02*
X0159276Y0109106D01*
X0159276Y0109705D02*
X0142400Y0109705D01*
X0142400Y0110303D02*
X0148695Y0110303D01*
X0148542Y0110345D02*
X0148873Y0110256D01*
X0151500Y0110256D01*
X0151500Y0114405D01*
X0152100Y0114405D01*
X0152100Y0110256D01*
X0154727Y0110256D01*
X0155058Y0110345D01*
X0155354Y0110516D01*
X0155596Y0110758D01*
X0155767Y0111054D01*
X0155856Y0111385D01*
X0155856Y0114406D01*
X0152100Y0114406D01*
X0152100Y0115005D01*
X0155856Y0115005D01*
X0155856Y0118026D01*
X0155767Y0118357D01*
X0155596Y0118653D01*
X0155354Y0118895D01*
X0155058Y0119067D01*
X0154727Y0119155D01*
X0152100Y0119155D01*
X0152100Y0115006D01*
X0151500Y0115006D01*
X0151500Y0119155D01*
X0148873Y0119155D01*
X0148542Y0119067D01*
X0148246Y0118895D01*
X0148004Y0118653D01*
X0147833Y0118357D01*
X0147744Y0118026D01*
X0147744Y0115005D01*
X0151500Y0115005D01*
X0151500Y0114406D01*
X0147744Y0114406D01*
X0147744Y0111385D01*
X0147833Y0111054D01*
X0148004Y0110758D01*
X0148246Y0110516D01*
X0148542Y0110345D01*
X0147921Y0110902D02*
X0142400Y0110902D01*
X0142400Y0111501D02*
X0147744Y0111501D01*
X0147744Y0112099D02*
X0142400Y0112099D01*
X0142400Y0112698D02*
X0147744Y0112698D01*
X0147744Y0113296D02*
X0142400Y0113296D01*
X0142400Y0113895D02*
X0147744Y0113895D01*
X0147744Y0115092D02*
X0142400Y0115092D01*
X0142400Y0115690D02*
X0147744Y0115690D01*
X0147744Y0116289D02*
X0142400Y0116289D01*
X0142400Y0116887D02*
X0147744Y0116887D01*
X0147744Y0117486D02*
X0142400Y0117486D01*
X0142400Y0118084D02*
X0147760Y0118084D01*
X0148033Y0118683D02*
X0142400Y0118683D01*
X0142400Y0119281D02*
X0180187Y0119281D01*
X0180187Y0118683D02*
X0155567Y0118683D01*
X0155840Y0118084D02*
X0159458Y0118084D01*
X0159276Y0117486D02*
X0155856Y0117486D01*
X0155856Y0116887D02*
X0159276Y0116887D01*
X0159276Y0116289D02*
X0155856Y0116289D01*
X0155856Y0115690D02*
X0159276Y0115690D01*
X0159276Y0115092D02*
X0155856Y0115092D01*
X0155856Y0113895D02*
X0159276Y0113895D01*
X0159276Y0114493D02*
X0152100Y0114493D01*
X0152100Y0113895D02*
X0151500Y0113895D01*
X0151500Y0114493D02*
X0142400Y0114493D01*
X0138200Y0116887D02*
X0087400Y0116887D01*
X0087400Y0116289D02*
X0097739Y0116289D01*
X0097909Y0116458D02*
X0095390Y0113939D01*
X0095390Y0112458D01*
X0099390Y0112458D01*
X0099390Y0116458D01*
X0097909Y0116458D01*
X0097140Y0115690D02*
X0087400Y0115690D01*
X0087400Y0115092D02*
X0096542Y0115092D01*
X0095943Y0114493D02*
X0087400Y0114493D01*
X0087400Y0113895D02*
X0095390Y0113895D01*
X0095390Y0113296D02*
X0087400Y0113296D01*
X0087400Y0112698D02*
X0095390Y0112698D01*
X0095390Y0111858D02*
X0095390Y0110377D01*
X0097909Y0107858D01*
X0099390Y0107858D01*
X0099390Y0111858D01*
X0095390Y0111858D01*
X0095390Y0111501D02*
X0087400Y0111501D01*
X0087400Y0112099D02*
X0099390Y0112099D01*
X0099390Y0111501D02*
X0099990Y0111501D01*
X0099990Y0112099D02*
X0105390Y0112099D01*
X0099990Y0112698D02*
X0099390Y0112698D01*
X0099390Y0113296D02*
X0099990Y0113296D01*
X0099990Y0113895D02*
X0099390Y0113895D01*
X0099390Y0114493D02*
X0099990Y0114493D01*
X0099990Y0115092D02*
X0099390Y0115092D01*
X0099390Y0115690D02*
X0099990Y0115690D01*
X0099990Y0116289D02*
X0099390Y0116289D01*
X0099390Y0110902D02*
X0099990Y0110902D01*
X0099990Y0110303D02*
X0099390Y0110303D01*
X0099390Y0109705D02*
X0099990Y0109705D01*
X0099990Y0109106D02*
X0099390Y0109106D01*
X0099390Y0108508D02*
X0099990Y0108508D01*
X0099990Y0107909D02*
X0099390Y0107909D01*
X0097857Y0107909D02*
X0087400Y0107909D01*
X0087400Y0108508D02*
X0097259Y0108508D01*
X0096660Y0109106D02*
X0087400Y0109106D01*
X0087400Y0109705D02*
X0096062Y0109705D01*
X0095463Y0110303D02*
X0087400Y0110303D01*
X0087400Y0110902D02*
X0095390Y0110902D01*
X0094477Y0096538D02*
X0145000Y0096538D01*
X0145000Y0097136D02*
X0137765Y0097136D01*
X0139210Y0097735D02*
X0145044Y0097735D01*
X0145395Y0098333D02*
X0139874Y0098333D01*
X0139322Y0097781D02*
X0139322Y0097781D01*
X0145000Y0095939D02*
X0093417Y0095939D01*
X0092860Y0095341D02*
X0145000Y0095341D01*
X0145000Y0094742D02*
X0092612Y0094742D01*
X0094901Y0094144D02*
X0145000Y0094144D01*
X0148400Y0091750D02*
X0149000Y0091750D01*
X0149000Y0091151D02*
X0148400Y0091151D01*
X0148400Y0090553D02*
X0149000Y0090553D01*
X0149000Y0089954D02*
X0148400Y0089954D01*
X0148400Y0089356D02*
X0149000Y0089356D01*
X0149000Y0088757D02*
X0148400Y0088757D01*
X0148400Y0088159D02*
X0149000Y0088159D01*
X0149000Y0087560D02*
X0148400Y0087560D01*
X0151899Y0087560D02*
X0154601Y0087560D01*
X0154100Y0088159D02*
X0152328Y0088159D01*
X0152400Y0088757D02*
X0154100Y0088757D01*
X0154100Y0089356D02*
X0152400Y0089356D01*
X0152400Y0089954D02*
X0154100Y0089954D01*
X0154100Y0090553D02*
X0152400Y0090553D01*
X0152400Y0091151D02*
X0154100Y0091151D01*
X0154100Y0091750D02*
X0152400Y0091750D01*
X0152400Y0092348D02*
X0154100Y0092348D01*
X0160100Y0086962D02*
X0164000Y0086962D01*
X0164000Y0086363D02*
X0160100Y0086363D01*
X0160212Y0085765D02*
X0164000Y0085765D01*
X0164000Y0085166D02*
X0160460Y0085166D01*
X0160589Y0084568D02*
X0164000Y0084568D01*
X0164000Y0083969D02*
X0160589Y0083969D01*
X0160434Y0083370D02*
X0164000Y0083370D01*
X0164145Y0082772D02*
X0160186Y0082772D01*
X0160250Y0082173D02*
X0164393Y0082173D01*
X0164924Y0081575D02*
X0160498Y0081575D01*
X0160589Y0080976D02*
X0165522Y0080976D01*
X0166121Y0080378D02*
X0160589Y0080378D01*
X0160396Y0079779D02*
X0166719Y0079779D01*
X0167318Y0079181D02*
X0160125Y0079181D01*
X0160288Y0078582D02*
X0167916Y0078582D01*
X0168515Y0077984D02*
X0160535Y0077984D01*
X0160589Y0077385D02*
X0169113Y0077385D01*
X0169195Y0076188D02*
X0160358Y0076188D01*
X0160589Y0076787D02*
X0170935Y0076787D01*
X0170405Y0076188D02*
X0183225Y0076188D01*
X0183823Y0075590D02*
X0171611Y0075590D01*
X0172210Y0074991D02*
X0184422Y0074991D01*
X0185020Y0074393D02*
X0172808Y0074393D01*
X0173407Y0073794D02*
X0185246Y0073794D01*
X0185246Y0073196D02*
X0174005Y0073196D01*
X0174604Y0072597D02*
X0185246Y0072597D01*
X0185246Y0071999D02*
X0175202Y0071999D01*
X0175801Y0071400D02*
X0185246Y0071400D01*
X0185246Y0070802D02*
X0176399Y0070802D01*
X0176998Y0070203D02*
X0185246Y0070203D01*
X0185246Y0069605D02*
X0177458Y0069605D01*
X0177706Y0069006D02*
X0185246Y0069006D01*
X0185246Y0068408D02*
X0177802Y0068408D01*
X0177802Y0067809D02*
X0185246Y0067809D01*
X0185246Y0067211D02*
X0177802Y0067211D01*
X0177802Y0066612D02*
X0185246Y0066612D01*
X0185246Y0066014D02*
X0177802Y0066014D01*
X0177802Y0065415D02*
X0185246Y0065415D01*
X0185246Y0064817D02*
X0178866Y0064817D01*
X0179352Y0064218D02*
X0185246Y0064218D01*
X0185246Y0063620D02*
X0179352Y0063620D01*
X0179352Y0063021D02*
X0185246Y0063021D01*
X0185246Y0062423D02*
X0179352Y0062423D01*
X0179352Y0061824D02*
X0185246Y0061824D01*
X0185246Y0061226D02*
X0179352Y0061226D01*
X0179352Y0060627D02*
X0185246Y0060627D01*
X0185246Y0060029D02*
X0179352Y0060029D01*
X0179352Y0059430D02*
X0185246Y0059430D01*
X0185246Y0058832D02*
X0178867Y0058832D01*
X0177471Y0057036D02*
X0185246Y0057036D01*
X0185246Y0057634D02*
X0176233Y0057634D01*
X0174282Y0058233D02*
X0185246Y0058233D01*
X0184312Y0056437D02*
X0183288Y0056437D01*
X0183722Y0055839D02*
X0183878Y0055839D01*
X0183878Y0055240D02*
X0183722Y0055240D01*
X0183722Y0054642D02*
X0183878Y0054642D01*
X0183878Y0054043D02*
X0183722Y0054043D01*
X0183722Y0053445D02*
X0183878Y0053445D01*
X0183878Y0052846D02*
X0183722Y0052846D01*
X0183722Y0052248D02*
X0183878Y0052248D01*
X0183878Y0051649D02*
X0183722Y0051649D01*
X0183722Y0051051D02*
X0183878Y0051051D01*
X0184022Y0050452D02*
X0183578Y0050452D01*
X0182980Y0049854D02*
X0184620Y0049854D01*
X0184449Y0047990D02*
X0184413Y0047990D01*
X0183749Y0047885D01*
X0183110Y0047677D01*
X0182512Y0047372D01*
X0181968Y0046977D01*
X0181493Y0046502D01*
X0181098Y0045958D01*
X0180793Y0045360D01*
X0180585Y0044721D01*
X0180480Y0044057D01*
X0180480Y0044021D01*
X0184449Y0044021D01*
X0184449Y0043421D01*
X0180480Y0043421D01*
X0180480Y0043385D01*
X0180585Y0042722D01*
X0180793Y0042083D01*
X0180975Y0041726D01*
X0180507Y0041726D01*
X0180176Y0041637D01*
X0179880Y0041466D01*
X0179638Y0041224D01*
X0179467Y0040928D01*
X0179378Y0040597D01*
X0179378Y0038600D01*
X0182445Y0038600D01*
X0182445Y0038000D01*
X0182988Y0038000D01*
X0182988Y0036003D01*
X0183045Y0035791D01*
X0183045Y0034874D01*
X0186055Y0034874D01*
X0186055Y0035791D01*
X0186112Y0036003D01*
X0186112Y0038000D01*
X0186655Y0038000D01*
X0186655Y0034874D01*
X0188593Y0034874D01*
X0188924Y0034963D01*
X0189220Y0035134D01*
X0189462Y0035376D01*
X0189633Y0035672D01*
X0189722Y0036003D01*
X0189722Y0038000D01*
X0186655Y0038000D01*
X0186655Y0038600D01*
X0189722Y0038600D01*
X0189722Y0040597D01*
X0189633Y0040928D01*
X0189462Y0041224D01*
X0189220Y0041466D01*
X0188924Y0041637D01*
X0188593Y0041726D01*
X0188523Y0041726D01*
X0188705Y0042083D01*
X0188912Y0042722D01*
X0189017Y0043385D01*
X0189017Y0043421D01*
X0185049Y0043421D01*
X0185049Y0044021D01*
X0189017Y0044021D01*
X0189017Y0044057D01*
X0188912Y0044721D01*
X0188705Y0045360D01*
X0188400Y0045958D01*
X0188005Y0046502D01*
X0187530Y0046977D01*
X0186986Y0047372D01*
X0186387Y0047677D01*
X0185748Y0047885D01*
X0185085Y0047990D01*
X0185049Y0047990D01*
X0185049Y0044021D01*
X0184449Y0044021D01*
X0184449Y0047990D01*
X0184449Y0047460D02*
X0185049Y0047460D01*
X0185049Y0046861D02*
X0184449Y0046861D01*
X0184449Y0046263D02*
X0185049Y0046263D01*
X0185049Y0045664D02*
X0184449Y0045664D01*
X0184449Y0045066D02*
X0185049Y0045066D01*
X0185049Y0044467D02*
X0184449Y0044467D01*
X0184449Y0043869D02*
X0179175Y0043869D01*
X0179175Y0044467D02*
X0180545Y0044467D01*
X0180698Y0045066D02*
X0178970Y0045066D01*
X0179175Y0044570D02*
X0178525Y0046139D01*
X0177324Y0047340D01*
X0175755Y0047990D01*
X0174057Y0047990D01*
X0172488Y0047340D01*
X0171288Y0046139D01*
X0170638Y0044570D01*
X0170638Y0042872D01*
X0171288Y0041303D01*
X0172488Y0040103D01*
X0172488Y0035636D01*
X0173250Y0034874D01*
X0178461Y0034874D01*
X0179222Y0035636D01*
X0179222Y0040964D01*
X0178630Y0041557D01*
X0179175Y0042872D01*
X0179175Y0044570D01*
X0178722Y0045664D02*
X0180948Y0045664D01*
X0181319Y0046263D02*
X0178401Y0046263D01*
X0177803Y0046861D02*
X0181852Y0046861D01*
X0182684Y0047460D02*
X0177035Y0047460D01*
X0177104Y0049854D02*
X0177927Y0049854D01*
X0172709Y0049854D02*
X0169151Y0049854D01*
X0169151Y0050452D02*
X0171981Y0050452D01*
X0171383Y0051051D02*
X0169151Y0051051D01*
X0169151Y0051649D02*
X0171079Y0051649D01*
X0170831Y0052248D02*
X0169151Y0052248D01*
X0169151Y0052846D02*
X0170638Y0052846D01*
X0170638Y0053445D02*
X0169151Y0053445D01*
X0169151Y0054043D02*
X0170638Y0054043D01*
X0170733Y0054642D02*
X0169151Y0054642D01*
X0169151Y0055240D02*
X0170981Y0055240D01*
X0171229Y0055839D02*
X0168988Y0055839D01*
X0169155Y0056437D02*
X0171743Y0056437D01*
X0172342Y0057036D02*
X0169155Y0057036D01*
X0169155Y0061824D02*
X0170453Y0061824D01*
X0170453Y0062423D02*
X0169155Y0062423D01*
X0168728Y0063021D02*
X0170453Y0063021D01*
X0170453Y0063620D02*
X0166076Y0063620D01*
X0166187Y0064218D02*
X0170453Y0064218D01*
X0170939Y0064817D02*
X0166187Y0064817D01*
X0166187Y0065415D02*
X0172002Y0065415D01*
X0172002Y0066014D02*
X0166187Y0066014D01*
X0166187Y0066612D02*
X0172002Y0066612D01*
X0171788Y0067211D02*
X0166187Y0067211D01*
X0166187Y0067809D02*
X0171190Y0067809D01*
X0170591Y0068408D02*
X0166187Y0068408D01*
X0166187Y0069006D02*
X0169993Y0069006D01*
X0169394Y0069605D02*
X0166187Y0069605D01*
X0166187Y0070203D02*
X0168796Y0070203D01*
X0168197Y0070802D02*
X0166187Y0070802D01*
X0166187Y0071400D02*
X0167599Y0071400D01*
X0167200Y0071999D02*
X0166187Y0071999D01*
X0166187Y0072597D02*
X0166952Y0072597D01*
X0166900Y0073196D02*
X0166187Y0073196D01*
X0165861Y0073794D02*
X0166900Y0073794D01*
X0167114Y0074393D02*
X0160100Y0074393D01*
X0160100Y0074991D02*
X0167390Y0074991D01*
X0167989Y0075590D02*
X0160100Y0075590D01*
X0170134Y0084568D02*
X0175592Y0084568D01*
X0176191Y0085166D02*
X0169800Y0085166D01*
X0169800Y0085765D02*
X0176789Y0085765D01*
X0177388Y0086363D02*
X0169800Y0086363D01*
X0169800Y0086962D02*
X0177986Y0086962D01*
X0178585Y0087560D02*
X0170099Y0087560D01*
X0170600Y0088159D02*
X0179749Y0088159D01*
X0179866Y0090462D02*
X0180643Y0090339D01*
X0184437Y0090339D01*
X0184437Y0095039D01*
X0185037Y0095039D01*
X0185037Y0090339D01*
X0188831Y0090339D01*
X0189608Y0090462D01*
X0190356Y0090706D01*
X0191058Y0091063D01*
X0191694Y0091526D01*
X0192251Y0092082D01*
X0192713Y0092719D01*
X0193071Y0093420D01*
X0193314Y0094169D01*
X0193437Y0094946D01*
X0193437Y0095039D01*
X0185037Y0095039D01*
X0185037Y0095639D01*
X0193437Y0095639D01*
X0193437Y0095733D01*
X0193314Y0096510D01*
X0193071Y0097259D01*
X0192713Y0097960D01*
X0192251Y0098597D01*
X0191694Y0099153D01*
X0191058Y0099616D01*
X0190356Y0099973D01*
X0189608Y0100216D01*
X0188831Y0100339D01*
X0185037Y0100339D01*
X0185037Y0095639D01*
X0184437Y0095639D01*
X0184437Y0095039D01*
X0176037Y0095039D01*
X0176037Y0094946D01*
X0176160Y0094169D01*
X0176403Y0093420D01*
X0176761Y0092719D01*
X0177223Y0092082D01*
X0177780Y0091526D01*
X0178416Y0091063D01*
X0179118Y0090706D01*
X0179866Y0090462D01*
X0179589Y0090553D02*
X0170600Y0090553D01*
X0170600Y0091151D02*
X0178295Y0091151D01*
X0177556Y0091750D02*
X0170600Y0091750D01*
X0170600Y0092348D02*
X0177030Y0092348D01*
X0176645Y0092947D02*
X0170948Y0092947D01*
X0171546Y0093545D02*
X0176363Y0093545D01*
X0176168Y0094144D02*
X0172145Y0094144D01*
X0172743Y0094742D02*
X0176069Y0094742D01*
X0176037Y0095639D02*
X0184437Y0095639D01*
X0184437Y0100339D01*
X0180643Y0100339D01*
X0179866Y0100216D01*
X0179118Y0099973D01*
X0178416Y0099616D01*
X0177780Y0099153D01*
X0177223Y0098597D01*
X0176761Y0097960D01*
X0176403Y0097259D01*
X0176160Y0096510D01*
X0176037Y0095733D01*
X0176037Y0095639D01*
X0176070Y0095939D02*
X0173940Y0095939D01*
X0173342Y0095341D02*
X0184437Y0095341D01*
X0184437Y0095939D02*
X0185037Y0095939D01*
X0185037Y0095341D02*
X0217150Y0095341D01*
X0217150Y0095939D02*
X0193404Y0095939D01*
X0193305Y0096538D02*
X0217150Y0096538D01*
X0217150Y0097136D02*
X0193110Y0097136D01*
X0192828Y0097735D02*
X0217150Y0097735D01*
X0217150Y0098333D02*
X0192442Y0098333D01*
X0191916Y0098932D02*
X0217150Y0098932D01*
X0217150Y0099530D02*
X0191175Y0099530D01*
X0189877Y0100129D02*
X0217150Y0100129D01*
X0217150Y0100727D02*
X0190368Y0100727D01*
X0191495Y0101326D02*
X0217150Y0101326D01*
X0217150Y0101924D02*
X0192093Y0101924D01*
X0192682Y0102523D02*
X0217150Y0102523D01*
X0217150Y0103121D02*
X0192930Y0103121D01*
X0193178Y0103720D02*
X0217150Y0103720D01*
X0217150Y0104318D02*
X0193426Y0104318D01*
X0193437Y0104917D02*
X0217150Y0104917D01*
X0217150Y0105515D02*
X0193437Y0105515D01*
X0193437Y0106114D02*
X0217150Y0106114D01*
X0217150Y0106712D02*
X0193280Y0106712D01*
X0193032Y0107311D02*
X0217150Y0107311D01*
X0217150Y0107909D02*
X0192784Y0107909D01*
X0192339Y0108508D02*
X0217150Y0108508D01*
X0217150Y0109106D02*
X0191741Y0109106D01*
X0190963Y0109705D02*
X0217150Y0109705D01*
X0217150Y0110303D02*
X0189518Y0110303D01*
X0189287Y0110902D02*
X0217150Y0110902D01*
X0217150Y0111501D02*
X0189287Y0111501D01*
X0189287Y0112099D02*
X0217150Y0112099D01*
X0217150Y0112698D02*
X0189287Y0112698D01*
X0189287Y0113296D02*
X0217150Y0113296D01*
X0217150Y0113895D02*
X0189287Y0113895D01*
X0189287Y0114493D02*
X0217150Y0114493D01*
X0217150Y0115092D02*
X0189287Y0115092D01*
X0189287Y0115690D02*
X0217150Y0115690D01*
X0217150Y0116289D02*
X0189287Y0116289D01*
X0189287Y0116887D02*
X0217150Y0116887D01*
X0217150Y0117486D02*
X0189287Y0117486D01*
X0189287Y0118084D02*
X0217150Y0118084D01*
X0217150Y0118683D02*
X0189287Y0118683D01*
X0189287Y0119281D02*
X0217150Y0119281D01*
X0217150Y0119880D02*
X0189287Y0119880D01*
X0189287Y0120478D02*
X0217150Y0120478D01*
X0217150Y0121077D02*
X0189287Y0121077D01*
X0189287Y0121675D02*
X0217150Y0121675D01*
X0217150Y0122274D02*
X0190290Y0122274D01*
X0191462Y0122872D02*
X0217150Y0122872D01*
X0217150Y0123471D02*
X0192061Y0123471D01*
X0192659Y0124069D02*
X0217150Y0124069D01*
X0217150Y0124668D02*
X0192917Y0124668D01*
X0193165Y0125266D02*
X0217150Y0125266D01*
X0217150Y0125865D02*
X0193413Y0125865D01*
X0193437Y0126463D02*
X0217150Y0126463D01*
X0217150Y0127062D02*
X0193437Y0127062D01*
X0193437Y0127660D02*
X0217150Y0127660D01*
X0217150Y0128259D02*
X0193294Y0128259D01*
X0193046Y0128857D02*
X0217150Y0128857D01*
X0217150Y0129456D02*
X0192798Y0129456D01*
X0192372Y0130054D02*
X0217150Y0130054D01*
X0217150Y0130653D02*
X0191773Y0130653D01*
X0191041Y0131251D02*
X0217150Y0131251D01*
X0204103Y0151601D02*
X0182647Y0151601D01*
X0182647Y0152199D02*
X0202925Y0152199D01*
X0202327Y0152798D02*
X0182647Y0152798D01*
X0182647Y0153396D02*
X0201728Y0153396D01*
X0201267Y0153995D02*
X0182647Y0153995D01*
X0182647Y0154593D02*
X0201019Y0154593D01*
X0200771Y0155192D02*
X0182647Y0155192D01*
X0182647Y0155790D02*
X0200524Y0155790D01*
X0200417Y0156389D02*
X0182647Y0156389D01*
X0182647Y0156987D02*
X0200417Y0156987D01*
X0200417Y0157586D02*
X0182647Y0157586D01*
X0182647Y0158184D02*
X0200417Y0158184D01*
X0200526Y0158783D02*
X0182647Y0158783D01*
X0182647Y0159381D02*
X0200773Y0159381D01*
X0201021Y0159980D02*
X0182647Y0159980D01*
X0182647Y0160578D02*
X0201269Y0160578D01*
X0201733Y0161177D02*
X0182647Y0161177D01*
X0182340Y0161775D02*
X0202332Y0161775D01*
X0217150Y0164170D02*
X0022899Y0164170D01*
X0022899Y0164768D02*
X0217150Y0164768D01*
X0217150Y0165367D02*
X0022899Y0165367D01*
X0022899Y0165965D02*
X0217150Y0165965D01*
X0217150Y0166564D02*
X0022899Y0166564D01*
X0022899Y0167162D02*
X0217150Y0167162D01*
X0217150Y0167761D02*
X0022899Y0167761D01*
X0037448Y0161775D02*
X0061260Y0161775D01*
X0060953Y0161177D02*
X0038046Y0161177D01*
X0038510Y0160578D02*
X0060953Y0160578D01*
X0060953Y0159980D02*
X0038758Y0159980D01*
X0039006Y0159381D02*
X0060953Y0159381D01*
X0060953Y0158783D02*
X0039254Y0158783D01*
X0039362Y0158184D02*
X0060953Y0158184D01*
X0060953Y0157586D02*
X0039362Y0157586D01*
X0039362Y0156987D02*
X0060953Y0156987D01*
X0060953Y0156389D02*
X0039362Y0156389D01*
X0039256Y0155790D02*
X0060953Y0155790D01*
X0060953Y0155192D02*
X0039008Y0155192D01*
X0038760Y0154593D02*
X0060953Y0154593D01*
X0060953Y0153995D02*
X0038512Y0153995D01*
X0038051Y0153396D02*
X0060953Y0153396D01*
X0060953Y0152798D02*
X0037453Y0152798D01*
X0036854Y0152199D02*
X0060953Y0152199D01*
X0060953Y0151601D02*
X0035677Y0151601D01*
X0079695Y0124069D02*
X0083200Y0124069D01*
X0083200Y0124668D02*
X0080294Y0124668D01*
X0080324Y0125266D02*
X0083200Y0125266D01*
X0083200Y0125865D02*
X0080324Y0125865D01*
X0080324Y0126463D02*
X0083200Y0126463D01*
X0083200Y0127062D02*
X0080324Y0127062D01*
X0080324Y0127660D02*
X0083200Y0127660D01*
X0083200Y0128259D02*
X0080324Y0128259D01*
X0080324Y0128857D02*
X0083200Y0128857D01*
X0083200Y0129456D02*
X0080324Y0129456D01*
X0080324Y0130054D02*
X0083200Y0130054D01*
X0083383Y0130653D02*
X0080324Y0130653D01*
X0080324Y0131251D02*
X0083630Y0131251D01*
X0083878Y0131850D02*
X0080324Y0131850D01*
X0080324Y0132448D02*
X0084126Y0132448D01*
X0084506Y0133047D02*
X0080324Y0133047D01*
X0080324Y0133645D02*
X0085105Y0133645D01*
X0085703Y0134244D02*
X0080324Y0134244D01*
X0080324Y0134842D02*
X0086335Y0134842D01*
X0087780Y0135441D02*
X0080108Y0135441D01*
X0088888Y0135900D02*
X0088888Y0135900D01*
X0088786Y0131251D02*
X0138200Y0131251D01*
X0138200Y0130653D02*
X0088130Y0130653D01*
X0087741Y0130054D02*
X0138200Y0130054D01*
X0138200Y0129456D02*
X0087493Y0129456D01*
X0087406Y0128857D02*
X0138200Y0128857D01*
X0138200Y0128259D02*
X0087400Y0128259D01*
X0087400Y0127660D02*
X0138200Y0127660D01*
X0138200Y0127062D02*
X0087400Y0127062D01*
X0121641Y0116289D02*
X0127739Y0116289D01*
X0127140Y0115690D02*
X0122239Y0115690D01*
X0122838Y0115092D02*
X0126542Y0115092D01*
X0125943Y0114493D02*
X0123436Y0114493D01*
X0123990Y0113895D02*
X0125390Y0113895D01*
X0125390Y0113296D02*
X0123990Y0113296D01*
X0123990Y0112698D02*
X0125390Y0112698D01*
X0125390Y0112099D02*
X0123990Y0112099D01*
X0123990Y0111501D02*
X0125390Y0111501D01*
X0125390Y0110902D02*
X0123990Y0110902D01*
X0123916Y0110303D02*
X0125463Y0110303D01*
X0126062Y0109705D02*
X0123318Y0109705D01*
X0122719Y0109106D02*
X0126660Y0109106D01*
X0127259Y0108508D02*
X0122121Y0108508D01*
X0121522Y0107909D02*
X0127857Y0107909D01*
X0142400Y0119880D02*
X0180187Y0119880D01*
X0180187Y0120478D02*
X0142400Y0120478D01*
X0142400Y0121077D02*
X0180187Y0121077D01*
X0180187Y0121675D02*
X0142400Y0121675D01*
X0142400Y0122274D02*
X0179184Y0122274D01*
X0178012Y0122872D02*
X0142400Y0122872D01*
X0151500Y0118683D02*
X0152100Y0118683D01*
X0152100Y0118084D02*
X0151500Y0118084D01*
X0151500Y0117486D02*
X0152100Y0117486D01*
X0152100Y0116887D02*
X0151500Y0116887D01*
X0151500Y0116289D02*
X0152100Y0116289D01*
X0152100Y0115690D02*
X0151500Y0115690D01*
X0151500Y0115092D02*
X0152100Y0115092D01*
X0152100Y0113296D02*
X0151500Y0113296D01*
X0151500Y0112698D02*
X0152100Y0112698D01*
X0152100Y0112099D02*
X0151500Y0112099D01*
X0151500Y0111501D02*
X0152100Y0111501D01*
X0152100Y0110902D02*
X0151500Y0110902D01*
X0151500Y0110303D02*
X0152100Y0110303D01*
X0154905Y0110303D02*
X0159276Y0110303D01*
X0159276Y0110902D02*
X0155679Y0110902D01*
X0155856Y0111501D02*
X0159276Y0111501D01*
X0159276Y0112099D02*
X0155856Y0112099D01*
X0155856Y0112698D02*
X0159276Y0112698D01*
X0159276Y0113296D02*
X0155856Y0113296D01*
X0155128Y0107311D02*
X0156680Y0107311D01*
X0156445Y0106712D02*
X0155726Y0106712D01*
X0155856Y0106114D02*
X0156445Y0106114D01*
X0156445Y0105515D02*
X0155856Y0105515D01*
X0155856Y0104917D02*
X0156445Y0104917D01*
X0156445Y0104318D02*
X0155856Y0104318D01*
X0155856Y0103720D02*
X0160594Y0103720D01*
X0160595Y0103121D02*
X0161194Y0103121D01*
X0161194Y0102523D02*
X0160595Y0102523D01*
X0160595Y0101924D02*
X0161194Y0101924D01*
X0161194Y0101326D02*
X0160595Y0101326D01*
X0160595Y0100727D02*
X0161194Y0100727D01*
X0161194Y0100129D02*
X0160595Y0100129D01*
X0161105Y0098333D02*
X0163595Y0098333D01*
X0163200Y0097735D02*
X0161500Y0097735D01*
X0161500Y0097136D02*
X0163200Y0097136D01*
X0163200Y0096538D02*
X0161500Y0096538D01*
X0161500Y0095939D02*
X0163200Y0095939D01*
X0163200Y0095341D02*
X0161500Y0095341D01*
X0161500Y0094742D02*
X0163200Y0094742D01*
X0163200Y0094144D02*
X0161500Y0094144D01*
X0161500Y0093545D02*
X0163200Y0093545D01*
X0163200Y0092947D02*
X0161500Y0092947D01*
X0161500Y0092348D02*
X0163200Y0092348D01*
X0163200Y0091750D02*
X0161500Y0091750D01*
X0161500Y0091151D02*
X0163200Y0091151D01*
X0163200Y0090553D02*
X0161500Y0090553D01*
X0161500Y0089954D02*
X0163200Y0089954D01*
X0163200Y0089356D02*
X0161500Y0089356D01*
X0161500Y0088757D02*
X0163200Y0088757D01*
X0163200Y0088159D02*
X0161500Y0088159D01*
X0160999Y0087560D02*
X0163701Y0087560D01*
X0170600Y0088757D02*
X0217150Y0088757D01*
X0217150Y0088159D02*
X0183977Y0088159D01*
X0185141Y0087560D02*
X0217150Y0087560D01*
X0217150Y0086962D02*
X0185740Y0086962D01*
X0185999Y0086363D02*
X0217150Y0086363D01*
X0217150Y0085765D02*
X0186200Y0085765D01*
X0186200Y0085166D02*
X0217150Y0085166D01*
X0217150Y0084568D02*
X0186136Y0084568D01*
X0185888Y0083969D02*
X0217150Y0083969D01*
X0217150Y0083370D02*
X0185472Y0083370D01*
X0184775Y0082772D02*
X0217150Y0082772D01*
X0216645Y0082470D02*
X0216349Y0082641D01*
X0216018Y0082730D01*
X0203942Y0082730D01*
X0203942Y0071100D01*
X0203343Y0071100D01*
X0203343Y0082730D01*
X0191267Y0082730D01*
X0190936Y0082641D01*
X0190640Y0082470D01*
X0190398Y0082228D01*
X0190226Y0081932D01*
X0190138Y0081601D01*
X0190138Y0071100D01*
X0203342Y0071100D01*
X0203342Y0070500D01*
X0190138Y0070500D01*
X0190138Y0059999D01*
X0190226Y0059668D01*
X0190398Y0059372D01*
X0190640Y0059130D01*
X0190936Y0058959D01*
X0191267Y0058870D01*
X0203343Y0058870D01*
X0203343Y0070500D01*
X0203942Y0070500D01*
X0203942Y0058870D01*
X0216018Y0058870D01*
X0216349Y0058959D01*
X0216645Y0059130D01*
X0216887Y0059372D01*
X0217059Y0059668D01*
X0217147Y0059999D01*
X0217147Y0070500D01*
X0203943Y0070500D01*
X0203943Y0071100D01*
X0217147Y0071100D01*
X0217147Y0081601D01*
X0217059Y0081932D01*
X0216887Y0082228D01*
X0216645Y0082470D01*
X0216919Y0082173D02*
X0217150Y0082173D01*
X0217147Y0081575D02*
X0217150Y0081575D01*
X0217147Y0080976D02*
X0217150Y0080976D01*
X0217147Y0080378D02*
X0217150Y0080378D01*
X0217147Y0079779D02*
X0217150Y0079779D01*
X0217147Y0079181D02*
X0217150Y0079181D01*
X0217147Y0078582D02*
X0217150Y0078582D01*
X0217147Y0077984D02*
X0217150Y0077984D01*
X0217147Y0077385D02*
X0217150Y0077385D01*
X0217147Y0076787D02*
X0217150Y0076787D01*
X0217147Y0076188D02*
X0217150Y0076188D01*
X0217147Y0075590D02*
X0217150Y0075590D01*
X0217147Y0074991D02*
X0217150Y0074991D01*
X0217147Y0074393D02*
X0217150Y0074393D01*
X0217147Y0073794D02*
X0217150Y0073794D01*
X0217147Y0073196D02*
X0217150Y0073196D01*
X0217147Y0072597D02*
X0217150Y0072597D01*
X0217147Y0071999D02*
X0217150Y0071999D01*
X0217147Y0071400D02*
X0217150Y0071400D01*
X0217150Y0070802D02*
X0203943Y0070802D01*
X0203942Y0071400D02*
X0203343Y0071400D01*
X0203342Y0070802D02*
X0189046Y0070802D01*
X0189046Y0071400D02*
X0190138Y0071400D01*
X0190138Y0071999D02*
X0189046Y0071999D01*
X0189046Y0072597D02*
X0190138Y0072597D01*
X0190138Y0073196D02*
X0189046Y0073196D01*
X0189046Y0073794D02*
X0190138Y0073794D01*
X0190138Y0074393D02*
X0189046Y0074393D01*
X0189046Y0074991D02*
X0190138Y0074991D01*
X0190138Y0075590D02*
X0189046Y0075590D01*
X0188599Y0076188D02*
X0190138Y0076188D01*
X0190138Y0076787D02*
X0188000Y0076787D01*
X0187402Y0077385D02*
X0190138Y0077385D01*
X0190138Y0077984D02*
X0186803Y0077984D01*
X0186205Y0078582D02*
X0190138Y0078582D01*
X0190138Y0079181D02*
X0185606Y0079181D01*
X0185008Y0079779D02*
X0190138Y0079779D01*
X0190138Y0080378D02*
X0184409Y0080378D01*
X0183811Y0080976D02*
X0190138Y0080976D01*
X0190138Y0081575D02*
X0183212Y0081575D01*
X0181401Y0082173D02*
X0190366Y0082173D01*
X0182626Y0076787D02*
X0178869Y0076787D01*
X0179352Y0077385D02*
X0182028Y0077385D01*
X0174994Y0083969D02*
X0170732Y0083969D01*
X0171331Y0083370D02*
X0174395Y0083370D01*
X0174470Y0083445D02*
X0174470Y0083445D01*
X0170600Y0089356D02*
X0217150Y0089356D01*
X0217150Y0089954D02*
X0170600Y0089954D01*
X0174539Y0096538D02*
X0176169Y0096538D01*
X0176364Y0097136D02*
X0175137Y0097136D01*
X0175401Y0097735D02*
X0176646Y0097735D01*
X0177032Y0098333D02*
X0175605Y0098333D01*
X0175605Y0098932D02*
X0177558Y0098932D01*
X0178299Y0099530D02*
X0175605Y0099530D01*
X0176778Y0100129D02*
X0179597Y0100129D01*
X0179106Y0100727D02*
X0177155Y0100727D01*
X0177155Y0101326D02*
X0177979Y0101326D01*
X0177381Y0101924D02*
X0177155Y0101924D01*
X0184437Y0100129D02*
X0185037Y0100129D01*
X0185037Y0099530D02*
X0184437Y0099530D01*
X0184437Y0098932D02*
X0185037Y0098932D01*
X0185037Y0098333D02*
X0184437Y0098333D01*
X0184437Y0097735D02*
X0185037Y0097735D01*
X0185037Y0097136D02*
X0184437Y0097136D01*
X0184437Y0096538D02*
X0185037Y0096538D01*
X0185037Y0094742D02*
X0184437Y0094742D01*
X0184437Y0094144D02*
X0185037Y0094144D01*
X0185037Y0093545D02*
X0184437Y0093545D01*
X0184437Y0092947D02*
X0185037Y0092947D01*
X0185037Y0092348D02*
X0184437Y0092348D01*
X0184437Y0091750D02*
X0185037Y0091750D01*
X0185037Y0091151D02*
X0184437Y0091151D01*
X0184437Y0090553D02*
X0185037Y0090553D01*
X0189885Y0090553D02*
X0217150Y0090553D01*
X0217150Y0091151D02*
X0191179Y0091151D01*
X0191918Y0091750D02*
X0217150Y0091750D01*
X0217150Y0092348D02*
X0192444Y0092348D01*
X0192829Y0092947D02*
X0217150Y0092947D01*
X0217150Y0093545D02*
X0193111Y0093545D01*
X0193306Y0094144D02*
X0217150Y0094144D01*
X0217150Y0094742D02*
X0193405Y0094742D01*
X0203343Y0082173D02*
X0203942Y0082173D01*
X0203942Y0081575D02*
X0203343Y0081575D01*
X0203343Y0080976D02*
X0203942Y0080976D01*
X0203942Y0080378D02*
X0203343Y0080378D01*
X0203343Y0079779D02*
X0203942Y0079779D01*
X0203942Y0079181D02*
X0203343Y0079181D01*
X0203343Y0078582D02*
X0203942Y0078582D01*
X0203942Y0077984D02*
X0203343Y0077984D01*
X0203343Y0077385D02*
X0203942Y0077385D01*
X0203942Y0076787D02*
X0203343Y0076787D01*
X0203343Y0076188D02*
X0203942Y0076188D01*
X0203942Y0075590D02*
X0203343Y0075590D01*
X0203343Y0074991D02*
X0203942Y0074991D01*
X0203942Y0074393D02*
X0203343Y0074393D01*
X0203343Y0073794D02*
X0203942Y0073794D01*
X0203942Y0073196D02*
X0203343Y0073196D01*
X0203343Y0072597D02*
X0203942Y0072597D01*
X0203942Y0071999D02*
X0203343Y0071999D01*
X0203343Y0070203D02*
X0203942Y0070203D01*
X0203942Y0069605D02*
X0203343Y0069605D01*
X0203343Y0069006D02*
X0203942Y0069006D01*
X0203942Y0068408D02*
X0203343Y0068408D01*
X0203343Y0067809D02*
X0203942Y0067809D01*
X0203942Y0067211D02*
X0203343Y0067211D01*
X0203343Y0066612D02*
X0203942Y0066612D01*
X0203942Y0066014D02*
X0203343Y0066014D01*
X0203343Y0065415D02*
X0203942Y0065415D01*
X0203942Y0064817D02*
X0203343Y0064817D01*
X0203343Y0064218D02*
X0203942Y0064218D01*
X0203942Y0063620D02*
X0203343Y0063620D01*
X0203343Y0063021D02*
X0203942Y0063021D01*
X0203942Y0062423D02*
X0203343Y0062423D01*
X0203343Y0061824D02*
X0203942Y0061824D01*
X0203942Y0061226D02*
X0203343Y0061226D01*
X0203343Y0060627D02*
X0203942Y0060627D01*
X0203942Y0060029D02*
X0203343Y0060029D01*
X0203343Y0059430D02*
X0203942Y0059430D01*
X0201108Y0056076D02*
X0200346Y0055315D01*
X0200346Y0041970D01*
X0201108Y0041209D01*
X0214453Y0041209D01*
X0215214Y0041970D01*
X0215214Y0055315D01*
X0214453Y0056076D01*
X0201108Y0056076D01*
X0200871Y0055839D02*
X0198214Y0055839D01*
X0198242Y0055801D02*
X0197847Y0056345D01*
X0197372Y0056820D01*
X0196829Y0057215D01*
X0196230Y0057520D01*
X0195591Y0057727D01*
X0194927Y0057832D01*
X0194891Y0057832D01*
X0194891Y0053864D01*
X0198860Y0053864D01*
X0198860Y0053900D01*
X0198755Y0054563D01*
X0198547Y0055202D01*
X0198242Y0055801D01*
X0198528Y0055240D02*
X0200346Y0055240D01*
X0200346Y0054642D02*
X0198729Y0054642D01*
X0198837Y0054043D02*
X0200346Y0054043D01*
X0200346Y0053445D02*
X0194891Y0053445D01*
X0194891Y0054043D02*
X0194291Y0054043D01*
X0194291Y0054642D02*
X0194891Y0054642D01*
X0194891Y0055240D02*
X0194291Y0055240D01*
X0194291Y0055839D02*
X0194891Y0055839D01*
X0194891Y0056437D02*
X0194291Y0056437D01*
X0194291Y0057036D02*
X0194891Y0057036D01*
X0194891Y0057634D02*
X0194291Y0057634D01*
X0193307Y0057634D02*
X0189046Y0057634D01*
X0189046Y0057036D02*
X0192108Y0057036D01*
X0191428Y0056437D02*
X0189981Y0056437D01*
X0190415Y0055839D02*
X0190968Y0055839D01*
X0190655Y0055240D02*
X0190415Y0055240D01*
X0190415Y0054642D02*
X0190453Y0054642D01*
X0190415Y0052248D02*
X0190531Y0052248D01*
X0190415Y0051649D02*
X0190776Y0051649D01*
X0190415Y0051051D02*
X0191141Y0051051D01*
X0191666Y0050452D02*
X0190271Y0050452D01*
X0189673Y0049854D02*
X0192470Y0049854D01*
X0194291Y0049854D02*
X0194891Y0049854D01*
X0194891Y0050452D02*
X0194291Y0050452D01*
X0194291Y0051051D02*
X0194891Y0051051D01*
X0194891Y0051649D02*
X0194291Y0051649D01*
X0194291Y0052248D02*
X0194891Y0052248D01*
X0194891Y0052846D02*
X0194291Y0052846D01*
X0197516Y0050452D02*
X0200346Y0050452D01*
X0200346Y0049854D02*
X0196712Y0049854D01*
X0198042Y0051051D02*
X0200346Y0051051D01*
X0200346Y0051649D02*
X0198407Y0051649D01*
X0198652Y0052248D02*
X0200346Y0052248D01*
X0200346Y0052846D02*
X0198799Y0052846D01*
X0197754Y0056437D02*
X0217150Y0056437D01*
X0217150Y0055839D02*
X0214690Y0055839D01*
X0215214Y0055240D02*
X0217150Y0055240D01*
X0217150Y0054642D02*
X0215214Y0054642D01*
X0215214Y0054043D02*
X0217150Y0054043D01*
X0217150Y0053445D02*
X0215214Y0053445D01*
X0215214Y0052846D02*
X0217150Y0052846D01*
X0217150Y0052248D02*
X0215214Y0052248D01*
X0215214Y0051649D02*
X0217150Y0051649D01*
X0217150Y0051051D02*
X0215214Y0051051D01*
X0215214Y0050452D02*
X0217150Y0050452D01*
X0217150Y0049854D02*
X0215214Y0049854D01*
X0215214Y0049255D02*
X0217150Y0049255D01*
X0217150Y0048657D02*
X0215214Y0048657D01*
X0215214Y0048058D02*
X0217150Y0048058D01*
X0217150Y0047460D02*
X0215214Y0047460D01*
X0215214Y0046861D02*
X0217150Y0046861D01*
X0217150Y0046263D02*
X0215214Y0046263D01*
X0215214Y0045664D02*
X0217150Y0045664D01*
X0217150Y0045066D02*
X0215214Y0045066D01*
X0215214Y0044467D02*
X0217150Y0044467D01*
X0217150Y0043869D02*
X0215214Y0043869D01*
X0215214Y0043270D02*
X0217150Y0043270D01*
X0217150Y0042672D02*
X0215214Y0042672D01*
X0215214Y0042073D02*
X0217150Y0042073D01*
X0217150Y0041475D02*
X0214719Y0041475D01*
X0217150Y0040876D02*
X0197783Y0040876D01*
X0198210Y0041303D02*
X0198860Y0042872D01*
X0198860Y0044570D01*
X0198210Y0046139D01*
X0197009Y0047340D01*
X0195440Y0047990D01*
X0193742Y0047990D01*
X0192173Y0047340D01*
X0190973Y0046139D01*
X0190323Y0044570D01*
X0190323Y0042872D01*
X0190798Y0041726D01*
X0190639Y0041726D01*
X0189878Y0040964D01*
X0189878Y0035636D01*
X0190639Y0034874D01*
X0195850Y0034874D01*
X0196612Y0035636D01*
X0196612Y0039938D01*
X0197009Y0040103D01*
X0198210Y0041303D01*
X0198281Y0041475D02*
X0200842Y0041475D01*
X0200346Y0042073D02*
X0198529Y0042073D01*
X0198777Y0042672D02*
X0200346Y0042672D01*
X0200346Y0043270D02*
X0198860Y0043270D01*
X0198860Y0043869D02*
X0200346Y0043869D01*
X0200346Y0044467D02*
X0198860Y0044467D01*
X0198655Y0045066D02*
X0200346Y0045066D01*
X0200346Y0045664D02*
X0198407Y0045664D01*
X0198086Y0046263D02*
X0200346Y0046263D01*
X0200346Y0046861D02*
X0197488Y0046861D01*
X0196720Y0047460D02*
X0200346Y0047460D01*
X0200346Y0048058D02*
X0169151Y0048058D01*
X0169151Y0047460D02*
X0172778Y0047460D01*
X0172010Y0046861D02*
X0169151Y0046861D01*
X0169151Y0046263D02*
X0171411Y0046263D01*
X0171091Y0045664D02*
X0169151Y0045664D01*
X0169151Y0045066D02*
X0170843Y0045066D01*
X0170638Y0044467D02*
X0169151Y0044467D01*
X0169151Y0043869D02*
X0170638Y0043869D01*
X0170638Y0043270D02*
X0169151Y0043270D01*
X0169151Y0042672D02*
X0170721Y0042672D01*
X0170969Y0042073D02*
X0169151Y0042073D01*
X0168656Y0041475D02*
X0171217Y0041475D01*
X0171715Y0040876D02*
X0144600Y0040876D01*
X0144600Y0040278D02*
X0172313Y0040278D01*
X0172488Y0039679D02*
X0144600Y0039679D01*
X0144600Y0039081D02*
X0172488Y0039081D01*
X0172488Y0038482D02*
X0144600Y0038482D01*
X0144600Y0037884D02*
X0172488Y0037884D01*
X0172488Y0037285D02*
X0144600Y0037285D01*
X0144600Y0036687D02*
X0172488Y0036687D01*
X0172488Y0036088D02*
X0144600Y0036088D01*
X0144631Y0035490D02*
X0172634Y0035490D01*
X0173233Y0034891D02*
X0144779Y0034891D01*
X0145027Y0034293D02*
X0217150Y0034293D01*
X0217150Y0034891D02*
X0195867Y0034891D01*
X0196466Y0035490D02*
X0217150Y0035490D01*
X0217150Y0036088D02*
X0196612Y0036088D01*
X0196612Y0036687D02*
X0217150Y0036687D01*
X0217150Y0037285D02*
X0196612Y0037285D01*
X0196612Y0037884D02*
X0217150Y0037884D01*
X0217150Y0038482D02*
X0196612Y0038482D01*
X0196612Y0039081D02*
X0217150Y0039081D01*
X0217150Y0039679D02*
X0196612Y0039679D01*
X0197184Y0040278D02*
X0217150Y0040278D01*
X0217150Y0033694D02*
X0145467Y0033694D01*
X0146128Y0033096D02*
X0217150Y0033096D01*
X0200346Y0048657D02*
X0169151Y0048657D01*
X0169151Y0049255D02*
X0200346Y0049255D01*
X0192463Y0047460D02*
X0186814Y0047460D01*
X0187645Y0046861D02*
X0191695Y0046861D01*
X0191096Y0046263D02*
X0188178Y0046263D01*
X0188549Y0045664D02*
X0190776Y0045664D01*
X0190528Y0045066D02*
X0188800Y0045066D01*
X0188952Y0044467D02*
X0190323Y0044467D01*
X0190323Y0043869D02*
X0185049Y0043869D01*
X0188999Y0043270D02*
X0190323Y0043270D01*
X0190406Y0042672D02*
X0188896Y0042672D01*
X0188700Y0042073D02*
X0190654Y0042073D01*
X0190388Y0041475D02*
X0189206Y0041475D01*
X0189647Y0040876D02*
X0189878Y0040876D01*
X0189878Y0040278D02*
X0189722Y0040278D01*
X0189722Y0039679D02*
X0189878Y0039679D01*
X0189878Y0039081D02*
X0189722Y0039081D01*
X0189878Y0038482D02*
X0186655Y0038482D01*
X0186655Y0037884D02*
X0186112Y0037884D01*
X0186055Y0038000D02*
X0183045Y0038000D01*
X0183045Y0038600D01*
X0186055Y0038600D01*
X0186055Y0038000D01*
X0186055Y0038482D02*
X0183045Y0038482D01*
X0182445Y0038482D02*
X0179222Y0038482D01*
X0179378Y0038000D02*
X0179378Y0036003D01*
X0179467Y0035672D01*
X0179638Y0035376D01*
X0179880Y0035134D01*
X0180176Y0034963D01*
X0180507Y0034874D01*
X0182445Y0034874D01*
X0182445Y0038000D01*
X0179378Y0038000D01*
X0179378Y0037884D02*
X0179222Y0037884D01*
X0179222Y0037285D02*
X0179378Y0037285D01*
X0179378Y0036687D02*
X0179222Y0036687D01*
X0179222Y0036088D02*
X0179378Y0036088D01*
X0179572Y0035490D02*
X0179076Y0035490D01*
X0178478Y0034891D02*
X0180443Y0034891D01*
X0182445Y0034891D02*
X0183045Y0034891D01*
X0183045Y0035490D02*
X0182445Y0035490D01*
X0182445Y0036088D02*
X0182988Y0036088D01*
X0182988Y0036687D02*
X0182445Y0036687D01*
X0182445Y0037285D02*
X0182988Y0037285D01*
X0182988Y0037884D02*
X0182445Y0037884D01*
X0186112Y0037285D02*
X0186655Y0037285D01*
X0186655Y0036687D02*
X0186112Y0036687D01*
X0186112Y0036088D02*
X0186655Y0036088D01*
X0186655Y0035490D02*
X0186055Y0035490D01*
X0186055Y0034891D02*
X0186655Y0034891D01*
X0188657Y0034891D02*
X0190622Y0034891D01*
X0190024Y0035490D02*
X0189528Y0035490D01*
X0189722Y0036088D02*
X0189878Y0036088D01*
X0189878Y0036687D02*
X0189722Y0036687D01*
X0189722Y0037285D02*
X0189878Y0037285D01*
X0189878Y0037884D02*
X0189722Y0037884D01*
X0180798Y0042073D02*
X0178844Y0042073D01*
X0178712Y0041475D02*
X0179894Y0041475D01*
X0179453Y0040876D02*
X0179222Y0040876D01*
X0179222Y0040278D02*
X0179378Y0040278D01*
X0179378Y0039679D02*
X0179222Y0039679D01*
X0179222Y0039081D02*
X0179378Y0039081D01*
X0179092Y0042672D02*
X0180602Y0042672D01*
X0180499Y0043270D02*
X0179175Y0043270D01*
X0195876Y0057634D02*
X0217150Y0057634D01*
X0217150Y0057036D02*
X0197074Y0057036D01*
X0190364Y0059430D02*
X0189046Y0059430D01*
X0189046Y0058832D02*
X0217150Y0058832D01*
X0217150Y0059430D02*
X0216921Y0059430D01*
X0217147Y0060029D02*
X0217150Y0060029D01*
X0217147Y0060627D02*
X0217150Y0060627D01*
X0217147Y0061226D02*
X0217150Y0061226D01*
X0217147Y0061824D02*
X0217150Y0061824D01*
X0217147Y0062423D02*
X0217150Y0062423D01*
X0217147Y0063021D02*
X0217150Y0063021D01*
X0217147Y0063620D02*
X0217150Y0063620D01*
X0217147Y0064218D02*
X0217150Y0064218D01*
X0217147Y0064817D02*
X0217150Y0064817D01*
X0217147Y0065415D02*
X0217150Y0065415D01*
X0217147Y0066014D02*
X0217150Y0066014D01*
X0217147Y0066612D02*
X0217150Y0066612D01*
X0217147Y0067211D02*
X0217150Y0067211D01*
X0217147Y0067809D02*
X0217150Y0067809D01*
X0217147Y0068408D02*
X0217150Y0068408D01*
X0217147Y0069006D02*
X0217150Y0069006D01*
X0217147Y0069605D02*
X0217150Y0069605D01*
X0217147Y0070203D02*
X0217150Y0070203D01*
X0217150Y0058233D02*
X0189046Y0058233D01*
X0189046Y0060029D02*
X0190138Y0060029D01*
X0190138Y0060627D02*
X0189046Y0060627D01*
X0189046Y0061226D02*
X0190138Y0061226D01*
X0190138Y0061824D02*
X0189046Y0061824D01*
X0189046Y0062423D02*
X0190138Y0062423D01*
X0190138Y0063021D02*
X0189046Y0063021D01*
X0189046Y0063620D02*
X0190138Y0063620D01*
X0190138Y0064218D02*
X0189046Y0064218D01*
X0189046Y0064817D02*
X0190138Y0064817D01*
X0190138Y0065415D02*
X0189046Y0065415D01*
X0189046Y0066014D02*
X0190138Y0066014D01*
X0190138Y0066612D02*
X0189046Y0066612D01*
X0189046Y0067211D02*
X0190138Y0067211D01*
X0190138Y0067809D02*
X0189046Y0067809D01*
X0189046Y0068408D02*
X0190138Y0068408D01*
X0190138Y0069006D02*
X0189046Y0069006D01*
X0189046Y0069605D02*
X0190138Y0069605D01*
X0190138Y0070203D02*
X0189046Y0070203D01*
X0160630Y0062969D02*
X0160256Y0062594D01*
X0160256Y0056076D01*
X0157265Y0056076D01*
X0157344Y0056373D01*
X0157344Y0059000D01*
X0153195Y0059000D01*
X0153195Y0059600D01*
X0157344Y0059600D01*
X0157344Y0062227D01*
X0157255Y0062558D01*
X0157084Y0062854D01*
X0156970Y0062969D01*
X0160630Y0062969D01*
X0160256Y0062423D02*
X0157292Y0062423D01*
X0157344Y0061824D02*
X0160256Y0061824D01*
X0160256Y0061226D02*
X0157344Y0061226D01*
X0157344Y0060627D02*
X0160256Y0060627D01*
X0160256Y0060029D02*
X0157344Y0060029D01*
X0157344Y0058832D02*
X0160256Y0058832D01*
X0160256Y0059430D02*
X0153195Y0059430D01*
X0153194Y0058832D02*
X0152595Y0058832D01*
X0152594Y0059430D02*
X0057716Y0059430D01*
X0058314Y0058832D02*
X0148445Y0058832D01*
X0148445Y0058233D02*
X0058913Y0058233D01*
X0059511Y0057634D02*
X0063265Y0057634D01*
X0062027Y0057036D02*
X0060110Y0057036D01*
X0060708Y0056437D02*
X0061428Y0056437D01*
X0065918Y0057634D02*
X0138378Y0057634D01*
X0138520Y0057634D02*
X0148445Y0057634D01*
X0148445Y0057036D02*
X0140987Y0057036D01*
X0140181Y0057468D02*
X0140181Y0057468D01*
X0142103Y0056437D02*
X0148445Y0056437D01*
X0148651Y0055839D02*
X0142758Y0055839D01*
X0143248Y0055240D02*
X0154283Y0055240D01*
X0154283Y0054642D02*
X0143738Y0054642D01*
X0144079Y0054043D02*
X0154283Y0054043D01*
X0154283Y0053445D02*
X0144259Y0053445D01*
X0144440Y0052846D02*
X0154283Y0052846D01*
X0154283Y0052248D02*
X0144621Y0052248D01*
X0144691Y0051649D02*
X0154283Y0051649D01*
X0154283Y0051051D02*
X0144632Y0051051D01*
X0144600Y0050452D02*
X0154283Y0050452D01*
X0154283Y0049854D02*
X0144600Y0049854D01*
X0144600Y0049255D02*
X0154283Y0049255D01*
X0154283Y0048657D02*
X0144600Y0048657D01*
X0144600Y0048058D02*
X0154283Y0048058D01*
X0154283Y0047460D02*
X0144600Y0047460D01*
X0144600Y0046861D02*
X0154283Y0046861D01*
X0154283Y0046263D02*
X0144600Y0046263D01*
X0144600Y0045664D02*
X0154283Y0045664D01*
X0154283Y0045066D02*
X0144600Y0045066D01*
X0144600Y0044467D02*
X0154283Y0044467D01*
X0154283Y0043869D02*
X0144600Y0043869D01*
X0144600Y0043270D02*
X0154283Y0043270D01*
X0154283Y0042672D02*
X0144600Y0042672D01*
X0144600Y0042073D02*
X0154283Y0042073D01*
X0154779Y0041475D02*
X0144600Y0041475D01*
X0152595Y0055839D02*
X0153194Y0055839D01*
X0153194Y0056437D02*
X0152595Y0056437D01*
X0152595Y0057036D02*
X0153194Y0057036D01*
X0153194Y0057634D02*
X0152595Y0057634D01*
X0152595Y0058233D02*
X0153194Y0058233D01*
X0157344Y0058233D02*
X0160256Y0058233D01*
X0160256Y0057634D02*
X0157344Y0057634D01*
X0157344Y0057036D02*
X0160256Y0057036D01*
X0160256Y0056437D02*
X0157344Y0056437D01*
X0148445Y0060029D02*
X0057117Y0060029D01*
X0056519Y0060627D02*
X0148445Y0060627D01*
X0158769Y0098932D02*
X0168731Y0098932D01*
X0169329Y0099530D02*
X0158171Y0099530D01*
X0156445Y0101326D02*
X0156375Y0101326D01*
X0156445Y0101924D02*
X0155856Y0101924D01*
X0155856Y0102523D02*
X0156445Y0102523D01*
X0156445Y0103121D02*
X0155856Y0103121D01*
X0161195Y0103720D02*
X0168256Y0103720D01*
X0168256Y0104318D02*
X0165344Y0104318D01*
X0165344Y0104917D02*
X0168256Y0104917D01*
X0168256Y0105515D02*
X0165344Y0105515D01*
X0165344Y0106114D02*
X0168256Y0106114D01*
X0168256Y0103121D02*
X0165344Y0103121D01*
X0165344Y0102523D02*
X0168256Y0102523D01*
X0168256Y0101924D02*
X0165344Y0101924D01*
X0165344Y0101326D02*
X0168256Y0101326D01*
X0168256Y0100727D02*
X0165305Y0100727D01*
X0164967Y0100129D02*
X0168633Y0100129D01*
X0171324Y0117486D02*
X0179488Y0117486D01*
X0180086Y0118084D02*
X0171142Y0118084D01*
X0135600Y0149805D02*
X0135000Y0149805D01*
X0135000Y0150404D02*
X0135600Y0150404D01*
X0135600Y0151002D02*
X0135000Y0151002D01*
X0135000Y0151601D02*
X0135600Y0151601D01*
X0135600Y0152199D02*
X0135000Y0152199D01*
X0135000Y0153995D02*
X0135600Y0153995D01*
X0135600Y0154593D02*
X0135000Y0154593D01*
X0135000Y0155192D02*
X0135600Y0155192D01*
X0135600Y0155790D02*
X0135000Y0155790D01*
X0066760Y0092947D02*
X0066000Y0092947D01*
X0066000Y0088900D02*
X0067291Y0088900D01*
X0067291Y0083749D01*
X0066211Y0083749D01*
X0066000Y0083662D01*
X0066000Y0085714D01*
X0065949Y0085765D01*
X0066000Y0085954D01*
X0066000Y0086975D01*
X0062450Y0086975D01*
X0062450Y0087475D01*
X0066000Y0087475D01*
X0066000Y0088496D01*
X0065949Y0088686D01*
X0066000Y0088736D01*
X0066000Y0088900D01*
X0066000Y0088757D02*
X0067291Y0088757D01*
X0067291Y0088159D02*
X0066000Y0088159D01*
X0066000Y0087560D02*
X0067291Y0087560D01*
X0067291Y0086962D02*
X0066000Y0086962D01*
X0066000Y0086363D02*
X0067291Y0086363D01*
X0067291Y0085765D02*
X0065950Y0085765D01*
X0066000Y0085166D02*
X0067291Y0085166D01*
X0067291Y0084568D02*
X0066000Y0084568D01*
X0066000Y0083969D02*
X0067291Y0083969D01*
X0074222Y0078582D02*
X0074378Y0078582D01*
X0074378Y0077984D02*
X0074222Y0077984D01*
X0074222Y0077385D02*
X0074378Y0077385D01*
X0074378Y0076787D02*
X0074222Y0076787D01*
X0074222Y0076188D02*
X0074378Y0076188D01*
X0074378Y0075590D02*
X0074222Y0075590D01*
X0074222Y0074991D02*
X0074378Y0074991D01*
X0074378Y0074393D02*
X0074222Y0074393D01*
X0073841Y0073794D02*
X0074759Y0073794D01*
X0067156Y0057036D02*
X0088685Y0057036D01*
X0087731Y0056641D02*
X0087731Y0056641D01*
X0087528Y0056437D02*
X0067754Y0056437D01*
X0068269Y0055839D02*
X0070871Y0055839D01*
X0070346Y0055240D02*
X0068517Y0055240D01*
X0068765Y0054642D02*
X0070346Y0054642D01*
X0070346Y0054043D02*
X0068860Y0054043D01*
X0068860Y0053445D02*
X0070346Y0053445D01*
X0070346Y0052846D02*
X0068860Y0052846D01*
X0068666Y0052248D02*
X0070346Y0052248D01*
X0070346Y0051649D02*
X0068419Y0051649D01*
X0068115Y0051051D02*
X0070346Y0051051D01*
X0070346Y0050452D02*
X0067516Y0050452D01*
X0066789Y0049854D02*
X0070346Y0049854D01*
X0084690Y0055839D02*
X0086929Y0055839D01*
X0086331Y0055240D02*
X0085214Y0055240D01*
X0085214Y0054642D02*
X0085865Y0054642D01*
X0085617Y0054043D02*
X0085214Y0054043D01*
X0085214Y0053445D02*
X0085369Y0053445D01*
X0085000Y0041475D02*
X0084719Y0041475D01*
X0032157Y0090553D02*
X0028650Y0090553D01*
X0039226Y0109705D02*
X0042735Y0109705D01*
X0042511Y0110303D02*
X0039226Y0110303D01*
X0039226Y0110902D02*
X0042511Y0110902D01*
X0042571Y0111501D02*
X0039226Y0111501D01*
X0039226Y0112099D02*
X0042819Y0112099D01*
X0043253Y0112698D02*
X0039226Y0112698D01*
X0039226Y0113296D02*
X0044038Y0113296D01*
D28*
X0045300Y0110800D03*
X0049800Y0110300D03*
X0057800Y0111800D03*
X0060800Y0107300D03*
X0065300Y0107800D03*
X0063800Y0111800D03*
X0053800Y0100800D03*
X0054800Y0096300D03*
X0054800Y0086800D03*
X0050300Y0086800D03*
X0043800Y0083800D03*
X0041300Y0077300D03*
X0047300Y0077300D03*
X0055800Y0078300D03*
X0064300Y0075300D03*
X0066766Y0080960D03*
X0093300Y0078800D03*
X0093300Y0091800D03*
X0096300Y0061300D03*
X0106300Y0061300D03*
X0116300Y0061300D03*
X0126300Y0061300D03*
X0157800Y0077300D03*
X0157800Y0080800D03*
X0157800Y0084300D03*
X0169800Y0073300D03*
X0172800Y0070300D03*
X0174800Y0066300D03*
X0176113Y0080987D03*
X0178800Y0083800D03*
X0182800Y0085300D03*
X0136300Y0106300D03*
X0136300Y0116300D03*
X0091300Y0126300D03*
X0061300Y0136300D03*
X0051300Y0141300D03*
X0041800Y0125800D03*
X0028800Y0135800D03*
X0028800Y0115300D03*
X0025300Y0104300D03*
X0040800Y0100800D03*
X0035800Y0090300D03*
X0032800Y0087800D03*
X0035276Y0077776D03*
X0037300Y0067300D03*
X0031800Y0062300D03*
X0045550Y0060550D03*
X0036300Y0036300D03*
X0031300Y0036300D03*
X0071300Y0036300D03*
X0076300Y0036300D03*
D29*
X0064591Y0039646D02*
X0064591Y0043721D01*
X0064591Y0039646D02*
X0063745Y0038800D01*
X0054749Y0040804D02*
X0052745Y0038800D01*
X0054749Y0040804D02*
X0054749Y0043721D01*
X0051300Y0048800D02*
X0045855Y0043355D01*
X0045855Y0042772D01*
X0045855Y0041300D01*
X0045855Y0038800D01*
X0045855Y0042772D02*
X0044906Y0043721D01*
X0051300Y0048800D02*
X0051300Y0054800D01*
X0045550Y0060550D01*
X0040576Y0065524D01*
X0040576Y0071900D01*
X0037426Y0071900D02*
X0037300Y0071900D01*
X0037300Y0067300D01*
X0031800Y0070300D02*
X0031800Y0062300D01*
X0031800Y0070300D02*
X0029127Y0073473D01*
X0028400Y0077776D02*
X0028400Y0077800D01*
X0024800Y0077800D01*
X0023300Y0079300D01*
X0023300Y0102300D01*
X0025300Y0104300D01*
X0034276Y0105700D02*
X0034276Y0126824D01*
X0028800Y0132300D01*
X0028800Y0135800D01*
X0041800Y0125800D02*
X0041800Y0123300D01*
X0037426Y0118926D01*
X0037426Y0105700D01*
X0040576Y0105700D02*
X0040576Y0101024D01*
X0040800Y0100800D01*
X0046875Y0105700D02*
X0046875Y0109725D01*
X0045300Y0110800D01*
X0049800Y0110300D02*
X0050024Y0110076D01*
X0050024Y0105700D01*
X0053174Y0105700D02*
X0053174Y0101426D01*
X0053800Y0100800D01*
X0054800Y0096800D02*
X0057824Y0099824D01*
X0062200Y0099824D01*
X0065300Y0103954D02*
X0070954Y0098800D01*
X0065300Y0103954D02*
X0065300Y0107800D01*
X0060800Y0107300D02*
X0057924Y0107300D01*
X0056324Y0105700D01*
X0054800Y0096800D02*
X0054800Y0096300D01*
X0062200Y0080926D02*
X0066732Y0080926D01*
X0066766Y0080960D01*
X0068130Y0080926D02*
X0062200Y0080926D01*
X0062200Y0077776D02*
X0062200Y0077400D01*
X0064300Y0075300D01*
X0062200Y0077776D02*
X0070253Y0077776D01*
X0070757Y0077272D01*
X0068130Y0080926D02*
X0068136Y0080931D01*
X0074931Y0080931D01*
X0077800Y0083800D01*
X0077800Y0086284D01*
X0077843Y0086328D01*
X0093300Y0091800D02*
X0093300Y0078800D01*
X0064591Y0053564D02*
X0061036Y0053564D01*
X0050024Y0064576D01*
X0050024Y0071900D01*
X0046875Y0071900D02*
X0046875Y0076875D01*
X0047300Y0077300D01*
X0035276Y0077776D02*
X0034276Y0076776D01*
X0034276Y0071900D01*
X0032225Y0087225D02*
X0028400Y0087225D01*
X0032225Y0087225D02*
X0032800Y0087800D01*
X0174906Y0053564D02*
X0180190Y0053564D01*
X0180454Y0053300D01*
X0184749Y0043721D02*
X0184749Y0040304D01*
X0182745Y0038300D01*
X0175855Y0038300D02*
X0174906Y0039249D01*
X0174906Y0043721D01*
X0193245Y0038300D02*
X0194591Y0039646D01*
X0194591Y0043721D01*
D30*
X0174902Y0061824D02*
X0174902Y0068198D01*
X0172800Y0070300D01*
X0169800Y0073300D01*
X0170824Y0079776D02*
X0166900Y0083700D01*
X0166900Y0093000D01*
X0172706Y0098806D01*
X0172706Y0103800D01*
X0157800Y0095800D02*
X0157800Y0093000D01*
X0157800Y0095800D02*
X0151800Y0101800D01*
X0151800Y0102894D01*
X0174902Y0079776D02*
X0176113Y0080987D01*
X0180426Y0085300D01*
X0182800Y0085300D01*
X0183300Y0085300D01*
X0174902Y0079776D02*
X0170824Y0079776D01*
D31*
X0174902Y0079776D02*
X0182324Y0079776D01*
X0187146Y0074954D01*
X0187146Y0053300D01*
X0070954Y0092300D02*
X0070954Y0098800D01*
X0070954Y0092300D02*
X0068800Y0092300D01*
X0067300Y0090800D01*
X0062625Y0090800D01*
X0062200Y0090375D01*
X0061300Y0090375D02*
X0043375Y0090375D01*
X0042800Y0089800D01*
X0042800Y0087300D01*
X0036426Y0080926D01*
X0028400Y0080926D01*
X0031174Y0080926D01*
X0032300Y0079800D01*
X0032300Y0075300D01*
X0030800Y0073800D01*
X0029454Y0073800D01*
X0029127Y0073473D01*
X0028300Y0073146D01*
X0042800Y0089800D02*
X0054300Y0078300D01*
X0055800Y0078300D01*
X0057300Y0079800D01*
X0057300Y0082300D01*
X0059076Y0084076D01*
X0062200Y0084076D01*
X0061924Y0083800D01*
D32*
X0062200Y0090375D02*
X0061300Y0090375D01*
X0058875Y0090375D01*
X0042800Y0089800D02*
X0042800Y0091300D01*
X0028800Y0105300D01*
X0028800Y0115300D01*
X0053174Y0071900D02*
X0053174Y0065926D01*
X0055300Y0063800D01*
X0080300Y0063800D01*
X0080300Y0068800D02*
X0059424Y0068800D01*
X0056324Y0071900D01*
X0080300Y0063800D02*
X0080542Y0063803D01*
X0080783Y0063812D01*
X0081024Y0063826D01*
X0081265Y0063847D01*
X0081505Y0063873D01*
X0081745Y0063905D01*
X0081984Y0063943D01*
X0082221Y0063986D01*
X0082458Y0064036D01*
X0082693Y0064091D01*
X0082927Y0064151D01*
X0083159Y0064218D01*
X0083390Y0064289D01*
X0083619Y0064367D01*
X0083846Y0064450D01*
X0084071Y0064538D01*
X0084294Y0064632D01*
X0084514Y0064731D01*
X0084732Y0064836D01*
X0084947Y0064945D01*
X0085160Y0065060D01*
X0085370Y0065180D01*
X0085576Y0065305D01*
X0085780Y0065435D01*
X0085981Y0065570D01*
X0086178Y0065710D01*
X0086372Y0065854D01*
X0086562Y0066003D01*
X0086748Y0066157D01*
X0086931Y0066315D01*
X0087110Y0066477D01*
X0087285Y0066644D01*
X0087456Y0066815D01*
X0087623Y0066990D01*
X0087785Y0067169D01*
X0087943Y0067352D01*
X0088097Y0067538D01*
X0088246Y0067728D01*
X0088390Y0067922D01*
X0088530Y0068119D01*
X0088665Y0068320D01*
X0088795Y0068524D01*
X0088920Y0068730D01*
X0089040Y0068940D01*
X0089155Y0069153D01*
X0089264Y0069368D01*
X0089369Y0069586D01*
X0089468Y0069806D01*
X0089562Y0070029D01*
X0089650Y0070254D01*
X0089733Y0070481D01*
X0089811Y0070710D01*
X0089882Y0070941D01*
X0089949Y0071173D01*
X0090009Y0071407D01*
X0090064Y0071642D01*
X0090114Y0071879D01*
X0090157Y0072116D01*
X0090195Y0072355D01*
X0090227Y0072595D01*
X0090253Y0072835D01*
X0090274Y0073076D01*
X0090288Y0073317D01*
X0090297Y0073558D01*
X0090300Y0073800D01*
X0090300Y0093800D01*
X0090302Y0093940D01*
X0090308Y0094080D01*
X0090318Y0094220D01*
X0090331Y0094360D01*
X0090349Y0094499D01*
X0090371Y0094638D01*
X0090396Y0094775D01*
X0090425Y0094913D01*
X0090458Y0095049D01*
X0090495Y0095184D01*
X0090536Y0095318D01*
X0090581Y0095451D01*
X0090629Y0095583D01*
X0090681Y0095713D01*
X0090736Y0095842D01*
X0090795Y0095969D01*
X0090858Y0096095D01*
X0090924Y0096219D01*
X0090993Y0096340D01*
X0091066Y0096460D01*
X0091143Y0096578D01*
X0091222Y0096693D01*
X0091305Y0096807D01*
X0091391Y0096917D01*
X0091480Y0097026D01*
X0091572Y0097132D01*
X0091667Y0097235D01*
X0091764Y0097336D01*
X0091865Y0097433D01*
X0091968Y0097528D01*
X0092074Y0097620D01*
X0092183Y0097709D01*
X0092293Y0097795D01*
X0092407Y0097878D01*
X0092522Y0097957D01*
X0092640Y0098034D01*
X0092760Y0098107D01*
X0092881Y0098176D01*
X0093005Y0098242D01*
X0093131Y0098305D01*
X0093258Y0098364D01*
X0093387Y0098419D01*
X0093517Y0098471D01*
X0093649Y0098519D01*
X0093782Y0098564D01*
X0093916Y0098605D01*
X0094051Y0098642D01*
X0094187Y0098675D01*
X0094325Y0098704D01*
X0094462Y0098729D01*
X0094601Y0098751D01*
X0094740Y0098769D01*
X0094880Y0098782D01*
X0095020Y0098792D01*
X0095160Y0098798D01*
X0095300Y0098800D01*
X0135300Y0098800D01*
X0135440Y0098802D01*
X0135580Y0098808D01*
X0135720Y0098818D01*
X0135860Y0098831D01*
X0135999Y0098849D01*
X0136138Y0098871D01*
X0136275Y0098896D01*
X0136413Y0098925D01*
X0136549Y0098958D01*
X0136684Y0098995D01*
X0136818Y0099036D01*
X0136951Y0099081D01*
X0137083Y0099129D01*
X0137213Y0099181D01*
X0137342Y0099236D01*
X0137469Y0099295D01*
X0137595Y0099358D01*
X0137719Y0099424D01*
X0137840Y0099493D01*
X0137960Y0099566D01*
X0138078Y0099643D01*
X0138193Y0099722D01*
X0138307Y0099805D01*
X0138417Y0099891D01*
X0138526Y0099980D01*
X0138632Y0100072D01*
X0138735Y0100167D01*
X0138836Y0100264D01*
X0138933Y0100365D01*
X0139028Y0100468D01*
X0139120Y0100574D01*
X0139209Y0100683D01*
X0139295Y0100793D01*
X0139378Y0100907D01*
X0139457Y0101022D01*
X0139534Y0101140D01*
X0139607Y0101260D01*
X0139676Y0101381D01*
X0139742Y0101505D01*
X0139805Y0101631D01*
X0139864Y0101758D01*
X0139919Y0101887D01*
X0139971Y0102017D01*
X0140019Y0102149D01*
X0140064Y0102282D01*
X0140105Y0102416D01*
X0140142Y0102551D01*
X0140175Y0102687D01*
X0140204Y0102825D01*
X0140229Y0102962D01*
X0140251Y0103101D01*
X0140269Y0103240D01*
X0140282Y0103380D01*
X0140292Y0103520D01*
X0140298Y0103660D01*
X0140300Y0103800D01*
X0140300Y0141221D01*
X0140402Y0141324D01*
X0139930Y0141324D01*
X0135300Y0145954D01*
X0116300Y0147300D02*
X0116300Y0141300D01*
X0116298Y0141119D01*
X0116291Y0140938D01*
X0116280Y0140757D01*
X0116265Y0140576D01*
X0116245Y0140396D01*
X0116221Y0140216D01*
X0116193Y0140037D01*
X0116160Y0139859D01*
X0116123Y0139682D01*
X0116082Y0139505D01*
X0116037Y0139330D01*
X0115987Y0139155D01*
X0115933Y0138982D01*
X0115875Y0138811D01*
X0115813Y0138640D01*
X0115746Y0138472D01*
X0115676Y0138305D01*
X0115602Y0138139D01*
X0115523Y0137976D01*
X0115441Y0137815D01*
X0115355Y0137655D01*
X0115265Y0137498D01*
X0115171Y0137343D01*
X0115074Y0137190D01*
X0114972Y0137040D01*
X0114868Y0136892D01*
X0114759Y0136746D01*
X0114648Y0136604D01*
X0114532Y0136464D01*
X0114414Y0136327D01*
X0114292Y0136192D01*
X0114167Y0136061D01*
X0114039Y0135933D01*
X0113908Y0135808D01*
X0113773Y0135686D01*
X0113636Y0135568D01*
X0113496Y0135452D01*
X0113354Y0135341D01*
X0113208Y0135232D01*
X0113060Y0135128D01*
X0112910Y0135026D01*
X0112757Y0134929D01*
X0112602Y0134835D01*
X0112445Y0134745D01*
X0112285Y0134659D01*
X0112124Y0134577D01*
X0111961Y0134498D01*
X0111795Y0134424D01*
X0111628Y0134354D01*
X0111460Y0134287D01*
X0111289Y0134225D01*
X0111118Y0134167D01*
X0110945Y0134113D01*
X0110770Y0134063D01*
X0110595Y0134018D01*
X0110418Y0133977D01*
X0110241Y0133940D01*
X0110063Y0133907D01*
X0109884Y0133879D01*
X0109704Y0133855D01*
X0109524Y0133835D01*
X0109343Y0133820D01*
X0109162Y0133809D01*
X0108981Y0133802D01*
X0108800Y0133800D01*
X0090300Y0133800D01*
X0090160Y0133798D01*
X0090020Y0133792D01*
X0089880Y0133782D01*
X0089740Y0133769D01*
X0089601Y0133751D01*
X0089462Y0133729D01*
X0089325Y0133704D01*
X0089187Y0133675D01*
X0089051Y0133642D01*
X0088916Y0133605D01*
X0088782Y0133564D01*
X0088649Y0133519D01*
X0088517Y0133471D01*
X0088387Y0133419D01*
X0088258Y0133364D01*
X0088131Y0133305D01*
X0088005Y0133242D01*
X0087881Y0133176D01*
X0087760Y0133107D01*
X0087640Y0133034D01*
X0087522Y0132957D01*
X0087407Y0132878D01*
X0087293Y0132795D01*
X0087183Y0132709D01*
X0087074Y0132620D01*
X0086968Y0132528D01*
X0086865Y0132433D01*
X0086764Y0132336D01*
X0086667Y0132235D01*
X0086572Y0132132D01*
X0086480Y0132026D01*
X0086391Y0131917D01*
X0086305Y0131807D01*
X0086222Y0131693D01*
X0086143Y0131578D01*
X0086066Y0131460D01*
X0085993Y0131340D01*
X0085924Y0131219D01*
X0085858Y0131095D01*
X0085795Y0130969D01*
X0085736Y0130842D01*
X0085681Y0130713D01*
X0085629Y0130583D01*
X0085581Y0130451D01*
X0085536Y0130318D01*
X0085495Y0130184D01*
X0085458Y0130049D01*
X0085425Y0129913D01*
X0085396Y0129775D01*
X0085371Y0129638D01*
X0085349Y0129499D01*
X0085331Y0129360D01*
X0085318Y0129220D01*
X0085308Y0129080D01*
X0085302Y0128940D01*
X0085300Y0128800D01*
X0085300Y0073800D01*
X0085298Y0073660D01*
X0085292Y0073520D01*
X0085282Y0073380D01*
X0085269Y0073240D01*
X0085251Y0073101D01*
X0085229Y0072962D01*
X0085204Y0072825D01*
X0085175Y0072687D01*
X0085142Y0072551D01*
X0085105Y0072416D01*
X0085064Y0072282D01*
X0085019Y0072149D01*
X0084971Y0072017D01*
X0084919Y0071887D01*
X0084864Y0071758D01*
X0084805Y0071631D01*
X0084742Y0071505D01*
X0084676Y0071381D01*
X0084607Y0071260D01*
X0084534Y0071140D01*
X0084457Y0071022D01*
X0084378Y0070907D01*
X0084295Y0070793D01*
X0084209Y0070683D01*
X0084120Y0070574D01*
X0084028Y0070468D01*
X0083933Y0070365D01*
X0083836Y0070264D01*
X0083735Y0070167D01*
X0083632Y0070072D01*
X0083526Y0069980D01*
X0083417Y0069891D01*
X0083307Y0069805D01*
X0083193Y0069722D01*
X0083078Y0069643D01*
X0082960Y0069566D01*
X0082840Y0069493D01*
X0082719Y0069424D01*
X0082595Y0069358D01*
X0082469Y0069295D01*
X0082342Y0069236D01*
X0082213Y0069181D01*
X0082083Y0069129D01*
X0081951Y0069081D01*
X0081818Y0069036D01*
X0081684Y0068995D01*
X0081549Y0068958D01*
X0081413Y0068925D01*
X0081275Y0068896D01*
X0081138Y0068871D01*
X0080999Y0068849D01*
X0080860Y0068831D01*
X0080720Y0068818D01*
X0080580Y0068808D01*
X0080440Y0068802D01*
X0080300Y0068800D01*
X0164706Y0059300D02*
X0172379Y0059300D01*
X0174902Y0061824D01*
X0116300Y0147300D02*
X0116298Y0147440D01*
X0116292Y0147580D01*
X0116282Y0147720D01*
X0116269Y0147860D01*
X0116251Y0147999D01*
X0116229Y0148138D01*
X0116204Y0148275D01*
X0116175Y0148413D01*
X0116142Y0148549D01*
X0116105Y0148684D01*
X0116064Y0148818D01*
X0116019Y0148951D01*
X0115971Y0149083D01*
X0115919Y0149213D01*
X0115864Y0149342D01*
X0115805Y0149469D01*
X0115742Y0149595D01*
X0115676Y0149719D01*
X0115607Y0149840D01*
X0115534Y0149960D01*
X0115457Y0150078D01*
X0115378Y0150193D01*
X0115295Y0150307D01*
X0115209Y0150417D01*
X0115120Y0150526D01*
X0115028Y0150632D01*
X0114933Y0150735D01*
X0114836Y0150836D01*
X0114735Y0150933D01*
X0114632Y0151028D01*
X0114526Y0151120D01*
X0114417Y0151209D01*
X0114307Y0151295D01*
X0114193Y0151378D01*
X0114078Y0151457D01*
X0113960Y0151534D01*
X0113840Y0151607D01*
X0113719Y0151676D01*
X0113595Y0151742D01*
X0113469Y0151805D01*
X0113342Y0151864D01*
X0113213Y0151919D01*
X0113083Y0151971D01*
X0112951Y0152019D01*
X0112818Y0152064D01*
X0112684Y0152105D01*
X0112549Y0152142D01*
X0112413Y0152175D01*
X0112275Y0152204D01*
X0112138Y0152229D01*
X0111999Y0152251D01*
X0111860Y0152269D01*
X0111720Y0152282D01*
X0111580Y0152292D01*
X0111440Y0152298D01*
X0111300Y0152300D01*
X0108646Y0152300D01*
X0108610Y0152302D01*
X0108574Y0152308D01*
X0108539Y0152317D01*
X0108505Y0152330D01*
X0108473Y0152346D01*
X0108443Y0152366D01*
X0108414Y0152389D01*
X0108389Y0152414D01*
X0108366Y0152443D01*
X0108346Y0152473D01*
X0108330Y0152505D01*
X0108317Y0152539D01*
X0108308Y0152574D01*
X0108302Y0152610D01*
X0108300Y0152646D01*
X0108300Y0154300D01*
X0106300Y0156300D01*
X0106174Y0156300D01*
X0103198Y0159276D01*
D33*
X0157800Y0093000D02*
X0157800Y0084300D01*
X0157800Y0083800D02*
X0157800Y0080800D01*
X0157800Y0077300D01*
X0157800Y0068599D01*
D34*
X0184737Y0105339D02*
X0184737Y0116300D01*
X0181076Y0112639D01*
X0165300Y0112639D01*
X0184737Y0116300D02*
X0184737Y0126918D01*
X0184737Y0136918D02*
X0172257Y0136918D01*
X0165300Y0129961D01*
X0175682Y0136918D02*
X0166300Y0146300D01*
X0166643Y0146300D01*
X0169143Y0150300D01*
X0175682Y0136918D02*
X0184737Y0136918D01*
X0076300Y0146300D02*
X0076300Y0148457D01*
X0074457Y0150300D01*
X0076300Y0146300D02*
X0074300Y0144300D01*
X0074300Y0129961D01*
X0073257Y0128918D01*
X0055296Y0128918D01*
X0055296Y0118918D02*
X0068020Y0118918D01*
X0074300Y0112639D01*
M02*
