G75*
%MOIN*%
%OFA0B0*%
%FSLAX25Y25*%
%IPPOS*%
%LPD*%
%AMOC8*
5,1,8,0,0,1.08239X$1,22.5*
%
%ADD10C,0.10643*%
%ADD11C,0.06737*%
%ADD12R,0.13068X0.13068*%
%ADD13R,0.05800X0.03000*%
%ADD14R,0.03000X0.05800*%
%ADD15R,0.04737X0.05131*%
%ADD16R,0.05131X0.04737*%
%ADD17R,0.05131X0.05918*%
%ADD18OC8,0.06800*%
%ADD19R,0.05600X0.09600*%
%ADD20R,0.14973X0.09461*%
%ADD21R,0.25209X0.22060*%
%ADD22R,0.07099X0.04737*%
%ADD23R,0.07099X0.06312*%
%ADD24R,0.06312X0.07099*%
%ADD25C,0.08200*%
%ADD26R,0.10249X0.10249*%
%ADD27R,0.04934X0.05052*%
%ADD28C,0.03778*%
D10*
X0033141Y0157284D03*
X0206639Y0157284D03*
D11*
X0194591Y0053564D03*
X0194591Y0043721D03*
X0184749Y0043721D03*
X0174906Y0043721D03*
X0174906Y0053564D03*
X0064591Y0053564D03*
X0064591Y0043721D03*
X0054749Y0043721D03*
X0044906Y0043721D03*
X0044906Y0053564D03*
D12*
X0031717Y0048643D03*
X0077780Y0048643D03*
X0161717Y0048643D03*
X0207780Y0048643D03*
D13*
X0062200Y0077776D03*
X0062200Y0080926D03*
X0062200Y0084076D03*
X0062200Y0087225D03*
X0062200Y0090375D03*
X0062200Y0093524D03*
X0062200Y0096674D03*
X0062200Y0099824D03*
X0028400Y0099824D03*
X0028400Y0096674D03*
X0028400Y0093524D03*
X0028400Y0090375D03*
X0028400Y0087225D03*
X0028400Y0084076D03*
X0028400Y0080926D03*
X0028400Y0077776D03*
D14*
X0034276Y0071900D03*
X0037426Y0071900D03*
X0040576Y0071900D03*
X0043725Y0071900D03*
X0046875Y0071900D03*
X0050024Y0071900D03*
X0053174Y0071900D03*
X0056324Y0071900D03*
X0056324Y0105700D03*
X0053174Y0105700D03*
X0050024Y0105700D03*
X0046875Y0105700D03*
X0043725Y0105700D03*
X0040576Y0105700D03*
X0037426Y0105700D03*
X0034276Y0105700D03*
D15*
X0028300Y0073146D03*
X0028300Y0066454D03*
X0180454Y0053300D03*
X0187146Y0053300D03*
D16*
X0077646Y0092300D03*
X0070954Y0092300D03*
X0070954Y0098800D03*
X0077646Y0098800D03*
X0108300Y0145954D03*
X0108300Y0152646D03*
X0135300Y0152646D03*
X0135300Y0145954D03*
D17*
X0077843Y0086328D03*
X0070757Y0086328D03*
X0070757Y0077272D03*
X0077843Y0077272D03*
D18*
X0099690Y0112158D03*
X0109690Y0112158D03*
X0119690Y0112158D03*
X0129690Y0112158D03*
X0129690Y0122158D03*
X0119690Y0122158D03*
X0109690Y0122158D03*
X0099690Y0122158D03*
D19*
X0148700Y0093000D03*
X0157800Y0093000D03*
X0166900Y0093000D03*
D20*
X0157800Y0068599D03*
D21*
X0203643Y0070800D03*
X0169143Y0150300D03*
X0074457Y0150300D03*
D22*
X0103198Y0141324D03*
X0103198Y0159276D03*
X0140402Y0159276D03*
X0140402Y0141324D03*
X0174902Y0079776D03*
X0174902Y0061824D03*
D23*
X0164706Y0059300D03*
X0152894Y0059300D03*
X0160894Y0103800D03*
X0172706Y0103800D03*
D24*
X0151800Y0102894D03*
X0151800Y0114706D03*
D25*
X0181037Y0105339D02*
X0188437Y0105339D01*
X0188437Y0095339D02*
X0181037Y0095339D01*
X0181037Y0126918D02*
X0188437Y0126918D01*
X0188437Y0136918D02*
X0181037Y0136918D01*
X0058996Y0128918D02*
X0051596Y0128918D01*
X0051596Y0118918D02*
X0058996Y0118918D01*
D26*
X0074300Y0112639D03*
X0074300Y0129961D03*
X0165300Y0129961D03*
X0165300Y0112639D03*
D27*
X0175855Y0038300D03*
X0182745Y0038300D03*
X0186355Y0038300D03*
X0193245Y0038300D03*
X0063745Y0038800D03*
X0056855Y0038800D03*
X0052745Y0038800D03*
X0045855Y0038800D03*
D28*
X0031300Y0036300D03*
X0036300Y0036300D03*
X0045550Y0060550D03*
X0037300Y0067300D03*
X0031800Y0062300D03*
X0035276Y0077776D03*
X0041300Y0077300D03*
X0047300Y0077300D03*
X0043800Y0083800D03*
X0050300Y0086800D03*
X0054800Y0086800D03*
X0055800Y0078300D03*
X0064300Y0075300D03*
X0066766Y0080960D03*
X0054800Y0096300D03*
X0053800Y0100800D03*
X0060800Y0107300D03*
X0065300Y0107800D03*
X0063800Y0111800D03*
X0057800Y0111800D03*
X0049800Y0110300D03*
X0045300Y0110800D03*
X0040800Y0100800D03*
X0035800Y0090300D03*
X0032800Y0087800D03*
X0025300Y0104300D03*
X0028800Y0115300D03*
X0041800Y0125800D03*
X0028800Y0135800D03*
X0051300Y0141300D03*
X0061300Y0136300D03*
X0091300Y0126300D03*
X0093300Y0091800D03*
X0093300Y0078800D03*
X0096300Y0061300D03*
X0106300Y0061300D03*
X0116300Y0061300D03*
X0126300Y0061300D03*
X0157800Y0077300D03*
X0157800Y0080800D03*
X0157800Y0084300D03*
X0169800Y0073300D03*
X0172800Y0070300D03*
X0174800Y0066300D03*
X0176113Y0080987D03*
X0178800Y0083800D03*
X0182800Y0085300D03*
X0136300Y0106300D03*
X0136300Y0116300D03*
X0076300Y0036300D03*
X0071300Y0036300D03*
M02*
