G75*
%MOIN*%
%OFA0B0*%
%FSLAX25Y25*%
%IPPOS*%
%LPD*%
%AMOC8*
5,1,8,0,0,1.08239X$1,22.5*
%
%ADD10C,0.10643*%
%ADD11C,0.06737*%
%ADD12R,0.13068X0.13068*%
%ADD13R,0.04737X0.05131*%
%ADD14R,0.05131X0.04737*%
%ADD15OC8,0.06800*%
%ADD16R,0.04934X0.05052*%
%ADD17C,0.08200*%
%ADD18R,0.08674X0.04737*%
%ADD19C,0.03778*%
D10*
X0033141Y0157284D03*
X0206639Y0157284D03*
D11*
X0194591Y0053564D03*
X0194591Y0043721D03*
X0184749Y0043721D03*
X0174906Y0043721D03*
X0174906Y0053564D03*
X0064591Y0053564D03*
X0064591Y0043721D03*
X0054749Y0043721D03*
X0044906Y0043721D03*
X0044906Y0053564D03*
D12*
X0031717Y0048643D03*
X0077780Y0048643D03*
X0161717Y0048643D03*
X0207780Y0048643D03*
D13*
X0131146Y0093300D03*
X0124454Y0093300D03*
X0117646Y0093300D03*
X0110954Y0093300D03*
X0104146Y0093300D03*
X0097454Y0093300D03*
X0097454Y0102300D03*
X0104146Y0102300D03*
X0110954Y0102300D03*
X0117646Y0102300D03*
X0124454Y0102300D03*
X0131146Y0102300D03*
X0075146Y0108300D03*
X0068454Y0108300D03*
X0044146Y0117300D03*
X0037454Y0117300D03*
X0047454Y0081800D03*
X0054146Y0081800D03*
G36*
X0061219Y0071008D02*
X0064568Y0067659D01*
X0060941Y0064032D01*
X0057592Y0067381D01*
X0061219Y0071008D01*
G37*
G36*
X0065952Y0066275D02*
X0069301Y0062926D01*
X0065674Y0059299D01*
X0062325Y0062648D01*
X0065952Y0066275D01*
G37*
X0042646Y0062300D03*
X0035954Y0062300D03*
X0025800Y0065954D03*
X0025800Y0072646D03*
D14*
G36*
X0066648Y0076801D02*
X0070275Y0073174D01*
X0066926Y0069825D01*
X0063299Y0073452D01*
X0066648Y0076801D01*
G37*
G36*
X0071295Y0081654D02*
X0074922Y0078027D01*
X0071573Y0074678D01*
X0067946Y0078305D01*
X0071295Y0081654D01*
G37*
G36*
X0076027Y0076922D02*
X0079654Y0073295D01*
X0076305Y0069946D01*
X0072678Y0073573D01*
X0076027Y0076922D01*
G37*
G36*
X0071381Y0072068D02*
X0075008Y0068441D01*
X0071659Y0065092D01*
X0068032Y0068719D01*
X0071381Y0072068D01*
G37*
X0191300Y0069646D03*
X0191300Y0062954D03*
D15*
X0129690Y0112158D03*
X0119690Y0112158D03*
X0109690Y0112158D03*
X0099690Y0112158D03*
X0099690Y0122158D03*
X0109690Y0122158D03*
X0119690Y0122158D03*
X0129690Y0122158D03*
D16*
X0193855Y0080300D03*
X0200745Y0080300D03*
D17*
X0188437Y0095339D02*
X0181037Y0095339D01*
X0181037Y0105339D02*
X0188437Y0105339D01*
X0188437Y0126918D02*
X0181037Y0126918D01*
X0181037Y0136918D02*
X0188437Y0136918D01*
X0058996Y0128918D02*
X0051596Y0128918D01*
X0051596Y0118918D02*
X0058996Y0118918D01*
D18*
X0041796Y0128800D03*
X0028804Y0138800D03*
X0028804Y0118800D03*
X0041796Y0108800D03*
X0028804Y0098800D03*
X0041796Y0088800D03*
X0028804Y0078800D03*
X0041796Y0068800D03*
D19*
X0031300Y0036300D03*
X0036300Y0036300D03*
X0045550Y0060550D03*
X0037300Y0067300D03*
X0031800Y0062300D03*
X0035276Y0077776D03*
X0041300Y0077300D03*
X0047300Y0077300D03*
X0043800Y0083800D03*
X0050300Y0086800D03*
X0054800Y0086800D03*
X0055800Y0078300D03*
X0064300Y0075300D03*
X0066766Y0080960D03*
X0054800Y0096300D03*
X0053800Y0100800D03*
X0060800Y0107300D03*
X0065300Y0107800D03*
X0063800Y0111800D03*
X0057800Y0111800D03*
X0049800Y0110300D03*
X0045300Y0110800D03*
X0040800Y0100800D03*
X0035800Y0090300D03*
X0032800Y0087800D03*
X0025300Y0104300D03*
X0028800Y0115300D03*
X0041800Y0125800D03*
X0028800Y0135800D03*
X0051300Y0141300D03*
X0061300Y0136300D03*
X0091300Y0126300D03*
X0093300Y0091800D03*
X0093300Y0078800D03*
X0096300Y0061300D03*
X0106300Y0061300D03*
X0116300Y0061300D03*
X0126300Y0061300D03*
X0157800Y0077300D03*
X0157800Y0080800D03*
X0157800Y0084300D03*
X0169800Y0073300D03*
X0172800Y0070300D03*
X0174800Y0066300D03*
X0176113Y0080987D03*
X0178800Y0083800D03*
X0182800Y0085300D03*
X0136300Y0106300D03*
X0136300Y0116300D03*
X0076300Y0036300D03*
X0071300Y0036300D03*
M02*
